<svg xmlns="http://www.w3.org/2000/svg" xmlns:xlink="http://www.w3.org/1999/xlink" width="75" height="75" viewBox="0 0 75 75"><defs><style>.a,.c,.d{fill:none;}.b{clip-path:url(#a);}.c{stroke:#1f2539;stroke-linecap:round;}.c,.d{stroke-miterlimit:10;stroke-width:1.5px;}.d{stroke:#bb3c4e;}</style><clipPath id="a"><rect class="a" width="75" height="75" transform="translate(54 1554)"/></clipPath></defs><g transform="translate(-54 -2010)"><g class="b" transform="translate(0 456)"><g transform="translate(54 1554)"><rect class="a" width="75" height="75"/></g></g><g transform="translate(59.3 2014.9)"><g transform="translate(15.399 3.1)"><path class="c" d="M46.671,3.1h22.9a1.452,1.452,0,0,1,1.453,1.453V22.027a1.452,1.452,0,0,1-1.453,1.453H39.253A1.452,1.452,0,0,1,37.8,22.027V4.553A1.452,1.452,0,0,1,39.253,3.1h4.435" transform="translate(-37.8 -3.1)"/><path class="c" d="M75.962,61.9a3.723,3.723,0,0,0,1.759,2.906.472.472,0,0,1,.153.306V66.68a.383.383,0,0,1-.382.382H67.282a.383.383,0,0,1-.382-.382V65.112a.348.348,0,0,1,.153-.306A3.828,3.828,0,0,0,68.812,61.9" transform="translate(-55.773 -39.417)"/><g transform="translate(3.288 4.78)"><line class="c" x2="12.656"/><line class="c" x2="12.656" transform="translate(0 3.48)"/></g><line class="c" x2="26.383" transform="translate(3.288 13.268)"/><line class="c" x2="26.383" transform="translate(3.288 16.633)"/><path class="d" d="M96.827,17.9H88.032A1.028,1.028,0,0,1,87,16.871V11.632A1.028,1.028,0,0,1,88.032,10.6h8.794a1.028,1.028,0,0,1,1.032,1.032v5.277A1.021,1.021,0,0,1,96.827,17.9Z" transform="translate(-68.188 -7.732)"/></g><g transform="translate(2.7 33.696)"><g transform="translate(5.009 6.233)"><line class="c" x2="3.862"/><line class="c" x2="3.862" transform="translate(0 3.594)"/><line class="c" x2="8.947" transform="translate(0 8.833)"/><line class="c" x2="8.947" transform="translate(0 12.35)"/></g><path class="d" d="M32.885,105.035H31.432A1.028,1.028,0,0,1,30.4,104v-3.671A1.028,1.028,0,0,1,31.432,99.3h1.453a1.028,1.028,0,0,1,1.032,1.032V104A1.028,1.028,0,0,1,32.885,105.035Z" transform="translate(-19.808 -94.406)"/><path class="c" d="M9.735,86.5H20.977a1.028,1.028,0,0,1,1.032,1.032v27.339a1.028,1.028,0,0,1-1.032,1.032H5.032A1.028,1.028,0,0,1,4,114.872V87.532A1.028,1.028,0,0,1,5.032,86.5H7.25" transform="translate(-3.503 -86.5)"/><path class="c" d="M18.65,113.586H11.232a1.028,1.028,0,0,1-1.032-1.032V93.932A1.028,1.028,0,0,1,11.232,92.9h11.2a1.028,1.028,0,0,1,1.032,1.032v18.621a1.028,1.028,0,0,1-1.032,1.032H20.868" transform="translate(-7.332 -90.453)"/><circle class="d" cx="0.956" cy="0.956" r="0.956" transform="translate(8.527 25.16)"/><line class="c" y2="2.485" transform="translate(19.004 4.818)"/><line class="c" y2="2.485" transform="translate(19.004 8.947)"/><line class="c" y2="2.485" transform="translate(0 6.806)"/></g><g transform="translate(29.778 35.723)"><path class="c" d="M88.73,99.3h20.877a1.209,1.209,0,0,1,1.3,1.071v13.115a1.183,1.183,0,0,1-1.3,1.071H82a1.209,1.209,0,0,1-1.3-1.071V100.371A1.183,1.183,0,0,1,82,99.3h4.053" transform="translate(-79.476 -96.432)"/><g transform="translate(6.309 6.462)"><line class="c" x2="9.483"/><line class="c" x2="9.483" transform="translate(0 2.6)"/></g><line class="c" x2="19.807" transform="translate(6.309 12.809)"/><line class="c" x2="19.807" transform="translate(6.309 15.333)"/><path class="d" d="M131.712,110.406h-6.08a1.028,1.028,0,0,1-1.032-1.032v-3.441a1.028,1.028,0,0,1,1.032-1.032h6.08a1.028,1.028,0,0,1,1.032,1.032v3.441A1.08,1.08,0,0,1,131.712,110.406Z" transform="translate(-106.591 -99.891)"/><line class="c" x2="32.922" transform="translate(0 0.574)"/><line class="c" x2="2.218" transform="translate(15.333)"/><g transform="translate(9.75 19.854)"><path class="c" d="M103,151.248l6.768-7.494a.244.244,0,0,1,.229,0l6.462,7.494" transform="translate(-103 -143.725)"/><line class="c" y1="7.15" transform="translate(6.883 0.373)"/></g></g></g></g></svg>