<svg xmlns="http://www.w3.org/2000/svg" width="75" height="75" viewBox="0 0 75 75"><defs><style>.a,.b,.c{fill:none;}.b{stroke:#1f2539;}.b,.c{stroke-linecap:round;stroke-miterlimit:10;stroke-width:1.5px;}.c{stroke:#bb3c4e;}</style></defs><g transform="translate(-704 -2008)"><g transform="translate(54 454)"><g transform="translate(650 1554)"><rect class="a" width="75" height="75"/></g></g><g transform="translate(697.481 2008.825)"><g transform="translate(15.519 5.532)"><g transform="translate(0 16.184)"><g transform="translate(39.143 4.021)"><path class="b" d="M119.85,81.518v1.393a3.917,3.917,0,0,1-3.924,3.924h-2.7a3.917,3.917,0,0,1-3.924-3.924V62.824a3.917,3.917,0,0,1,3.924-3.924h2.7a3.917,3.917,0,0,1,3.924,3.924V77.3" transform="translate(-109.3 -58.9)"/></g><path class="b" d="M66.293,58.5a45.4,45.4,0,0,0-7.216-8.06,2.363,2.363,0,0,0-1.1-.506,61.72,61.72,0,0,0-12.406-.464,33.931,33.931,0,0,0-10.128,4.051,1.267,1.267,0,0,0-.549,1.519,3.163,3.163,0,0,0,1.941,1.941,19.121,19.121,0,0,0,9.495-.76c3.038,1.393,5.866,2.321,8.1,1.941-.971,4.051-.633,7.638,1.35,10.676" transform="translate(-26.865 -49.371)"/><path class="b" d="M95.3,119.061c.506-.38,1.013-.76,1.477-1.139a1.687,1.687,0,0,1,1.1-.422h3.418" transform="translate(-61.963 -88.751)"/><path class="b" d="M21.967,65.7l-5.106,2.616a1.89,1.89,0,0,0-.928.971c-1.055,2.405,0,4.389,2.11,6.245a1.884,1.884,0,0,0,1.1.506,16.381,16.381,0,0,1,2.912.76.914.914,0,0,1,.591.886c-.38,6.456,2.785,11.351,6.583,15.951a2.3,2.3,0,0,0,1.941.886c1.35-.042,2.658-.127,3.967-.253" transform="translate(-15.519 -58.81)"/><path class="b" d="M59.086,71.3c3.207,3.08,4.726,8.566,5.57,14.9a3.332,3.332,0,0,1-.506,2.279,14.386,14.386,0,0,1-5.95,4.557" transform="translate(-40.367 -62.047)"/></g><g transform="translate(5.651)"><path class="b" d="M33.252,27.377,28.99,15.1c-.591-1.73,2.194-4.346,4.768-4.937a1.042,1.042,0,0,1,1.224.675l4.895,14.094" transform="translate(-28.91 -10.131)"/><path class="b" d="M70.386,111.5l5.4,15.445a1.054,1.054,0,0,1-.675,1.35c-2.49.717-5.19,3.165-4.684,4.6L64.9,116.986" transform="translate(-49.713 -69.394)"/><path class="b" d="M54.166,25.4,49.777,12.786c-.253-.717-.633-.844-1.477-.886" transform="translate(-40.118 -11.153)"/><path class="b" d="M82.6,106.926c1.055-.042,1.646.169,1.857.8L72.6,73.8" transform="translate(-54.164 -47.602)"/><path class="b" d="M78,157.634c1.013,2.954,10.634-.422,9.579-3.334" transform="translate(-57.285 -94.133)"/></g></g><path class="c" d="M109.435,2.4l3.207,6.5a.317.317,0,0,0,.3.211l7.174,1.055a.387.387,0,0,1,.211.675l-5.19,5.064a.479.479,0,0,0-.127.338l1.224,7.131a.414.414,0,0,1-.591.422l-6.414-3.376a.585.585,0,0,0-.38,0l-6.414,3.376a.4.4,0,0,1-.591-.422l1.224-7.131a.283.283,0,0,0-.127-.338l-5.106-5.064a.4.4,0,0,1,.211-.675l7.174-1.055a.317.317,0,0,0,.3-.211l3.207-6.5A.4.4,0,0,1,109.435,2.4Z" transform="translate(-47.937)"/></g></g></svg>