<svg xmlns="http://www.w3.org/2000/svg" width="75" height="75" viewBox="0 0 75 75"><defs><style>.a,.b,.c{fill:none;}.b{stroke:#1f2539;}.b,.c{stroke-linecap:round;stroke-miterlimit:10;stroke-width:1.5px;}.c{stroke:#bb3c4e;}</style></defs><g transform="translate(-54 -2155)"><g transform="translate(0 456)"><g transform="translate(54 1699)"><rect class="a" width="75" height="75"/><rect class="a" width="75" height="75"/></g></g><g transform="translate(54.5 2160.8)"><g transform="translate(10.5 2.2)"><path class="b" d="M56.511,25.145V3.766A1.565,1.565,0,0,0,54.923,2.2H12.088A1.565,1.565,0,0,0,10.5,3.766v55.8a1.565,1.565,0,0,0,1.588,1.566H47.353" transform="translate(-10.5 -2.2)"/><line class="b" y1="3.07" transform="translate(46.011 46.884)"/><line class="a" x1="1.036" transform="translate(46.011 49.792)"/><line class="a" y2="1.073" transform="translate(36.854 58.927)"/><path class="b" d="M110.3,148.436V140.89a1.579,1.579,0,0,1,1.59-1.59H119.4a.036.036,0,0,1,.037.037l-9.062,9.062" transform="translate(-73.462 -89.508)"/></g><line class="b" x2="12.169" transform="translate(14.606 12.371)"/><line class="b" x2="12.169" transform="translate(14.606 50.142)"/><line class="b" x2="35.915" transform="translate(14.606 21.836)"/><line class="b" x2="22.673" transform="translate(14.606 31.672)"/><line class="b" x2="22.673" transform="translate(14.606 41.508)"/><g transform="translate(39.83 23.914)"><path class="c" d="M110.454,76.358a10.777,10.777,0,0,1,.777,3.958,10.66,10.66,0,1,1-4.882-8.914" transform="translate(-90 -67)"/><path class="b" d="M102.3,73.052l4.956,5.955a.87.87,0,0,0,1.369,0l13.8-16.607" transform="translate(-97.751 -62.4)"/></g></g></g></svg>