<svg xmlns="http://www.w3.org/2000/svg" width="60" height="60" viewBox="0 0 60 60"><defs><style>.a,.b,.c{fill:none;}.b{stroke:#1f2639;}.b,.c{stroke-linecap:round;stroke-miterlimit:10;stroke-width:1.5px;}.c{stroke:#bb3c4f;}</style></defs><g transform="translate(-2330 -18)"><g transform="translate(2330 18)"><rect class="a" width="60" height="60"/><rect class="a" width="60" height="60"/></g><g transform="translate(2330.968 19.1)"><g transform="translate(7.731 13.726)"><g transform="translate(10.948)"><circle class="b" cx="7.672" cy="7.672" r="7.672"/></g><path class="b" d="M46.184,74.726c-11.467,2.744-23.611,2.6-36.314,0a.6.6,0,0,1-.47-.59c.353-11.3,13.114-15.933,23.582-13.868l.235.059s14.29,3.629,14.672-12.274c.265-11.153,3.793-5.547,4.734-2.921C54.741,50.974,54.27,64.37,46.331,70.3a.643.643,0,0,0-.235.59,23.572,23.572,0,0,1,.5,3.275A.535.535,0,0,1,46.184,74.726Z" transform="translate(-9.4 -39.555)"/></g><g transform="translate(7.032 5.9)"><path class="c" d="M14.1,20.712a8.664,8.664,0,0,1,1.8-4.75C19.179,11.624,17.94,5.9,12.511,5.9h-.3c-5.4,0-6.668,5.724-3.393,10.062a8.58,8.58,0,0,1,1.8,4.75" transform="translate(-7.032 -5.9)"/><path class="b" d="M15.977,59.9H21.2c.03,0,.03.03,0,.03l-5.193,1.564c-.03,0-.03.03,0,.03H21.17c.03,0,.03.03,0,.03l-5.223,1.534c-.03,0-.03.03,0,.03h5.341" transform="translate(-13.301 -43.967)"/><line class="b" x2="1.505" transform="translate(4.593 20.831)"/><path class="c" d="M17.9,25.83l.5.5.531-.5.5.5.531-.531.59.59.531-.561.561.561.531-.531" transform="translate(-14.693 -19.928)"/></g></g></g></svg>