<svg xmlns="http://www.w3.org/2000/svg" width="60" height="60" viewBox="0 0 60 60"><defs><style>.a,.b,.c{fill:none;}.b{stroke:#1f2639;}.b,.c{stroke-linecap:round;stroke-miterlimit:10;stroke-width:1.5px;}.c{stroke:#bb3c4f;}</style></defs><rect class="a" width="60" height="60"/><g transform="translate(1.5 -6.8)"><g transform="translate(3.5 15.8)"><path class="b" d="M29.5,38.374H5.1a1.61,1.61,0,0,1-1.6-1.6V17.4a1.61,1.61,0,0,1,1.6-1.6h4.9" transform="translate(-3.5 -15.8)"/><path class="b" d="M34.7,15.8H60.1a1.61,1.61,0,0,1,1.6,1.6V32.966" transform="translate(-24.891 -15.8)"/><path class="b" d="M52.692,95a4.22,4.22,0,0,0,1.886,3.175.55.55,0,0,1,.22.44v1.541a.564.564,0,0,1-.566.566H43.166a.564.564,0,0,1-.566-.566V98.616a.6.6,0,0,1,.22-.44A4.22,4.22,0,0,0,44.706,95" transform="translate(-30.307 -70.099)"/></g><g transform="translate(23.109 32.353)"><g transform="translate(7.517 0)"><circle class="b" cx="5.251" cy="5.251" r="5.251"/></g><path class="b" d="M91.951,97.314a57.344,57.344,0,0,1-24.586,0,.609.609,0,0,1-.472-.629c.377-7.577,9.055-10.69,16.192-9.275l.157.031s9.809,2.484,10.061-8.395c.189-7.64,2.61-3.773,3.238-2.012C97.988,81,97.673,90.083,92.329,94.17a.572.572,0,0,0-.22.6c.094.472.252,1.258.314,1.918A.67.67,0,0,1,91.951,97.314Z" transform="translate(-66.89 -73.199)"/></g><g transform="translate(6.775 18.944)"><g transform="translate(8.2)"><circle class="b" cx="3.49" cy="3.49" r="3.49"/></g><path class="b" d="M17.622,43.7a37.816,37.816,0,0,0,15.94,0,.58.58,0,0,0,.472-.629c-.377-4.9-6.037-6.885-10.721-5.942l-.094.031S16.71,38.8,16.553,31.6c-.126-5.062-1.729-2.515-2.138-1.32-.975,2.641-.755,8.709,2.83,11.381a.3.3,0,0,1,.126.314,7.656,7.656,0,0,0-.189,1.132A.542.542,0,0,0,17.622,43.7Z" transform="translate(-13.917 -27.698)"/></g><path class="c" d="M93.668,27.459H87.223a.711.711,0,0,1-.723-.723V23.623a.711.711,0,0,1,.723-.723h6.445a.711.711,0,0,1,.723.723v3.113A.711.711,0,0,1,93.668,27.459Z" transform="translate(-57.102 -4.868)"/><path class="c" d="M93.668,48.459H87.223a.711.711,0,0,1-.723-.723V44.623a.711.711,0,0,1,.723-.723h6.445a.711.711,0,0,1,.723.723v3.113A.711.711,0,0,1,93.668,48.459Z" transform="translate(-57.102 -19.408)"/><path class="c" d="M86.846,69.239a.957.957,0,0,1-.346-.755v-2.61a.98.98,0,0,1,.975-.975h5.942a1.049,1.049,0,0,1,.786.377" transform="translate(-57.102 -33.91)"/><circle class="c" cx="0.126" cy="0.126" r="0.126" transform="translate(21.681 17.026)"/></g></svg>