<svg xmlns="http://www.w3.org/2000/svg" width="60" height="60" viewBox="0 0 60 60"><defs><style>.a,.b,.c{fill:none;}.b{stroke:#bb3c4f;}.b,.c{stroke-linecap:round;stroke-miterlimit:10;stroke-width:1.5px;}.c{stroke:#1f2639;}.d{fill:#1f2639;}</style></defs><rect class="a" width="60" height="60"/><g transform="translate(-3.071 0.9)"><g transform="translate(10.071 9.414)"><path class="b" d="M23.7,50.787C23.542,47.991,25.5,44,27.2,41.8c6.314-8.2,3.91-19-6.538-19h-.577c-10.481,0-12.853,10.837-6.538,19,1.7,2.2,3.654,6.156,3.494,8.983" transform="translate(-10.071 -22.8)"/><path class="c" d="M26.1,118.7H36.2c.032,0,.032.032,0,.064l-10,3.013c-.032,0-.032.064,0,.064h9.968c.032,0,.064.064,0,.064l-10.032,2.981c-.032,0-.032.064,0,.064H36.421" transform="translate(-20.963 -88.534)"/><line class="c" x2="2.917" transform="translate(8.823 39.622)"/><path class="b" d="M29.3,58.164l.994.994.994-1.026.994.994L33.306,58.1l1.122,1.122,1.058-1.058,1.058,1.058,1.026-1.058" transform="translate(-23.137 -46.951)"/></g><g transform="translate(43.155 3.1)"><g transform="translate(0 0)"><circle class="c" cx="2.853" cy="2.853" r="2.853" transform="translate(4.106)"/><path class="c" d="M113.594,31.625c.673-6.667,13.269-6.635,13.91,0a.591.591,0,0,1-.481.641,31.458,31.458,0,0,1-12.949,0A.578.578,0,0,1,113.594,31.625Z" transform="translate(-113.59 -19.093)"/></g></g><g transform="translate(43.155 21.661)"><circle class="c" cx="2.853" cy="2.853" r="2.853" transform="translate(4.106)"/><path class="c" d="M113.594,90.425c.673-6.667,13.269-6.635,13.91,0a.591.591,0,0,1-.481.641,31.458,31.458,0,0,1-12.949,0A.578.578,0,0,1,113.594,90.425Z" transform="translate(-113.59 -77.893)"/></g><g transform="translate(43.155 40.254)"><circle class="c" cx="2.853" cy="2.853" r="2.853" transform="translate(4.106)"/><path class="c" d="M113.594,149.325c.673-6.667,13.269-6.635,13.91,0a.591.591,0,0,1-.481.641,31.457,31.457,0,0,1-12.949,0A.621.621,0,0,1,113.594,149.325Z" transform="translate(-113.59 -136.793)"/></g><g transform="translate(35.857 9.638)"><path class="c" d="M92.879,26.6H91.758A1.06,1.06,0,0,0,90.7,27.643V66.172a1.06,1.06,0,0,0,1.058,1.043h1.122" transform="translate(-90.7 -25.606)"/><g transform="translate(1.891)"><path class="d" d="M96.6,23.5l1.731.994L96.6,25.519Z" transform="translate(-96.6 -23.5)"/></g><g transform="translate(1.891 40.647)"><path class="d" d="M96.6,154.087l1.731-.994L96.6,152.1Z" transform="translate(-96.6 -152.1)"/></g></g><g transform="translate(31.31 29.016)"><line class="c" x1="6.731" transform="translate(0 1.026)"/><g transform="translate(6.442)"><path class="d" d="M96.6,84.9l1.731,1.026-1.731.994Z" transform="translate(-96.6 -84.9)"/></g></g></g></svg>