<svg xmlns="http://www.w3.org/2000/svg" width="75" height="75" viewBox="0 0 75 75"><defs><style>.a,.b,.c,.d{fill:none;}.b{stroke:#1f2539;}.b,.c{stroke-linecap:round;}.b,.c,.d{stroke-miterlimit:10;stroke-width:1.5px;}.c,.d{stroke:#bb3c4e;}</style></defs><g transform="translate(-704 -2153)"><g transform="translate(54 454)"><g transform="translate(650 1699)"><rect class="a" width="75" height="75"/></g></g><g transform="translate(708.1 2157.13)"><path class="b" d="M11.024,126.763v-21.3A1.065,1.065,0,0,0,9.957,104.4H4.967A1.065,1.065,0,0,0,3.9,105.467v21.3" transform="translate(0 -62.893)"/><path class="b" d="M38.062,103.673V68.167A1.065,1.065,0,0,0,37,67.1H31.967A1.065,1.065,0,0,0,30.9,68.167v35.506" transform="translate(-16.852 -39.803)"/><path class="b" d="M65.124,114.011V84.867A1.065,1.065,0,0,0,64.057,83.8H59.067A1.065,1.065,0,0,0,58,84.867v29.144" transform="translate(-33.766 -50.141)"/><path class="b" d="M92.224,95.316V54.667A1.065,1.065,0,0,0,91.157,53.6H86.167A1.065,1.065,0,0,0,85.1,54.667V95.316" transform="translate(-50.68 -31.446)"/><path class="b" d="M119.324,80.273V30.367a1.065,1.065,0,0,0-1.067-1.067h-4.991a1.065,1.065,0,0,0-1.067,1.067V80.273" transform="translate(-67.594 -16.404)"/><path class="c" d="M13.2,48.173c2.4-19.81,5.6-17.524,9.943-14.324.229.152.5.152.61-.114,3.7-9.334,7.429-8.877,10.019,6.515a.119.119,0,0,0,.229,0C36.858,21.81,39.753,16.9,44.02,28.667a.225.225,0,0,0,.419,0c3.619-14.4,6.705-16.572,10.134-9.143" transform="translate(-5.757 -7.109)"/><g transform="translate(27.829 3.87)"><path class="b" d="M93.55,7.31a15.865,15.865,0,0,1,3.924,4.724,15.3,15.3,0,1,1-8-7.124" transform="translate(-68.595 -3.87)"/><line class="b" x2="3.2" y2="5.829" transform="translate(22.517 28.521)"/><path class="d" d="M135.065,94.089l-1.448.762a.524.524,0,0,0-.229.724l7.124,13.41a.524.524,0,0,0,.724.229l1.448-.762a.524.524,0,0,0,.229-.724l-7.124-13.41A.524.524,0,0,0,135.065,94.089Z" transform="translate(-108.663 -60.338)"/><path class="d" d="M157.465,136.289l-1.448.762a.524.524,0,0,0-.229.724l.343.686a.524.524,0,0,0,.724.229l1.448-.762a.524.524,0,0,0,.229-.724l-.343-.686A.524.524,0,0,0,157.465,136.289Z" transform="translate(-122.529 -86.461)"/></g></g></g></svg>