<svg xmlns="http://www.w3.org/2000/svg" width="52.504" height="47.585" viewBox="0 0 52.504 47.585"><defs><style>.a,.b{fill:none;stroke-linecap:round;stroke-miterlimit:10;stroke-width:1.5px;}.a{stroke:#1f2639;}.b{stroke:#bb3c4f;}</style></defs><g transform="translate(-4.25 -6.165)"><g transform="translate(0.5 -4.613)"><path class="a" d="M5.9,97.2h7.711a.393.393,0,0,1,.355.548c-.613,1.387-1.839,5.065,1.678,5.065,3.872,0,2.807-3.484,2.226-4.839a.393.393,0,0,1,.355-.548h6.485" transform="translate(-0.948 -58.259)"/><path class="a" d="M63.2,115.909V108.2a.393.393,0,0,1,.548-.355c1.387.613,5.065,1.839,5.065-1.678,0-3.872-3.484-2.807-4.839-2.226a.393.393,0,0,1-.548-.355V97.1" transform="translate(-39.762 -58.328)"/><path class="a" d="M23.5,57.9h6.485a.393.393,0,0,0,.355-.548C29.762,56,28.7,52.515,32.569,52.515c3.484,0,2.291,3.646,1.678,5.065a.407.407,0,0,0,.355.548l7.13-.1a.392.392,0,0,1,.387.387V72.744a3.759,3.759,0,0,1-3.775,3.775H8.275A3.759,3.759,0,0,1,4.5,72.744V42.675A3.759,3.759,0,0,1,8.275,38.9H23.5a.373.373,0,0,1,.387.387v7.324a.393.393,0,0,1-.548.355c-1.387-.613-5.065-1.839-5.065,1.678,0,3.872,3.484,2.807,4.839,2.226a.393.393,0,0,1,.548.355v6.485" transform="translate(0 -18.905)"/><path class="b" d="M85.283,25.837l4-5.291s-6-.968-3.1-4.807c2.613-3.452,5.323,2.226,5.323,2.226l4.517-6.033a.777.777,0,0,1,1.1-.161l11.937,8.969a2.726,2.726,0,0,1,.548,3.807L99.963,37.387a.5.5,0,0,1-.678.1L93.51,33.128a.392.392,0,0,1,.032-.645c1.323-.774,4.517-2.936,1.71-5.065-3.065-2.323-4.323,1.065-4.678,2.516a.377.377,0,0,1-.613.194l-4.614-3.646A.46.46,0,0,1,85.283,25.837Z" transform="translate(-54.65)"/></g></g></svg>