<svg xmlns="http://www.w3.org/2000/svg" width="60" height="60" viewBox="0 0 60 60"><defs><style>.a,.b,.c{fill:none;}.b{stroke:#1f2639;}.b,.c{stroke-linecap:round;stroke-miterlimit:10;stroke-width:1.5px;}.c{stroke:#bb3c4f;}</style></defs><g transform="translate(-415 -18)"><g transform="translate(415 18)"><rect class="a" width="60" height="60"/></g><g transform="translate(415.972 -4.192)"><path class="b" d="M10.4,38.364,4.149,49.308A.879.879,0,0,0,4.41,50.48l2.7,1.987a.911.911,0,0,0,1.335-.293l8.566-14.82a.908.908,0,0,0-.326-1.238l-2.931-1.791a.918.918,0,0,0-1.27.326L11.51,36.41"/><path class="c" d="M134.865,47.57l1.205,2.182a.892.892,0,0,1-.326,1.205l-2.638,1.629a.918.918,0,0,1-1.27-.326l-8.468-14.852a.921.921,0,0,1,.293-1.205l2.7-1.824a.9.9,0,0,1,1.3.326l6.058,10.846" transform="translate(-81.153 -0.021)"/><path class="c" d="M136.478,81.6c-1.368,1.27-1.205,2.28-3.778,3.453" transform="translate(-87.522 -32.065)"/><path class="c" d="M31.82,95.912l11.432,9.022a.92.92,0,0,0,1.27-.13l1.791-2.182c.554-.456-5.309-9.478-7.166-10.032a15.712,15.712,0,0,0-5.635-.423.9.9,0,0,0-.879.489l-1.042,2.117A.949.949,0,0,0,31.82,95.912Z" transform="translate(-18.703 -39.231)"/><path class="b" d="M24.234,86.455A23.506,23.506,0,0,1,21.4,83.1" transform="translate(-11.714 -33.079)"/><path class="b" d="M42.1,47.3l2.638,1.857a1.167,1.167,0,0,0,.358.13,9.174,9.174,0,0,1,3.29.423" transform="translate(-25.879 -8.838)"/><path class="b" d="M80.794,69.2a82.605,82.605,0,0,0,14.462,8.827.916.916,0,0,1,.423.782,4.9,4.9,0,0,1-.391,2.769c-2.964,4.527-11.921,8.436-12.182,8.4L77.7,89.068" transform="translate(-50.217 -23.788)"/><path class="c" d="M68.626,55.295c-1.075-.228-1.889-.977-3.257-1.791l-2.508.261a.836.836,0,0,0-.391.163,15.726,15.726,0,0,1-4.3,3.062,3.877,3.877,0,0,1-2.573.033h0a.9.9,0,0,1-.13-1.173,27.79,27.79,0,0,0,3.974-5.863c.163-.228,5.6-1.629,8.436-1.01a58.676,58.676,0,0,0,7.1,1.238,20.344,20.344,0,0,0,3.518-1.205" transform="translate(-35.02 -9.863)"/></g></g></svg>