<svg xmlns="http://www.w3.org/2000/svg" width="59.563" height="48.508" viewBox="0 0 59.563 48.508"><defs><style>.a,.b{fill:none;stroke-linecap:round;stroke-miterlimit:10;stroke-width:1.5px;}.a{stroke:#bb3c4f;}.b{stroke:#1f2639;}</style></defs><g transform="translate(-3.903 -18.173)"><g transform="translate(7.96 46.322)"><circle class="a" cx="1.55" cy="1.55" r="1.55" transform="translate(0)"/></g><g transform="translate(12.213 18.926)"><path class="b" d="M109.123,37.969l-3.985,1.845a.829.829,0,0,1-1.07-.369l-2.8-5.719a.815.815,0,0,1,.332-1.07l15.386-8.117a.817.817,0,0,1,1.107.369l3.21,6.531a.821.821,0,0,1-.406,1.107l-8.634,3.985" transform="translate(-73.38 -22.408)"/><path class="b" d="M72.961,60.553l-1.7-3.468a.815.815,0,0,1,.332-1.07l10.073-5.276a.817.817,0,0,1,1.107.369l1.956,3.985a.821.821,0,0,1-.406,1.107l-10.331,4.76A.814.814,0,0,1,72.961,60.553Z" transform="translate(-54.309 -39.162)"/><path class="b" d="M55.031,79.41l-.849.406a.829.829,0,0,1-1.07-.369l-.849-1.7a.815.815,0,0,1,.332-1.07l.922-.48" transform="translate(-42.255 -55.404)"/><path class="b" d="M66.9,69.418l.922-.48a.817.817,0,0,1,1.107.369l1,1.992a.821.821,0,0,1-.406,1.107l-1.513.7" transform="translate(-51.57 -50.723)"/><path class="b" d="M39.245,79.7l-7.01,3.431a.807.807,0,0,0-.369,1.07l.406.812a.807.807,0,0,0,1.07.369l7.01-3.431" transform="translate(-29.329 -57.652)"/><path class="b" d="M28.659,91.3l-1.587-3.21a.662.662,0,0,0-.886-.3l-.7.332a.662.662,0,0,0-.3.886l1.587,3.21a.662.662,0,0,0,.886.3l.7-.332A.673.673,0,0,0,28.659,91.3Z" transform="translate(-25.126 -62.757)"/><path class="b" d="M151.5,28.288l-4.428-9a.662.662,0,0,0-.886-.3l-.7.332a.662.662,0,0,0-.3.886l4.428,9a.662.662,0,0,0,.886.3l.7-.332A.723.723,0,0,0,151.5,28.288Z" transform="translate(-101.108 -18.926)"/><g transform="translate(35.991 8.18)"><circle class="b" cx="1.365" cy="1.365" r="1.365"/><line class="b" y1="33.908" transform="translate(1.365 2.73)"/></g><g transform="translate(12.798 19.36)"><circle class="b" cx="1.365" cy="1.365" r="1.365" transform="translate(0 0)"/><line class="b" y1="22.692" transform="translate(1.365 2.767)"/></g></g><path class="a" d="M6.595,106.468l-1.919,7.047c-.037.111,0,.184.111.258l4.169,2.435a.2.2,0,0,1,.074.3L7,120.784a.231.231,0,0,0,.184.332h1.07a.2.2,0,0,0,.184-.111l2.989-5.35a.2.2,0,0,0-.074-.3l-3.247-2.066a.212.212,0,0,1-.074-.258l1.919-5.867a.162.162,0,0,0-.037-.184,2.257,2.257,0,0,0-3.173-.627C6.669,106.358,6.632,106.395,6.595,106.468Z" transform="translate(0 -55.6)"/><path class="b" d="M55.1,143.971c0-2.361,6.272-2.361,6.272,0,0,.221.037.406-.184.406h-5.9C55.059,144.414,55.1,144.192,55.1,143.971Z" transform="translate(-31.916 -78.455)"/><path class="b" d="M118.383,143.971c0-2.361,6.272-2.361,6.272,0,0,.221.037.406-.184.406h-5.9C118.31,144.414,118.383,144.192,118.383,143.971Z" transform="translate(-71.964 -78.455)"/></g></svg>