<svg xmlns="http://www.w3.org/2000/svg" width="60" height="60" viewBox="0 0 60 60"><defs><style>.a,.b,.c{fill:none;}.b{stroke:#1f2639;}.b,.c{stroke-linecap:round;stroke-miterlimit:10;stroke-width:1.5px;}.c{stroke:#bb3c4f;}</style></defs><g transform="translate(-32 -18)"><g transform="translate(32 18)"><rect class="a" width="60" height="60"/><rect class="a" width="60" height="60"/><rect class="a" width="60" height="60"/></g><g transform="translate(33.463 7.309)"><g transform="translate(3.537 26.373)"><path class="b" d="M6.554,35.947l.478-1.212a.779.779,0,0,1,.989-.446l2.392.925a.779.779,0,0,1,.446.989L7.415,44.939a.779.779,0,0,1-.989.446l-2.392-.925a.779.779,0,0,1-.446-.989l2.328-5.963" transform="translate(-3.537 -34.237)"/><line class="b" x1="0.957" y1="0.606" transform="translate(10.798 6.047)"/><path class="b" d="M31.987,50.733l.223-.574a.71.71,0,0,0-.255-.829L27.3,46.045a1.133,1.133,0,0,0-.287-.128l-6.92-1.244a.674.674,0,0,0-.765.446L17.1,50.86a.682.682,0,0,0,.319.861l10.268,5.421a.836.836,0,0,0,.478.064l12.4-2.838a.7.7,0,0,0,.542-.733l-.032-.478a.72.72,0,0,0-.67-.67l-9.375-.319a.48.48,0,0,1-.351-.128l-5.038-3.284" transform="translate(-12.739 -41.337)"/></g><g transform="translate(28.489 45.477)"><line class="b" x2="1.084" y2="0.191" transform="translate(16.258 7.657)"/><path class="b" d="M96.669,104.121l-5.931-.957a.708.708,0,0,1-.351-.159L83.308,96.85a.727.727,0,0,0-.957.032l-.319.319a.681.681,0,0,0-.1.893l7.175,10.523a.661.661,0,0,0,.415.287l11.193,3h7.143" transform="translate(-81.814 -96.687)"/><path class="b" d="M109.8,108.654l.159-.415a.731.731,0,0,1,.733-.446l5.676.765a1.013,1.013,0,0,1,.287.1l5.9,3.795h4.337" transform="translate(-100.876 -104.249)"/></g><path class="c" d="M78.529,35.258l-5.517-5.517c-4.145-5.134,1.849-9.949,5.963-4.815,4.145-5.2,10.14-.383,5.995,4.815l-5.548,5.517A.616.616,0,0,1,78.529,35.258Z" transform="translate(-46.374)"/></g></g></svg>