<svg xmlns="http://www.w3.org/2000/svg" width="60" height="60" viewBox="0 0 60 60"><defs><style>.a,.b,.c{fill:none;}.b{stroke:#1f2639;}.b,.c{stroke-linecap:round;stroke-miterlimit:10;stroke-width:1.5px;}.c{stroke:#bb3c4f;}</style></defs><g transform="translate(-798 -18)"><g transform="translate(798 18)"><rect class="a" width="60" height="60"/><rect class="a" width="60" height="60"/></g><g transform="translate(798.348 6.2)"><g transform="translate(9.265 21.8)"><g transform="translate(0 0)"><circle class="b" cx="8.547" cy="8.547" r="8.547" transform="translate(12.011)"/><path class="b" d="M61.418,133.4a7.681,7.681,0,0,1,.033.871.653.653,0,0,1-.463.637c-12.659,3.05-26.045,2.883-40.093,0a.644.644,0,0,1-.5-.637A7.952,7.952,0,0,1,20.5,133" transform="translate(-20.4 -96.136)"/><path class="b" d="M51.5,91.033A28.289,28.289,0,0,1,70.941,90.5" transform="translate(-41.348 -66.731)"/></g></g><g transform="translate(36.035 38.336)"><path class="c" d="M154.591,107.354v1.307a.973.973,0,0,1-.972.972h-2.547a.973.973,0,0,1-.972-.972V98.572a.973.973,0,0,1,.972-.972h2.547a.973.973,0,0,1,.972.972v6.938" transform="translate(-133.975 -89.138)"/><path class="c" d="M117.816,83.128l-2.011-1.24a.033.033,0,0,1-.034-.034,15.043,15.043,0,0,1-3.117-4.76v-.034a12.025,12.025,0,0,1-.235-4.089c0-.034,0-.1-.034-.1a1.433,1.433,0,0,0-1.441-.469c-.034,0-.034.034-.067.034a6.992,6.992,0,0,0-1.743,3.821v.034a12.789,12.789,0,0,0,.469,3.218.923.923,0,0,1-.8,1.173c-1.877.134-3.788.168-5.765.134a.719.719,0,0,0-.637.369A4.683,4.683,0,0,0,102.062,84v.034a43.211,43.211,0,0,1,2.447,6.9,1.159,1.159,0,0,0,.9.838c3.888.67,7.475.939,10.123-.134h0l2.313-1.207" transform="translate(-101.992 -72.353)"/></g><path class="c" d="M12.584,82.151l2.447,4.961c.034.1.134.134.235.168l5.464.8a.3.3,0,0,1,.168.5l-3.955,3.855a.381.381,0,0,0-.1.268l.939,5.43a.291.291,0,0,1-.436.3L12.45,95.86a.367.367,0,0,0-.268,0L7.288,98.441a.3.3,0,0,1-.436-.3l.939-5.43a.278.278,0,0,0-.1-.268L3.735,88.587a.3.3,0,0,1,.168-.5l5.464-.8c.1,0,.168-.067.235-.168l2.447-4.961A.292.292,0,0,1,12.584,82.151Z" transform="translate(0 -40.414)"/></g></g></svg>