<svg height="140" viewBox="0 0 140 140" width="140" xmlns="http://www.w3.org/2000/svg"><path d="m0 0h140v140h-140z" fill="#f8f8f1"/><g transform="translate(-7.323 -.7)"><path d="m85.933 134.334h-19.008a22.668 22.668 0 0 1 -22.625-22.54v-.336a22.586 22.586 0 0 1 6.644-16.064l21.7-21.7a1.189 1.189 0 0 1 1.682 1.682l-21.7 21.7a20.6 20.6 0 0 0 -5.972 14.382v.336a20.317 20.317 0 0 0 20.27 20.186h19.009a20.28 20.28 0 0 0 14.382-34.568l-49.371-49.455a22.941 22.941 0 0 1 -6.644-16.064v-.253a22.668 22.668 0 0 1 22.625-22.54h19.008a22.686 22.686 0 0 1 22.625 22.625 22.392 22.392 0 0 1 -6.644 15.98l-22.12 22.12a1.189 1.189 0 0 1 -1.682-1.682l22.2-22.12a20.047 20.047 0 0 0 5.972-14.3 20.28 20.28 0 0 0 -20.27-20.27h-19.089a20.317 20.317 0 0 0 -20.27 20.186v.252a20.367 20.367 0 0 0 5.887 14.382l49.37 49.455a22.392 22.392 0 0 1 6.644 15.98 22.632 22.632 0 0 1 -22.623 22.626z" fill="#1f2639" transform="translate(0 -1.017)"/><g fill="#bb3c4f"><path d="m79.147 72.863a5.218 5.218 0 0 1 -3.7-1.514l-10.934-10.934a5.238 5.238 0 0 1 3.7-8.915h22.373a5.2 5.2 0 0 1 4.878 3.28 5.058 5.058 0 0 1 -1.264 5.72l-11.436 10.933a5.466 5.466 0 0 1 -3.617 1.43zm-2.019-3.2a2.894 2.894 0 0 0 4.037.084l11.435-10.847a2.964 2.964 0 0 0 .673-3.2 2.934 2.934 0 0 0 -2.691-1.85h-22.369a2.966 2.966 0 0 0 -2.691 1.766 2.811 2.811 0 0 0 .589 3.112z" transform="translate(-2.971 -7.756)"/><path d="m88.63 148.395h-22.877c-9.168 0-16.653-7.822-16.653-17.41a3.682 3.682 0 0 1 3.617-3.785h48.866a3.682 3.682 0 0 1 3.617 3.785c.083 9.588-7.4 17.41-16.57 17.41zm-35.913-18.84a1.4 1.4 0 0 0 -1.346 1.43c0 8.327 6.476 15.055 14.382 15.055h22.793c7.906 0 14.382-6.729 14.382-15.055a1.4 1.4 0 0 0 -1.346-1.43z" transform="translate(-.763 -19.788)"/><path d="m81.705 103.345a4.036 4.036 0 0 1 -4.205-4.121v-.252l1.514-4.037a2.908 2.908 0 0 1 2.775-1.935 2.8 2.8 0 0 1 2.691 2.019l1.346 3.953v.168a3.947 3.947 0 0 1 -4.121 4.205zm-1.85-3.953a1.87 1.87 0 0 0 3.7 0l-1.177-3.617a.577.577 0 0 0 -.5-.421.6.6 0 0 0 -.589.421z" transform="translate(-5.277 -14.352)"/><path d="m107.38 5.055h-61.9a1.15 1.15 0 0 1 -1.18-1.178 1.15 1.15 0 0 1 1.177-1.177h61.9a1.15 1.15 0 0 1 1.177 1.177 1.15 1.15 0 0 1 -1.174 1.178z"/><path d="m107.38 163.955h-61.9a1.177 1.177 0 1 1 0-2.355h61.9a1.177 1.177 0 1 1 0 2.355z" transform="translate(0 -25.255)"/></g></g></svg>