<svg xmlns="http://www.w3.org/2000/svg" xmlns:xlink="http://www.w3.org/1999/xlink" width="140" height="140" viewBox="0 0 140 140"><defs><style>.a{fill:#f8f8f1;}.b{clip-path:url(#a);}.c,.d,.e{fill:none;}.d{stroke:#1f2639;}.d,.e{stroke-linecap:round;stroke-miterlimit:10;stroke-width:1.5px;}.e{stroke:#bb3c4f;}</style><clipPath id="a"><rect class="a" width="140" height="140" transform="translate(994 1374)"/></clipPath></defs><g transform="translate(-957 -944)"><g class="b" transform="translate(-37 -430)"><g transform="translate(994 1374)"><rect class="c" width="140" height="140"/></g></g><g transform="translate(956.236 940.075)"><g transform="translate(17.715 21.8)"><circle class="d" cx="21.412" cy="21.412" r="21.412" transform="translate(30.817)"/><path class="d" d="M124.607,134.008a18.975,18.975,0,0,1,.084,2.183,1.638,1.638,0,0,1-1.176,1.6c-32.16,7.641-66.168,7.221-101.855,0a1.618,1.618,0,0,1-1.26-1.6A19.65,19.65,0,0,1,20.652,133" transform="translate(-20.4 -39.626)"/><path class="d" d="M51.5,94.043C66.279,87.83,84.836,87.41,100.2,92.7" transform="translate(-25.385 -32.577)"/></g><g transform="translate(86.228 64.249)"><path class="e" d="M161.352,122.035v3.275a2.437,2.437,0,0,1-2.435,2.435h-6.382a2.437,2.437,0,0,1-2.435-2.435V100.035a2.437,2.437,0,0,1,2.435-2.435h6.382a2.437,2.437,0,0,1,2.435,2.435v17.382" transform="translate(-109.704 -76.4)"/><path class="e" d="M141.633,99.347l-5.038-3.107a.082.082,0,0,1-.084-.084A37.686,37.686,0,0,1,128.7,84.232v-.084a30.124,30.124,0,0,1-.588-10.244c0-.084,0-.252-.084-.252a3.589,3.589,0,0,0-3.611-1.176c-.084,0-.084.084-.168.084a17.515,17.515,0,0,0-4.366,9.573v.084a32.038,32.038,0,0,0,1.176,8.061,2.312,2.312,0,0,1-2.015,2.939c-4.7.336-9.489.42-14.443.336a1.8,1.8,0,0,0-1.6.924,11.732,11.732,0,0,0-.84,7.053v.084a108.248,108.248,0,0,1,6.13,17.3,2.9,2.9,0,0,0,2.267,2.1c9.74,1.679,18.725,2.351,25.359-.336h0l5.794-3.023" transform="translate(-101.992 -72.353)"/></g><path class="e" d="M26.028,82.416l6.13,12.428c.084.252.336.336.588.42l13.687,2.015a.752.752,0,0,1,.42,1.26l-9.908,9.657a.953.953,0,0,0-.252.672l2.351,13.6a.729.729,0,0,1-1.092.756l-12.26-6.466a.92.92,0,0,0-.672,0l-12.26,6.466a.748.748,0,0,1-1.092-.756l2.351-13.6a.7.7,0,0,0-.252-.672L3.86,98.538a.752.752,0,0,1,.42-1.26l13.687-2.015c.252,0,.42-.168.588-.42l6.13-12.428A.732.732,0,0,1,26.028,82.416Z" transform="translate(0 -9.646)"/></g></g></svg>