<svg xmlns="http://www.w3.org/2000/svg" width="140" height="140" viewBox="0 0 140 140"><defs><style>.a{fill:#f8f8f1;}.b{fill:#1f2639;}.c{fill:#bb3c4f;}</style></defs><g transform="translate(-159 -1448)"><g transform="translate(159 1448)"><path class="a" d="M0,0H140V140H0Z"/></g><g transform="translate(154.035 1453.65)"><path class="b" d="M50.974,129.9a4.817,4.817,0,0,1-4.239-2.128l-.088-.158L34.194,99.166a33.256,33.256,0,0,1-4.946-20.332v-.158A15.357,15.357,0,0,0,29.425,76c0-.079,0-.158-.177-.236a.491.491,0,0,0-.442.079,11.577,11.577,0,0,1-4.062,2.128c-4.592,1.576-7.86-1.261-9.979-3.468a2.2,2.2,0,0,1-.53-2.049,2.531,2.531,0,0,1,1.5-1.576A.289.289,0,0,0,16,70.559a.266.266,0,0,0-.265-.236c-4.592-.473-5.652-2.6-5.652-4.334a3.571,3.571,0,0,1,.53-3.073,4.777,4.777,0,0,1,3.356-1.576,2.936,2.936,0,0,1,1.148.079c2.473.63,4.5.709,6.094.079.088-.079.177-.158.177-.236a13.087,13.087,0,0,0-4.857-8.432,1.859,1.859,0,0,1-.53-.709,2.735,2.735,0,0,1,1.236-3.94c.088-.079.177-.079.177-.158a4.16,4.16,0,0,1,2.826-2.443,2.6,2.6,0,0,1,2.12.473,4.184,4.184,0,0,0,2.561.709h.088c1.766-.552,2.738-1.182,3.091-1.891a2.526,2.526,0,0,1,.265-.473c4.416-5.516,10.244-13.24,10.6-16.786,0-.079-.088-.158-.177-.236h0c-4.416-2.522-6.535-5.832-6.359-10.008a2.4,2.4,0,0,1,1.413-1.97,2.339,2.339,0,0,0,1.325-1.34.27.27,0,0,0-.088-.236A16.58,16.58,0,0,0,29.867,10.9a2.138,2.138,0,0,1-1.413-2.916c.971-2.285,3.621-3.625,7.683-3.862h.088A12.267,12.267,0,0,1,41.082,3.1a2.339,2.339,0,0,1,2.473,2.049c0,.315.442.709,1.06,1.1,2.3.867,4.592,2.522,7.33,5.28a.35.35,0,0,0,.265.079,2.562,2.562,0,0,0,2.738-1.419,2.66,2.66,0,0,1,1.236-1.1c2.738-1.1,5.387-.63,8.125,1.5a2.114,2.114,0,0,1,.883,1.576c.088,3.625-3,6.147-5.652,7.96a.08.08,0,0,0-.088.079c-.53,1.024-.177,1.182,0,1.34l1.5.867a2.8,2.8,0,0,1,.353,4.334,1.968,1.968,0,0,1-.618.552,4.764,4.764,0,0,1-3.356.552c-.177,0-.265,0-.353.079L56.891,28c-.177,2.364,2.738,4.728,8.743,6.935a2.327,2.327,0,0,1,1.59,2.128,6.378,6.378,0,0,1-3,5.2.27.27,0,0,0-.088.236c0,.079,0,.158.088.158,3.621,2.522,8.743,4.256,15.9,5.438a9.416,9.416,0,0,1,6.094,4.177l.177.158a14.086,14.086,0,0,0,8.037.236l.177-.079h.177a1.517,1.517,0,0,0,1.06-.315c.618-.552,1.236-1.97,1.148-5.6v-.315l.177-.236a2.239,2.239,0,0,1,1.59-1.182,1.929,1.929,0,0,1,1.59.394l.177.158.442.079a9,9,0,0,0,1.236,1.813.29.29,0,0,0,.177.079.35.35,0,0,0,.265-.079c3.533-3.231,7.507-3.546,11.569-.946a.35.35,0,0,0,.265.079c2.826-.63,5.829-2.285,9.1-5.122a2.831,2.831,0,0,1,2.384-.63c2.561.473,4.416.394,5.829-.236a2.807,2.807,0,0,1,1.943-.236c2.031.552,3.179,1.576,3.356,3.31,0,.079.088.236.177.236a3.5,3.5,0,0,1,2.384,1.34,1.94,1.94,0,0,1,.353,1.419c-.265,2.128-.883,3.468-1.943,4.019a3.112,3.112,0,0,1-2.738.079l-.177-.079c-3.179.315-4.151,2.207-6.005,6.147a39.1,39.1,0,0,1-4.151,7.487,2.22,2.22,0,0,1-.618.63,4.187,4.187,0,0,1-2.208.788.29.29,0,0,0-.177.079.435.435,0,0,0-.088.315,11.565,11.565,0,0,1-.177,5.516,1.736,1.736,0,0,1-.53.946,3.892,3.892,0,0,1-.618.552,2.86,2.86,0,0,1-2.649.158A2.366,2.366,0,0,1,116.5,71.11a10.27,10.27,0,0,0-.442-3.94c-.177-.236-.265-.236-.265-.236s-.442,0-1.325,1.1a2.732,2.732,0,0,1-3.356.63,2.293,2.293,0,0,1-1.236-2.679,2.079,2.079,0,0,1,1.148-1.419,9.751,9.751,0,0,0,4.327-4.256c.088-.158,0-.236,0-.236,0-.079-.177-.158-.265-.079a32.561,32.561,0,0,1-8.3-.079,2.355,2.355,0,0,1-2.208-2.443,2.291,2.291,0,0,0-.265-1.1l-.088-.079a7.65,7.65,0,0,0-4.239-.709c-.088,0-.088,0-.177.079A2.661,2.661,0,0,0,98.751,57a.27.27,0,0,0,.088.236,3.1,3.1,0,0,0,2.649,1.024l.53-.079.353.315a2.391,2.391,0,0,1,.883,1.34,2.034,2.034,0,0,1-.618,1.419c-.795,1.024-1.06,2.443-1.06,4.571a.233.233,0,0,0,.088.158c1.236,1.891,1.855,4.886,2.208,7.487v.315a3.416,3.416,0,0,1-2.914,2.522,3.053,3.053,0,0,1-1.855-.236,6.733,6.733,0,0,0-3.974-.63h-.088a4.111,4.111,0,0,0-1.413.867.321.321,0,0,0,0,.394,3.064,3.064,0,0,1,.795,1.34,2.047,2.047,0,0,1-.353,1.97c-1.59,1.97-7.242,5.438-13.159,9.142-1.855,1.1-3.709,2.285-5.387,3.389a.435.435,0,0,0-.088.315,4.505,4.505,0,0,1-1.06,3.625,3.074,3.074,0,0,1-2.031,1.024q-5.3.236-6.888,2.364c-1.148,1.5-1.148,3.783,0,7.093a.9.9,0,0,1,.088.473c.265,2.364-.618,4.728-2.914,7.487a.36.36,0,0,0-.088.236c2.031,2.995-.883,6.226-3.8,9.063l-5.034,5.2a2.455,2.455,0,0,1-1.5.788A2.079,2.079,0,0,0,50.974,129.9Zm-2.3-3.073c.442.63,1.236,1.261,3.091,1.024a.29.29,0,0,0,.177-.079l5.122-5.28c2.914-2.837,4.681-5.044,3.533-6.62a1.954,1.954,0,0,1,.177-2.443c1.943-2.364,2.738-4.334,2.473-6.147-1.413-4.1-1.325-6.856.265-8.905,1.5-1.97,4.327-2.995,8.655-3.231a.476.476,0,0,0,.265-.158,2.612,2.612,0,0,0,.707-2.128,2.161,2.161,0,0,1,1.06-2.285c1.678-1.1,3.621-2.207,5.475-3.389,5.3-3.231,11.216-6.935,12.629-8.669,0-.079.088-.079,0-.158a1.379,1.379,0,0,0-.442-.63,2.111,2.111,0,0,1,.088-3.073,5.873,5.873,0,0,1,2.208-1.34c.177-.079.353-.079.53-.158a9.192,9.192,0,0,1,5.3.867.35.35,0,0,0,.265.079c.707-.158.971-.394,1.148-.867-.353-2.364-.883-5.044-1.943-6.541a1.816,1.816,0,0,1-.353-1.1,9.265,9.265,0,0,1,1.325-5.516,6.956,6.956,0,0,1-3.444-1.655,2.091,2.091,0,0,1-.618-2.285,4.663,4.663,0,0,1,1.855-2.207,3.2,3.2,0,0,1,1.325-.473,10.715,10.715,0,0,1,5.475.946,3.64,3.64,0,0,1,1.06.867,4,4,0,0,1,.618,2.207.283.283,0,0,0,.265.315,31.335,31.335,0,0,0,7.683.079,2.976,2.976,0,0,1,2.384.867,2.047,2.047,0,0,1,.353,2.207,12.085,12.085,0,0,1-5.211,5.2c-.088.079-.177.079-.177.158-.088.394,0,.473.265.552.088.079.265,0,.353-.079a4.176,4.176,0,0,1,3.091-1.97h0a2.823,2.823,0,0,1,2.208,1.182l.088.158.088.158a11.159,11.159,0,0,1,.618,4.807c0,.158.177.236.177.236.177.079.265,0,.265,0l.265-.236a.08.08,0,0,1,.088-.079,9.159,9.159,0,0,0,.088-4.65,2.518,2.518,0,0,1,.53-1.891,2.83,2.83,0,0,1,1.766-.867,1.959,1.959,0,0,0,1.06-.394s.088,0,.088-.079a41.105,41.105,0,0,0,3.974-7.171c1.766-3.862,3.179-6.935,7.86-7.329a3.819,3.819,0,0,1,1.325.158,1.161,1.161,0,0,0,.707.079c.088-.079.618-.473.883-2.522v-.158c-.088-.158-.265-.315-.795-.394a2.489,2.489,0,0,1-2.12-1.97c-.088-.867-.618-1.34-1.766-1.576h-.177c-1.855.946-4.239,1.1-7.33.473-.088,0-.265,0-.265.079-3.533,3.073-6.977,4.965-10.156,5.6a2.879,2.879,0,0,1-2.12-.394c-3.091-2.049-5.829-1.813-8.566.709a2.92,2.92,0,0,1-1.943.709,2.4,2.4,0,0,1-1.855-.867,6.676,6.676,0,0,1-.795-1.1c0,2.995-.618,4.965-1.855,6.068a3.546,3.546,0,0,1-2.473.946,16.329,16.329,0,0,1-9.273-.315,2.742,2.742,0,0,1-1.413-.946,7.024,7.024,0,0,0-4.681-3.231c-7.507-1.261-12.894-3.152-16.868-5.832A1.834,1.834,0,0,1,62.1,42.425a2.162,2.162,0,0,1,.971-1.813,4.5,4.5,0,0,0,2.208-3.625c0-.079-.088-.236-.177-.236-7.153-2.679-10.421-5.6-10.156-8.905a2.107,2.107,0,0,1,.883-1.5,3.107,3.107,0,0,1,2.031-.473,2.783,2.783,0,0,0,1.678-.236l.088-.079c.53-.63.53-1.024-.088-1.576l-1.236-.63c-.795-.473-2.031-1.5-.883-3.783a2.544,2.544,0,0,1,.795-.867c3.356-2.285,4.769-4.256,4.769-6.3a.233.233,0,0,0-.088-.158c-2.031-1.576-3.8-1.891-5.74-1.182l-.177.158a4.763,4.763,0,0,1-4.946,2.443,2.734,2.734,0,0,1-1.678-.788c-2.561-2.522-4.681-4.1-6.624-4.807l-.177-.158q-1.987-1.182-2.12-2.6c0-.079-.177-.158-.265-.158a9.528,9.528,0,0,0-3.886.867,2.888,2.888,0,0,1-.883.158c-3.268.236-5.122,1.1-5.829,2.6-.088.079,0,.236.177.315a21.338,21.338,0,0,1,5.917,3.31,1.92,1.92,0,0,1,.618,2.443A4.422,4.422,0,0,1,34.9,17.206l-.177.158c-.088,3.468,1.59,6.147,5.387,8.275a2.2,2.2,0,0,1,1.148,2.128C40.906,30.84,37.638,36.12,30.22,45.5c-.618,1.419-2.031,2.443-4.5,3.152a2.888,2.888,0,0,1-.883.158,6.476,6.476,0,0,1-3.974-1.182.132.132,0,0,0-.177,0,1.8,1.8,0,0,0-1.236,1.261,2.265,2.265,0,0,1-1.06,1.1c-.53.315-.795.63-.353,1.419l.088.079A14.668,14.668,0,0,1,23.6,61.1a2.418,2.418,0,0,1-1.5,2.364,12.407,12.407,0,0,1-7.6,0h-.177a3.2,3.2,0,0,0-1.855.709,1.917,1.917,0,0,0-.177,1.655v.158c0,.63,0,2.049,3.709,2.443a2.407,2.407,0,0,1,2.208,1.97,2.219,2.219,0,0,1-1.59,2.364h-.088c-.088,0-.088.079-.177.158a.27.27,0,0,0,.088.236C19.181,76,21.388,76.863,23.95,76a8.835,8.835,0,0,0,3.179-1.576,2.841,2.841,0,0,1,2.826-.63,2.158,2.158,0,0,1,1.59,2.049c0,.788-.088,1.813-.177,2.995a31.545,31.545,0,0,0,4.681,19.229c.088.079.088.158.177.236Z" transform="translate(0 0)"/><path class="c" d="M51.626,53.144a2.538,2.538,0,1,1,2.826-2.522A2.708,2.708,0,0,1,51.626,53.144Zm0-2.995a.476.476,0,1,0,.53.473A.542.542,0,0,0,51.626,50.149Z" transform="translate(-4.538 -9.537)"/><path class="c" d="M55.626,67.844a2.538,2.538,0,1,1,2.826-2.522A2.707,2.707,0,0,1,55.626,67.844Zm0-2.995a.476.476,0,1,0,.53.473A.542.542,0,0,0,55.626,64.849Z" transform="translate(-5.006 -12.652)"/><path class="c" d="M61.926,87.244a2.538,2.538,0,1,1,2.826-2.522A2.707,2.707,0,0,1,61.926,87.244Zm0-2.995a.476.476,0,1,0,.53.473A.542.542,0,0,0,61.926,84.249Z" transform="translate(-5.742 -16.764)"/><path class="c" d="M51.626,80.444a2.538,2.538,0,1,1,2.826-2.522A2.708,2.708,0,0,1,51.626,80.444Zm0-2.995a.476.476,0,1,0,.53.473A.542.542,0,0,0,51.626,77.449Z" transform="translate(-4.538 -15.323)"/><path class="c" d="M55.426,148.944a2.538,2.538,0,1,1,2.826-2.522A2.707,2.707,0,0,1,55.426,148.944Zm0-2.995a.476.476,0,1,0,.53.473A.542.542,0,0,0,55.426,145.949Z" transform="translate(-4.982 -29.84)"/><path class="c" d="M62.626,135.544a2.538,2.538,0,1,1,2.826-2.522A2.652,2.652,0,0,1,62.626,135.544Zm0-2.995a.476.476,0,1,0,.53.473A.482.482,0,0,0,62.626,132.549Z" transform="translate(-5.824 -27)"/><path class="c" d="M75.526,108.944a2.538,2.538,0,1,1,2.826-2.522A2.708,2.708,0,0,1,75.526,108.944Zm0-2.995a.476.476,0,1,0,.53.473A.542.542,0,0,0,75.526,105.949Z" transform="translate(-7.331 -21.363)"/><path class="c" d="M82.126,102.044a2.538,2.538,0,1,1,2.826-2.522A2.652,2.652,0,0,1,82.126,102.044Zm0-2.995a.476.476,0,1,0,.53.473C82.744,99.285,82.479,99.049,82.126,99.049Z" transform="translate(-8.103 -19.9)"/><path class="c" d="M31.826,68.744a2.538,2.538,0,1,1,0-5.044,2.538,2.538,0,1,1,0,5.044Zm0-2.995a.476.476,0,1,0,.53.473A.482.482,0,0,0,31.826,65.749Z" transform="translate(-2.224 -12.843)"/><path class="c" d="M55.426,91.044a2.538,2.538,0,1,1,2.826-2.522A2.707,2.707,0,0,1,55.426,91.044Zm0-2.995a.476.476,0,1,0,.53.473A.542.542,0,0,0,55.426,88.049Z" transform="translate(-4.982 -17.569)"/><path class="c" d="M51.626,139.444a2.538,2.538,0,1,1,2.826-2.522A2.708,2.708,0,0,1,51.626,139.444Zm0-3.073a.476.476,0,1,0,.53.473A.542.542,0,0,0,51.626,136.37Z" transform="translate(-4.538 -27.826)"/><path class="c" d="M46.426,122.544a2.538,2.538,0,1,1,2.826-2.522A2.708,2.708,0,0,1,46.426,122.544Zm0-2.995a.476.476,0,1,0,.53.473A.542.542,0,0,0,46.426,119.549Z" transform="translate(-3.931 -24.245)"/><path class="c" d="M60.726,113.944a2.538,2.538,0,1,1,2.826-2.522A2.652,2.652,0,0,1,60.726,113.944Zm0-2.995a.476.476,0,1,0,.53.473A.482.482,0,0,0,60.726,110.949Z" transform="translate(-5.602 -22.422)"/><path class="c" d="M44.426,98.244a2.538,2.538,0,1,1,2.826-2.522A2.652,2.652,0,0,1,44.426,98.244Zm0-2.995a.476.476,0,1,0,.53.473C45.044,95.485,44.779,95.249,44.426,95.249Z" transform="translate(-3.697 -19.095)"/><path class="c" d="M42.526,105.144a2.538,2.538,0,1,1,2.826-2.522A2.652,2.652,0,0,1,42.526,105.144Zm0-2.995a.476.476,0,1,0,.53.473C43.144,102.385,42.879,102.149,42.526,102.149Z" transform="translate(-3.475 -20.557)"/><path class="c" d="M33.026,85.344a2.538,2.538,0,1,1,0-5.044,2.538,2.538,0,1,1,0,5.044Zm0-2.995a.476.476,0,1,0,.53.473C33.644,82.585,33.379,82.349,33.026,82.349Z" transform="translate(-2.365 -16.361)"/><path class="c" d="M24.726,87.244a2.538,2.538,0,1,1,0-5.044,2.538,2.538,0,1,1,0,5.044Zm0-2.995a.476.476,0,1,0,.53.473A.482.482,0,0,0,24.726,84.249Z" transform="translate(-1.395 -16.764)"/><path class="c" d="M58.826,51.244a2.538,2.538,0,1,1,2.826-2.522A2.652,2.652,0,0,1,58.826,51.244Zm0-2.995a.476.476,0,1,0,.53.473A.482.482,0,0,0,58.826,48.249Z" transform="translate(-5.38 -9.134)"/><path class="c" d="M49.726,42.244a2.538,2.538,0,1,1,2.826-2.522A2.708,2.708,0,0,1,49.726,42.244Zm0-2.995a.476.476,0,1,0,.53.473A.486.486,0,0,0,49.726,39.249Z" transform="translate(-4.316 -7.227)"/><path class="c" d="M98.926,76.644a2.538,2.538,0,1,1,2.826-2.522A2.652,2.652,0,0,1,98.926,76.644Zm0-2.995a.476.476,0,1,0,.53.473A.482.482,0,0,0,98.926,73.649Z" transform="translate(-10.066 -14.517)"/><path class="c" d="M70.826,67.844a2.538,2.538,0,1,1,2.826-2.522A2.652,2.652,0,0,1,70.826,67.844Zm0-2.995a.476.476,0,1,0,.53.473A.482.482,0,0,0,70.826,64.849Z" transform="translate(-6.782 -12.652)"/><path class="c" d="M87.326,85.344a2.538,2.538,0,1,1,2.826-2.522A2.708,2.708,0,0,1,87.326,85.344Zm0-2.995a.476.476,0,1,0,.53.473A.542.542,0,0,0,87.326,82.349Z" transform="translate(-8.71 -16.361)"/><path class="c" d="M79.326,67.844a2.538,2.538,0,1,1,2.826-2.522A2.707,2.707,0,0,1,79.326,67.844Zm0-2.995a.476.476,0,1,0,.53.473A.542.542,0,0,0,79.326,64.849Z" transform="translate(-7.775 -12.652)"/><path class="c" d="M97.026,84.544a2.538,2.538,0,1,1,2.826-2.522A2.652,2.652,0,0,1,97.026,84.544Zm0-2.995a.476.476,0,1,0,.53.473A.482.482,0,0,0,97.026,81.549Z" transform="translate(-9.844 -16.192)"/><path class="c" d="M141.226,60.944a2.538,2.538,0,1,1,2.826-2.522A2.708,2.708,0,0,1,141.226,60.944Zm0-2.995a.476.476,0,1,0,.53.473A.542.542,0,0,0,141.226,57.949Z" transform="translate(-15.009 -11.19)"/><path class="c" d="M123.326,66.844a2.538,2.538,0,1,1,2.826-2.522A2.652,2.652,0,0,1,123.326,66.844Zm0-2.995a.476.476,0,1,0,.53.473A.482.482,0,0,0,123.326,63.849Z" transform="translate(-12.917 -12.44)"/><path class="c" d="M135.826,71.644a2.538,2.538,0,1,1,2.826-2.522A2.707,2.707,0,0,1,135.826,71.644Zm0-2.995a.476.476,0,1,0,.53.473A.542.542,0,0,0,135.826,68.649Z" transform="translate(-14.378 -13.458)"/></g></g></svg>