<svg xmlns="http://www.w3.org/2000/svg" xmlns:xlink="http://www.w3.org/1999/xlink" width="140" height="140" viewBox="0 0 140 140"><defs><style>.a{fill:#f8f8f1;}.b{clip-path:url(#a);}.c{fill:none;}.d{fill:#1f2639;}.e{fill:#bb3c4f;}</style><clipPath id="a"><rect class="a" width="140" height="140" transform="translate(0)"/></clipPath></defs><g transform="translate(-545 -1448)"><g transform="translate(545 1448)"><g class="b"><g transform="translate(0)"><rect class="c" width="140" height="140"/></g></g></g><g transform="translate(544.631 1445.2)"><g transform="translate(2.369 57.21)"><path class="d" d="M80.619,99.738A14.919,14.919,0,1,1,95.538,84.819,14.952,14.952,0,0,1,80.619,99.738Zm0-27.575A12.656,12.656,0,1,0,93.275,84.819,12.7,12.7,0,0,0,80.619,72.163Z" transform="translate(-12.619 -66.128)"/><path class="d" d="M78.184,146.02A172.989,172.989,0,0,1,46,142.835a4.5,4.5,0,0,1-3.6-4.861h0C44.407,121.127,61.672,113.5,76.927,113.5h.084c15.254,0,32.52,7.711,34.448,24.558a4.488,4.488,0,0,1-3.52,4.861A143.857,143.857,0,0,1,78.184,146.02Zm-33.61-7.879a2.165,2.165,0,0,0,1.844,2.431c21.708,4.191,42.243,4.191,61.017.084a2.271,2.271,0,0,0,1.76-2.431c-1.76-15.59-17.434-22.63-32.269-22.63h-.084c-14.249,0-30.425,7.04-32.269,22.546Z" transform="translate(-8.843 -73.185)"/><path class="d" d="M40.619,95.238A14.919,14.919,0,1,1,55.538,80.319,14.952,14.952,0,0,1,40.619,95.238Zm0-27.575A12.656,12.656,0,1,0,53.275,80.319,12.7,12.7,0,0,0,40.619,67.663Z" transform="translate(-6.145 -65.4)"/><path class="d" d="M27.791,141.192h0A182.77,182.77,0,0,1,6,138.342a4.5,4.5,0,0,1-3.6-4.861,24.822,24.822,0,0,1,11.9-18.355c9.806-6.286,24.558-7.879,36.711-3.939a1.114,1.114,0,0,1-.754,2.1c-11.566-3.772-25.564-2.263-34.867,3.688a22.907,22.907,0,0,0-10.9,16.763,2.3,2.3,0,0,0,1.844,2.514,179.665,179.665,0,0,0,21.457,2.85A1.061,1.061,0,0,1,28.8,140.27.951.951,0,0,1,27.791,141.192Z" transform="translate(-2.369 -72.464)"/><path class="d" d="M120.719,95.238a14.919,14.919,0,1,1,14.919-14.919A14.952,14.952,0,0,1,120.719,95.238Zm0-27.575a12.656,12.656,0,1,0,12.656,12.656A12.7,12.7,0,0,0,120.719,67.663Z" transform="translate(-19.109 -65.4)"/><path class="d" d="M129.763,141.176a1.039,1.039,0,0,1-1.09-1.006A1.117,1.117,0,0,1,129.679,139a179.665,179.665,0,0,0,21.457-2.85,2.3,2.3,0,0,0,1.844-2.514c-.838-6.957-4.61-12.74-10.9-16.763-9.3-5.951-23.3-7.46-34.867-3.688a1.114,1.114,0,0,1-.754-2.1c12.153-3.939,26.9-2.347,36.711,3.939,6.873,4.442,10.98,10.812,11.9,18.355a4.5,4.5,0,0,1-3.6,4.861,149.88,149.88,0,0,1-21.708,2.934Z" transform="translate(-19.101 -72.447)"/></g><g transform="translate(11.33 14.8)"><path class="e" d="M14.183,72.78a1.115,1.115,0,0,1-.671-.251,1.085,1.085,0,0,1-.251-1.509L38.49,36.488a1.976,1.976,0,0,1,1.341-.754,2.276,2.276,0,0,1,1.425.5l14.165,14.5L71.932,31.459a1.783,1.783,0,0,1,1.257-.587,1.972,1.972,0,0,1,1.341.419l11.4,9.89,22.546-20.535a1.128,1.128,0,1,1,1.509,1.676L87.1,43.109a1.785,1.785,0,0,1-2.347,0l-11.566-9.89L56.677,52.5a1.668,1.668,0,0,1-1.341.587A1.9,1.9,0,0,1,54,52.58L39.914,38.164,15.021,72.277A.922.922,0,0,1,14.183,72.78Z" transform="translate(-13.06 -15.702)"/><g transform="translate(90.889)"><path class="e" d="M129.462,26.2l3.6-11.4L121.5,17.314Z" transform="translate(-121.5 -14.8)"/></g></g></g></g></svg>