<svg xmlns="http://www.w3.org/2000/svg" xmlns:xlink="http://www.w3.org/1999/xlink" width="140" height="140" viewBox="0 0 140 140"><defs><style>.a{fill:#f8f8f1;}.b{clip-path:url(#a);}.c,.d,.e{fill:none;}.d{stroke:#1f2639;}.d,.e{stroke-linecap:round;stroke-miterlimit:10;stroke-width:2.5px;}.e{stroke:#bb3c4f;}</style><clipPath id="a"><rect class="a" width="140" height="140" transform="translate(0)"/></clipPath></defs><g transform="translate(-159 -944)"><g transform="translate(159 944)"><g class="b"><g transform="translate(0)"><rect class="c" width="140" height="140"/></g></g></g><g transform="translate(159.5 942.2)"><g transform="translate(3.5 15.8)"><path class="d" d="M71.9,75.181H7.718A4.236,4.236,0,0,1,3.5,70.963V20.018A4.236,4.236,0,0,1,7.718,15.8h12.9" transform="translate(-3.5 -15.8)"/><path class="d" d="M34.7,15.8h66.824a4.236,4.236,0,0,1,4.218,4.218V60.956" transform="translate(-8.897 -15.8)"/><path class="d" d="M69.148,95c0,3.143,1.9,5.872,4.962,8.353a1.447,1.447,0,0,1,.579,1.158v4.052a1.482,1.482,0,0,1-1.489,1.489H44.089a1.482,1.482,0,0,1-1.489-1.489v-4.052a1.58,1.58,0,0,1,.579-1.158c3.06-2.481,4.962-5.21,4.962-8.353" transform="translate(-10.263 -29.499)"/></g><g transform="translate(55.926 60.956)"><g transform="translate(19.774)"><circle class="d" cx="13.811" cy="13.811" r="13.811"/></g><path class="d" d="M132.813,134.539c-20.428,4.8-42.013,4.549-64.674,0a1.6,1.6,0,0,1-1.241-1.654c.992-19.931,23.818-28.119,42.592-24.4l.414.083s25.8,6.534,26.465-22.082c.5-20.1,6.864-9.924,8.518-5.293,3.8,10.421,2.977,34.322-11.082,45.073a1.5,1.5,0,0,0-.579,1.571c.248,1.241.662,3.308.827,5.045A1.762,1.762,0,0,1,132.813,134.539Z" transform="translate(-66.89 -71.106)"/></g><g transform="translate(12.115 24.07)"><g transform="translate(21.571)"><circle class="d" cx="9.18" cy="9.18" r="9.18"/></g><path class="d" d="M23.662,68.375c13.232,3.06,27.292,2.895,41.93,0a1.526,1.526,0,0,0,1.241-1.654c-.992-12.9-15.879-18.112-28.2-15.631l-.248.083s-17.119,4.3-17.533-14.638c-.331-13.315-4.549-6.616-5.624-3.474C12.662,40.008,13.241,55.969,22.669,63a.786.786,0,0,1,.331.827,20.139,20.139,0,0,0-.5,2.977A1.427,1.427,0,0,0,23.662,68.375Z" transform="translate(-13.917 -26.279)"/></g><path class="e" d="M105.356,34.892H88.4a1.872,1.872,0,0,1-1.9-1.9V24.8a1.872,1.872,0,0,1,1.9-1.9h16.954a1.872,1.872,0,0,1,1.9,1.9V32.99A1.872,1.872,0,0,1,105.356,34.892Z" transform="translate(-14.357 -1.228)"/><path class="e" d="M105.356,55.892H88.4a1.872,1.872,0,0,1-1.9-1.9V45.8a1.872,1.872,0,0,1,1.9-1.9h16.954a1.872,1.872,0,0,1,1.9,1.9V53.99A1.872,1.872,0,0,1,105.356,55.892Z" transform="translate(-14.357 -4.861)"/><path class="e" d="M87.41,76.313a2.516,2.516,0,0,1-.91-1.985V67.464A2.577,2.577,0,0,1,89.064,64.9h15.631a2.76,2.76,0,0,1,2.068.992" transform="translate(-14.357 -8.493)"/><circle class="e" cx="0.331" cy="0.331" r="0.331" transform="translate(51.633 19.025)"/></g></g></svg>