<svg xmlns="http://www.w3.org/2000/svg" width="140" height="140" viewBox="0 0 140 140"><defs><style>.a{fill:#f8f8f1;}.b{fill:none;stroke:#231f20;stroke-linecap:round;stroke-miterlimit:10;stroke-width:2.5px;}.c{fill:#1f2639;}.d{fill:#bb3c4f;}</style></defs><g transform="translate(-545 -944)"><g transform="translate(545 944)"><g transform="translate(0)"><rect class="a" width="140" height="140" transform="translate(0)"/></g></g><g transform="translate(537.677 943.3)"><path class="b" d="M122.8,37.8" transform="translate(-12.477 -5.579)"/><path class="c" d="M85.933,134.334H66.925A22.668,22.668,0,0,1,44.3,111.794v-.336a22.586,22.586,0,0,1,6.644-16.064l21.7-21.7a1.189,1.189,0,0,1,1.682,1.682l-21.7,21.7a20.6,20.6,0,0,0-5.972,14.382v.336a20.317,20.317,0,0,0,20.27,20.186H85.933a20.28,20.28,0,0,0,14.382-34.568L50.944,47.957A22.941,22.941,0,0,1,44.3,31.893V31.64A22.668,22.668,0,0,1,66.925,9.1H85.933a22.686,22.686,0,0,1,22.625,22.625,22.392,22.392,0,0,1-6.644,15.98l-22.12,22.12a1.189,1.189,0,0,1-1.682-1.682l22.2-22.12a20.047,20.047,0,0,0,5.972-14.3,20.28,20.28,0,0,0-20.27-20.27H66.925a20.317,20.317,0,0,0-20.27,20.186v.252a20.367,20.367,0,0,0,5.887,14.382l49.37,49.455a22.392,22.392,0,0,1,6.644,15.98A22.632,22.632,0,0,1,85.933,134.334Z" transform="translate(0 -1.017)"/><path class="d" d="M79.147,72.863a5.218,5.218,0,0,1-3.7-1.514L64.513,60.415a5.238,5.238,0,0,1,3.7-8.915H90.586a5.2,5.2,0,0,1,4.878,3.28A5.058,5.058,0,0,1,94.2,60.5L82.764,71.433A5.466,5.466,0,0,1,79.147,72.863Zm-2.019-3.2a2.894,2.894,0,0,0,4.037.084L92.6,58.9a2.964,2.964,0,0,0,.673-3.2,2.934,2.934,0,0,0-2.691-1.85H68.213a2.966,2.966,0,0,0-2.691,1.766,2.811,2.811,0,0,0,.589,3.112Z" transform="translate(-2.971 -7.756)"/><path class="d" d="M88.63,148.395H65.753c-9.168,0-16.653-7.822-16.653-17.41a3.682,3.682,0,0,1,3.617-3.785h48.866a3.682,3.682,0,0,1,3.617,3.785C105.283,140.573,97.8,148.395,88.63,148.395Zm-35.913-18.84a1.4,1.4,0,0,0-1.346,1.43c0,8.327,6.476,15.055,14.382,15.055H88.546c7.906,0,14.382-6.729,14.382-15.055a1.4,1.4,0,0,0-1.346-1.43Z" transform="translate(-0.763 -19.788)"/><path class="d" d="M81.705,103.345A4.036,4.036,0,0,1,77.5,99.224v-.252l1.514-4.037A2.908,2.908,0,0,1,81.789,93a2.8,2.8,0,0,1,2.691,2.019l1.346,3.953v.168A3.947,3.947,0,0,1,81.705,103.345Zm-1.85-3.953a1.87,1.87,0,0,0,3.7,0l-1.177-3.617a.577.577,0,0,0-.5-.421.6.6,0,0,0-.589.421Z" transform="translate(-5.277 -14.352)"/><path class="d" d="M107.38,5.055h-61.9A1.15,1.15,0,0,1,44.3,3.877,1.15,1.15,0,0,1,45.477,2.7h61.9a1.15,1.15,0,0,1,1.177,1.177A1.15,1.15,0,0,1,107.38,5.055Z" transform="translate(0)"/><path class="d" d="M107.38,163.955h-61.9a1.177,1.177,0,1,1,0-2.355h61.9a1.177,1.177,0,1,1,0,2.355Z" transform="translate(0 -25.255)"/></g></g></svg>