<svg id="Group_4826" data-name="Group 4826" xmlns="http://www.w3.org/2000/svg" width="33" height="33" viewBox="0 0 33 33">
  <circle id="Ellipse_81" data-name="Ellipse 81" cx="16.5" cy="16.5" r="16.5" fill="none"/>
  <path id="map-marker-alt" d="M8.715,0A8.715,8.715,0,0,0,0,8.715c0,3.228,1.089,4.237,6.867,13.5a2.18,2.18,0,0,0,3.7,0c5.781-9.269,6.867-10.273,6.867-13.5A8.715,8.715,0,0,0,8.715,0Zm0,21.062C2.931,11.788,2.179,11.2,2.179,8.715a6.536,6.536,0,1,1,13.073,0C15.252,11.192,14.563,11.685,8.715,21.062ZM5.084,8.715a3.631,3.631,0,1,1,3.631,3.631A3.631,3.631,0,0,1,5.084,8.715Z" transform="translate(7.785 4.879)" fill="#4d4d4d"/>
</svg>
