<svg xmlns="http://www.w3.org/2000/svg" xmlns:xlink="http://www.w3.org/1999/xlink" width="75" height="75" viewBox="0 0 75 75"><defs><style>.a{fill:#1f1c1c;}.a,.c{stroke:#f8f8f1;stroke-width:3px;}.b{clip-path:url(#a);}.c,.d,.f{fill:none;}.d{stroke:#ba0c2f;stroke-width:4px;}.e{stroke:none;}</style><clipPath id="a"><rect class="a" width="75" height="75" transform="translate(650 1554)"/></clipPath></defs><g class="b" transform="translate(-650 -1554)"><g transform="translate(650 1554)"><rect class="c" width="75" height="75"/><path class="a" d="M68.75,50H65.625V37.5A3.125,3.125,0,0,0,62.5,34.375H40.625V31.25h0V25H43.75a3.125,3.125,0,0,0,3.125-3.125V9.375A3.125,3.125,0,0,0,43.75,6.25H31.25a3.125,3.125,0,0,0-3.125,3.125v12.5A3.125,3.125,0,0,0,31.25,25h3.125v9.375H12.5A3.125,3.125,0,0,0,9.375,37.5V50H6.25a3.125,3.125,0,0,0-3.125,3.125v12.5A3.125,3.125,0,0,0,6.25,68.75h12.5a3.125,3.125,0,0,0,3.125-3.125v-12.5A3.125,3.125,0,0,0,18.75,50H15.625V40.625h18.75V50H31.25a3.125,3.125,0,0,0-3.125,3.125v12.5A3.125,3.125,0,0,0,31.25,68.75h12.5a3.125,3.125,0,0,0,3.125-3.125v-12.5A3.125,3.125,0,0,0,43.75,50H40.625V40.625h18.75V50H56.25a3.125,3.125,0,0,0-3.125,3.125v12.5A3.125,3.125,0,0,0,56.25,68.75h12.5a3.125,3.125,0,0,0,3.125-3.125v-12.5A3.125,3.125,0,0,0,68.75,50ZM15.625,62.5H9.375V56.25h6.25Zm18.75-50h6.25v6.25h-6.25Zm6.25,50h-6.25V56.25h6.25Zm25,0h-6.25V56.25h6.25Z"/><g class="d" transform="translate(29 7)"><rect class="e" width="17" height="17" rx="2"/><rect class="f" x="2" y="2" width="13" height="13"/></g></g></g></svg>