<svg xmlns="http://www.w3.org/2000/svg" xmlns:xlink="http://www.w3.org/1999/xlink" width="140" height="140" viewBox="0 0 140 140"><defs><style>.a{fill:#f8f8f1;}.b{clip-path:url(#a);}.c{fill:rgba(0,0,0,0);}.d{fill:#1f2639;}.e{fill:#bb3c4f;}</style><clipPath id="a"><rect class="a" width="140" height="140" transform="translate(994 1374)"/></clipPath></defs><g transform="translate(-957 -1376)"><g class="b" transform="translate(-37 2)"><g transform="translate(994 1374)"><rect class="c" width="140" height="140"/></g></g><g transform="translate(956.844 1373.334)"><g transform="translate(2.5 53.15)"><path class="d" d="M37.639,87.079A13.439,13.439,0,1,1,51.079,73.639,13.431,13.431,0,0,1,37.639,87.079Zm0-24.625A11.269,11.269,0,1,0,48.908,73.723,11.275,11.275,0,0,0,37.639,62.454Z" transform="translate(-6.086 -60.2)"/><path class="d" d="M44.822,138.868h-21.2a4.063,4.063,0,0,1-4.007-4.007v-21.7a1.587,1.587,0,0,0-.417-1.085L3.335,91.622A4.239,4.239,0,0,1,2.5,89.2,4.1,4.1,0,0,1,5,85.445a4,4,0,0,1,4.424,1L20.614,98.3a1.97,1.97,0,0,0,1.336.584H46.491a1.661,1.661,0,0,0,1.336-.584L59.012,86.446a4,4,0,0,1,4.424-1,3.9,3.9,0,0,1,2.5,3.756,4.04,4.04,0,0,1-.835,2.421l-15.86,20.451a1.965,1.965,0,0,0-.417,1.085v21.7A3.956,3.956,0,0,1,44.822,138.868ZM6.59,87.281a1.573,1.573,0,0,0-.668.167,1.7,1.7,0,0,0-1.169,1.669A1.587,1.587,0,0,0,5.171,90.2l15.86,20.451a4.239,4.239,0,0,1,.835,2.421v21.7a1.853,1.853,0,0,0,1.836,1.836H44.9a1.853,1.853,0,0,0,1.836-1.836v-21.7a4.04,4.04,0,0,1,.835-2.421L63.436,90.2a1.965,1.965,0,0,0,.417-1.085,1.7,1.7,0,0,0-1.169-1.669,1.92,1.92,0,0,0-2,.417L49.5,99.719a3.916,3.916,0,0,1-2.922,1.252H21.95a3.916,3.916,0,0,1-2.922-1.252L7.842,87.866A1.945,1.945,0,0,0,6.59,87.281Z" transform="translate(-2.5 -64.326)"/></g><g transform="translate(74.371 50.2)"><path class="d" d="M130.922,138.868h-21.2a4.063,4.063,0,0,1-4.007-4.007v-21.7a1.587,1.587,0,0,0-.417-1.085L89.435,91.622A4.239,4.239,0,0,1,88.6,89.2a4.1,4.1,0,0,1,2.5-3.756,4,4,0,0,1,4.424,1L106.714,98.3a1.97,1.97,0,0,0,1.336.584h24.541a1.661,1.661,0,0,0,1.336-.584l11.186-11.853a4,4,0,0,1,4.424-1,3.9,3.9,0,0,1,2.5,3.756,4.039,4.039,0,0,1-.835,2.421l-15.86,20.451a1.965,1.965,0,0,0-.417,1.085v21.7A3.956,3.956,0,0,1,130.922,138.868ZM92.69,87.281a1.573,1.573,0,0,0-.668.167,1.7,1.7,0,0,0-1.169,1.669,1.587,1.587,0,0,0,.417,1.085l15.86,20.451a4.239,4.239,0,0,1,.835,2.421v21.7a1.853,1.853,0,0,0,1.836,1.836H131a1.853,1.853,0,0,0,1.836-1.836v-21.7a4.04,4.04,0,0,1,.835-2.421L149.536,90.2a1.965,1.965,0,0,0,.417-1.085,1.7,1.7,0,0,0-1.169-1.669,1.92,1.92,0,0,0-2,.417L135.6,99.719a3.916,3.916,0,0,1-2.922,1.252H108.133a3.916,3.916,0,0,1-2.922-1.252L93.942,87.866A1.945,1.945,0,0,0,92.69,87.281Z" transform="translate(-88.6 -61.376)"/><path class="d" d="M123.736,86.495a13.19,13.19,0,0,1-9.516-4.007,13.417,13.417,0,0,1,7.6-22.789,13.3,13.3,0,0,1,7.847,1.252,14,14,0,0,1,13.022-3.923,6.768,6.768,0,0,1,5.342,5.342c.167.918.25,1.836.334,2.755.167,2.087.417,3.923,1.669,5.509h0a9.9,9.9,0,0,0,2.838,2.337,1.681,1.681,0,0,1-.417,3.089,13.442,13.442,0,0,1-6.261.25c-2.755-.584-3.589-2.671-4.508-4.925a26.932,26.932,0,0,0-1.252-2.838q-.751-1.377-4.007.25a13.183,13.183,0,0,1,.5,6.261,13.373,13.373,0,0,1-11.686,11.186A2.859,2.859,0,0,1,123.736,86.495Zm0-24.625a10.1,10.1,0,0,0-1.586.083,11.24,11.24,0,0,0,2.922,22.288,11.247,11.247,0,0,0,9.767-9.349,10.645,10.645,0,0,0-.5-5.593,1.862,1.862,0,0,1,.751-2.087c4.508-2.421,6.511-1.085,7.346.417.584,1.085,1,2.17,1.419,3.089.918,2.254,1.336,3.256,2.922,3.589a11.206,11.206,0,0,0,4.09,0,14.675,14.675,0,0,1-2.337-2.17h0c-1.669-2.087-1.92-4.424-2.17-6.678-.083-.835-.167-1.669-.334-2.5a4.693,4.693,0,0,0-3.756-3.673,11.88,11.88,0,0,0-11.1,3.506,1.793,1.793,0,0,1-2.087.417A11.028,11.028,0,0,0,123.736,61.87Z" transform="translate(-92.183 -56.666)"/></g><g transform="translate(51.249 17.541)"><path class="e" d="M80.35,62.983A19.491,19.491,0,1,1,90.867,27.089,1.088,1.088,0,0,1,89.7,28.925,17.493,17.493,0,0,0,80.35,26.17,17.214,17.214,0,1,0,96.377,36.939a1.085,1.085,0,1,1,2-.835A19.564,19.564,0,0,1,80.35,62.983Z" transform="translate(-60.9 -18.608)"/><path class="d" d="M80.926,50.4a3.129,3.129,0,0,1-2.5-1.169l-8.6-10.351a1.78,1.78,0,0,1,2.755-2.254l8.431,10.1,23.707-28.548a1.78,1.78,0,1,1,2.755,2.254L83.43,49.144A3.2,3.2,0,0,1,80.926,50.4Z" transform="translate(-62.311 -17.541)"/></g></g></g></svg>