<svg xmlns="http://www.w3.org/2000/svg" width="83" height="83" viewBox="0 0 83 83"><defs><style>.a{fill:#fff;}.b{fill:#1f2639;}.c{fill:#bb3c4f;}</style></defs><g transform="translate(-864 -3873)"><rect class="a" width="83" height="83" transform="translate(864 3873)"/><g transform="translate(869.991 3877.8)"><g transform="translate(10.113 5.416)"><path class="b" d="M55.832,68.093a5.7,5.7,0,0,1-1.646-.247L25.413,58.3A5.222,5.222,0,0,1,22.12,51.71l13.584-41A5.222,5.222,0,0,1,42.289,7.42L71.1,16.969A5.222,5.222,0,0,1,74.4,23.555l-13.584,41A5.309,5.309,0,0,1,55.832,68.093ZM54.6,66.652a3.994,3.994,0,0,0,5.022-2.511l13.584-41a3.994,3.994,0,0,0-2.511-5.022L41.919,8.613A3.994,3.994,0,0,0,36.9,11.124l-13.584,41a3.994,3.994,0,0,0,2.511,5.022Z" transform="translate(-21.854 -7.154)"/><path class="b" d="M132.922,52.216a.371.371,0,0,1-.206-.041l-1.235-.412a.625.625,0,0,1,.37-1.194l1.235.412a.652.652,0,0,1,.412.782A.606.606,0,0,1,132.922,52.216Z" transform="translate(-86.102 -32.687)"/><path class="b" d="M91.237,38.374a.371.371,0,0,1-.206-.041l-9.55-3.169a.625.625,0,0,1,.37-1.194L91.4,37.14a.652.652,0,0,1,.412.782A.606.606,0,0,1,91.237,38.374Z" transform="translate(-56.683 -22.919)"/><path class="b" d="M61.363,28.517a.371.371,0,0,1-.206-.041l-1.276-.412a.625.625,0,1,1,.37-1.194l1.276.412a.652.652,0,0,1,.412.782A.606.606,0,0,1,61.363,28.517Z" transform="translate(-43.974 -18.742)"/><path class="b" d="M126.4,72.275a.371.371,0,0,1-.206-.041l-1.111-.37a.625.625,0,0,1,.37-1.194l1.111.37a.652.652,0,0,1,.412.782A.606.606,0,0,1,126.4,72.275Z" transform="translate(-82.336 -44.513)"/><path class="b" d="M64.707,51.851a.371.371,0,0,1-.206-.041l-11.32-3.746a.625.625,0,1,1,.37-1.194l11.32,3.746a.652.652,0,0,1,.412.782A.572.572,0,0,1,64.707,51.851Z" transform="translate(-40.032 -30.51)"/><path class="b" d="M119.917,92.434a.371.371,0,0,1-.206-.041l-1.029-.329a.625.625,0,0,1,.37-1.194l1.029.329a.652.652,0,0,1,.412.782A.606.606,0,0,1,119.917,92.434Z" transform="translate(-78.571 -56.398)"/><path class="b" d="M68.768,75.491a.371.371,0,0,1-.206-.041L46.582,68.164a.625.625,0,1,1,.37-1.194l21.981,7.286a.652.652,0,0,1,.412.782A.606.606,0,0,1,68.768,75.491Z" transform="translate(-36.148 -42.336)"/><path class="b" d="M113.1,112.475a.371.371,0,0,1-.206-.041l-1.111-.37a.625.625,0,0,1,.37-1.194l1.111.37a.652.652,0,0,1,.412.782A.606.606,0,0,1,113.1,112.475Z" transform="translate(-74.511 -68.166)"/><path class="b" d="M74.954,99.786a.371.371,0,0,1-.206-.041L61.782,95.464a.625.625,0,0,1,.37-1.194l13.007,4.322a.652.652,0,0,1,.412.782A.585.585,0,0,1,74.954,99.786Z" transform="translate(-45.092 -58.399)"/><path class="b" d="M41.363,88.716a.371.371,0,0,1-.206-.041l-1.276-.412a.625.625,0,0,1,.37-1.194l1.276.412a.652.652,0,0,1,.412.782A.572.572,0,0,1,41.363,88.716Z" transform="translate(-32.206 -54.162)"/><path class="b" d="M106.1,132.358a.371.371,0,0,1-.206-.041l-1.317-.453a.625.625,0,1,1,.37-1.194l1.317.453a.652.652,0,0,1,.412.782A.543.543,0,0,1,106.1,132.358Z" transform="translate(-70.274 -79.816)"/><path class="b" d="M76.177,122.527a.371.371,0,0,1-.206-.041l-13.09-4.322a.625.625,0,1,1,.37-1.194l13.09,4.322a.652.652,0,0,1,.412.782A.606.606,0,0,1,76.177,122.527Z" transform="translate(-45.739 -71.755)"/><path class="b" d="M34.763,108.716a.371.371,0,0,1-.206-.041l-1.276-.412a.625.625,0,0,1,.37-1.194l1.276.412a.652.652,0,0,1,.412.782A.606.606,0,0,1,34.763,108.716Z" transform="translate(-28.323 -65.93)"/><path class="c" d="M65.6,29.584a1.48,1.48,0,0,1-.453-.082,1.543,1.543,0,0,1-.864-.741,1.6,1.6,0,0,1-.082-1.153l1.441-4.363a1.5,1.5,0,1,1,2.84.947l-1.441,4.363a1.543,1.543,0,0,1-.741.864A2.164,2.164,0,0,1,65.6,29.584Zm1.441-6.133a.278.278,0,0,0-.247.165L65.35,27.978c-.041.082,0,.165,0,.206s.041.082.165.123c.082.041.165,0,.206,0s.082-.041.123-.165l1.441-4.363a.28.28,0,0,0-.165-.329Z" transform="translate(-46.725 -16.022)"/><path class="c" d="M73.5,32.184a1.48,1.48,0,0,1-.453-.082h0a1.506,1.506,0,0,1-.947-1.893l1.441-4.363a1.5,1.5,0,0,1,2.84.947l-1.441,4.363A1.508,1.508,0,0,1,73.5,32.184Zm-.082-1.235c.082.041.165,0,.206,0s.082-.041.123-.165l1.441-4.363a.28.28,0,0,0-.165-.329c-.082-.041-.165,0-.206,0s-.082.041-.123.165L73.25,30.619a.28.28,0,0,0,.165.329Z" transform="translate(-51.374 -17.552)"/><path class="c" d="M45.6,89.783a1.48,1.48,0,0,1-.453-.082,1.505,1.505,0,0,1-.947-1.893l1.441-4.363a1.543,1.543,0,0,1,.741-.864,1.6,1.6,0,0,1,1.153-.082,1.505,1.505,0,0,1,.947,1.893l-1.441,4.363a1.543,1.543,0,0,1-.741.864A2.164,2.164,0,0,1,45.6,89.783Zm1.482-6.133a.151.151,0,0,0-.123.041c-.041,0-.082.041-.123.165l-1.441,4.363a.28.28,0,0,0,.165.329h0c.082.041.165,0,.206,0s.082-.041.123-.165l1.441-4.363a.28.28,0,0,0-.165-.329A.127.127,0,0,0,47.079,83.65Z" transform="translate(-34.958 -51.442)"/><path class="c" d="M53.6,92.384a1.479,1.479,0,0,1-.453-.082,1.505,1.505,0,0,1-.947-1.893l1.441-4.363a1.506,1.506,0,0,1,1.893-.947,1.543,1.543,0,0,1,.864.741,1.6,1.6,0,0,1,.082,1.153l-1.441,4.363a1.543,1.543,0,0,1-.741.864A1.568,1.568,0,0,1,53.6,92.384Zm1.441-6.133a.151.151,0,0,0-.123.041c-.041,0-.082.041-.123.165L53.35,90.819a.28.28,0,0,0,.165.329c.082.041.165,0,.206,0s.082-.041.123-.165l1.441-4.363c.041-.082,0-.165,0-.206s-.041-.082-.165-.123A.127.127,0,0,0,55.038,86.25Z" transform="translate(-39.665 -52.972)"/><path class="c" d="M115.8,46.183a1.48,1.48,0,0,1-.453-.082h0a1.506,1.506,0,0,1-.947-1.893l1.441-4.363a1.543,1.543,0,0,1,.741-.864,1.6,1.6,0,0,1,1.153-.082,1.4,1.4,0,0,1,.864.741,1.6,1.6,0,0,1,.082,1.153l-1.441,4.363A1.53,1.53,0,0,1,115.8,46.183Zm-.082-1.235a.28.28,0,0,0,.329-.165l1.441-4.363c.041-.082,0-.165,0-.206s-.041-.082-.165-.123c-.082-.041-.165,0-.206,0s-.082.041-.123.165l-1.441,4.363A.246.246,0,0,0,115.715,44.948Z" transform="translate(-76.263 -25.789)"/><path class="c" d="M107.4,43.383a1.48,1.48,0,0,1-.453-.082h0a1.543,1.543,0,0,1-.864-.741A1.587,1.587,0,0,1,106,41.407l1.441-4.363a1.543,1.543,0,0,1,.741-.864,1.587,1.587,0,0,1,1.153-.082,1.506,1.506,0,0,1,.947,1.893l-1.441,4.363a1.543,1.543,0,0,1-.741.864A1.568,1.568,0,0,1,107.4,43.383Zm1.441-6.133a.151.151,0,0,0-.123.041c-.041,0-.082.041-.123.165l-1.441,4.363c-.041.082,0,.165,0,.206s.041.082.165.123h0c.082.041.165,0,.206,0s.082-.041.123-.165l1.441-4.363a.28.28,0,0,0-.165-.329C108.879,37.291,108.879,37.25,108.838,37.25Z" transform="translate(-71.32 -24.141)"/><path class="c" d="M123.7,48.883a1.48,1.48,0,0,1-.453-.082,1.543,1.543,0,0,1-.864-.741,1.6,1.6,0,0,1-.082-1.153l1.441-4.363a1.543,1.543,0,0,1,.741-.864,1.6,1.6,0,0,1,1.153-.082,1.506,1.506,0,0,1,.947,1.893l-1.441,4.363a1.543,1.543,0,0,1-.741.864A2.164,2.164,0,0,1,123.7,48.883Zm1.441-6.133a.151.151,0,0,0-.123.041c-.041,0-.082.041-.123.165l-1.441,4.363c-.041.082,0,.165,0,.206s.041.082.165.123h0c.082.041.165,0,.206,0s.082-.041.123-.165l1.441-4.363a.28.28,0,0,0-.165-.329C125.22,42.75,125.179,42.75,125.138,42.75Z" transform="translate(-80.91 -27.377)"/><path class="c" d="M47.1,112.483a1.48,1.48,0,0,1-.453-.082,1.505,1.505,0,0,1-.947-1.893l1.441-4.363a1.543,1.543,0,0,1,.741-.864,1.6,1.6,0,0,1,1.153-.082,1.505,1.505,0,0,1,.947,1.893l-1.441,4.363A1.493,1.493,0,0,1,47.1,112.483Zm1.482-6.092a.151.151,0,0,0-.123.041c-.041,0-.082.041-.123.165l-1.441,4.363a.26.26,0,1,0,.494.165l1.441-4.363a.28.28,0,0,0-.165-.329A.127.127,0,0,0,48.579,106.391Z" transform="translate(-35.841 -64.798)"/><path class="c" d="M38.7,109.783a1.48,1.48,0,0,1-.453-.082,1.543,1.543,0,0,1-.864-.741,1.6,1.6,0,0,1-.082-1.153l1.441-4.363a1.543,1.543,0,0,1,.741-.864,1.587,1.587,0,0,1,1.153-.082,1.543,1.543,0,0,1,.864.741,1.6,1.6,0,0,1,.082,1.153l-1.441,4.363a1.543,1.543,0,0,1-.741.864A1.939,1.939,0,0,1,38.7,109.783Zm1.482-6.133a.151.151,0,0,0-.123.041c-.041,0-.082.041-.123.165l-1.441,4.363c-.041.082,0,.165,0,.206s.041.082.165.123c.082.041.165,0,.206,0s.082-.041.123-.165l1.441-4.363c.041-.082,0-.165,0-.206s-.041-.082-.165-.123A.127.127,0,0,0,40.179,103.65Z" transform="translate(-30.898 -63.21)"/><path class="c" d="M55.1,115.184a1.48,1.48,0,0,1-.453-.082h0a1.506,1.506,0,0,1-.947-1.893l1.441-4.363a1.5,1.5,0,0,1,2.84.947l-1.441,4.363a1.543,1.543,0,0,1-.741.864A1.568,1.568,0,0,1,55.1,115.184Zm1.441-6.133a.278.278,0,0,0-.247.165l-1.441,4.363c-.041.082,0,.165,0,.206s.041.082.165.123h0c.082.041.165,0,.206,0s.082-.041.123-.165l1.441-4.363a.28.28,0,0,0-.165-.329Z" transform="translate(-40.548 -66.387)"/><path class="c" d="M109.1,66.284a1.48,1.48,0,0,1-.453-.082h0a1.505,1.505,0,0,1-.947-1.893l1.441-4.363A1.506,1.506,0,0,1,111.032,59a1.543,1.543,0,0,1,.864.741,1.6,1.6,0,0,1,.082,1.153l-1.441,4.363a1.543,1.543,0,0,1-.741.864A1.454,1.454,0,0,1,109.1,66.284Zm-.082-1.235c.082.041.165,0,.206,0s.082-.041.123-.165l1.441-4.363c.041-.082,0-.165,0-.206s-.041-.082-.165-.123a.28.28,0,0,0-.329.165l-1.441,4.363a.3.3,0,0,0,.165.329Z" transform="translate(-72.32 -37.616)"/><path class="c" d="M100.7,63.483a1.48,1.48,0,0,1-.453-.082h0a1.505,1.505,0,0,1-.947-1.893l1.441-4.363a1.543,1.543,0,0,1,.741-.864,1.6,1.6,0,0,1,1.153-.082,1.4,1.4,0,0,1,.864.741,1.6,1.6,0,0,1,.082,1.153l-1.441,4.363A1.548,1.548,0,0,1,100.7,63.483Zm-.082-1.235a.28.28,0,0,0,.329-.165l1.441-4.363c.041-.082,0-.165,0-.206s-.041-.082-.165-.123c-.082-.041-.165,0-.206,0s-.082.041-.123.165l-1.441,4.363a.28.28,0,0,0,.165.329Z" transform="translate(-67.378 -35.968)"/><path class="c" d="M92.1,60.684a1.48,1.48,0,0,1-.453-.082,1.543,1.543,0,0,1-.864-.741,1.6,1.6,0,0,1-.082-1.153l1.441-4.363a1.505,1.505,0,0,1,1.893-.947,1.543,1.543,0,0,1,.864.741,1.6,1.6,0,0,1,.082,1.153l-1.441,4.363a1.543,1.543,0,0,1-.741.864A2.164,2.164,0,0,1,92.1,60.684Zm1.482-6.133a.278.278,0,0,0-.247.165l-1.441,4.363c-.041.082,0,.165,0,.206s.041.082.165.123h0c.082.041.165,0,.206,0s.082-.041.123-.165l1.441-4.363c.041-.082,0-.165,0-.206s-.041-.082-.165-.123Z" transform="translate(-62.318 -34.321)"/><path class="c" d="M83.7,57.884a1.48,1.48,0,0,1-.453-.082h0a1.543,1.543,0,0,1-.864-.741,1.6,1.6,0,0,1-.082-1.153l1.441-4.363a1.5,1.5,0,1,1,2.84.947l-1.441,4.363a1.543,1.543,0,0,1-.741.864A1.939,1.939,0,0,1,83.7,57.884Zm1.482-6.133a.278.278,0,0,0-.247.165l-1.441,4.363c-.041.082,0,.165,0,.206s.041.082.165.123h0c.082.041.165,0,.206,0s.082-.041.123-.165l1.441-4.363a.28.28,0,0,0-.165-.329Z" transform="translate(-57.375 -32.673)"/><path class="c" d="M117,68.883a1.48,1.48,0,0,1-.453-.082h0a1.506,1.506,0,0,1-.947-1.893l1.441-4.363a1.543,1.543,0,0,1,.741-.864,1.6,1.6,0,0,1,1.153-.082,1.543,1.543,0,0,1,.864.741,1.6,1.6,0,0,1,.082,1.153l-1.441,4.363A1.457,1.457,0,0,1,117,68.883Zm-.082-1.235a.28.28,0,0,0,.329-.165l1.441-4.363c.041-.082,0-.165,0-.206s-.041-.082-.165-.123c-.082-.041-.165,0-.206,0s-.082.041-.123.165l-1.441,4.363a.28.28,0,0,0,.165.329Z" transform="translate(-76.969 -39.145)"/><path class="c" d="M102.4,86.384a1.479,1.479,0,0,1-.453-.082h0A1.505,1.505,0,0,1,101,84.408l1.441-4.363a1.5,1.5,0,0,1,2.84.947l-1.441,4.363A1.508,1.508,0,0,1,102.4,86.384Zm-.082-1.276a.28.28,0,0,0,.329-.165l1.441-4.363a.26.26,0,0,0-.494-.165l-1.441,4.363a.26.26,0,0,0,.165.329Z" transform="translate(-68.378 -49.442)"/><path class="c" d="M110.4,88.983a1.48,1.48,0,0,1-.453-.082h0a1.543,1.543,0,0,1-.864-.741A1.6,1.6,0,0,1,109,87.007l1.441-4.363a1.543,1.543,0,0,1,.741-.864,1.6,1.6,0,0,1,1.153-.082,1.506,1.506,0,0,1,.947,1.893L111.8,87.954a1.543,1.543,0,0,1-.741.864A1.3,1.3,0,0,1,110.4,88.983Zm1.441-6.133a.151.151,0,0,0-.123.041c-.041,0-.082.041-.123.165l-1.441,4.363c-.041.082,0,.165,0,.206s.041.082.165.123h0c.082.041.165,0,.206,0s.082-.041.123-.165l1.441-4.363a.28.28,0,0,0-.165-.329C111.879,82.85,111.879,82.85,111.838,82.85Z" transform="translate(-73.085 -50.971)"/><path class="c" d="M95.8,106.383a1.48,1.48,0,0,1-.453-.082h0a1.543,1.543,0,0,1-.864-.741,1.6,1.6,0,0,1-.082-1.153l1.441-4.363a1.543,1.543,0,0,1,.741-.864,1.587,1.587,0,0,1,1.153-.082,1.543,1.543,0,0,1,.864.741,1.6,1.6,0,0,1,.082,1.153l-1.441,4.363a1.543,1.543,0,0,1-.741.864A1.568,1.568,0,0,1,95.8,106.383Zm1.441-6.133a.151.151,0,0,0-.123.041c-.041,0-.082.041-.123.165l-1.441,4.363c-.041.082,0,.165,0,.206s.041.082.165.123h0c.082.041.165,0,.206,0s.082-.041.123-.165l1.441-4.363c.041-.082,0-.165,0-.206s-.041-.082-.165-.123C97.279,100.25,97.279,100.25,97.238,100.25Z" transform="translate(-64.495 -61.209)"/><path class="c" d="M103.7,109.083a1.48,1.48,0,0,1-.453-.082h0a1.506,1.506,0,0,1-.947-1.893l1.441-4.363a1.543,1.543,0,0,1,.741-.864,1.6,1.6,0,0,1,1.153-.082,1.543,1.543,0,0,1,.864.741,1.6,1.6,0,0,1,.082,1.153l-1.441,4.363a1.543,1.543,0,0,1-.741.864A2.164,2.164,0,0,1,103.7,109.083Zm-.082-1.276c.082.041.165,0,.206,0s.082-.041.123-.165l1.441-4.363c.041-.082,0-.165,0-.206s-.041-.082-.165-.123c-.082-.041-.165,0-.206,0s-.082.041-.123.165l-1.441,4.363a.26.26,0,0,0,.165.329Z" transform="translate(-69.143 -62.798)"/><path class="c" d="M97.1,129.084a1.48,1.48,0,0,1-.453-.082h0a1.543,1.543,0,0,1-.864-.741,1.6,1.6,0,0,1-.082-1.153l1.441-4.363a1.5,1.5,0,0,1,2.84.947l-1.441,4.363a1.543,1.543,0,0,1-.741.864A1.568,1.568,0,0,1,97.1,129.084Zm1.441-6.133a.278.278,0,0,0-.247.165l-1.441,4.363c-.041.082,0,.165,0,.206s.041.082.165.123h0c.082.041.165,0,.206,0s.082-.041.123-.165l1.441-4.363a.28.28,0,0,0-.165-.329Z" transform="translate(-65.259 -74.566)"/></g><path class="b" d="M150.579,13.935h-8.562a.617.617,0,0,1,0-1.235h8.562a.617.617,0,0,1,0,1.235Z" transform="translate(-82.079 -5.001)"/><g transform="translate(1.9 4.2)"><path class="b" d="M11.079,15.835H2.517a.617.617,0,0,1,0-1.235h8.562a.633.633,0,0,1,.617.617A.606.606,0,0,1,11.079,15.835Z" transform="translate(-1.9 -10.319)"/><path class="b" d="M12.917,14a.633.633,0,0,1-.617-.617V4.817a.617.617,0,0,1,1.235,0v8.562A.583.583,0,0,1,12.917,14Z" transform="translate(-8.019 -4.2)"/></g><g transform="translate(1.9 60.139)"><path class="b" d="M11.079,150.635H2.517a.617.617,0,1,1,0-1.235h8.562a.633.633,0,0,1,.617.617A.606.606,0,0,1,11.079,150.635Z" transform="translate(-1.9 -145.572)"/><path class="b" d="M12.917,157.446a.633.633,0,0,1-.617-.617v-1.811a.617.617,0,0,1,1.235,0v1.811A.606.606,0,0,1,12.917,157.446Z" transform="translate(-8.019 -148.514)"/><path class="b" d="M12.917,143.27a.633.633,0,0,1-.617-.617v-1.935a.617.617,0,0,1,1.235,0v1.935A.606.606,0,0,1,12.917,143.27Z" transform="translate(-8.019 -140.1)"/></g><g transform="translate(60.536 62.259)"><path class="b" d="M151.039,152.515a.619.619,0,0,1-.453-.165l-6.051-6.051a.611.611,0,0,1,.864-.864l6.051,6.051a.6.6,0,0,1,0,.864A.629.629,0,0,1,151.039,152.515Z" transform="translate(-144.35 -145.25)"/><path class="b" d="M144.988,152.515a.619.619,0,0,1-.453-.165.6.6,0,0,1,0-.864l6.051-6.051a.611.611,0,1,1,.864.864l-6.01,6.01A.661.661,0,0,1,144.988,152.515Z" transform="translate(-144.35 -145.25)"/></g></g></g></svg>