<svg xmlns="http://www.w3.org/2000/svg" width="83" height="83" viewBox="0 0 83 83"><defs><style>.a{fill:#fff;}.b{fill:#bb3c4f;}.c{fill:#1f2639;}</style></defs><g transform="translate(-469 -3997)"><rect class="a" width="83" height="83" transform="translate(469 3997)"/><g transform="translate(478.058 4006.3)"><path class="b" d="M27.624,29.613H5.127A2.716,2.716,0,0,1,2.4,26.886V4.427A2.716,2.716,0,0,1,5.127,1.7h22.5a2.716,2.716,0,0,1,2.727,2.727v22.5A2.757,2.757,0,0,1,27.624,29.613ZM5.127,2.8A1.617,1.617,0,0,0,3.5,4.427v22.5a1.617,1.617,0,0,0,1.629,1.629h22.5a1.617,1.617,0,0,0,1.629-1.629V4.427A1.617,1.617,0,0,0,27.624,2.8H5.127Z"/><path class="b" d="M27.624,119.613H5.127A2.716,2.716,0,0,1,2.4,116.886V94.427A2.716,2.716,0,0,1,5.127,91.7h22.5a2.716,2.716,0,0,1,2.727,2.727v22.5A2.757,2.757,0,0,1,27.624,119.613ZM5.127,92.8A1.617,1.617,0,0,0,3.5,94.427v22.5a1.617,1.617,0,0,0,1.629,1.629h22.5a1.617,1.617,0,0,0,1.629-1.629v-22.5A1.617,1.617,0,0,0,27.624,92.8Z" transform="translate(0 -55.913)"/><path class="b" d="M116.124,29.613h-22.5A2.716,2.716,0,0,1,90.9,26.886V4.427A2.716,2.716,0,0,1,93.627,1.7h22.5a2.716,2.716,0,0,1,2.727,2.727v22.5A2.708,2.708,0,0,1,116.124,29.613ZM93.627,2.8A1.617,1.617,0,0,0,92,4.427v22.5a1.617,1.617,0,0,0,1.629,1.629h22.5a1.617,1.617,0,0,0,1.629-1.629V4.427A1.617,1.617,0,0,0,116.124,2.8h-22.5Z" transform="translate(-54.981)"/><path class="b" d="M116.124,119.613h-22.5a2.716,2.716,0,0,1-2.727-2.727V94.427A2.716,2.716,0,0,1,93.627,91.7h22.5a2.716,2.716,0,0,1,2.727,2.727v22.5A2.708,2.708,0,0,1,116.124,119.613ZM93.627,92.8A1.617,1.617,0,0,0,92,94.427v22.5a1.617,1.617,0,0,0,1.629,1.629h22.5a1.617,1.617,0,0,0,1.629-1.629v-22.5a1.617,1.617,0,0,0-1.629-1.629Z" transform="translate(-54.981 -55.913)"/><g transform="translate(5.427 7.76)"><g transform="translate(5.154)"><path class="c" d="M28.128,25.957a4.128,4.128,0,1,1,4.128-4.128A4.138,4.138,0,0,1,28.128,25.957Zm0-7.2a3.03,3.03,0,1,0,3.03,3.03A3.039,3.039,0,0,0,28.128,18.76Z" transform="translate(-24 -17.7)"/></g><path class="c" d="M20.015,37.491a44.141,44.141,0,0,1-8.976-.947.788.788,0,0,1-.644-.833A6.648,6.648,0,0,1,12.97,30.6,11.655,11.655,0,0,1,22.1,28.7l.114.038c.038,0,2.651.644,4.431-.72,1.136-.871,1.742-2.386,1.818-4.507.076-2.424.454-3.522,1.25-3.636,1.136-.189,1.932,1.856,2.007,2.083,1.023,2.8.871,9.241-2.992,12.271a12.807,12.807,0,0,1,.227,1.439.783.783,0,0,1-.606.833h0A33.687,33.687,0,0,1,20.015,37.491Zm-8.522-1.969a38.212,38.212,0,0,0,16.324,0c-.038-.454-.151-.985-.189-1.212a.87.87,0,0,1,.3-.833c3.522-2.613,3.674-8.635,2.765-11.1a3.841,3.841,0,0,0-.8-1.326,6.656,6.656,0,0,0-.379,2.538c-.076,2.462-.8,4.242-2.235,5.34a6.878,6.878,0,0,1-5.34.909h-.076a10.491,10.491,0,0,0-8.257,1.666A5.509,5.509,0,0,0,11.493,35.522Zm16.7.492Z" transform="translate(-10.392 -19.046)"/></g><path class="c" d="M116.073,121.882a.763.763,0,0,1-.417-.114l-5.795-3.068-5.795,3.068a.862.862,0,0,1-.947-.076.952.952,0,0,1-.379-.871l1.1-6.477-4.7-4.583a.874.874,0,0,1-.227-.947.851.851,0,0,1,.72-.606l6.477-.947,2.916-5.871a.883.883,0,0,1,.8-.492h0a.883.883,0,0,1,.8.492h0l2.916,5.871,6.477.947a.859.859,0,0,1,.72.606.891.891,0,0,1-.227.947l-4.7,4.583,1.1,6.477a.814.814,0,0,1-.379.871A.567.567,0,0,1,116.073,121.882Zm-15.945-12.65,4.507,4.393a.9.9,0,0,1,.265.8l-1.06,6.211,5.568-2.916a.821.821,0,0,1,.833,0l5.568,2.916-1.06-6.211a.869.869,0,0,1,.265-.8l4.507-4.393-6.211-.909a.854.854,0,0,1-.682-.492l-2.8-5.643-2.8,5.643a.854.854,0,0,1-.682.492Zm9.772,9.431Zm3.674-11.324Zm-3.9-5.454Z" transform="translate(-59.93 -61.629)"/><path class="c" d="M110.92,34.842a.647.647,0,0,1-.492-.265c-.3-.417-.038-.909.985-2.5.265-.454.682-1.1.909-1.553-4.886-.227-8.522-3.106-8.522-6.893,0-3.825,4.318-6.931,9.62-6.931s9.62,3.106,9.62,6.931a6.178,6.178,0,0,1-4.469,6.211c-.227.114-1.742,1.174-2.954,2.045-3.333,2.348-4.166,2.916-4.545,2.992A.286.286,0,0,0,110.92,34.842Zm2.462-17.081c-4.7,0-8.522,2.613-8.522,5.833,0,3.333,3.447,5.833,8.029,5.833a.587.587,0,0,1,.568.341c.265.492-.076,1.1-1.174,2.878-.076.114-.114.189-.189.3.871-.606,1.969-1.363,2.841-2.007a35.735,35.735,0,0,1,3.219-2.2,5.084,5.084,0,0,0,3.75-5.189C121.9,20.374,118.079,17.76,113.382,17.76Z" transform="translate(-62.995 -9.319)"/><path class="c" d="M25.051,122.233a.57.57,0,0,1-.53-.379l-4.053-13.1a.539.539,0,1,1,1.023-.341l4.09,13.1a.552.552,0,0,1-.341.682A.412.412,0,0,1,25.051,122.233Z" transform="translate(-11.213 -66.07)"/><path class="c" d="M45.12,119.388h-.076a.524.524,0,0,1-.454-.606c0-.038.492-3.75.606-4.734a9.3,9.3,0,0,1,2.083-4.128c1.06-1.439,1.969-2.727,1.4-3.787-.757-1.4-2.235-1.629-4.431-.72a.552.552,0,0,1-.417-1.023c2.689-1.136,4.734-.682,5.795,1.212.909,1.666-.3,3.333-1.477,4.962a8.416,8.416,0,0,0-1.856,3.6c-.114,1.023-.606,4.7-.606,4.734A.641.641,0,0,1,45.12,119.388Z" transform="translate(-25.525 -63.414)"/><path class="c" d="M33.853,150.768a.57.57,0,0,1-.53-.379l-.454-1.439a.539.539,0,0,1,1.023-.341l.454,1.439a.552.552,0,0,1-.341.682A.228.228,0,0,1,33.853,150.768Z" transform="translate(-18.916 -91.044)"/><path class="c" d="M45.622,150.551h-.076a.524.524,0,0,1-.454-.606l.189-1.515a.5.5,0,0,1,.606-.454.524.524,0,0,1,.454.606l-.189,1.515A.507.507,0,0,1,45.622,150.551Z" transform="translate(-26.52 -90.866)"/></g></g></svg>