<svg xmlns="http://www.w3.org/2000/svg" xmlns:xlink="http://www.w3.org/1999/xlink" width="140" height="140" viewBox="0 0 140 140"><defs><style>.a{fill:#f8f8f1;}.b{clip-path:url(#a);}.c,.d,.e{fill:none;}.d{stroke:#1f2539;stroke-linecap:round;}.d,.e{stroke-miterlimit:10;stroke-width:1.5px;}.e{stroke:#bb3c4e;}</style><clipPath id="a"><rect class="a" width="140" height="140" transform="translate(0)"/></clipPath></defs><g transform="translate(-159 -1376)"><g transform="translate(159 1376)"><g class="b"><g transform="translate(0)"><rect class="c" width="140" height="140"/></g></g></g><g transform="translate(162.619 1378.958)"><g transform="translate(30.702 3.1)"><path class="d" d="M56.308,3.1h47.786a3.03,3.03,0,0,1,3.032,3.032V42.59a3.03,3.03,0,0,1-3.032,3.032H40.832A3.03,3.03,0,0,1,37.8,42.59V6.132A3.03,3.03,0,0,1,40.832,3.1h9.254" transform="translate(-37.8 -3.1)"/><path class="d" d="M85.807,61.9c0,2.314,1.356,4.308,3.67,6.063a.985.985,0,0,1,.319.638v3.271a.8.8,0,0,1-.8.8H67.7a.8.8,0,0,1-.8-.8V68.6a.726.726,0,0,1,.319-.638c2.234-1.755,3.67-3.75,3.67-6.063" transform="translate(-43.685 -14.991)"/><g transform="translate(6.861 9.972)"><line class="d" x2="26.406"/><line class="d" x2="26.406" transform="translate(0 7.26)"/></g><line class="d" x2="55.046" transform="translate(6.861 27.683)"/><line class="d" x2="55.046" transform="translate(6.861 34.703)"/><path class="e" d="M107.5,25.837H89.154A2.145,2.145,0,0,1,87,23.683V12.754A2.145,2.145,0,0,1,89.154,10.6H107.5a2.145,2.145,0,0,1,2.154,2.154V23.763A2.129,2.129,0,0,1,107.5,25.837Z" transform="translate(-47.75 -4.617)"/></g><g transform="translate(2.7 69.634)"><g transform="translate(10.451 13.004)"><line class="d" x2="8.057"/><line class="d" x2="8.057" transform="translate(0 7.499)"/><line class="d" x2="18.668" transform="translate(0 18.429)"/><line class="d" x2="18.668" transform="translate(0 25.768)"/></g><path class="e" d="M35.586,111.267H32.554a2.145,2.145,0,0,1-2.154-2.154v-7.659A2.145,2.145,0,0,1,32.554,99.3h3.032a2.145,2.145,0,0,1,2.154,2.154v7.659A2.145,2.145,0,0,1,35.586,111.267Z" transform="translate(-8.302 -89.089)"/><path class="d" d="M15.967,86.5H39.421a2.145,2.145,0,0,1,2.154,2.154v57.041a2.145,2.145,0,0,1-2.154,2.154H6.154A2.145,2.145,0,0,1,4,145.695V88.654A2.145,2.145,0,0,1,6.154,86.5h4.627" transform="translate(-2.963 -86.5)"/><path class="d" d="M27.831,136.059H12.354a2.145,2.145,0,0,1-2.154-2.154V95.054A2.145,2.145,0,0,1,12.354,92.9H35.729a2.145,2.145,0,0,1,2.154,2.154v38.851a2.145,2.145,0,0,1-2.154,2.154H32.458" transform="translate(-4.217 -87.794)"/><circle class="e" cx="1.994" cy="1.994" r="1.994" transform="translate(17.79 52.493)"/><line class="d" y2="5.186" transform="translate(39.649 10.052)"/><line class="d" y2="5.186" transform="translate(39.649 18.668)"/><line class="d" y2="5.186" transform="translate(0 14.2)"/></g><g transform="translate(62.373 73.862)"><path class="d" d="M97.453,99.3h43.558a2.523,2.523,0,0,1,2.712,2.234V128.9a2.468,2.468,0,0,1-2.712,2.234h-57.6A2.523,2.523,0,0,1,80.7,128.9V101.534A2.468,2.468,0,0,1,83.412,99.3h8.456" transform="translate(-78.147 -93.317)"/><g transform="translate(13.163 13.482)"><line class="d" x2="19.785"/><line class="d" x2="19.785" transform="translate(0 5.425)"/></g><line class="d" x2="41.325" transform="translate(13.163 26.725)"/><line class="d" x2="41.325" transform="translate(13.163 31.991)"/><path class="e" d="M139.439,116.388H126.754a2.145,2.145,0,0,1-2.154-2.154v-7.18a2.145,2.145,0,0,1,2.154-2.154h12.685a2.145,2.145,0,0,1,2.154,2.154v7.18A2.253,2.253,0,0,1,139.439,116.388Z" transform="translate(-87.025 -94.449)"/><line class="d" x2="68.688" transform="translate(0 1.197)"/><line class="d" x2="4.627" transform="translate(31.991)"/><g transform="translate(20.343 41.424)"><path class="d" d="M103,159.421l14.121-15.636a.509.509,0,0,1,.479,0l13.482,15.636" transform="translate(-103 -143.725)"/><line class="d" y1="14.918" transform="translate(14.36 0.778)"/></g></g></g></g></svg>