<svg xmlns="http://www.w3.org/2000/svg" width="83" height="83" viewBox="0 0 83 83"><defs><style>.a{fill:#fff;}.b{fill:#bb3c4f;}.c{fill:#1f2639;}</style></defs><g transform="translate(-54 -4003)"><rect class="a" width="83" height="83" transform="translate(54 4003)"/><g transform="translate(56.208 3994.25)"><path class="b" d="M59.936,96.142h-.185a.908.908,0,0,1-.6-.416l-4.762-7.952a.6.6,0,1,1,1.017-.647l4.623,7.629,15.766-11.7-12.3-1.11a.6.6,0,1,1,.092-1.2L76.4,81.9,100.53,79.59a.781.781,0,0,1,.786.37.868.868,0,0,1,.092.878L94.8,95.494a1,1,0,0,1-.555.509.724.724,0,0,1-.74-.139L76.4,84.075,60.445,95.957A.97.97,0,0,1,59.936,96.142ZM77,83.1,93.872,94.755l6.242-13.87Zm-.555-1.11Z" transform="translate(-28.227 -31.094)"/><g transform="translate(1.792 64.767)"><path class="c" d="M6.511,117.292a8.317,8.317,0,0,1-4.438-1.387.6.6,0,0,1,.647-1.017,6.76,6.76,0,0,0,7.629,0A.6.6,0,0,1,11,115.905,8.588,8.588,0,0,1,6.511,117.292Z" transform="translate(-1.792 -114.792)"/><path class="c" d="M24.411,117.292a8.317,8.317,0,0,1-4.438-1.387.6.6,0,0,1,.647-1.017,6.76,6.76,0,0,0,7.629,0,.6.6,0,1,1,.647,1.017A8.588,8.588,0,0,1,24.411,117.292Z" transform="translate(-11.416 -114.792)"/><path class="c" d="M42.311,117.292a8.317,8.317,0,0,1-4.438-1.387.6.6,0,1,1,.647-1.017,6.76,6.76,0,0,0,7.629,0,.6.6,0,1,1,.647,1.017A8.588,8.588,0,0,1,42.311,117.292Z" transform="translate(-21.04 -114.792)"/><path class="c" d="M60.211,117.292a8.317,8.317,0,0,1-4.438-1.387.6.6,0,1,1,.647-1.017,6.76,6.76,0,0,0,7.629,0,.6.6,0,1,1,.647,1.017A8.588,8.588,0,0,1,60.211,117.292Z" transform="translate(-30.664 -114.792)"/><path class="c" d="M78.011,117.292a8.317,8.317,0,0,1-4.438-1.387.6.6,0,1,1,.647-1.017,6.76,6.76,0,0,0,7.629,0,.6.6,0,1,1,.647,1.017A8.346,8.346,0,0,1,78.011,117.292Z" transform="translate(-40.235 -114.792)"/><path class="c" d="M95.911,117.292a8.317,8.317,0,0,1-4.438-1.387.6.6,0,1,1,.647-1.017,6.76,6.76,0,0,0,7.629,0,.6.6,0,1,1,.647,1.017A8.346,8.346,0,0,1,95.911,117.292Z" transform="translate(-49.859 -114.792)"/><path class="c" d="M113.811,117.292a8.317,8.317,0,0,1-4.438-1.387.6.6,0,1,1,.647-1.017,6.76,6.76,0,0,0,7.629,0,.6.6,0,1,1,.647,1.017A8.465,8.465,0,0,1,113.811,117.292Z" transform="translate(-59.483 -114.792)"/><path class="c" d="M131.711,117.292a8.317,8.317,0,0,1-4.438-1.387.6.6,0,1,1,.647-1.017,6.76,6.76,0,0,0,7.629,0,.6.6,0,0,1,.647,1.017A8.465,8.465,0,0,1,131.711,117.292Z" transform="translate(-69.107 -114.792)"/><path class="c" d="M149.612,117.292a8.317,8.317,0,0,1-4.438-1.387.6.6,0,1,1,.647-1.017,6.76,6.76,0,0,0,7.629,0,.6.6,0,1,1,.647,1.017A8.588,8.588,0,0,1,149.612,117.292Z" transform="translate(-78.731 -114.792)"/></g><g transform="translate(1.792 70.592)"><path class="c" d="M6.511,129.892a8.317,8.317,0,0,1-4.438-1.387.6.6,0,0,1,.647-1.017,6.76,6.76,0,0,0,7.629,0A.6.6,0,0,1,11,128.505,8.187,8.187,0,0,1,6.511,129.892Z" transform="translate(-1.792 -127.392)"/><path class="c" d="M24.411,129.892a8.317,8.317,0,0,1-4.438-1.387.6.6,0,0,1,.647-1.017,6.76,6.76,0,0,0,7.629,0,.6.6,0,1,1,.647,1.017A8.187,8.187,0,0,1,24.411,129.892Z" transform="translate(-11.416 -127.392)"/><path class="c" d="M42.311,129.892a8.317,8.317,0,0,1-4.438-1.387.6.6,0,1,1,.647-1.017,6.76,6.76,0,0,0,7.629,0,.6.6,0,1,1,.647,1.017A8.187,8.187,0,0,1,42.311,129.892Z" transform="translate(-21.04 -127.392)"/><path class="c" d="M60.211,129.892a8.317,8.317,0,0,1-4.438-1.387.6.6,0,1,1,.647-1.017,6.76,6.76,0,0,0,7.629,0,.6.6,0,1,1,.647,1.017A8.187,8.187,0,0,1,60.211,129.892Z" transform="translate(-30.664 -127.392)"/><path class="c" d="M78.011,129.892a8.317,8.317,0,0,1-4.438-1.387.6.6,0,1,1,.647-1.017,6.76,6.76,0,0,0,7.629,0,.6.6,0,1,1,.647,1.017A7.969,7.969,0,0,1,78.011,129.892Z" transform="translate(-40.235 -127.392)"/><path class="c" d="M95.911,129.892a8.317,8.317,0,0,1-4.438-1.387.6.6,0,1,1,.647-1.017,6.76,6.76,0,0,0,7.629,0,.6.6,0,1,1,.647,1.017A7.969,7.969,0,0,1,95.911,129.892Z" transform="translate(-49.859 -127.392)"/><path class="c" d="M113.811,129.892a8.317,8.317,0,0,1-4.438-1.387.6.6,0,1,1,.647-1.017,6.76,6.76,0,0,0,7.629,0,.6.6,0,1,1,.647,1.017A8.077,8.077,0,0,1,113.811,129.892Z" transform="translate(-59.483 -127.392)"/><path class="c" d="M131.711,129.892a8.317,8.317,0,0,1-4.438-1.387.6.6,0,1,1,.647-1.017,6.76,6.76,0,0,0,7.629,0,.6.6,0,0,1,.647,1.017A8.077,8.077,0,0,1,131.711,129.892Z" transform="translate(-69.107 -127.392)"/><path class="c" d="M149.612,129.892a8.317,8.317,0,0,1-4.438-1.387.6.6,0,1,1,.647-1.017,6.76,6.76,0,0,0,7.629,0,.6.6,0,1,1,.647,1.017A8.187,8.187,0,0,1,149.612,129.892Z" transform="translate(-78.731 -127.392)"/></g><g transform="translate(1.792 76.464)"><path class="c" d="M6.511,142.592a8.317,8.317,0,0,1-4.438-1.387.6.6,0,0,1,.647-1.017,6.76,6.76,0,0,0,7.629,0A.6.6,0,0,1,11,141.205,8.588,8.588,0,0,1,6.511,142.592Z" transform="translate(-1.792 -140.092)"/><path class="c" d="M24.411,142.592a8.317,8.317,0,0,1-4.438-1.387.6.6,0,0,1,.647-1.017,6.76,6.76,0,0,0,7.629,0,.6.6,0,0,1,.647,1.017A8.588,8.588,0,0,1,24.411,142.592Z" transform="translate(-11.416 -140.092)"/><path class="c" d="M42.311,142.592a8.317,8.317,0,0,1-4.438-1.387.6.6,0,0,1,.647-1.017,6.76,6.76,0,0,0,7.629,0,.6.6,0,0,1,.647,1.017A8.588,8.588,0,0,1,42.311,142.592Z" transform="translate(-21.04 -140.092)"/><path class="c" d="M60.211,142.592a8.317,8.317,0,0,1-4.438-1.387.6.6,0,0,1,.647-1.017,6.76,6.76,0,0,0,7.629,0,.6.6,0,1,1,.647,1.017A8.588,8.588,0,0,1,60.211,142.592Z" transform="translate(-30.664 -140.092)"/><path class="c" d="M78.011,142.592a8.317,8.317,0,0,1-4.438-1.387.6.6,0,0,1,.647-1.017,6.76,6.76,0,0,0,7.629,0,.6.6,0,1,1,.647,1.017A8.346,8.346,0,0,1,78.011,142.592Z" transform="translate(-40.235 -140.092)"/><path class="c" d="M95.911,142.592a8.317,8.317,0,0,1-4.438-1.387.6.6,0,0,1,.647-1.017,6.76,6.76,0,0,0,7.629,0,.6.6,0,0,1,.647,1.017A8.346,8.346,0,0,1,95.911,142.592Z" transform="translate(-49.859 -140.092)"/><path class="c" d="M113.811,142.592a8.317,8.317,0,0,1-4.438-1.387.6.6,0,0,1,.647-1.017,6.76,6.76,0,0,0,7.629,0,.6.6,0,0,1,.647,1.017A8.466,8.466,0,0,1,113.811,142.592Z" transform="translate(-59.483 -140.092)"/><path class="c" d="M131.711,142.592a8.317,8.317,0,0,1-4.438-1.387.6.6,0,0,1,.647-1.017,6.76,6.76,0,0,0,7.629,0,.6.6,0,0,1,.647,1.017A8.466,8.466,0,0,1,131.711,142.592Z" transform="translate(-69.107 -140.092)"/><path class="c" d="M149.612,142.592a8.317,8.317,0,0,1-4.438-1.387.6.6,0,0,1,.647-1.017,6.76,6.76,0,0,0,7.629,0,.6.6,0,1,1,.647,1.017A8.588,8.588,0,0,1,149.612,142.592Z" transform="translate(-78.731 -140.092)"/></g><path class="b" d="M99.656,65.582a.569.569,0,0,1-.462-.231l-10.4-14.517L78.342,65.3a.6.6,0,1,1-.971-.694L88,49.77a.9.9,0,0,1,.74-.37h0a.965.965,0,0,1,.74.37l10.68,14.841a.592.592,0,0,1-.139.832A.738.738,0,0,1,99.656,65.582ZM88.513,50.51Z" transform="translate(-40.576 -14.866)"/><path class="b" d="M101.4,66.107a.612.612,0,0,1-.6-.6V49.6a.6.6,0,1,1,1.2,0v15.9A.612.612,0,0,1,101.4,66.107Z" transform="translate(-53.233 -14.651)"/><g transform="translate(3.599 21.75)"><path class="c" d="M11.618,43.411a2.176,2.176,0,0,1-1.526-.647L6.347,39.018A2.176,2.176,0,0,1,5.7,37.493a2.1,2.1,0,0,1,.647-1.526l9.339-9.339a.588.588,0,0,1,.832.832L7.179,36.8a1.006,1.006,0,0,0,0,1.387l3.745,3.745a1.064,1.064,0,0,0,1.433,0L26,28.338a1.006,1.006,0,0,0,0-1.387l-3.745-3.745a1.064,1.064,0,0,0-1.433,0l-1.9,1.9a.588.588,0,0,1-.832-.832l1.9-1.9a2.234,2.234,0,0,1,3.1,0l3.745,3.745a2.176,2.176,0,0,1,.647,1.526,2.1,2.1,0,0,1-.647,1.526L13.144,42.81A2.128,2.128,0,0,1,11.618,43.411Z" transform="translate(-5.7 -21.75)"/><path class="c" d="M46.992,69.246a1.98,1.98,0,0,1-1.017-.277L31.226,60.924a1.814,1.814,0,0,1-.832-.832l-4.207-7.536a2.177,2.177,0,0,1,.37-2.589l6.7-6.7a2.169,2.169,0,0,1,2.728-.277l14.1,9.57a2.066,2.066,0,0,1,.74.925l1.017,2.728a.585.585,0,1,1-1.11.37L49.766,53.9a.822.822,0,0,0-.324-.37L35.295,44a.937.937,0,0,0-1.248.139l-6.7,6.7A.916.916,0,0,0,27.2,52l4.207,7.536a1.407,1.407,0,0,0,.37.37L46.53,67.952a.977.977,0,0,0,1.295-.37l.462-.74a.916.916,0,0,0-.185-1.2l-4.207-3.884-4.207-3.329a2.156,2.156,0,0,1-.694-2.4l.231-.694a.585.585,0,1,1,1.11.37l-.231.694a.944.944,0,0,0,.324,1.063l4.207,3.329c.046.046.092.046.092.092l4.161,3.837a2.113,2.113,0,0,1,.37,2.682l-.462.74A1.967,1.967,0,0,1,46.992,69.246Z" transform="translate(-16.57 -32.976)"/></g></g></g></svg>