<svg xmlns="http://www.w3.org/2000/svg" width="83" height="83" viewBox="0 0 83 83"><defs><style>.a{fill:#fff;}.b{fill:#1e2639;}.c{fill:#bb3c4f;}</style></defs><g transform="translate(-864 -3997)"><rect class="a" width="83" height="83" transform="translate(864 3997)"/><g transform="translate(867.445 3993.612)"><g transform="translate(2.5 15.481)"><g transform="translate(17.339 0)"><path class="b" d="M54.642,40.884A12.642,12.642,0,1,1,65.177,21.263a.572.572,0,1,1-.966.615,11.523,11.523,0,1,0,1.931,6.365,11.7,11.7,0,0,0-.263-2.458.56.56,0,1,1,1.1-.219,13.51,13.51,0,0,1,.263,2.678A12.58,12.58,0,0,1,54.642,40.884Z" transform="translate(-42 -15.6)"/></g><path class="b" d="M33.622,78.984a149.059,149.059,0,0,1-29.937-3.16A1.473,1.473,0,0,1,2.5,74.331a21.269,21.269,0,0,1,8.209-16.285C18,52.251,29.672,49.881,40.47,51.988l.351.088c.132.044,9.394,2.283,15.934-2.678,4.17-3.161,6.409-8.6,6.584-16.11.176-7.2,1.185-10.711,3.161-11.018,2.414-.4,4.7,4.39,5.4,6.233,3.38,9.262,2.853,30.6-10.14,40.253a.294.294,0,0,0-.132.351,35.11,35.11,0,0,1,.79,5.224,1.429,1.429,0,0,1-1.141,1.492h0A118.407,118.407,0,0,1,33.622,78.984Zm-1.1-26.645c-7.989,0-15.759,2.326-21.114,6.584a19.938,19.938,0,0,0-7.77,15.451.382.382,0,0,0,.263.351c20.412,4.17,39.638,4.17,57.152.044h0a.334.334,0,0,0,.263-.351,42.079,42.079,0,0,0-.79-5.092,1.427,1.427,0,0,1,.571-1.492C73.48,58.66,74.006,37.59,70.846,28.855c-1.01-2.765-2.985-5.706-4.17-5.531-.483.088-2.019,1.01-2.239,9.964-.176,7.9-2.546,13.608-7.023,16.988-6.979,5.311-16.461,2.985-16.856,2.9l-.351-.088A41.044,41.044,0,0,0,32.525,52.339Z" transform="translate(-2.5 -19.329)"/></g><path class="c" d="M81.651,29.352a12.129,12.129,0,0,1-5.268-1.536A2.073,2.073,0,0,1,75.2,26.543a3.3,3.3,0,0,1,.746-2.414H67.034c-.263,0-.834-.088-.834-1.01V21.363h-.263v3.248a.993.993,0,0,1-1.01,1.01h-.439a.993.993,0,0,1-1.01-1.01V20.4h-.132v4.829a.993.993,0,0,1-1.01,1.01h-.4a1.052,1.052,0,0,1-.922-1.054V19.519h-.132v5.663a.993.993,0,0,1-1.01,1.01H59.44a.993.993,0,0,1-1.01-1.01V18.729h-.263v6.058a.993.993,0,0,1-1.01,1.01h-.527a.993.993,0,0,1-1.01-1.01V19.695H55.4v5.092a.993.993,0,0,1-1.01,1.01h-.307a.993.993,0,0,1-1.01-1.01V20.836h-.132v3.687a.993.993,0,0,1-1.01,1.01h-.4a.993.993,0,0,1-1.01-1.01V22.855h-.088v2.107a.571.571,0,1,1-1.141,0V22.724a.993.993,0,0,1,1.01-1.01h.307a.993.993,0,0,1,1.01,1.01v1.668H51.8V20.7a.993.993,0,0,1,1.01-1.01h.351a.993.993,0,0,1,1.01,1.01v3.951h.088V19.563a.993.993,0,0,1,1.01-1.01h.483a.993.993,0,0,1,1.01,1.01v5.092h.307V18.641a.993.993,0,0,1,1.01-1.01h.527a.993.993,0,0,1,1.01,1.01v6.453h.219V19.388a.993.993,0,0,1,1.01-1.01h.307a1.031,1.031,0,0,1,1.054,1.01V25.05h.176V20.222a.993.993,0,0,1,1.01-1.01h.351a.993.993,0,0,1,1.01,1.01v4.214h.219V21.187a.993.993,0,0,1,1.01-1.01h.483a.993.993,0,0,1,1.01,1.01V22.9h8.033a7.852,7.852,0,0,1-1.361-1.317,1.988,1.988,0,0,1-.132-1.975,2.509,2.509,0,0,1,.483-.7,1.642,1.642,0,0,1-.176-1.317c.307-.746,1.229-.878,2.458-1.01a12.528,12.528,0,0,0,3.292-.746c2.326-1.01,3.512-.132,4.3.966,1.4-.571,2.195-.658,2.722-.263.658.439.658,1.361.658,2.546a19.48,19.48,0,0,0,.088,2.195c.219,1.931-.263,2.853-1.712,3.117-.088,0-.219.044-.307.044a3.52,3.52,0,0,0-.922.219,5.673,5.673,0,0,1,.351,2.37h.044a4.552,4.552,0,0,1,.79-1.273c0-.044-.044-.088-.088-.132a.56.56,0,0,1,1.01-.483c.263.571.307.878-.088,1.317a5.114,5.114,0,0,0-.658,1.1,1.049,1.049,0,0,1-.966.615,2.7,2.7,0,0,1-.571-.044l-.044.044A3.907,3.907,0,0,1,81.651,29.352Zm-4.477-5.136c-.571.878-1.01,1.624-.878,2.019a1.118,1.118,0,0,0,.615.571c2.195,1.185,5,1.931,6.584.922-.527-.219-1.141-.483-1.756-.79H81.7a2.4,2.4,0,0,1-1.8-1.01C78.974,25.4,78.008,24.787,77.174,24.216Zm5.75,2.107a9.4,9.4,0,0,0,1.229.527,4.62,4.62,0,0,0-.263-1.712h-.132c-.044.088-.088.132-.132.219C83.407,25.665,83.188,26.016,82.924,26.323ZM80.6,25.094c.439.263.834.483,1.273.7a2.323,2.323,0,0,0,.571-.658A16.962,16.962,0,0,1,80.29,24.7C80.378,24.831,80.51,24.962,80.6,25.094Zm-1.536-2.019a12.767,12.767,0,0,0,4.038.966,1.858,1.858,0,0,0,.219-.307c-.044-.088-.088-.219-.132-.307l-.263-.527a1.493,1.493,0,0,1-.439.044A1.588,1.588,0,0,1,80.554,21.8a3.191,3.191,0,0,1,.307-1.931c-.219-.263-.439-.483-.658-.7h-.044c-.263.088-.571.658-1.01,1.58-.088.176-.219.4-.307.615-.132.263-.263.483-.4.746C78.666,22.5,78.886,22.811,79.061,23.075Zm7.682-1.624A4.558,4.558,0,0,1,85.6,22.9l-.571.571c.219-.044.439-.088.615-.132.088,0,.219-.044.307-.044.571-.044.966-.132.79-1.844ZM84.022,22.68c.044.044.044.088.088.132l.219-.219A.814.814,0,0,1,84.022,22.68Zm-8.867-2.722a.333.333,0,0,0-.088.176.891.891,0,0,0,.044.878,7.276,7.276,0,0,0,1.756,1.58c.088-.088.132-.219.219-.307-.351-.439-.7-.878-1.141-1.361C75.638,20.573,75.374,20.265,75.155,19.958Zm6.5,1.01a1.166,1.166,0,0,0-.044.658c.044.088.088.351.7.307C82.046,21.582,81.871,21.275,81.651,20.968Zm.527-1.1c.439.571.878,1.229,1.273,1.844a5.1,5.1,0,0,0,1.888-.834,9.5,9.5,0,0,0-1.536-.615c-.527-.176-1.01-.351-1.449-.483-.044,0-.088-.044-.132-.044C82.266,19.783,82.222,19.826,82.178,19.87Zm-6.233-.7c.219.263.483.615.834,1.01.307.351.615.7.878,1.053l.132-.263c.132-.219.219-.439.307-.615a6.754,6.754,0,0,1,1.141-1.844,1.51,1.51,0,0,0-.79-.307A6.917,6.917,0,0,0,75.945,19.168Zm9.043-1.361a5.847,5.847,0,0,0,1.054,1.361,1.769,1.769,0,0,1,.571.615v-.7c0-.615,0-1.492-.176-1.624A4.342,4.342,0,0,0,84.987,17.807Zm-1.844,1.054c.307.088.658.219,1.01.351.176.044.351.132.527.176a7.982,7.982,0,0,1-.658-1.01c0-.044-.044-.044-.044-.088C83.67,18.466,83.407,18.685,83.144,18.861Zm-2.5-.7a5.856,5.856,0,0,1,1.273.307,7.074,7.074,0,0,1,1.4-1.1c-.615-.746-1.361-1.1-2.853-.439a10.274,10.274,0,0,1-1.053.4A6.091,6.091,0,0,1,80.642,18.158Zm-4.7-.263a1.4,1.4,0,0,0-.571.176.34.34,0,0,0,.044.132C75.594,18.115,75.769,17.983,75.945,17.9Z" transform="translate(-26.257)"/></g></g></svg>