<svg xmlns="http://www.w3.org/2000/svg" width="83" height="83" viewBox="0 0 83 83"><defs><style>.a{fill:#fff;}.b{fill:#bb3c4f;}.c{fill:#1f2639;}.d{fill:none;stroke:#bb3c4f;stroke-linecap:round;stroke-miterlimit:10;stroke-width:1.5px;}</style></defs><g transform="translate(-54 -3870)"><rect class="a" width="83" height="83" transform="translate(54 3870)"/><g transform="translate(61.516 3875.035)"><g transform="translate(9.387 12.83)"><path class="b" d="M28.7,49.949c-3.058,0-4.077-1.647-5.332-4.9-2.391-2.391-2.9-4.94-1.529-7.605-.157-4.548,2.039-7.605,6.978-9.6,3.019-3.607,6.978-4.626,11.839-3.058,2.627-1.255,6.469-2.47,10.232.784a.527.527,0,0,1-.706.784c-2.627-2.235-5.488-2.391-9.291-.51l-.2.078-.2-.078C35.91,24.31,32.3,25.172,29.52,28.583l-.078.118-.118.039c-4.626,1.882-6.625,4.587-6.429,8.782v.157l-.078.118c-1.255,2.313-.823,4.43,1.333,6.547l.078.078.039.118c1.333,3.45,2.117,4.626,5.41,4.273a.533.533,0,0,1,.118,1.058A5.554,5.554,0,0,1,28.7,49.949Z" transform="translate(-21.086 -23.478)"/><g transform="translate(20.901 27.878)"><path class="c" d="M79.144,108.732a5.19,5.19,0,0,1-1.921-.431c-1.843-.823-2.783-2.627-2.823-5.449a.528.528,0,0,1,.51-.549h0a.585.585,0,0,1,.549.51c.039,2.352.784,3.842,2.2,4.469a2.71,2.71,0,0,0,2.509.078,2.678,2.678,0,0,0,1.176-2.156c.078-.98-.157-2.156-2.391-2.352a.533.533,0,0,1,.118-1.058c2.94.274,3.45,2.039,3.372,3.489a3.635,3.635,0,0,1-1.725,2.979A2.546,2.546,0,0,1,79.144,108.732Z" transform="translate(-74.4 -98.966)"/><path class="c" d="M91.549,99.69h0A.561.561,0,0,1,91,99.141l.157-4.038a.5.5,0,0,1,.549-.51.527.527,0,0,1,.51.549l-.157,4.038A.473.473,0,0,1,91.549,99.69Z" transform="translate(-84.492 -94.589)"/><path class="c" d="M96.044,119.957c-2.548,0-4.744-2-5.371-5.057a.523.523,0,0,1,1.019-.235c.47,2.235,2.156,4.469,4.744,4.195a.533.533,0,0,1,.118,1.058A2.235,2.235,0,0,1,96.044,119.957Z" transform="translate(-84.283 -106.546)"/><path class="c" d="M102.907,122.675h-.118c-.98-.078-1.8-1.255-2.627-3.646a.521.521,0,1,1,.98-.353c.941,2.705,1.607,2.9,1.725,2.9.235,0,.588-.314.9-.941a.545.545,0,0,1,.941.549C104.515,121.578,103.927,122.675,102.907,122.675Z" transform="translate(-90.049 -109.028)"/><path class="c" d="M107.947,116.464c-2.744,0-3.646-2.431-4.43-4.548a16.764,16.764,0,0,0-.941-2.2.545.545,0,1,1,.941-.549,11.523,11.523,0,0,1,1.019,2.352c.745,2.039,1.451,3.96,3.607,3.842,3.724-.2,4.469-2.823,4.469-5.018a.536.536,0,0,1,.549-.549h0a.561.561,0,0,1,.549.549c.039,3.685-1.96,5.92-5.488,6.077A.765.765,0,0,1,107.947,116.464Z" transform="translate(-91.481 -103.287)"/><path class="c" d="M109.469,104.761a4.839,4.839,0,0,1-1.647-.274c-3.528-1.215-6.586-6-7.684-8.742a.546.546,0,1,1,1.019-.392c1.1,2.744,4.038,7.1,7.057,8.115a3.578,3.578,0,0,0,3.1-.274.534.534,0,0,1,.745.2.526.526,0,0,1-.2.745A4.849,4.849,0,0,1,109.469,104.761Z" transform="translate(-90.024 -94.838)"/><path class="c" d="M89.54,126.153a4.242,4.242,0,0,1-1.568-.353.914.914,0,0,1-.51-.627l-.392-2.391a8.141,8.141,0,0,0-2.391-5.057.527.527,0,1,1,.784-.706,9.465,9.465,0,0,1,2.666,5.645l.353,2.2a2.128,2.128,0,0,0,1.764.039,8.433,8.433,0,0,0,.431-3.881.556.556,0,0,1,.47-.588.532.532,0,0,1,.588.47,9.678,9.678,0,0,1-.51,4.43,1.068,1.068,0,0,1-.314.392A2.377,2.377,0,0,1,89.54,126.153Z" transform="translate(-80.563 -108.115)"/></g><path class="b" d="M35.275,62.381a.5.5,0,0,1-.51-.431,3.838,3.838,0,0,0-2.744-2.862.533.533,0,0,1,.314-1.019,4.841,4.841,0,0,1,3.45,3.646.535.535,0,0,1-.431.627C35.354,62.381,35.315,62.381,35.275,62.381Z" transform="translate(-27.508 -44.496)"/><path class="b" d="M37.3,44.3a.567.567,0,0,1-.274-.078.558.558,0,0,1-.157-.745l.118-.157c2.078-3.215,3.607-5.528,7.527-4.9a.869.869,0,0,0,.941-.51c.941-2.078,3.293-2.9,5.057-3.019a.964.964,0,0,0,.823-.666,3.049,3.049,0,0,1,1.725-1.882.546.546,0,0,1,.392,1.019,2.018,2.018,0,0,0-1.137,1.255,2.017,2.017,0,0,1-1.764,1.372A4.857,4.857,0,0,0,46.4,38.376a1.948,1.948,0,0,1-2.078,1.137c-3.254-.51-4.391,1.215-6.469,4.43l-.118.157A.506.506,0,0,1,37.3,44.3Z" transform="translate(-30.635 -28.841)"/><path class="b" d="M62.02,38.767a.567.567,0,0,1-.274-.078,1.909,1.909,0,0,1-.862-1.8,1.975,1.975,0,0,1,1.176-1.647.546.546,0,0,1,.392,1.019.954.954,0,0,0-.51.784.941.941,0,0,0,.353.823.55.55,0,0,1,.157.745A.713.713,0,0,1,62.02,38.767Z" transform="translate(-45.275 -30.604)"/><path class="b" d="M78.21,70.983h-.666a.5.5,0,0,1-.235-.039,7.177,7.177,0,0,1-4.7-2.979c0-.039-.039-.039-.039-.078-2.391-2.156-4.391-3.371-6.39-3.764-2.2-.549-4.195.2-6.586,2.431a7.108,7.108,0,0,1-5.292,1.96h-.039c-2.94.118-6.665-1.058-7.8-7.057-.823-4.352.666-7.409,4-8.233a.333.333,0,0,0,.274-.314q-.235-2.411,1.294-3.293a.545.545,0,0,1,.549.941c-.392.235-.9.706-.745,2.274a1.36,1.36,0,0,1-1.058,1.451c-2.744.666-3.881,3.215-3.175,6.978.784,4.273,2.979,6.273,6.7,6.155h.039a5.959,5.959,0,0,0,4.587-1.686c2.666-2.47,5.057-3.332,7.566-2.705,2.156.431,4.312,1.725,6.861,4.038a1.706,1.706,0,0,1,.235.274,5.782,5.782,0,0,0,4.038,2.509H77.7c1.725.078,2.979-.235,3.685-.98a4.359,4.359,0,0,0,.823-3.411,1.416,1.416,0,0,1,.118-.706c2.313-4.979,2.078-8.664-.745-11.251A1.437,1.437,0,0,1,81.15,52.2c.51-3.175-.588-5.8-3.411-8.076a.53.53,0,1,1,.666-.823c3.136,2.509,4.391,5.488,3.8,9.056a.325.325,0,0,0,.118.314c3.215,2.94,3.528,7.057,1.019,12.467a.236.236,0,0,0-.039.157,5.106,5.106,0,0,1-1.137,4.234A4.987,4.987,0,0,1,78.21,70.983Z" transform="translate(-36.374 -35.456)"/><path class="b" d="M76.063,59.716a2.412,2.412,0,0,1-.51-.039,23.047,23.047,0,0,1-3.136-.47,10.783,10.783,0,0,0-4.116-.235.523.523,0,0,1-.235-1.019,11.376,11.376,0,0,1,4.548.235c.98.157,1.96.353,3.058.431,3.254.274,5.332-2.705,6.508-5.214a.535.535,0,0,1,.98.431C81.355,57.716,78.924,59.716,76.063,59.716Z" transform="translate(-49.399 -41.477)"/><path class="b" d="M62.371,72.865a.445.445,0,0,1-.314-.118,3.841,3.841,0,0,1-1.451-4.038,3.576,3.576,0,0,1,3.175-2.627,8.114,8.114,0,0,1,3.411.549c1.529.51,2.548.784,3.568-.039a1.784,1.784,0,0,1,1.607-.314,6.2,6.2,0,0,0,5.175-.941,3.543,3.543,0,0,0,1.529-2.705c-.118-1.137-.118-2.509.666-3.293a2.192,2.192,0,0,1,1.764-.549.533.533,0,1,1-.118,1.058,1.135,1.135,0,0,0-.941.235q-.529.529-.353,2.47v.078a4.464,4.464,0,0,1-1.96,3.568,7.338,7.338,0,0,1-6.116,1.137.668.668,0,0,0-.666.118c-1.529,1.215-3.1.706-4.587.2a6.239,6.239,0,0,0-2.9-.51,2.617,2.617,0,0,0-2.274,1.882,2.837,2.837,0,0,0,1.058,2.94.513.513,0,0,1,.078.745A.43.43,0,0,1,62.371,72.865Z" transform="translate(-45.038 -44.943)"/><path class="b" d="M118.858,88.454a.559.559,0,0,1-.47-.235A4.631,4.631,0,0,0,114,85.631a2.179,2.179,0,0,1-1.843-.9c-1.607-2.117-3.332-2.94-5.253-2.548a.538.538,0,1,1-.2-1.058c2.352-.47,4.508.51,6.351,2.94a1.189,1.189,0,0,0,.98.47,5.714,5.714,0,0,1,5.332,3.1.558.558,0,0,1-.157.745A1.455,1.455,0,0,1,118.858,88.454Z" transform="translate(-72.866 -58.454)"/><path class="b" d="M125.679,76.561a4.925,4.925,0,0,1-2.352-.627c-1.451-.784-2-2.431-1.451-4.469a.547.547,0,1,1,1.058.274c-.2.745-.47,2.548.941,3.293a3.314,3.314,0,0,0,2.94.274,4.229,4.229,0,0,0,2.156-2.862.533.533,0,0,1,1.019.314,5.065,5.065,0,0,1-2.783,3.528A5.239,5.239,0,0,1,125.679,76.561Z" transform="translate(-82.236 -52.403)"/><path class="b" d="M123.508,55.068a3.169,3.169,0,0,1-2.94-1.49c-.51-.627-.98-.98-1.372-.98a1.354,1.354,0,0,0-.9.47.527.527,0,1,1-.745-.745,2.46,2.46,0,0,1,1.725-.823,3.074,3.074,0,0,1,2.156,1.411l.039.039c.549.941,1.607,1.215,3.293.862a.535.535,0,0,1,.627.431.509.509,0,0,1-.431.627A4.78,4.78,0,0,1,123.508,55.068Z" transform="translate(-79.633 -40.514)"/><path class="d" d="M97,70" transform="translate(-67.239 -51.762)"/><path class="b" d="M73.033,40.381a.486.486,0,0,1-.51-.47,6.47,6.47,0,0,1,3.842-6.782,1.153,1.153,0,0,0,.627-.588c1.568-3.489,4.7-5.41,8.115-5.018,2.509.353,5.724,1.451,6.7,3.371a2.938,2.938,0,0,1-.118,2.783c-.862,1.607-3.175,1.019-4.43.706l-.2-.039c-2.744-.666-4.352,0-6.116,2.666a.538.538,0,1,1-.9-.588c1.686-2.509,3.568-4,7.253-3.1l.235.039c.98.235,2.783.706,3.215-.157a1.87,1.87,0,0,0,.118-1.8c-.745-1.451-3.568-2.47-5.881-2.783-3.489-.392-5.92,2.039-6.978,4.43a2.371,2.371,0,0,1-1.176,1.137,5.523,5.523,0,0,0-3.215,5.684.526.526,0,0,1-.47.588C73.072,40.381,73.033,40.381,73.033,40.381Z" transform="translate(-52.328 -25.906)"/></g><path class="c" d="M51.514,103.421c-4.94,0-8.076-1.96-9.33-5.763a.211.211,0,0,1,.392-.157c1.215,3.724,4.195,5.528,9.134,5.488h0a.185.185,0,0,1,.2.2.248.248,0,0,1-.2.235Z" transform="translate(-24.519 -55.573)"/><path class="c" d="M75.624,118.514h-.039a7.8,7.8,0,0,1-4.548-3.764.229.229,0,0,1,.392-.235c1.294,2.039,2.744,3.254,4.312,3.568a.223.223,0,0,1,.157.274A.4.4,0,0,1,75.624,118.514Z" transform="translate(-42.042 -65.922)"/><path class="c" d="M87.945,133.546a.185.185,0,0,1-.2-.2,25.83,25.83,0,0,0-1.372-6,.211.211,0,1,1,.392-.157,28.548,28.548,0,0,1,1.411,6.077c0,.157-.078.274-.235.274Z" transform="translate(-51.385 -73.623)"/><path class="c" d="M96.233,147.811a9.132,9.132,0,0,1-1.137-.078.217.217,0,0,1,.039-.431,7.672,7.672,0,0,0,2.783-.118.223.223,0,1,1,.118.431A10.118,10.118,0,0,1,96.233,147.811Z" transform="translate(-56.575 -85.85)"/><path class="c" d="M106.681,138h0c-.157-.039-.235-.118-.2-.235a5.872,5.872,0,0,0,.078-.862,2.06,2.06,0,0,1,1.294-2.078c.118-.039.47-.274.588-.314a.207.207,0,0,1,.314.039.2.2,0,0,1-.039.314,2.956,2.956,0,0,1-.666.392,1.71,1.71,0,0,0-1.019,1.725,5.942,5.942,0,0,1-.078.9A.356.356,0,0,1,106.681,138Z" transform="translate(-63.612 -78.121)"/><path class="c" d="M117.278,125.175a5.9,5.9,0,0,1-1.137-.118c-.118-.039-.2-.118-.157-.235s.118-.2.235-.157c4.156.745,6.469-3.019,7.449-5.371a.211.211,0,1,1,.392.157C122.492,123.176,120.1,125.175,117.278,125.175Z" transform="translate(-69.387 -68.82)"/><path class="c" d="M138.973,108.245a.216.216,0,0,1-.2-.118.2.2,0,0,1,.118-.274,5.1,5.1,0,0,0,3.176-5.057.185.185,0,0,1,.2-.2h0a.22.22,0,0,1,.2.235,5.526,5.526,0,0,1-3.45,5.41Z" transform="translate(-83.242 -58.751)"/><path class="c" d="M147.032,80.416c-.039,0-.078,0-.078-.039a.173.173,0,0,1-.078-.274c2.705-5.488,2.509-9.566-.666-12.78a.222.222,0,1,1,.314-.314c3.293,3.371,3.528,7.566.745,13.251A.283.283,0,0,1,147.032,80.416Z" transform="translate(-87.733 -37.077)"/><path class="c" d="M136.522,47.066h0c-.157-.039-.235-.118-.2-.235.549-3.371-1.019-6.273-5.253-9.644a.223.223,0,0,1,.274-.353c4.352,3.489,5.959,6.469,5.41,10.036A.29.29,0,0,1,136.522,47.066Z" transform="translate(-78.517 -18.741)"/><path class="c" d="M110.908,26.489a.216.216,0,0,1-.2-.118c-1.529-3.332-5.41-5.057-10.977-4.783a.217.217,0,1,1-.039-.431c5.724-.274,9.762,1.49,11.369,5.018a.2.2,0,0,1-.118.274A.038.038,0,0,1,110.908,26.489Z" transform="translate(-59.372 -9.219)"/><path class="c" d="M82.3,17.857a.144.144,0,0,1-.118-.039c-3.1-2.117-5.8-2.313-8.742-.706-.118.039-.235.039-.274-.078s-.039-.235.078-.274c3.058-1.686,6-1.49,9.213.706a.237.237,0,0,1,.039.314A.3.3,0,0,1,82.3,17.857Z" transform="translate(-43.346 -5.881)"/><path class="c" d="M36.766,21.322a.3.3,0,0,1-.157-.078.238.238,0,0,1,0-.314c4-4.077,8.35-5.292,12.584-3.489a.211.211,0,1,1-.157.392c-5.136-2.2-9.409.627-12.114,3.411A.3.3,0,0,1,36.766,21.322Z" transform="translate(-21.1 -6.483)"/><path class="c" d="M15.719,39.552a.185.185,0,0,1-.2-.2c-.431-5.567,1.96-8.938,7.292-10.271a.223.223,0,1,1,.118.431c-5.1,1.255-7.37,4.469-6.978,9.8-.039.118-.118.235-.235.235Z" transform="translate(-8.287 -14.05)"/><path class="c" d="M16.321,66.967a.3.3,0,0,1-.157-.078c-2.509-2.509-3.175-5.371-1.921-8.194a.211.211,0,0,1,.392.157c-1.137,2.666-.51,5.332,1.843,7.723a.238.238,0,0,1,0,.314A.2.2,0,0,1,16.321,66.967Z" transform="translate(-7.163 -31.978)"/><path class="c" d="M27.757,86.641h0c-3.45-.2-5.528-1.8-6.273-4.783a.223.223,0,0,1,.431-.118c.666,2.823,2.587,4.273,5.841,4.43a.22.22,0,0,1,.2.235C27.953,86.563,27.874,86.641,27.757,86.641Z" transform="translate(-11.935 -45.968)"/><path class="c" d="M82,8.958a.557.557,0,0,1-.235-.078C78.118,6.371,75.374,6.175,72,8.1a.43.43,0,0,1-.431-.745c3.685-2.078,6.743-1.843,10.663.862a.432.432,0,0,1,.118.588A.426.426,0,0,1,82,8.958Z" transform="translate(-42.263 0)"/><path class="c" d="M30.831,12.068a.521.521,0,0,1-.314-.118.426.426,0,0,1,0-.588C35.1,6.619,39.3,5.561,44.592,7.874a.422.422,0,1,1-.314.784c-4.94-2.156-8.742-1.215-13.094,3.293A.632.632,0,0,1,30.831,12.068Z" transform="translate(-17.361 -0.444)"/><path class="c" d="M4.836,33.9a.427.427,0,0,1-.431-.392C3.9,26.92,6.561,23.117,12.873,21.588a.423.423,0,0,1,.2.823c-5.92,1.451-8.311,4.861-7.841,11.055.078.235-.118.431-.392.431Z" transform="translate(-1.52 -9.494)"/><path class="c" d="M5,65.806a.445.445,0,0,1-.314-.118c-2.94-2.94-3.568-5.8-2.039-9.291a.454.454,0,0,1,.549-.235.454.454,0,0,1,.235.549c-1.411,3.136-.823,5.645,1.882,8.311a.426.426,0,0,1,0,.588A.323.323,0,0,1,5,65.806Z" transform="translate(0 -30.503)"/><path class="c" d="M19.09,90.668h-.039c-3.96-.392-6.782-3.1-7.762-7.37a.423.423,0,1,1,.823-.2c.862,3.881,3.45,6.351,7.017,6.7a.466.466,0,0,1,.392.47A.4.4,0,0,1,19.09,90.668Z" transform="translate(-5.738 -46.702)"/><path class="c" d="M44.746,110.682c-4.822,0-8.311-1.1-9.683-5.371a.434.434,0,1,1,.823-.274c1.176,3.685,4.116,4.979,10.467,4.744a.412.412,0,0,1,.039.823C45.8,110.643,45.255,110.682,44.746,110.682Z" transform="translate(-20.181 -60.051)"/><path class="c" d="M72.413,125.205h-.078c-1.96-.392-2.783-1.686-3.92-3.8a.43.43,0,1,1,.745-.431c1.019,1.921,1.686,3.058,3.332,3.371a.443.443,0,0,1,.353.51A.5.5,0,0,1,72.413,125.205Z" transform="translate(-40.439 -69.791)"/><path class="c" d="M83.883,141.73a.459.459,0,0,1-.431-.353c-.627-4.077-1.058-6.429-1.725-7.762a.438.438,0,1,1,.784-.392c.706,1.451,1.137,3.724,1.8,8a.387.387,0,0,1-.353.47A.121.121,0,0,1,83.883,141.73Z" transform="translate(-48.538 -77.221)"/><path class="c" d="M94.61,159.284a16.19,16.19,0,0,1-3.528-.392.423.423,0,0,1,.2-.823,13.1,13.1,0,0,0,5.528.118.423.423,0,0,1,.2.823A9.108,9.108,0,0,1,94.61,159.284Z" transform="translate(-54.051 -92.461)"/><path class="c" d="M109.955,151.584a.144.144,0,0,1-.118-.039.424.424,0,0,1-.274-.549,12.339,12.339,0,0,0,.51-2.352.416.416,0,0,1,.823.118,13.3,13.3,0,0,1-.549,2.509A.382.382,0,0,1,109.955,151.584Z" transform="translate(-65.475 -86.526)"/><path class="c" d="M115.355,143.561a.389.389,0,0,1-.392-.274.424.424,0,0,1,.274-.549,1.383,1.383,0,0,0,.51-.314.417.417,0,0,1,.549.627,2.612,2.612,0,0,1-.823.51Z" transform="translate(-68.758 -82.894)"/><path class="c" d="M123.794,131.925a6.312,6.312,0,0,1-1.451-.157.438.438,0,0,1,.157-.862c3.489.666,6.233-1.372,8.154-6.116a.422.422,0,1,1,.784.314C129.6,129.651,127.009,131.925,123.794,131.925Z" transform="translate(-73.042 -72.081)"/><path class="c" d="M147.546,112.961a.472.472,0,0,1-.392-.274.405.405,0,0,1,.235-.549c2.078-.862,3.019-2.587,3.1-5.606a.431.431,0,0,1,.862,0c-.078,3.372-1.215,5.371-3.646,6.351A.157.157,0,0,1,147.546,112.961Z" transform="translate(-88.326 -60.879)"/><path class="c" d="M156.341,80.981a.557.557,0,0,1-.235-.078.432.432,0,0,1-.118-.588c3.45-5.1,3.254-10.467-.47-14.309a.416.416,0,0,1,.588-.588c3.96,4.077,4.195,9.958.549,15.368A.349.349,0,0,1,156.341,80.981Z" transform="translate(-93.357 -36.074)"/><path class="c" d="M144.258,42.673h-.078a.443.443,0,0,1-.353-.51c.706-3.92-1.215-7.449-6.273-11.447a.435.435,0,0,1-.078-.588.4.4,0,0,1,.588-.078c5.253,4.195,7.37,8.076,6.586,12.271A.387.387,0,0,1,144.258,42.673Z" transform="translate(-82.411 -14.584)"/><path class="c" d="M115.167,18.865a.431.431,0,0,1-.392-.235c-1.725-3.92-5.332-5.488-11.643-5.175a.412.412,0,0,1-.039-.823c6.7-.353,10.546,1.411,12.467,5.684a.418.418,0,0,1-.235.549C115.284,18.826,115.245,18.865,115.167,18.865Z" transform="translate(-61.317 -4.027)"/></g></g></svg>