<svg xmlns="http://www.w3.org/2000/svg" width="83" height="83" viewBox="0 0 83 83"><defs><style>.a{fill:#fff;}.b{fill:#1f2639;}.c{fill:#bb3c4f;}</style></defs><g transform="translate(-74 -4126)"><rect class="a" width="83" height="83" transform="translate(74 4126)"/><g transform="translate(83.62 4135.6)"><g transform="translate(2.92 19.439)"><path class="b" d="M47.565,91.209c-3.367,0-7.06-.109-7.458-.145-.579.036-9.015.29-11.912,0-5.358-.543-9.631-3.114-12.02-7.314A16.966,16.966,0,0,1,15.74,68.4c6.01-12.346,14.446-18.9,24.366-18.9s18.356,6.517,24.366,18.863a16.966,16.966,0,0,1-.434,15.351c-2.39,4.2-6.662,6.807-12.02,7.313A37.137,37.137,0,0,1,47.565,91.209ZM40.107,50.695c-9.594,0-17.415,6.119-23.316,18.211a15.816,15.816,0,0,0,.4,14.265c1.557,2.715,4.743,6.119,11.115,6.734,2.9.29,11.694,0,11.767,0h.072c.072,0,8.907.29,11.767,0,6.372-.616,9.558-4.019,11.115-6.734a15.816,15.816,0,0,0,.4-14.265C57.521,56.813,49.7,50.695,40.107,50.695Z" transform="translate(-10.063 -49.486)"/><path class="b" d="M6.534,65.488a.544.544,0,0,1-.4-.145,8.677,8.677,0,0,1-.941-12.6,8.632,8.632,0,0,1,12.6-.688.591.591,0,1,1-.76.905,7.442,7.442,0,0,0-10.97.579,7.393,7.393,0,0,0,.869,10.9A.616.616,0,0,1,7,65.271.637.637,0,0,1,6.534,65.488Z" transform="translate(-2.92 -49.581)"/><path class="b" d="M134.045,65.37a.566.566,0,0,1-.434-.217.582.582,0,0,1,.072-.833,7.41,7.41,0,0,0,2.715-7.2,8.241,8.241,0,0,0-5.322-6.083,7.385,7.385,0,0,0-7.495,1.774.591.591,0,1,1-.76-.905,8.593,8.593,0,0,1,8.653-1.991,9.336,9.336,0,0,1,6.083,6.951,8.6,8.6,0,0,1-3.114,8.327A.763.763,0,0,1,134.045,65.37Z" transform="translate(-79.273 -49.462)"/><path class="b" d="M70.923,124.856c-1.231,0-2.571-.036-2.788-.036-.29,0-3.4.109-4.489,0a5.948,5.948,0,0,1-4.779-2.933,6.7,6.7,0,0,1-.181-6.046C61,111.1,64.262,108.6,68.1,108.6s7.1,2.5,9.413,7.241a6.781,6.781,0,0,1-.181,6.083,5.979,5.979,0,0,1-4.779,2.933C72.227,124.82,71.575,124.856,70.923,124.856Zm-2.788-1.231h0c.036,0,3.331.109,4.381,0a4.752,4.752,0,0,0,3.874-2.317,5.629,5.629,0,0,0,.145-5c-2.136-4.381-4.924-6.589-8.363-6.589s-6.227,2.209-8.363,6.589a5.629,5.629,0,0,0,.145,5,4.693,4.693,0,0,0,3.874,2.317c.978.109,4.272,0,4.308,0Z" transform="translate(-38.093 -87.189)"/><path class="b" d="M80.084,120.975c-.905,0-2.136-.4-3.077-2.317a2.34,2.34,0,0,1,.072-2.136,2.058,2.058,0,0,1,1.7-1.05c.326-.036,1.159,0,1.34,0s1.014-.036,1.34,0a2.11,2.11,0,0,1,1.7,1.05,2.336,2.336,0,0,1,.072,2.136C82.22,120.577,80.989,120.975,80.084,120.975Zm-.8-4.345h-.4a.928.928,0,0,0-.8.471,1.186,1.186,0,0,0-.036,1.05c.543,1.086,1.195,1.665,2.028,1.665.8,0,1.484-.543,2.027-1.665a1.191,1.191,0,0,0-.036-1.05,1.011,1.011,0,0,0-.8-.471c-.217-.036-.833,0-1.195,0h-.8Z" transform="translate(-50.041 -91.562)"/></g><g transform="translate(12.967 2.4)"><path class="b" d="M63.265,25.922a.671.671,0,0,1-.253-.072.594.594,0,0,1-.253-.8l4.815-9.413a1.6,1.6,0,0,0-1.412-2.317,182.956,182.956,0,0,1-32.73,0A1.6,1.6,0,0,0,32.02,15.64l4.815,9.413a.591.591,0,0,1-1.05.543L30.97,16.183A2.74,2.74,0,0,1,33.432,12.2h.036a181.339,181.339,0,0,0,32.585,0h.036a2.782,2.782,0,0,1,2.353,1.3,2.724,2.724,0,0,1,.109,2.679L63.736,25.6A.44.44,0,0,1,63.265,25.922Z" transform="translate(-30.669 -8.652)"/><path class="b" d="M75.7,7.107a.572.572,0,0,1-.579-.579c0-1.593-2.534-2.969-5.539-2.969H63.9c-3.005,0-5.539,1.34-5.539,2.969a.579.579,0,1,1-1.159,0C57.2,4.21,60.169,2.4,63.934,2.4h5.648c3.765,0,6.734,1.81,6.734,4.127A.628.628,0,0,1,75.7,7.107Z" transform="translate(-47.594 -2.4)"/><path class="c" d="M76.695,30.234H74.74a.819.819,0,0,1-.833-.833V27.627H72.133a.819.819,0,0,1-.833-.833V24.84a.819.819,0,0,1,.833-.833h1.774V22.233a.819.819,0,0,1,.833-.833h1.955a.819.819,0,0,1,.833.833v1.774H79.3a.819.819,0,0,1,.833.833v1.955a.819.819,0,0,1-.833.833H77.527V29.4A.8.8,0,0,1,76.695,30.234Zm-1.629-1.159h1.3V27.3a.819.819,0,0,1,.833-.833h1.774v-1.3H77.2a.819.819,0,0,1-.833-.833V22.559h-1.3v1.774a.819.819,0,0,1-.833.833H72.459v1.3h1.774a.819.819,0,0,1,.833.833Zm4.272-3.946Z" transform="translate(-56.589 -14.521)"/></g></g></g></svg>