<svg xmlns="http://www.w3.org/2000/svg" width="83" height="83" viewBox="0 0 83 83"><defs><style>.a{fill:#fff;}.b{fill:#1f2639;}.c{fill:#bb3c4f;}</style></defs><g transform="translate(-449 -3870)"><rect class="a" width="83" height="83" transform="translate(449 3870)"/><g transform="translate(457.805 3865.512)"><path class="b" d="M83.528,104.127a1.426,1.426,0,0,1-.408-.083,1.035,1.035,0,0,1-.52-.958V83.919l.557-.208C85.83,79.752,91.1,77.919,99.2,78.085a.9.9,0,0,1,.854.708l5.755,18.5a1.143,1.143,0,0,1-.223,1.083.864.864,0,0,1-.965.25c-6.944-2.667-13.85-.917-20.5,5.208A.808.808,0,0,1,83.528,104.127Zm0-19.417v18.417c6.944-6.375,14.147-8.208,21.388-5.375L99.161,79.21c-7.872-.167-12.885,1.542-15.372,5.333l-.074.125Z" transform="translate(-50.261 -34.176)"/><path class="b" d="M44.818,104.769a.823.823,0,0,1-.631-.292c-5.681-6-12.365-7.667-20.422-5.125a.884.884,0,0,1-.965-.292,1.237,1.237,0,0,1-.186-1.083l6.424-17.833a1,1,0,0,1,.817-.667c8.02-.5,13,1.125,15.67,5.125a1.216,1.216,0,0,1,.186.625v18.5a1.065,1.065,0,0,1-.557.958C45.078,104.769,44.967,104.769,44.818,104.769ZM30.56,97.185c5.347,0,10.137,2.167,14.259,6.542v-18.5c-2.488-3.708-7.2-5.208-14.89-4.708l-.446-.208.446.208L23.5,98.31A24.215,24.215,0,0,1,30.56,97.185Z" transform="translate(-12.516 -34.942)"/><path class="b" d="M35.627,108.741c-.074,0-.149,0-.186-.042-5.57-2.917-12.4-3.417-20.905-1.542a.874.874,0,0,1-.891-.375,1.159,1.159,0,0,1-.149-1.042l6.238-17.708a.449.449,0,0,1,.594-.292.545.545,0,0,1,.26.667l-6.238,17.708c8.689-1.917,15.707-1.375,21.462,1.625a.566.566,0,0,1,.223.708A.457.457,0,0,1,35.627,108.741Z" transform="translate(-6.779 -39.789)"/><path class="b" d="M95.807,108.306a.485.485,0,0,1-.446-.333.568.568,0,0,1,.26-.667c5.681-2.375,11.882-2.667,20.719-1.042l-5.978-17.833a.568.568,0,0,1,.26-.667.469.469,0,0,1,.594.292l5.978,17.833a1.159,1.159,0,0,1-.149,1.042.955.955,0,0,1-.891.375c-8.652-1.583-14.7-1.292-20.237,1Z" transform="translate(-58.27 -39.813)"/><path class="c" d="M32.784,115.422a4.909,4.909,0,0,1-3.416-1.708H3.6a.942.942,0,0,1-.78-.458,1.059,1.059,0,0,1-.074-1L9.8,92.756a.484.484,0,0,1,.594-.292.59.59,0,0,1,.26.667L3.562,112.672H29.368a.823.823,0,0,1,.631.292c1.894,1.917,3.75,1.917,5.644,0a.942.942,0,0,1,.631-.25H61.821L55.36,93.172a.568.568,0,0,1,.26-.667.469.469,0,0,1,.594.292l6.461,19.5a1.091,1.091,0,0,1-.111.958.9.9,0,0,1-.78.458H36.275A4.957,4.957,0,0,1,32.784,115.422Z" transform="translate(0 -42.554)"/><g transform="translate(27.79 19.488)"><path class="c" d="M74.392,44.341a.985.985,0,0,1-.334-.083h0l-1.485-1a.644.644,0,0,1-.3-.458.923.923,0,0,1,.074-.542l9.283-17.25a.621.621,0,0,1,.891-.25l1.485,1a.644.644,0,0,1,.3.458.879.879,0,0,1-.074.542l-9.283,17.25a.585.585,0,0,1-.408.333Zm-.26-.875Zm-.854-.958,1,.667,8.986-16.708-1-.667Z" transform="translate(-71.551 -22.502)"/><path class="c" d="M71.036,70.835a.985.985,0,0,1-.334-.083.791.791,0,0,1-.334-.833h0l.668-3.042a.59.59,0,0,1,.334-.458.47.47,0,0,1,.52.042l1.6,1.083a.841.841,0,0,1,.3.5.577.577,0,0,1-.186.542l-2.079,2.083A.755.755,0,0,1,71.036,70.835Zm-.186-.958Zm.965-2.25-.371,1.708L72.6,68.169ZM73,68.419Zm-1.077-1.333Z" transform="translate(-70.349 -46.83)"/><path class="c" d="M0,0,1.942-.1l-.108,2.07-1.942.1Z" transform="translate(10.322 3.049) rotate(-58.92)"/><path class="c" d="M101.249,22.66a.786.786,0,0,1-.52-.167l-.854-.583a1.19,1.19,0,0,1-.334-1.542l.186-.333a.93.93,0,0,1,1.374-.375l.854.583a1.19,1.19,0,0,1,.334,1.542l-.186.333A.926.926,0,0,1,101.249,22.66Zm-.668-2.125c-.037,0-.074,0-.074.042l-.186.333c-.037.042,0,.083.037.125l.854.583c.037.042.074,0,.111-.042l.186-.333c.037-.042,0-.083-.037-.125l-.854-.583Z" transform="translate(-88.605 -19.488)"/><path class="c" d="M91.4,32.979l2.005-2.333a.451.451,0,0,1,.446-.125l3.156-5.875-.408-.292a.53.53,0,0,1-.149-.708.416.416,0,0,1,.631-.167l.668.458a.654.654,0,0,1,.3.417.923.923,0,0,1-.074.542l-3.6,6.75Zm5.867-8.167Z" transform="translate(-83.583 -21.765)"/></g></g></g></svg>