<svg xmlns="http://www.w3.org/2000/svg" width="83" height="83" viewBox="0 0 83 83"><defs><style>.a{fill:#fff;}.b{fill:#bb3c4f;}.c{fill:#1f2639;}</style></defs><g transform="translate(-469 -4126)"><rect class="a" width="83" height="83" transform="translate(469 4126)"/><g transform="translate(473.537 4109.2)"><path class="b" d="M73.33,59.76a7.73,7.73,0,1,1,7.73-7.73A7.722,7.722,0,0,1,73.33,59.76Zm0-14.294a6.564,6.564,0,1,0,6.564,6.564A6.561,6.561,0,0,0,73.33,45.466Z" transform="translate(-36.278 -2.557)"/><path class="b" d="M60.64,104.929a87.048,87.048,0,0,1-16.713-1.684A2.266,2.266,0,0,1,42.07,100.7h0C43.106,91.973,52.046,88,59.949,88h.043c7.9,0,16.842,4.016,17.836,12.74a2.286,2.286,0,0,1-1.814,2.5A68.471,68.471,0,0,1,60.64,104.929Zm-17.447-4.059a1.184,1.184,0,0,0,.95,1.3c11.271,2.159,21.9,2.2,31.655.043a1.189,1.189,0,0,0,.907-1.3c-.907-8.076-9.069-11.7-16.713-11.746h-.043c-7.385,0-15.806,3.671-16.756,11.7Z" transform="translate(-22.896 -27.385)"/><path class="c" d="M33.03,55.26a7.73,7.73,0,1,1,7.73-7.73A7.722,7.722,0,0,1,33.03,55.26Zm0-14.294a6.586,6.586,0,1,0,6.564,6.607A6.561,6.561,0,0,0,33.03,40.966Z" transform="translate(-13.382)"/><path class="c" d="M14.941,100.3h0A96.731,96.731,0,0,1,3.627,98.829,2.266,2.266,0,0,1,1.77,96.281a12.952,12.952,0,0,1,6.176-9.544c5.1-3.282,12.74-4.1,19.045-2.03a.587.587,0,0,1-.345,1.123c-6-1.943-13.258-1.166-18.095,1.9a11.735,11.735,0,0,0-5.657,8.68,1.184,1.184,0,0,0,.95,1.3,93.948,93.948,0,0,0,11.142,1.468.547.547,0,0,1,.518.6A.536.536,0,0,1,14.941,100.3Z" transform="translate(0 -24.869)"/><path class="c" d="M113.73,55.26a7.73,7.73,0,1,1,7.73-7.73A7.722,7.722,0,0,1,113.73,55.26Zm0-14.294a6.586,6.586,0,1,0,6.564,6.607A6.561,6.561,0,0,0,113.73,40.966Z" transform="translate(-59.231)"/><path class="c" d="M118.408,100.28a.536.536,0,0,1-.561-.518.575.575,0,0,1,.518-.6,95.136,95.136,0,0,0,11.142-1.468,1.184,1.184,0,0,0,.95-1.3A11.888,11.888,0,0,0,124.8,87.67c-4.794-3.109-12.092-3.844-18.095-1.9a.587.587,0,0,1-.345-1.123c6.305-2.03,13.949-1.209,19.045,2.03a12.876,12.876,0,0,1,6.176,9.544,2.336,2.336,0,0,1-1.857,2.548,81.48,81.48,0,0,1-11.315,1.511Z" transform="translate(-59.202 -24.852)"/></g></g></svg>