<svg xmlns="http://www.w3.org/2000/svg" width="140" height="140" viewBox="0 0 140 140"><defs><style>.a{fill:#f8f8f1;}.b,.c{fill:none;stroke-linecap:round;stroke-miterlimit:10;stroke-width:2.5px;}.b{stroke:#1f2639;}.c{stroke:#bb3c4f;}</style></defs><g transform="translate(-549 -1376)"><g transform="translate(549 1376)"><path class="a" d="M0,0H140V140H0Z"/></g><g transform="translate(548.723 1373.864)"><g transform="translate(3.5 15.8)"><path class="b" d="M72.519,75.723H7.756A4.274,4.274,0,0,1,3.5,71.466V20.056A4.274,4.274,0,0,1,7.756,15.8H20.776" transform="translate(-3.5 -15.8)"/><path class="b" d="M34.7,15.8h67.434a4.274,4.274,0,0,1,4.256,4.256V61.368" transform="translate(-8.661 -15.8)"/><path class="b" d="M69.39,95c0,3.171,1.92,5.925,5.007,8.429a1.46,1.46,0,0,1,.584,1.168v4.089a1.5,1.5,0,0,1-1.5,1.5H44.1a1.5,1.5,0,0,1-1.5-1.5V104.6a1.594,1.594,0,0,1,.584-1.168c3.088-2.5,5.007-5.258,5.007-8.429" transform="translate(-9.968 -28.902)"/></g><g transform="translate(56.404 61.368)"><g transform="translate(19.954)"><circle class="b" cx="13.937" cy="13.937" r="13.937"/></g><path class="b" d="M133.414,135.087c-20.614,4.841-42.4,4.59-65.264,0a1.616,1.616,0,0,1-1.252-1.669c1-20.113,24.036-28.376,42.981-24.62l.417.083S136.335,115.475,137,86.6c.5-20.28,6.927-10.015,8.6-5.341,3.839,10.516,3,34.635-11.183,45.484a1.518,1.518,0,0,0-.584,1.586c.25,1.252.668,3.338.835,5.091A1.779,1.779,0,0,1,133.414,135.087Z" transform="translate(-66.89 -71.075)"/></g><g transform="translate(12.194 24.146)"><g transform="translate(21.768 0)"><circle class="b" cx="9.264" cy="9.264" r="9.264"/></g><path class="b" d="M23.751,68.738c13.353,3.088,27.541,2.921,42.313,0a1.54,1.54,0,0,0,1.252-1.669c-1-13.019-16.024-18.277-28.459-15.773l-.25.083s-17.276,4.34-17.693-14.772c-.334-13.437-4.59-6.677-5.675-3.505-2.587,7.01-2,23.118,7.511,30.212a.793.793,0,0,1,.334.835,20.323,20.323,0,0,0-.5,3A1.44,1.44,0,0,0,23.751,68.738Z" transform="translate(-13.917 -26.258)"/></g><path class="c" d="M105.528,35H88.42a1.889,1.889,0,0,1-1.92-1.92V24.82a1.889,1.889,0,0,1,1.92-1.92h17.109a1.889,1.889,0,0,1,1.92,1.92v8.262A1.889,1.889,0,0,1,105.528,35Z" transform="translate(-13.73 -1.175)"/><path class="c" d="M105.528,56H88.42a1.889,1.889,0,0,1-1.92-1.92V45.82a1.889,1.889,0,0,1,1.92-1.92h17.109a1.889,1.889,0,0,1,1.92,1.92v8.262A1.889,1.889,0,0,1,105.528,56Z" transform="translate(-13.73 -4.648)"/><path class="c" d="M87.418,76.417a2.539,2.539,0,0,1-.918-2V67.487A2.6,2.6,0,0,1,89.087,64.9h15.773a2.785,2.785,0,0,1,2.086,1" transform="translate(-13.73 -8.122)"/><circle class="c" cx="0.334" cy="0.334" r="0.334" transform="translate(52.072 19.055)"/></g></g></svg>