<svg xmlns="http://www.w3.org/2000/svg" viewBox="0 0 338 70" width="338" height="70">
	<style>
		tspan { white-space:pre }
		.shp0 { fill: #e2342b } 
		.shp1 { fill: #082826 } 
		.shp2 { fill: #ffffff } 
	</style>
	<g id="Layer 1">
		<g id="&lt;Group&gt;">
			<g id="Folder 18">
				<path id="&lt;Compound Path&gt;" class="shp0" d="M314.77 26.06L336.64 26.06L336.64 32.62L324.64 48.54L337 48.54L337 55.1L314.71 55.1L314.71 48.54L326.66 32.62L314.77 32.62L314.77 26.06Z" />
				<path id="&lt;Compound Path&gt;" class="shp0" d="M291.17 66.84L294.56 55.1L291.83 55.1L282.91 26.06L291.59 26.06L297.47 46.63L303.36 26.06L312.04 26.06L302.94 55.1L299.26 66.84L291.17 66.84Z" />
				<path id="&lt;Compound Path&gt;" class="shp0" d="M272.87 55.1L272.87 35.9C272.87 34.58 272.27 33.81 270.79 33.81C269.24 33.81 266.39 34.88 264.55 35.9L264.55 55.1L255.99 55.1L255.99 26.06L262.35 26.06L263.24 28.26C266.81 26.53 271.44 25.46 274.77 25.46C279.7 25.46 281.43 29.16 281.43 34.76L281.43 55.1L272.87 55.1Z" />
				<path id="&lt;Compound Path&gt;" fill-rule="evenodd" class="shp0" d="M236.55 43.59L236.55 44.42C236.55 47.76 237.86 48.66 241.78 48.66C244.46 48.66 248.02 48.18 250.58 47.4L251.83 53.84C249.21 54.8 244.99 55.69 240.95 55.69C231.56 55.69 227.99 51.04 227.99 43.89L227.99 37.09C227.99 30.83 230.79 25.46 240.42 25.46C250.04 25.46 252.13 31.19 252.13 37.51L252.13 43.59L236.55 43.59ZM244.04 35.9C244.04 33.87 243.45 32.2 240.48 32.2C237.5 32.2 236.55 33.87 236.55 35.9L236.55 37.15L244.04 37.15L244.04 35.9Z" />
				<path id="&lt;Compound Path&gt;" class="shp0" d="M210.76 55.69C201.13 55.69 196.25 50.74 196.25 43.53L196.25 26.95C196.25 19.62 201.13 14.79 210.76 14.79C215.33 14.79 220.03 15.38 223.42 16.04L222.35 23.85C218.9 23.31 213.61 22.9 210.76 22.9C206.3 22.9 205.17 25.22 205.17 28.32L205.17 41.98C205.17 45.08 206.3 47.64 210.76 47.64C212.54 47.64 213.73 47.58 216.05 47.28L216.05 35.12L224.43 35.12L224.43 53.78C220.09 55.04 215.33 55.69 210.76 55.69Z" />
				<path id="&lt;Compound Path&gt;" class="shp1" d="M184.72 55.1L184.72 35.9C184.72 34.58 184.13 33.81 182.64 33.81C181.1 33.81 178.25 35 176.4 35.96L176.4 55.1L167.84 55.1L167.84 14.19L176.28 13L176.28 28.15C179.79 26.54 183.3 25.46 186.63 25.46C191.56 25.46 193.28 29.16 193.28 34.76L193.28 55.1L184.72 55.1Z" />
				<path id="&lt;Compound Path&gt;" class="shp1" d="M152.87 44.01C152.87 46.99 154.11 48.36 157.56 48.36C159.76 48.36 161.43 48.12 163.51 47.64L164.58 54.8C161.66 55.45 159.58 55.69 157.56 55.69C148.17 55.69 144.31 52.17 144.31 43.89L144.31 37.27C144.31 28.98 148.17 25.46 157.56 25.46C159.58 25.46 161.66 25.7 164.58 26.36L163.51 33.51C161.72 33.09 159.23 32.8 157.56 32.8C154.11 32.8 152.87 34.17 152.87 37.15L152.87 44.01Z" />
				<path id="&lt;Compound Path&gt;" fill-rule="evenodd" class="shp1" d="M125.47 43.59L125.47 44.42C125.47 47.76 126.77 48.66 130.7 48.66C133.37 48.66 136.94 48.18 139.49 47.4L140.74 53.84C138.13 54.8 133.91 55.69 129.86 55.69C120.47 55.69 116.91 51.04 116.91 43.89L116.91 37.09C116.91 30.83 119.7 25.46 129.33 25.46C138.96 25.46 141.04 31.19 141.04 37.51L141.04 43.59L125.47 43.59ZM132.96 35.9C132.96 33.87 132.36 32.2 129.39 32.2C126.42 32.2 125.47 33.87 125.47 35.9L125.47 37.15L132.96 37.15L132.96 35.9Z" />
				<path id="&lt;Compound Path&gt;" class="shp1" d="M105.56 23.31L105.56 55.1L96.64 55.1L96.64 23.31L86 23.31L86 15.38L116.19 15.38L116.19 23.31L105.56 23.31Z" />
			</g>
			<g id="Folder 20">
				<path id="Shape 1" class="shp0" d="M11 1L59 1C64.53 1 69 5.47 69 11L69 59C69 64.53 64.53 69 59 69L11 69C5.47 69 1 64.53 1 59L1 11C1 5.47 5.47 1 11 1Z" />
				<path id="&lt;Compound Path&gt;" class="shp2" d="M27.44 26.74L27.44 48.75L21.25 48.75L21.25 26.74L13.85 26.74L13.85 21.25L34.83 21.25L34.83 26.74L27.44 26.74Z" />
				<path id="&lt;Compound Path&gt;" class="shp2" d="M46.65 49.17C39.96 49.17 36.57 45.74 36.57 40.74L36.57 29.26C36.57 24.18 39.96 20.83 46.65 20.83C49.83 20.83 53.09 21.25 55.44 21.7L54.7 27.11C52.31 26.74 48.63 26.45 46.65 26.45C43.55 26.45 42.76 28.06 42.76 30.21L42.76 39.67C42.76 41.81 43.55 43.59 46.65 43.59C47.89 43.59 48.71 43.55 50.32 43.34L50.32 34.92L56.15 34.92L56.15 47.84C53.13 48.71 49.83 49.17 46.65 49.17Z" />
			</g>
		</g>
	</g>
</svg>