<svg xmlns="http://www.w3.org/2000/svg" xmlns:xlink="http://www.w3.org/1999/xlink" width="75" height="75" viewBox="0 0 75 75"><defs><style>.a{fill:#fff;}.b{clip-path:url(#a);}.c{fill:none;}.d{fill:#1f2639;}.e{fill:#bb3c4f;}</style><clipPath id="a"><rect class="a" width="75" height="75" transform="translate(153 1242)"/></clipPath></defs><g class="b" transform="translate(-153 -1242)"><g transform="translate(153 1242)"><rect class="c" width="75" height="75"/><g transform="translate(0.428 5.514)"><g transform="translate(9.847 18.853)"><path class="d" d="M63.832,60.013A11.547,11.547,0,0,1,52.3,48.481a.481.481,0,1,1,.961,0,10.553,10.553,0,0,0,21.106,0,.481.481,0,0,1,.961,0A11.492,11.492,0,0,1,63.832,60.013Z" transform="translate(-36.608 -48)"/><path class="d" d="M38.143,122.183a135.936,135.936,0,0,1-25.689-2.55,3.228,3.228,0,0,1-2.587-3.475l.481.074-.481-.074a19.554,19.554,0,0,1,9.426-14.49A33.5,33.5,0,0,1,37.071,96.9h.074a33.426,33.426,0,0,1,17.779,4.805,19.565,19.565,0,0,1,9.352,14.49,3.232,3.232,0,0,1-2.477,3.475A109.7,109.7,0,0,1,38.143,122.183ZM37.108,97.9C25.5,97.9,12.38,103.627,10.9,116.269a2.222,2.222,0,0,0,1.774,2.4c17.41,3.364,33.858,3.4,48.939.074a2.2,2.2,0,0,0,1.7-2.4C61.874,103.627,49.158,97.935,37.182,97.9Z" transform="translate(-9.847 -78.825)"/></g><g transform="translate(28.363 1.762)"><path class="e" d="M83.281,41.057a.489.489,0,0,1-.481-.481v-13.2a.481.481,0,0,1,.961,0V40.539A.457.457,0,0,1,83.281,41.057Z" transform="translate(-74.35 -17.608)"/><path class="e" d="M65.136,43.385a3.5,3.5,0,0,1-1.626-.37c-2.255-1.146-3.216-4.473-3.548-6.358a1.126,1.126,0,0,1,.3-1,1.178,1.178,0,0,1,.961-.37c2.07.185,5.8.85,7.208,3.031a3.739,3.739,0,0,1,.259,3.4l-.222.554-.517-.259c-.148-.074-4.066-1.959-5.618-3.992A.5.5,0,0,1,63.1,37.4a16.848,16.848,0,0,0,4.731,3.438,2.622,2.622,0,0,0-.333-2c-1.22-1.885-4.916-2.44-6.469-2.587-.074,0-.111.037-.148.037-.037.037-.037.074-.037.148.259,1.368,1.072,4.657,2.994,5.618A3.155,3.155,0,0,0,66.8,41.87a.5.5,0,1,1,.444.887A3.864,3.864,0,0,1,65.136,43.385Z" transform="translate(-59.939 -22.894)"/><path class="e" d="M86.441,35.074a5.164,5.164,0,0,1-2.218-.554.5.5,0,0,1,.444-.887,3.264,3.264,0,0,0,2.957.185c1.959-1,2.735-4.251,2.994-5.618,0-.074,0-.111-.037-.148s-.074-.074-.148-.037c-1.552.148-5.249.665-6.469,2.587a2.622,2.622,0,0,0-.333,2,16.638,16.638,0,0,0,4.731-3.438.5.5,0,1,1,.776.628c-1.552,2.033-5.434,3.918-5.618,3.992L83,34.039l-.185-.517a3.739,3.739,0,0,1,.259-3.4c1.4-2.181,5.1-2.846,7.208-3.031a1.178,1.178,0,0,1,.961.37,1.205,1.205,0,0,1,.3,1c-.37,1.885-1.294,5.212-3.548,6.321A3.874,3.874,0,0,1,86.441,35.074Z" transform="translate(-74.184 -17.725)"/><path class="e" d="M78.517,12.163l-.554-.074a3.741,3.741,0,0,1-2.92-1.774c-1.331-2.255-.222-5.84.554-7.8a1.225,1.225,0,0,1,.776-.7,1.072,1.072,0,0,1,1,.185c1.515,1.183,4.066,3.511,4.066,6.025a4.1,4.1,0,0,1-1.885,3.327.5.5,0,1,1-.591-.813,3.189,3.189,0,0,0,1.479-2.55c0-2.181-2.55-4.4-3.659-5.212a.222.222,0,0,0-.148-.037q-.055,0-.111.111c-.554,1.442-1.737,4.99-.628,6.912a2.478,2.478,0,0,0,1.626,1.183,16.128,16.128,0,0,0-.924-5.766.5.5,0,1,1,.887-.444c1.109,2.292,1.035,6.616,1.035,6.8Z" transform="translate(-69.069 -1.762)"/></g></g></g></g></svg>