<svg xmlns="http://www.w3.org/2000/svg" xmlns:xlink="http://www.w3.org/1999/xlink" width="75" height="75" viewBox="0 0 75 75"><defs><style>.a{fill:#fff;}.b{clip-path:url(#a);}.c{fill:none;}.d{fill:#bb3c4f;}.e{fill:#1f2639;}</style><clipPath id="a"><rect class="a" width="75" height="75" transform="translate(100 983)"/></clipPath></defs><g class="b" transform="translate(-100 -983)"><g transform="translate(100 983)"><rect class="c" width="75" height="75"/><g transform="translate(4.581 -10.516)"><g transform="translate(28.277 38.943)"><path class="d" d="M79.945,60.345H71.622a.522.522,0,0,1,0-1.045h8.322a.522.522,0,0,1,0,1.045Z" transform="translate(-71.1 -59.3)"/><path class="d" d="M79.945,68.945H71.622a.522.522,0,0,1,0-1.045h8.322a.522.522,0,0,1,0,1.045Z" transform="translate(-71.1 -64.691)"/></g><g transform="translate(2.781 28.569)"><g transform="translate(5.568)"><path class="e" d="M22.85,41.8A5.15,5.15,0,1,1,28,36.65,5.16,5.16,0,0,1,22.85,41.8Zm0-9.18a4.068,4.068,0,1,0,4.068,4.068A4.077,4.077,0,0,0,22.85,32.62Z" transform="translate(-17.7 -31.5)"/></g><path class="e" d="M13.909,73.937a53.7,53.7,0,0,1-9.852-.97A1.567,1.567,0,0,1,2.788,71.25c.6-5.262,5.971-7.65,10.71-7.65h.037c4.739,0,10.076,2.426,10.673,7.688A1.619,1.619,0,0,1,22.978,73,42.225,42.225,0,0,1,13.909,73.937ZM3.87,71.362h0a.464.464,0,0,0,.411.522,46.118,46.118,0,0,0,18.51.037.488.488,0,0,0,.373-.522c-.522-4.628-5.225-6.717-9.628-6.717H13.5C9.244,64.682,4.393,66.772,3.87,71.362Z" transform="translate(-2.781 -51.621)"/></g><g transform="translate(41.555 26.824)"><path class="e" d="M125.325,38.981a5.019,5.019,0,0,1-3.657-1.53,5.194,5.194,0,0,1-1.493-4.068,5.061,5.061,0,0,1,4.7-4.739h0a5.9,5.9,0,0,1,1.754.224,2.06,2.06,0,0,1,.672-1.455,2.6,2.6,0,0,1,2.09-.56,2.459,2.459,0,0,1,2.164,2.164,2.506,2.506,0,0,1-1.53,2.612,5.09,5.09,0,0,1,.485,2.687,5.252,5.252,0,0,1-4.739,4.7A.919.919,0,0,0,125.325,38.981Zm-.411-9.255a4.069,4.069,0,0,0-2.463,6.941,4.128,4.128,0,0,0,3.209,1.194,4.08,4.08,0,0,0,3.172-6.158.757.757,0,0,1-.037-.634.722.722,0,0,1,.522-.411,1.409,1.409,0,0,0,1.12-1.567,1.542,1.542,0,0,0-2.463-.933.94.94,0,0,0-.3.784v.075c.037.448.037.709-.224.9-.224.187-.448.112-.746.037a8.846,8.846,0,0,0-1.791-.224Zm4.889,1.455Z" transform="translate(-115.13 -26.824)"/><path class="e" d="M117.809,73.937a53.7,53.7,0,0,1-9.852-.97,1.567,1.567,0,0,1-1.269-1.717h0c.6-5.262,5.971-7.65,10.71-7.65h.037c4.739,0,10.076,2.426,10.673,7.688A1.619,1.619,0,0,1,126.878,73,41.978,41.978,0,0,1,117.809,73.937ZM107.77,71.362h0a.464.464,0,0,0,.411.522,46.118,46.118,0,0,0,18.51.037.488.488,0,0,0,.373-.522c-.522-4.628-5.225-6.717-9.628-6.717H117.4C113.144,64.682,108.33,66.772,107.77,71.362Z" transform="translate(-106.681 -49.876)"/></g><path class="e" d="M62.673,100.045H3.522a.522.522,0,0,1,0-1.045h59.15a.51.51,0,0,1,.522.522A.534.534,0,0,1,62.673,100.045Z" transform="translate(-0.137 -45.241)"/><path class="e" d="M76.373,117.647H65.886a2.221,2.221,0,0,1-1.9-3.321l5.262-9.106a2.18,2.18,0,0,1,1.9-1.12h0a2.137,2.137,0,0,1,1.9,1.12l5.262,9.106a2.122,2.122,0,0,1,0,2.2A2.24,2.24,0,0,1,76.373,117.647ZM70.14,105.779l-5.262,9.106a1.189,1.189,0,0,0,0,1.12,1.043,1.043,0,0,0,.97.56H76.335a1.114,1.114,0,0,0,.97-.56,1.016,1.016,0,0,0,0-1.12l-5.262-9.106a1.043,1.043,0,0,0-.97-.56.964.964,0,0,0-.933.56Z" transform="translate(-38.169 -48.438)"/></g></g></g></svg>