<svg xmlns="http://www.w3.org/2000/svg" xmlns:xlink="http://www.w3.org/1999/xlink" width="75" height="75" viewBox="0 0 75 75"><defs><style>.a{fill:#fff;opacity:0;}.b{clip-path:url(#a);}.c{fill:none;}.d{fill:#1f2639;}.e{fill:#bb3c4f;}</style><clipPath id="a"><path class="a" d="M0,0H75V75H0Z" transform="translate(674 845)"/></clipPath></defs><g class="b" transform="translate(-674 -845)"><g transform="translate(674 845)"><rect class="c" width="75" height="75"/><g transform="translate(4.155 -6.215)"><path class="d" d="M56.918,74.165H14.675a.524.524,0,1,1,0-1.048H56.918a5.541,5.541,0,0,0,5.388-5.725V37.272a5.589,5.589,0,0,0-5.388-5.725H9.736a5.541,5.541,0,0,0-5.388,5.725v30.12a5.589,5.589,0,0,0,5.388,5.725.524.524,0,1,1,0,1.048A6.609,6.609,0,0,1,3.3,67.393V37.272A6.609,6.609,0,0,1,9.736,30.5H56.955a6.609,6.609,0,0,1,6.436,6.772v30.12A6.665,6.665,0,0,1,56.918,74.165Z" transform="translate(0 -6.634)"/><path class="d" d="M62.829,60.448H3.824a.524.524,0,1,1,0-1.048H62.867a.512.512,0,0,1,.524.524A.544.544,0,0,1,62.829,60.448Z" transform="translate(0 -24.721)"/><path class="d" d="M24.724,28.805a.512.512,0,0,1-.524-.524V20.424a.524.524,0,0,1,1.048,0v7.857A.535.535,0,0,1,24.724,28.805Z" transform="translate(-13.08)"/><path class="d" d="M41.324,28.905a.512.512,0,0,1-.524-.524V20.524a.524.524,0,1,1,1.048,0v7.857A.562.562,0,0,1,41.324,28.905Z" transform="translate(-23.469 -0.063)"/><path class="d" d="M57.824,29.005a.512.512,0,0,1-.524-.524V20.624a.524.524,0,0,1,1.048,0v7.857A.512.512,0,0,1,57.824,29.005Z" transform="translate(-33.795 -0.125)"/><path class="d" d="M74.424,29.105a.512.512,0,0,1-.524-.524V20.724a.524.524,0,0,1,1.048,0v7.857A.562.562,0,0,1,74.424,29.105Z" transform="translate(-44.184 -0.188)"/><path class="d" d="M90.924,29.205a.512.512,0,0,1-.524-.524V20.824a.524.524,0,0,1,1.048,0v7.857A.512.512,0,0,1,90.924,29.205Z" transform="translate(-54.51 -0.25)"/><path class="d" d="M107.524,29.305a.512.512,0,0,1-.524-.524V20.924a.524.524,0,1,1,1.048,0v7.857A.535.535,0,0,1,107.524,29.305Z" transform="translate(-64.899 -0.313)"/><path class="d" d="M124.024,29.405a.512.512,0,0,1-.524-.524V21.024a.524.524,0,1,1,1.048,0v7.857A.512.512,0,0,1,124.024,29.405Z" transform="translate(-75.226 -0.376)"/><path class="d" d="M140.624,29.505a.511.511,0,0,1-.524-.524V21.124a.524.524,0,1,1,1.048,0v7.857A.512.512,0,0,1,140.624,29.505Z" transform="translate(-85.614 -0.438)"/><path class="e" d="M26.649,76.872H22.908A2.271,2.271,0,0,1,20.7,74.514V72.157A2.32,2.32,0,0,1,22.908,69.8h3.742a2.271,2.271,0,0,1,2.208,2.357v2.357A2.3,2.3,0,0,1,26.649,76.872ZM22.87,70.922a1.223,1.223,0,0,0-1.2,1.272v2.357a1.223,1.223,0,0,0,1.2,1.272h3.742a1.223,1.223,0,0,0,1.2-1.272V72.195a1.223,1.223,0,0,0-1.2-1.272Z" transform="translate(-10.89 -31.229)"/><path class="d" d="M52.449,76.872H48.708A2.271,2.271,0,0,1,46.5,74.514V72.157A2.32,2.32,0,0,1,48.708,69.8h3.742a2.271,2.271,0,0,1,2.208,2.357v2.357A2.248,2.248,0,0,1,52.449,76.872Zm-3.742-5.949a1.223,1.223,0,0,0-1.2,1.272v2.357a1.223,1.223,0,0,0,1.2,1.272h3.742a1.223,1.223,0,0,0,1.2-1.272V72.195a1.223,1.223,0,0,0-1.2-1.272Z" transform="translate(-27.036 -31.229)"/><path class="d" d="M78.349,76.872H74.608A2.271,2.271,0,0,1,72.4,74.514V72.157A2.32,2.32,0,0,1,74.608,69.8h3.742a2.271,2.271,0,0,1,2.208,2.357v2.357A2.271,2.271,0,0,1,78.349,76.872ZM74.57,70.922a1.223,1.223,0,0,0-1.2,1.272v2.357a1.223,1.223,0,0,0,1.2,1.272h3.742a1.223,1.223,0,0,0,1.2-1.272V72.195a1.223,1.223,0,0,0-1.2-1.272Z" transform="translate(-43.245 -31.229)"/><path class="d" d="M104.249,76.872h-3.742A2.271,2.271,0,0,1,98.3,74.514V72.157a2.32,2.32,0,0,1,2.208-2.357h3.742a2.271,2.271,0,0,1,2.208,2.357v2.357A2.3,2.3,0,0,1,104.249,76.872Zm-3.779-5.949a1.223,1.223,0,0,0-1.2,1.272v2.357a1.223,1.223,0,0,0,1.2,1.272h3.742a1.223,1.223,0,0,0,1.2-1.272V72.195a1.223,1.223,0,0,0-1.2-1.272Z" transform="translate(-59.454 -31.229)"/><path class="d" d="M130.049,76.872h-3.742a2.271,2.271,0,0,1-2.208-2.357V72.157a2.32,2.32,0,0,1,2.208-2.357h3.742a2.271,2.271,0,0,1,2.208,2.357v2.357A2.271,2.271,0,0,1,130.049,76.872Zm-3.742-5.949a1.223,1.223,0,0,0-1.2,1.272v2.357a1.223,1.223,0,0,0,1.2,1.272h3.742a1.223,1.223,0,0,0,1.2-1.272V72.195a1.223,1.223,0,0,0-1.2-1.272Z" transform="translate(-75.601 -31.229)"/><path class="d" d="M26.649,99.772H22.908A2.271,2.271,0,0,1,20.7,97.414V95.057A2.32,2.32,0,0,1,22.908,92.7h3.742a2.271,2.271,0,0,1,2.208,2.357v2.357A2.32,2.32,0,0,1,26.649,99.772ZM22.87,93.785a1.223,1.223,0,0,0-1.2,1.272v2.357a1.223,1.223,0,0,0,1.2,1.272h3.742a1.223,1.223,0,0,0,1.2-1.272V95.057a1.223,1.223,0,0,0-1.2-1.272Z" transform="translate(-10.89 -45.561)"/><path class="d" d="M52.449,99.772H48.708A2.271,2.271,0,0,1,46.5,97.414V95.057A2.32,2.32,0,0,1,48.708,92.7h3.742a2.271,2.271,0,0,1,2.208,2.357v2.357A2.27,2.27,0,0,1,52.449,99.772Zm-3.742-5.987a1.223,1.223,0,0,0-1.2,1.272v2.357a1.223,1.223,0,0,0,1.2,1.272h3.742a1.223,1.223,0,0,0,1.2-1.272V95.057a1.223,1.223,0,0,0-1.2-1.272Z" transform="translate(-27.036 -45.561)"/><path class="d" d="M78.349,99.772H74.608A2.271,2.271,0,0,1,72.4,97.414V95.057A2.32,2.32,0,0,1,74.608,92.7h3.742a2.271,2.271,0,0,1,2.208,2.357v2.357A2.3,2.3,0,0,1,78.349,99.772ZM74.57,93.785a1.223,1.223,0,0,0-1.2,1.272v2.357a1.223,1.223,0,0,0,1.2,1.272h3.742a1.223,1.223,0,0,0,1.2-1.272V95.057a1.223,1.223,0,0,0-1.2-1.272Z" transform="translate(-43.245 -45.561)"/><path class="d" d="M104.249,99.772h-3.742A2.271,2.271,0,0,1,98.3,97.414V95.057a2.32,2.32,0,0,1,2.208-2.357h3.742a2.271,2.271,0,0,1,2.208,2.357v2.357A2.32,2.32,0,0,1,104.249,99.772Zm-3.779-5.987a1.223,1.223,0,0,0-1.2,1.272v2.357a1.223,1.223,0,0,0,1.2,1.272h3.742a1.223,1.223,0,0,0,1.2-1.272V95.057a1.223,1.223,0,0,0-1.2-1.272Z" transform="translate(-59.454 -45.561)"/><path class="d" d="M130.049,99.772h-3.742a2.271,2.271,0,0,1-2.208-2.357V95.057a2.32,2.32,0,0,1,2.208-2.357h3.742a2.271,2.271,0,0,1,2.208,2.357v2.357A2.3,2.3,0,0,1,130.049,99.772Zm-3.742-5.987a1.223,1.223,0,0,0-1.2,1.272v2.357a1.223,1.223,0,0,0,1.2,1.272h3.742a1.223,1.223,0,0,0,1.2-1.272V95.057a1.223,1.223,0,0,0-1.2-1.272Z" transform="translate(-75.601 -45.561)"/><path class="d" d="M52.449,122.572H48.708a2.271,2.271,0,0,1-2.208-2.357v-2.357a2.32,2.32,0,0,1,2.208-2.357h3.742a2.271,2.271,0,0,1,2.208,2.357v2.357A2.248,2.248,0,0,1,52.449,122.572Zm-3.742-5.949a1.223,1.223,0,0,0-1.2,1.272v2.357a1.223,1.223,0,0,0,1.2,1.272h3.742a1.223,1.223,0,0,0,1.2-1.272v-2.357a1.223,1.223,0,0,0-1.2-1.272Z" transform="translate(-27.036 -59.83)"/><path class="d" d="M78.349,122.572H74.608a2.271,2.271,0,0,1-2.208-2.357v-2.357a2.32,2.32,0,0,1,2.208-2.357h3.742a2.271,2.271,0,0,1,2.208,2.357v2.357A2.271,2.271,0,0,1,78.349,122.572Zm-3.779-5.949a1.223,1.223,0,0,0-1.2,1.272v2.357a1.223,1.223,0,0,0,1.2,1.272h3.742a1.223,1.223,0,0,0,1.2-1.272v-2.357a1.223,1.223,0,0,0-1.2-1.272Z" transform="translate(-43.245 -59.83)"/><path class="d" d="M104.249,122.572h-3.742a2.271,2.271,0,0,1-2.208-2.357v-2.357a2.32,2.32,0,0,1,2.208-2.357h3.742a2.271,2.271,0,0,1,2.208,2.357v2.357A2.3,2.3,0,0,1,104.249,122.572Zm-3.779-5.949a1.223,1.223,0,0,0-1.2,1.272v2.357a1.223,1.223,0,0,0,1.2,1.272h3.742a1.223,1.223,0,0,0,1.2-1.272v-2.357a1.223,1.223,0,0,0-1.2-1.272Z" transform="translate(-59.454 -59.83)"/><path class="e" d="M130.049,122.572h-3.742a2.271,2.271,0,0,1-2.208-2.357v-2.357a2.32,2.32,0,0,1,2.208-2.357h3.742a2.271,2.271,0,0,1,2.208,2.357v2.357A2.271,2.271,0,0,1,130.049,122.572Zm-3.742-5.949a1.223,1.223,0,0,0-1.2,1.272v2.357a1.223,1.223,0,0,0,1.2,1.272h3.742a1.223,1.223,0,0,0,1.2-1.272v-2.357a1.223,1.223,0,0,0-1.2-1.272Z" transform="translate(-75.601 -59.83)"/><g transform="translate(12.327 40.535)"><path class="d" d="M29.96,78.249a.536.536,0,0,1-.374-.15l-2.02-2.133a.569.569,0,0,1,0-.748.459.459,0,0,1,.711,0l2.02,2.133a.569.569,0,0,1,0,.748A.365.365,0,0,1,29.96,78.249Z" transform="translate(-27.425 -75.05)"/><path class="d" d="M27.939,78.249a.536.536,0,0,1-.374-.15.569.569,0,0,1,0-.748l2.02-2.133a.459.459,0,0,1,.711,0,.569.569,0,0,1,0,.748L28.276,78.1A.365.365,0,0,1,27.939,78.249Z" transform="translate(-27.425 -75.05)"/></g><g transform="translate(51.053 57.634)"><path class="d" d="M133.46,123.949a.48.48,0,0,1-.374-.15l-2.02-2.133a.569.569,0,0,1,0-.748.459.459,0,0,1,.711,0l2.02,2.133a.569.569,0,0,1,0,.748A.557.557,0,0,1,133.46,123.949Z" transform="translate(-130.925 -120.75)"/><path class="d" d="M131.439,123.949a.48.48,0,0,1-.374-.15.569.569,0,0,1,0-.748l2.02-2.133a.459.459,0,0,1,.711,0,.569.569,0,0,1,0,.748l-2.02,2.133A.557.557,0,0,1,131.439,123.949Z" transform="translate(-130.925 -120.75)"/></g></g></g></g></svg>