<svg xmlns="http://www.w3.org/2000/svg" xmlns:xlink="http://www.w3.org/1999/xlink" width="75" height="75" viewBox="0 0 75 75"><defs><style>.a{fill:#fff;}.b{clip-path:url(#a);}.c{fill:none;}.d{fill:#1f2639;}.e{fill:#bb3c4f;}</style><clipPath id="a"><rect class="a" width="75" height="75" transform="translate(748 1242)"/></clipPath></defs><g class="b" transform="translate(-748 -1242)"><g transform="translate(748 1242)"><rect class="c" width="75" height="75"/><g transform="translate(1.745 -0.835)"><g transform="translate(22.921 7.9)"><path class="d" d="M64.533,33.567A12.834,12.834,0,1,1,77.367,20.734,12.843,12.843,0,0,1,64.533,33.567Zm0-24.5A11.667,11.667,0,1,0,76.2,20.734,11.675,11.675,0,0,0,64.533,9.067Z" transform="translate(-51.699 -7.9)"/></g><path class="d" d="M14.151,121.349h-.08c-2.816-.362-3.741-.563-5.954-1.006l-1.489-.282a3.81,3.81,0,0,1-3.058-4.144c.845-7.242,4.828-13.236,11.466-17.34a.586.586,0,0,1,.6,1.006C9.283,103.486,5.5,109.2,4.7,116.079a2.638,2.638,0,0,0,2.092,2.856l1.489.282c2.172.443,3.1.6,5.874.966a.586.586,0,0,1,.523.644A.533.533,0,0,1,14.151,121.349Z" transform="translate(0 -54.148)"/><path class="d" d="M92.034,114.159a.643.643,0,0,1-.6-.523.586.586,0,0,1,.523-.644A84.326,84.326,0,0,0,102.9,111.1a2.663,2.663,0,0,0,2.052-2.816A21.66,21.66,0,0,0,96.46,93.44c-7-5.471-17.863-7.966-28.323-6.558a.586.586,0,0,1-.121-1.167c10.782-1.448,21.966,1.167,29.208,6.8a22.747,22.747,0,0,1,8.931,15.65,3.824,3.824,0,0,1-2.937,4.1A95.112,95.112,0,0,1,92.155,114.2.311.311,0,0,0,92.034,114.159Z" transform="translate(-38.216 -46.275)"/><path class="d" d="M117.116,122.677a.628.628,0,0,1-.523-.322.6.6,0,0,1,.241-.8,4.832,4.832,0,0,0,1.81-1.73.58.58,0,1,1,.966.644,6.435,6.435,0,0,1-2.253,2.132A.431.431,0,0,1,117.116,122.677Z" transform="translate(-67.522 -66.742)"/><path class="e" d="M64.217,140.014H61.8c-2.132-.04-4.063-.08-5.793-.161h0l-.724-.04c-1.851-.08-3.42-.2-4.627-.282l-.362-.04c-.563-.04-1.046-.08-1.408-.121a3.512,3.512,0,0,1-1.81-.644l-.04-.04a3.65,3.65,0,0,1-1.368-4.023,3.692,3.692,0,0,1,2.575-2.575h.04a2.788,2.788,0,0,1,.8-.121c1.69-.121,3.339-.241,4.908-.4l5.19-.724q3.741-.664,7.121-1.569L72.3,127.22c.04,0,.04,0,.08-.04a.039.039,0,0,0,.04-.04.61.61,0,0,1,.764.322c0,.04.04.08.04.121s.04.04.04.08l3.379,9.9a1.6,1.6,0,0,1-.2,1.408,1.512,1.512,0,0,1-1.207.684c-2.374.161-4.747.241-7,.322v.04H64.217Zm-1.649-1.167h4.345l-.885-8.288c-1.971.523-4.023.966-6.155,1.368Zm-6.8-.2c1.649.08,3.54.121,5.552.161l-2.655-6.719c-1.247.2-2.535.4-3.862.523ZM67.154,130.2l.925,8.609c2.253-.04,4.627-.161,7.04-.322a.481.481,0,0,0,.322-.161.391.391,0,0,0,.04-.362l-3.218-9.495C70.613,129.111,68.924,129.674,67.154,130.2ZM51.1,138.364l3.5.2-.966-5.833q-2.172.241-4.466.362ZM48,133.416a2.6,2.6,0,0,0-1.247,1.569,2.508,2.508,0,0,0,.885,2.736l.08.04a2.433,2.433,0,0,0,1.207.443c.241.04.523.04.845.08Z" transform="translate(-25.082 -71.244)"/><path class="e" d="M49.762,108.949a1.264,1.264,0,0,1-1.046-.563L38.377,92.253a1.369,1.369,0,0,1-.161-1.126,1.446,1.446,0,0,1,.724-.885,31.584,31.584,0,0,1,8.328-2.776,1.433,1.433,0,0,1,1.569.845L56.6,106.374a1.377,1.377,0,0,1-.04,1.126,1.289,1.289,0,0,1-.925.644l-5.713.845A.242.242,0,0,0,49.762,108.949ZM47.509,88.632h-.04a30.958,30.958,0,0,0-8.006,2.655.3.3,0,0,0-.121.121.242.242,0,0,0,.04.161h0l10.339,16.173.04.04,5.713-.845c.04,0,.04,0,.04-.04v-.08L47.751,88.793A.221.221,0,0,0,47.509,88.632Z" transform="translate(-20.685 -47.542)"/></g></g></g></svg>