<svg xmlns="http://www.w3.org/2000/svg" xmlns:xlink="http://www.w3.org/1999/xlink" width="75" height="75" viewBox="0 0 75 75"><defs><style>.a{fill:#fff;}.b{clip-path:url(#a);}.c{fill:none;}.d{fill:#1f2639;}.e{fill:#bb3c4f;}</style><clipPath id="a"><rect class="a" width="75" height="75" transform="translate(100 845)"/></clipPath></defs><g class="b" transform="translate(-100 -845)"><g transform="translate(100 845)"><rect class="c" width="75" height="75"/><g transform="translate(-0.465 3.157)"><path class="d" d="M63.388,32.462a8.968,8.968,0,0,1-1.032-.04A12.953,12.953,0,0,1,50.612,20.8a12.658,12.658,0,0,1,1.627-7.5,5.726,5.726,0,0,1,.6-11.268,6.141,6.141,0,0,1,4.8,1.27A4.557,4.557,0,0,1,59.143,6.83v.794a19.355,19.355,0,0,1,5.475-.794h0c5.991.238,11.07,5.356,11.546,11.744a12.85,12.85,0,0,1-3.73,10.078A12.606,12.606,0,0,1,63.388,32.462ZM53.747,3.14a4.8,4.8,0,0,0-.754.04,4.63,4.63,0,0,0-4.007,3.928,4.569,4.569,0,0,0,3.65,5.039.982.982,0,0,1,.754.6,1.143,1.143,0,0,1-.04.952A11.573,11.573,0,0,0,51.8,20.677,11.768,11.768,0,0,0,62.476,31.232,11.643,11.643,0,0,0,75.014,18.694C74.577,12.94,69.975,8.258,64.579,8.06a17.465,17.465,0,0,0-5.118.754c-.714.2-.913.238-1.19.04-.278-.238-.278-.516-.238-1.706V6.909a3.437,3.437,0,0,0-1.111-2.658A4.494,4.494,0,0,0,53.747,3.14Z" transform="translate(-24.035 0)"/><path class="d" d="M39.115,121a144.3,144.3,0,0,1-28.29-2.936,3.673,3.673,0,0,1-2.857-4.007A22.421,22.421,0,0,1,18.046,97.667c7.935-5.436,19.759-7.142,30.115-4.365a.578.578,0,0,1-.317,1.111c-10.038-2.7-21.465-1.032-29.163,4.206a21.248,21.248,0,0,0-9.562,15.554,2.5,2.5,0,0,0,1.944,2.738c19.164,3.849,37.3,3.888,53.882.079a2.536,2.536,0,0,0,1.865-2.738,21.14,21.14,0,0,0-3.928-10.237.6.6,0,0,1,.952-.714,22.052,22.052,0,0,1,4.126,10.792,3.735,3.735,0,0,1-2.738,4.007A114.973,114.973,0,0,1,39.115,121Z" transform="translate(0 -54.294)"/><path class="e" d="M118.925,103.549a6.824,6.824,0,1,1,6.824-6.824A6.824,6.824,0,0,1,118.925,103.549Zm0-12.5a5.674,5.674,0,1,0,5.674,5.674A5.673,5.673,0,0,0,118.925,91.051Z" transform="translate(-62.828 -53.034)"/><path class="e" d="M61.609,127.495a.748.748,0,0,1-.317-.079.548.548,0,0,1-.159-.794c3.333-5,4.285-10.276,5-14.085.079-.4.119-.754.2-1.111.436-2.341,1.865-4.166,3.174-4.126.436,0,1.468.278,1.666,2.262.159,1.468.833,5.079,3.135,6.467a4.623,4.623,0,0,0,4.166.04c2.936-1.151,7.1-1.032,9.4,1.508,2.9,3.214,2.42,5.436.675,9.443a.578.578,0,1,1-1.071-.436c1.587-3.69,1.984-5.436-.476-8.213-1.944-2.143-5.515-2.222-8.094-1.23a5.662,5.662,0,0,1-5.2-.119c-2.777-1.666-3.492-5.674-3.69-7.34-.079-.714-.317-1.23-.555-1.23h0c-.476,0-1.587,1.111-1.984,3.174-.079.357-.119.714-.2,1.111-.714,3.928-1.666,9.324-5.158,14.522A.64.64,0,0,1,61.609,127.495Z" transform="translate(-32.016 -63.529)"/></g></g></g></svg>