<svg xmlns="http://www.w3.org/2000/svg" xmlns:xlink="http://www.w3.org/1999/xlink" width="75" height="75" viewBox="0 0 75 75"><defs><style>.a{fill:#fff;opacity:0;}.b{clip-path:url(#a);}.c,.d,.e{fill:none;}.d{stroke:#1f2639;}.d,.e{stroke-linecap:round;stroke-miterlimit:10;stroke-width:1.5px;}.e{stroke:#bb3c4f;}</style><clipPath id="a"><path class="a" d="M0,0H75V75H0Z" transform="translate(674 983)"/></clipPath></defs><g class="b" transform="translate(-674 -983)"><g transform="translate(674 983)"><rect class="c" width="75" height="75"/><g transform="translate(2.66 -15.85)"><path class="d" d="M11.618,39.159,4.172,52.188a1.047,1.047,0,0,0,.31,1.4L7.7,55.95a1.084,1.084,0,0,0,1.59-.349l10.2-17.644a1.082,1.082,0,0,0-.388-1.474l-3.49-2.133a1.093,1.093,0,0,0-1.512.388l-1.163,2.094" transform="translate(0)"/><path class="e" d="M137.078,50.114l1.435,2.6a1.061,1.061,0,0,1-.388,1.435l-3.141,1.939a1.093,1.093,0,0,1-1.512-.388L123.389,38.015a1.1,1.1,0,0,1,.349-1.435l3.219-2.172a1.068,1.068,0,0,1,1.551.388l7.213,12.913" transform="translate(-72.994 -0.019)"/><path class="e" d="M137.2,81.6c-1.629,1.512-1.435,2.714-4.5,4.11" transform="translate(-78.776 -29.024)"/><path class="e" d="M31.883,96.638,45.494,107.38a1.1,1.1,0,0,0,1.512-.155l2.133-2.6c.659-.543-6.321-11.284-8.531-11.944a18.706,18.706,0,0,0-6.709-.5,1.075,1.075,0,0,0-1.047.582l-1.241,2.521A1.13,1.13,0,0,0,31.883,96.638Z" transform="translate(-16.814 -35.454)"/><path class="d" d="M24.774,87.094A27.986,27.986,0,0,1,21.4,83.1" transform="translate(-10.635 -29.942)"/><path class="d" d="M42.1,47.3l3.141,2.21a1.389,1.389,0,0,0,.427.155,10.922,10.922,0,0,1,3.917.5" transform="translate(-23.308 -8.025)"/><path class="d" d="M81.384,69.2A98.346,98.346,0,0,0,98.6,79.709a1.091,1.091,0,0,1,.5.931,5.838,5.838,0,0,1-.465,3.3c-3.529,5.39-14.193,10.043-14.5,10L77.7,92.855" transform="translate(-45.104 -21.432)"/><path class="e" d="M71.164,56.529c-1.28-.271-2.249-1.163-3.878-2.133l-2.986.31a1,1,0,0,0-.465.194,18.723,18.723,0,0,1-5.119,3.645c-.427.31-2.676.427-3.063.039h0a1.068,1.068,0,0,1-.155-1.4,33.086,33.086,0,0,0,4.731-6.98c.194-.271,6.67-1.939,10.043-1.2a69.858,69.858,0,0,0,8.454,1.474,24.222,24.222,0,0,0,4.188-1.435" transform="translate(-31.394 -8.955)"/></g></g></g></svg>