<svg xmlns="http://www.w3.org/2000/svg" width="140" height="140" viewBox="0 0 140 140"><defs><style>.a{fill:none;}.b{fill:#1f2639;}.c{fill:#bb3c4f;}</style></defs><g transform="translate(0 -0.211)"><rect class="a" width="140" height="140" transform="translate(0 0.211)"/><g transform="translate(3.989 3.874)"><path class="b" d="M66.011,130.374C30.9,130.374,2.3,101.624,2.3,66.337S30.9,2.3,66.011,2.3s63.711,28.75,63.711,64.037S101.119,130.374,66.011,130.374Zm0-125.869A61.73,61.73,0,0,0,4.494,66.337c0,34.027,27.585,61.753,61.439,61.753A61.763,61.763,0,0,0,127.45,66.337C127.45,32.231,99.865,4.505,66.011,4.505Z" transform="translate(0 0)"/><g transform="translate(7.036 7.002)"><g transform="translate(59.329 105.648)"><rect class="c" width="5.356" height="12.603" transform="translate(0 0.359) rotate(-3.842)"/></g><g transform="translate(51.161 105.566)"><rect class="c" width="12.603" height="5.356" transform="matrix(0.086, -0.996, 0.996, 0.086, 0, 12.556)"/></g><g transform="translate(42.417 103.89)"><rect class="c" width="12.603" height="5.356" transform="matrix(0.237, -0.971, 0.971, 0.237, 0, 12.243)"/></g><g transform="translate(33.918 101.315)"><rect class="c" width="12.603" height="5.356" transform="translate(0 11.644) rotate(-67.5)"/></g><g transform="translate(26.035 97.785)"><rect class="c" width="12.603" height="5.356" transform="translate(0 10.77) rotate(-58.72)"/></g><g transform="translate(18.98 93.28)"><rect class="c" width="12.603" height="5.356" transform="matrix(0.644, -0.765, 0.765, 0.644, 0, 9.646)"/></g><g transform="translate(12.892 87.998)"><rect class="c" width="12.603" height="5.356" transform="matrix(0.753, -0.658, 0.658, 0.753, 0, 8.295)"/></g><g transform="translate(7.821 81.958)"><rect class="c" width="12.603" height="5.356" transform="translate(0 6.749) rotate(-32.379)"/></g><g transform="translate(3.922 75.465)"><rect class="c" width="12.603" height="5.356" transform="matrix(0.916, -0.4, 0.4, 0.916, 0, 5.045)"/></g><g transform="translate(1.318 68.61)"><rect class="c" width="12.603" height="5.356" transform="translate(0 3.222) rotate(-14.814)"/></g><g transform="translate(0.142 61.522)"><rect class="c" width="12.603" height="5.356" transform="matrix(0.994, -0.105, 0.105, 0.994, 0, 1.326)"/></g><g transform="translate(0 53.777)"><rect class="c" width="5.356" height="12.603" transform="translate(0 5.35) rotate(-87.257)"/></g><g transform="translate(0.737 44.813)"><rect class="c" width="5.356" height="12.603" transform="translate(0 5.248) rotate(-78.474)"/></g><g transform="translate(2.805 36.229)"><rect class="c" width="5.356" height="12.603" transform="translate(0 5.023) rotate(-69.697)"/></g><g transform="translate(6.287 28.148)"><rect class="c" width="5.356" height="12.603" transform="translate(0 4.681) rotate(-60.915)"/></g><g transform="translate(10.848 20.834)"><rect class="c" width="5.356" height="12.603" transform="translate(0 4.229) rotate(-52.137)"/></g><g transform="translate(16.737 14.382)"><rect class="c" width="5.356" height="12.603" transform="matrix(0.727, -0.687, 0.687, 0.727, 0, 3.677)"/></g><g transform="translate(23.379 8.975)"><rect class="c" width="5.356" height="12.603" transform="matrix(0.823, -0.567, 0.567, 0.823, 0, 3.04)"/></g><g transform="translate(30.968 4.752)"><rect class="c" width="5.356" height="12.603" transform="matrix(0.9, -0.435, 0.435, 0.9, 0, 2.33)"/></g><g transform="translate(39.145 1.879)"><rect class="c" width="5.356" height="12.603" transform="translate(0 1.567) rotate(-17.014)"/></g><g transform="translate(47.907 0.256)"><rect class="c" width="5.356" height="12.603" transform="matrix(0.99, -0.143, 0.143, 0.99, 0, 0.767)"/></g><g transform="translate(56.71 0)"><rect class="b" width="12.603" height="5.356" transform="translate(0 12.603) rotate(-89.452)"/></g><g transform="translate(63.846 0.395)"><rect class="c" width="12.603" height="5.356" transform="matrix(0.162, -0.987, 0.987, 0.162, 0, 12.436)"/></g><g transform="translate(70.823 2.188)"><rect class="c" width="12.603" height="5.356" transform="matrix(0.311, -0.951, 0.951, 0.311, 0, 11.979)"/></g><g transform="translate(77.518 5.262)"><rect class="c" width="12.603" height="5.356" transform="translate(0 11.24) rotate(-63.11)"/></g><g transform="translate(83.852 9.651)"><rect class="c" width="12.603" height="5.356" transform="translate(0 10.238) rotate(-54.331)"/></g><g transform="translate(89.347 15.149)"><rect class="c" width="12.603" height="5.356" transform="translate(0 8.997) rotate(-45.551)"/></g><g transform="translate(94.359 21.685)"><rect class="c" width="12.603" height="5.356" transform="translate(0 7.544) rotate(-36.768)"/></g><g transform="translate(98.524 29.126)"><rect class="c" width="12.603" height="5.356" transform="matrix(0.883, -0.469, 0.469, 0.883, 0, 5.914)"/></g><g transform="translate(101.746 37.256)"><rect class="c" width="12.603" height="5.356" transform="translate(0 4.146) rotate(-19.209)"/></g><g transform="translate(103.961 45.951)"><rect class="c" width="12.603" height="5.356" transform="translate(0 2.281) rotate(-10.428)"/></g><g transform="translate(105.128 54.903)"><rect class="c" width="12.603" height="5.356" transform="matrix(1, -0.029, 0.029, 1, 0, 0.362)"/></g><g transform="translate(104.536 62.396)"><rect class="c" width="5.356" height="12.603" transform="translate(0 5.315) rotate(-82.866)"/></g><g transform="translate(102.721 69.527)"><rect class="c" width="5.356" height="12.603" transform="matrix(0.274, -0.962, 0.962, 0.274, 0, 5.151)"/></g><g transform="translate(99.837 76.317)"><rect class="c" width="5.356" height="12.603" transform="translate(0 4.866) rotate(-65.303)"/></g><g transform="translate(96.023 82.743)"><rect class="c" width="5.356" height="12.603" transform="translate(0 4.468) rotate(-56.523)"/></g><g transform="translate(91.297 88.628)"><rect class="c" width="5.356" height="12.603" transform="matrix(0.672, -0.74, 0.74, 0.672, 0, 3.965)"/></g><g transform="translate(85.956 93.893)"><rect class="c" width="5.356" height="12.603" transform="translate(0 3.368) rotate(-38.964)"/></g><g transform="translate(79.852 98.217)"><rect class="c" width="5.356" height="12.603" transform="translate(0 2.693) rotate(-30.185)"/></g><g transform="translate(73.292 101.727)"><rect class="c" width="5.356" height="12.603" transform="translate(0 1.954) rotate(-21.402)"/></g><g transform="translate(66.415 104.186)"><rect class="c" width="5.356" height="12.603" transform="matrix(0.976, -0.219, 0.219, 0.976, 0, 1.17)"/></g></g><g transform="translate(31.118 54.049)"><path class="b" d="M49.54,68.1V88.658H44.814V74.716L41.9,77.079l-2.6-3.151L46.389,68.1Z" transform="translate(-39.3 -68.021)"/><path class="b" d="M74.466,78.476c0,6.853-3.308,10.4-7.483,10.4-4.253,0-7.483-3.7-7.483-10.4C59.5,71.466,62.966,68,66.983,68,71.236,68.079,74.466,71.86,74.466,78.476Zm-7.483,6.616c1.654,0,2.6-1.812,2.6-6.538,0-4.253-.709-6.7-2.6-6.7-1.5,0-2.6,1.812-2.6,6.616C64.462,82.966,65.171,85.092,66.983,85.092Z" transform="translate(-43.589 -68)"/><path class="b" d="M95.866,78.476c0,6.853-3.308,10.4-7.483,10.4-4.253,0-7.483-3.7-7.483-10.4C80.9,71.466,84.366,68,88.383,68,92.636,68.079,95.866,71.86,95.866,78.476Zm-7.483,6.616c1.654,0,2.6-1.812,2.6-6.538,0-4.253-.709-6.7-2.6-6.7-1.5,0-2.6,1.812-2.6,6.616C85.784,82.966,86.492,85.092,88.383,85.092Z" transform="translate(-48.133 -68)"/><path class="b" d="M107.1,77.709a4.805,4.805,0,1,1,4.883-4.884A4.792,4.792,0,0,1,107.1,77.709ZM120.81,68.1,106.632,88.973h-2.757L118.053,68.1Zm-11.657,4.8A2.054,2.054,0,1,0,107.1,75.11,2.1,2.1,0,0,0,109.153,72.9ZM117.5,88.973a4.844,4.844,0,1,1,4.883-4.884A4.908,4.908,0,0,1,117.5,88.973Zm2.048-4.884a2.049,2.049,0,1,0-4.1,0,2.052,2.052,0,0,0,2.048,2.127A1.965,1.965,0,0,0,119.55,84.09Z" transform="translate(-52.677 -68.021)"/></g></g></g></svg>