<svg xmlns="http://www.w3.org/2000/svg" width="140" height="140" viewBox="0 0 140 140"><defs><style>.a{fill:none;}.b{fill:#1f2639;}.c{fill:#bb3c4f;}</style></defs><g transform="translate(-569 -1376)"><g transform="translate(569 1375.789)"><rect class="a" width="140" height="140" transform="translate(0 0.211)"/></g><g transform="translate(571.498 1380.32)"><g transform="translate(17.901 17.825)"><path class="b" d="M105.889,139.378a.91.91,0,0,1-.785-.314L20.622,49.792A1.112,1.112,0,0,1,22.271,48.3l84.4,89.193a1.113,1.113,0,0,1-.079,1.57A1.169,1.169,0,0,1,105.889,139.378Z" transform="translate(-20.337 -27.523)"/><path class="b" d="M145.278,126.054a.91.91,0,0,1-.785-.314L103.822,82.792a1.112,1.112,0,1,1,1.649-1.492l40.671,42.948a1.113,1.113,0,0,1-.079,1.57A1.515,1.515,0,0,1,145.278,126.054Z" transform="translate(-38.212 -34.613)"/><path class="b" d="M79.349,56.376a.91.91,0,0,1-.785-.314L48.022,23.792A1.112,1.112,0,0,1,49.671,22.3L80.213,54.57a1.113,1.113,0,0,1-.079,1.57A1.326,1.326,0,0,1,79.349,56.376Z" transform="translate(-26.224 -21.937)"/><path class="b" d="M29.507,53.12a.91.91,0,0,1-.785-.314,1.113,1.113,0,0,1,.079-1.57L50.314,30.822a1.112,1.112,0,1,1,1.492,1.649L30.292,52.885A1.326,1.326,0,0,1,29.507,53.12Z" transform="translate(-22.077 -23.784)"/><path class="b" d="M39.607,63.82a.91.91,0,0,1-.785-.314,1.113,1.113,0,0,1,.079-1.57L60.414,41.522a1.112,1.112,0,1,1,1.492,1.649L40.392,63.585A2.3,2.3,0,0,1,39.607,63.82Z" transform="translate(-24.247 -26.083)"/><path class="b" d="M49.707,74.42a.91.91,0,0,1-.785-.314A1.113,1.113,0,0,1,49,72.536L70.514,52.122a1.112,1.112,0,1,1,1.492,1.649L50.492,74.106A1.008,1.008,0,0,1,49.707,74.42Z" transform="translate(-26.417 -28.361)"/><path class="b" d="M59.807,85.12a.91.91,0,0,1-.785-.314,1.113,1.113,0,0,1,.079-1.57L80.614,62.822a1.112,1.112,0,0,1,1.492,1.649L60.592,84.885A1.326,1.326,0,0,1,59.807,85.12Z" transform="translate(-28.587 -30.66)"/><path class="b" d="M69.907,98.549a.91.91,0,0,1-.785-.314,1.113,1.113,0,0,1,.079-1.57L80.193,86.222a1.112,1.112,0,0,1,1.492,1.649L70.692,98.313A1.326,1.326,0,0,1,69.907,98.549Z" transform="translate(-30.757 -35.687)"/><path class="b" d="M104.807,88.069a.91.91,0,0,1-.785-.314,1.113,1.113,0,0,1,.079-1.57l2.12-1.963a1.112,1.112,0,0,1,1.492,1.649l-2.12,1.963A1.326,1.326,0,0,1,104.807,88.069Z" transform="translate(-38.255 -35.257)"/><path class="b" d="M80.007,111.2a.91.91,0,0,1-.785-.314,1.113,1.113,0,0,1,.079-1.57l3.455-3.3a1.112,1.112,0,1,1,1.492,1.649l-3.455,3.3A2.3,2.3,0,0,1,80.007,111.2Z" transform="translate(-32.927 -39.941)"/><path class="b" d="M90.107,117.12a.91.91,0,0,1-.785-.314,1.113,1.113,0,0,1,.079-1.57l21.513-20.414a1.112,1.112,0,0,1,1.492,1.649L90.892,116.885A1.326,1.326,0,0,1,90.107,117.12Z" transform="translate(-35.097 -37.535)"/><path class="b" d="M100.207,127.82a.91.91,0,0,1-.785-.314,1.113,1.113,0,0,1,.079-1.57l21.513-20.414a1.112,1.112,0,0,1,1.492,1.649l-21.513,20.414A1.326,1.326,0,0,1,100.207,127.82Z" transform="translate(-37.267 -39.834)"/><path class="b" d="M110.407,138.52a.91.91,0,0,1-.785-.314,1.113,1.113,0,0,1,.079-1.57l21.513-20.414a1.112,1.112,0,0,1,1.492,1.649l-21.513,20.414A1.515,1.515,0,0,1,110.407,138.52Z" transform="translate(-39.458 -42.133)"/><path class="b" d="M120.507,149.22a.91.91,0,0,1-.785-.314,1.113,1.113,0,0,1,.079-1.57l21.513-20.414a1.112,1.112,0,1,1,1.492,1.649l-21.513,20.414A2.992,2.992,0,0,1,120.507,149.22Z" transform="translate(-41.628 -44.432)"/></g><path class="c" d="M98.567,96.593H85.141A3.218,3.218,0,0,1,82,93.374a3.362,3.362,0,0,1,.471-1.727c3.3-5.418,4.632-9.343,4-11.934a.6.6,0,0,0-.157-.314c-2.2-3.062-2.67-6.517-1.256-9.108a7.268,7.268,0,0,1,6.752-3.69h.157a7.268,7.268,0,0,1,6.752,3.69c1.413,2.67.942,6.046-1.256,9.108a1.123,1.123,0,1,1-1.806-1.335c1.649-2.355,2.12-4.946,1.1-6.831a5.821,5.821,0,0,0-9.579,0c-1.021,1.884-.55,4.475,1.1,6.831a3.6,3.6,0,0,1,.55,1.1c.785,3.219-.628,7.537-4.318,13.583a1.456,1.456,0,0,0-.157.55.974.974,0,0,0,.942,1.021H98.724a.974.974,0,0,0,.942-1.021,1.135,1.135,0,0,0-.157-.55,33.911,33.911,0,0,1-4.24-9.265,1.124,1.124,0,1,1,2.2-.471c.471,2.277,1.806,5.1,3.926,8.637a3.362,3.362,0,0,1,.471,1.727A3.41,3.41,0,0,1,98.567,96.593Z" transform="translate(-15.684 -13.708)"/><path class="b" d="M10.1,25.1A1.073,1.073,0,0,1,9,24V3.9a1.1,1.1,0,1,1,2.2,0V24A1.073,1.073,0,0,1,10.1,25.1Z" transform="translate(0)"/><path class="c" d="M9,17.318V8.053l.471-.314c3.376-2.512,6.752-2.984,10.207-1.492,4.083,1.57,9.343,1.256,16.645-.864a1.4,1.4,0,0,1,1.413.393,1.319,1.319,0,0,1,.157,1.413c-3.926,7.223-10.05,10.364-18.058,9.186h-.079c-3.847-.942-6.752-.864-9.029.157Zm11.071-3.141c6.281.864,11.071-1.1,14.525-6.124C28,9.78,22.976,9.78,18.814,8.21a7.493,7.493,0,0,0-7.616.864v4.789A18.2,18.2,0,0,1,20.071,14.177Z" transform="translate(0 -0.542)"/></g></g></svg>