<svg xmlns="http://www.w3.org/2000/svg" width="140" height="140" viewBox="0 0 140 140"><defs><style>.a,.b{fill:none;}.b{stroke:#231f20;stroke-linecap:round;stroke-miterlimit:10;stroke-width:1.5px;}.c{fill:#1f2639;}.d{fill:#bb3c4f;}</style></defs><g transform="translate(-122 -1728)"><g transform="translate(122 1728)"><rect class="a" width="140" height="140" transform="translate(0)"/></g><g transform="translate(118.2 1725.3)"><path class="b" d="M122.8,37.8" transform="translate(-19.017 -4.71)"/><path class="c" d="M81.808,138.018H64.683c-11.215,0-20.308-10.39-20.383-23.2v-.346a25.035,25.035,0,0,1,5.986-16.537l19.55-22.338a1.046,1.046,0,0,1,1.515,0,1.46,1.46,0,0,1,0,1.732L51.8,99.663a22.829,22.829,0,0,0-5.38,14.805v.346c0,11.429,8.259,20.779,18.262,20.779H81.808c10.078,0,18.262-9.351,18.262-20.866a22.366,22.366,0,0,0-5.3-14.719L50.286,49.1A25.434,25.434,0,0,1,44.3,32.563V32.3C44.376,19.49,53.469,9.1,64.683,9.1H81.808c11.215,0,20.383,10.476,20.383,23.29a24.808,24.808,0,0,1-5.986,16.45L76.277,71.611a1.046,1.046,0,0,1-1.515,0,1.46,1.46,0,0,1,0-1.732l20-22.771a22.2,22.2,0,0,0,5.38-14.719c0-11.515-8.184-20.866-18.262-20.866h-17.2c-10,0-18.262,9.351-18.262,20.779v.26a22.6,22.6,0,0,0,5.3,14.805l44.48,50.909a24.808,24.808,0,0,1,5.986,16.45C102.192,127.628,93.023,138.018,81.808,138.018Z" transform="translate(0 -0.859)"/><path class="d" d="M77.547,73.491a4.417,4.417,0,0,1-3.334-1.558L64.362,60.677a5.859,5.859,0,0,1-.985-5.887A4.627,4.627,0,0,1,67.7,51.5H87.852a4.732,4.732,0,0,1,4.395,3.377,5.735,5.735,0,0,1-1.137,5.887L80.805,72.019A4.606,4.606,0,0,1,77.547,73.491ZM75.728,70.2a2.381,2.381,0,0,0,3.637.087L89.671,59.119a3.378,3.378,0,0,0,.606-3.29,2.693,2.693,0,0,0-2.425-1.9H67.7a2.7,2.7,0,0,0-2.425,1.818,3.21,3.21,0,0,0,.53,3.2Z" transform="translate(-4.528 -6.549)"/><path class="d" d="M84.714,149.018H64.1c-8.259,0-15-8.052-15-17.922,0-2.164,1.44-3.9,3.258-3.9H96.383c1.819,0,3.258,1.732,3.258,3.9C99.717,140.966,92.974,149.018,84.714,149.018ZM52.358,129.624a1.374,1.374,0,0,0-1.212,1.472c0,8.571,5.835,15.5,12.957,15.5H84.638c7.123,0,12.957-6.926,12.957-15.5a1.374,1.374,0,0,0-1.212-1.472Z" transform="translate(-1.163 -16.708)"/><path class="d" d="M81.289,103.649A3.9,3.9,0,0,1,77.5,99.407v-.26l1.364-4.156A2.662,2.662,0,0,1,81.365,93a2.6,2.6,0,0,1,2.425,2.078L85,99.147v.173C85.077,102.177,83.183,103.649,81.289,103.649ZM79.622,99.58a1.667,1.667,0,0,0,3.334,0l-1.061-3.723a.5.5,0,0,0-.985,0Z" transform="translate(-8.043 -12.118)"/><path class="d" d="M101.131,5.124H45.361A1.117,1.117,0,0,1,44.3,3.912,1.117,1.117,0,0,1,45.361,2.7h55.77a1.117,1.117,0,0,1,1.061,1.212A1.117,1.117,0,0,1,101.131,5.124Z" transform="translate(0 0)"/><path class="d" d="M101.131,164.024H45.361a1.223,1.223,0,0,1,0-2.424h55.77a1.223,1.223,0,0,1,0,2.424Z" transform="translate(0 -21.324)"/></g></g></svg>