<svg width="31" height="31" viewBox="0 0 31 31" fill="none" xmlns="http://www.w3.org/2000/svg">
<path d="M15.875 7.61328C20.0586 7.61328 23.5117 11.0664 23.5117 15.25C23.5117 19.5 20.0586 22.8867 15.875 22.8867C11.625 22.8867 8.23828 19.5 8.23828 15.25C8.23828 11.0664 11.625 7.61328 15.875 7.61328ZM15.875 20.2305C18.5977 20.2305 20.7891 18.0391 20.7891 15.25C20.7891 12.5273 18.5977 10.3359 15.875 10.3359C13.0859 10.3359 10.8945 12.5273 10.8945 15.25C10.8945 18.0391 13.1523 20.2305 15.875 20.2305ZM25.5703 7.34766C25.5703 8.34375 24.7734 9.14062 23.7773 9.14062C22.7812 9.14062 21.9844 8.34375 21.9844 7.34766C21.9844 6.35156 22.7812 5.55469 23.7773 5.55469C24.7734 5.55469 25.5703 6.35156 25.5703 7.34766ZM30.6172 9.14062C30.75 11.5977 30.75 18.9688 30.6172 21.4258C30.4844 23.8164 29.9531 25.875 28.2266 27.668C26.5 29.3945 24.375 29.9258 21.9844 30.0586C19.5273 30.1914 12.1562 30.1914 9.69922 30.0586C7.30859 29.9258 5.25 29.3945 3.45703 27.668C1.73047 25.875 1.19922 23.8164 1.06641 21.4258C0.933594 18.9688 0.933594 11.5977 1.06641 9.14062C1.19922 6.75 1.73047 4.625 3.45703 2.89844C5.25 1.17188 7.30859 0.640625 9.69922 0.507812C12.1562 0.375 19.5273 0.375 21.9844 0.507812C24.375 0.640625 26.5 1.17188 28.2266 2.89844C29.9531 4.625 30.4844 6.75 30.6172 9.14062ZM27.4297 24.0156C28.2266 22.0898 28.0273 17.4414 28.0273 15.25C28.0273 13.125 28.2266 8.47656 27.4297 6.48438C26.8984 5.22266 25.9023 4.16016 24.6406 3.69531C22.6484 2.89844 18 3.09766 15.875 3.09766C13.6836 3.09766 9.03516 2.89844 7.10938 3.69531C5.78125 4.22656 4.78516 5.22266 4.25391 6.48438C3.45703 8.47656 3.65625 13.125 3.65625 15.25C3.65625 17.4414 3.45703 22.0898 4.25391 24.0156C4.78516 25.3438 5.78125 26.3398 7.10938 26.8711C9.03516 27.668 13.6836 27.4688 15.875 27.4688C18 27.4688 22.6484 27.668 24.6406 26.8711C25.9023 26.3398 26.9648 25.3438 27.4297 24.0156Z" fill="#333333"/>
</svg>
