<svg width="30" height="31" viewBox="0 0 30 31" fill="none" xmlns="http://www.w3.org/2000/svg">
<path d="M27.625 0.375C28.7539 0.375 29.75 1.37109 29.75 2.56641V28C29.75 29.1953 28.7539 30.125 27.625 30.125H2.05859C0.929688 30.125 0 29.1953 0 28V2.56641C0 1.37109 0.929688 0.375 2.05859 0.375H27.625ZM8.96484 25.875V11.7305H4.58203V25.875H8.96484ZM6.77344 9.73828C8.16797 9.73828 9.29688 8.60938 9.29688 7.21484C9.29688 5.82031 8.16797 4.625 6.77344 4.625C5.3125 4.625 4.18359 5.82031 4.18359 7.21484C4.18359 8.60938 5.3125 9.73828 6.77344 9.73828ZM25.5 25.875V18.1055C25.5 14.3203 24.6367 11.332 20.1875 11.332C18.0625 11.332 16.6016 12.5273 16.0039 13.6562H15.9375V11.7305H11.7539V25.875H16.1367V18.9023C16.1367 17.043 16.4688 15.25 18.793 15.25C21.0508 15.25 21.0508 17.375 21.0508 18.9688V25.875H25.5Z" fill="#333333"/>
</svg>
