<svg xmlns="http://www.w3.org/2000/svg" width="180.503" height="43.166" viewBox="0 0 180.503 43.166"><defs><style>.a{fill:#fff;}</style></defs><path class="a" d="M15016.614-2354.614v-19.777h4.106v1.9a4.711,4.711,0,0,1,4.126-2.089c3.29,0,5.9,2.641,5.9,6.865s-2.614,6.913-5.9,6.913a4.81,4.81,0,0,1-4.126-2.066v8.259Zm4.08-13.083a3,3,0,0,0,2.928,3.313,3.031,3.031,0,0,0,2.954-3.336,2.987,2.987,0,0,0-2.954-3.287A3,3,0,0,0,15020.694-2367.7Zm-128.542,7.7,3.6-9.248h-9.8l-3.6,9.248h-5.448l3.6-9.248h-7.7l.9-5h8.749l3.4-8.648h-7.7l.9-5h8.749l3.552-9.1h5.447l-3.548,9.1h9.8l3.548-9.1h5.451l-3.551,9.1h6.652l-.9,5h-7.7l-3.4,8.648h6.649l-.9,5h-7.7l-3.6,9.248Zm-4.25-14.25h9.8l3.4-8.648h-9.8Zm151.753,6.554c0-4.246,2.784-6.887,6.771-6.887a6.311,6.311,0,0,1,6.672,6.672,10.865,10.865,0,0,1-.072,1.2h-9.29a2.484,2.484,0,0,0,2.547,2.569,2.185,2.185,0,0,0,2.135-1.3h4.367a6.259,6.259,0,0,1-6.358,4.635C15042.489-2360.806,15039.655-2363.447,15039.655-2367.7Zm4.1-1.3h5.138a2.317,2.317,0,0,0-2.52-2.3A2.54,2.54,0,0,0,15043.759-2368.993Zm-43.487,1.3a6.62,6.62,0,0,1,6.962-6.887,6.607,6.607,0,0,1,6.959,6.887,6.645,6.645,0,0,1-7.008,6.891A6.57,6.57,0,0,1,15000.271-2367.7Zm4.178,0c0,2.256,1.247,3.336,2.735,3.336,1.462,0,2.83-1.08,2.83-3.336,0-2.278-1.342-3.336-2.781-3.336C15005.745-2371.033,15004.449-2369.975,15004.449-2367.7Zm-19.2,0c0-4.246,2.785-6.887,6.771-6.887a6.311,6.311,0,0,1,6.672,6.672,9.99,9.99,0,0,1-.072,1.2h-9.289a2.483,2.483,0,0,0,2.546,2.569,2.181,2.181,0,0,0,2.135-1.3h4.367a6.256,6.256,0,0,1-6.358,4.635C14988.08-2360.806,14985.246-2363.447,14985.246-2367.7Zm4.107-1.3h5.134a2.317,2.317,0,0,0-2.52-2.3A2.534,2.534,0,0,0,14989.354-2368.993Zm-50.159,1.3a6.618,6.618,0,0,1,6.959-6.887,6.606,6.606,0,0,1,6.959,6.887,6.646,6.646,0,0,1-7.009,6.891A6.567,6.567,0,0,1,14939.194-2367.7Zm4.175,0c0,2.256,1.246,3.336,2.734,3.336,1.466,0,2.834-1.08,2.834-3.336,0-2.278-1.345-3.336-2.784-3.336C14944.665-2371.033,14943.369-2369.975,14943.369-2367.7Zm89.785,6.7v-17.76h4.1V-2361Zm-62.306,0v-16.849h6.646c4.13,0,6.2,2.327,6.2,5.425,0,2.784-1.9,5.376-6.2,5.376h-2.542V-2361Zm4.1-9.312h2.232c1.632,0,2.327-.816,2.327-2.112s-.7-2.112-2.327-2.112h-2.232Zm-14.039,9.313c-2.784,0-4.729-1.179-4.729-4.658v-5.327h-1.632v-3.408h1.632v-3.264h4.106v3.264h2.686v3.408h-2.686v5.376c0,.793.332,1.129,1.246,1.129H14963V-2361Zm-28.225,0-6.864-10.393V-2361h-4.1v-16.849h4.1l6.864,10.442v-10.442h4.1V-2361Zm103.9-24.923h1.583a2.153,2.153,0,0,0,2.2,1.345,2.054,2.054,0,0,0,2.153-2.3v-1.288a3.309,3.309,0,0,1-2.675,1.288,3.734,3.734,0,0,1-3.639-4.02,3.671,3.671,0,0,1,3.639-3.948,3.269,3.269,0,0,1,2.675,1.247v-1.118h1.609v7.839a3.5,3.5,0,0,1-3.763,3.684C15038.311-2383.19,15036.784-2384.214,15036.588-2385.922Zm1.258-4.972a2.432,2.432,0,0,0,2.339,2.633,2.4,2.4,0,0,0,2.339-2.6,2.392,2.392,0,0,0-2.339-2.592A2.367,2.367,0,0,0,15037.846-2390.893Zm-74.646,4.972h1.583a2.151,2.151,0,0,0,2.2,1.345,2.054,2.054,0,0,0,2.153-2.3v-1.288a3.306,3.306,0,0,1-2.671,1.288,3.734,3.734,0,0,1-3.642-4.02,3.671,3.671,0,0,1,3.642-3.948,3.26,3.26,0,0,1,2.671,1.247v-1.118h1.613v7.839a3.5,3.5,0,0,1-3.767,3.684C14964.922-2383.19,14963.4-2384.214,14963.2-2385.922Zm1.262-4.972a2.432,2.432,0,0,0,2.338,2.633,2.394,2.394,0,0,0,2.335-2.6,2.391,2.391,0,0,0-2.335-2.592A2.366,2.366,0,0,0,14964.461-2390.893Zm81.243.03a3.693,3.693,0,0,1,3.846-3.978,3.6,3.6,0,0,1,3.755,3.8,4.9,4.9,0,0,1-.057.782h-5.894a2.12,2.12,0,0,0,2.2,2.044,1.865,1.865,0,0,0,1.821-1.077h1.723a3.524,3.524,0,0,1-3.544,2.422A3.74,3.74,0,0,1,15045.7-2390.863Zm1.662-.688h4.272a2,2,0,0,0-2.157-1.946A2.105,2.105,0,0,0,15047.366-2391.551Zm-20.649.657a3.676,3.676,0,0,1,3.656-3.948,3.558,3.558,0,0,1,2.66,1.205v-3.725h1.609V-2387h-1.609v-1.164a3.208,3.208,0,0,1-2.675,1.288A3.736,3.736,0,0,1,15026.717-2390.893Zm1.64,0a2.432,2.432,0,0,0,2.338,2.633,2.4,2.4,0,0,0,2.339-2.6,2.392,2.392,0,0,0-2.339-2.592A2.366,2.366,0,0,0,15028.356-2390.893Zm-10.276.03a3.7,3.7,0,0,1,3.85-3.978,3.6,3.6,0,0,1,3.752,3.8,5.016,5.016,0,0,1-.057.782h-5.894a2.124,2.124,0,0,0,2.2,2.044,1.873,1.873,0,0,0,1.821-1.077h1.723a3.528,3.528,0,0,1-3.544,2.422A3.741,3.741,0,0,1,15018.08-2390.863Zm1.666-.688h4.27a2,2,0,0,0-2.154-1.946A2.1,2.1,0,0,0,15019.746-2391.551Zm-25.829.688a3.8,3.8,0,0,1,3.933-3.978,3.805,3.805,0,0,1,3.933,3.978,3.862,3.862,0,0,1-4,3.989A3.761,3.761,0,0,1,14993.917-2390.863Zm1.624,0c0,1.749,1.035,2.6,2.24,2.6a2.377,2.377,0,0,0,2.365-2.6,2.336,2.336,0,0,0-2.323-2.592A2.3,2.3,0,0,0,14995.541-2390.863Zm-62.482,0a3.805,3.805,0,0,1,3.933-3.978,3.805,3.805,0,0,1,3.934,3.978,3.862,3.862,0,0,1-4,3.989A3.761,3.761,0,0,1,14933.059-2390.863Zm1.625,0c0,1.749,1.035,2.6,2.24,2.6a2.375,2.375,0,0,0,2.365-2.6,2.336,2.336,0,0,0-2.324-2.592A2.3,2.3,0,0,0,14934.684-2390.863Zm80.23,3.865v-10.363h1.6V-2387Zm-5.263,0-1.553-5.7-1.556,5.7h-1.678l-2.41-7.715h1.624l1.609,6.2,1.64-6.2h1.666l1.568,6.173,1.594-6.173h1.568l-2.392,7.715Zm-18.829,0v-4.314c0-1.413-.771-2.142-1.934-2.142a1.871,1.871,0,0,0-1.946,2.142V-2387h-1.594v-7.715h1.594v.88a2.972,2.972,0,0,1,2.3-1.009,3,3,0,0,1,3.165,3.291V-2387Zm-8.976,0-3.763-4.356V-2387h-1.6v-9.732h1.6v4.439l3.777-4.439h2l-4.228,4.874,4.295,4.858Zm-22.1,0v-4.314c0-1.413-.771-2.142-1.935-2.142s-1.941.729-1.941,2.142V-2387h-1.6v-7.715h1.6v.88a2.961,2.961,0,0,1,2.293-1.009,3.006,3.006,0,0,1,3.166,3.291V-2387Zm-9.169,0v-7.715h1.594V-2387Zm-6.049,0-2.928-7.715h1.708l2.188,6.286,2.184-6.286h1.692l-2.939,7.715Zm-14.643,0v-6.664l-2.97,6.664h-1.106l-2.981-6.664V-2387h-1.6v-9.732h1.723l3.415,7.631,3.4-7.631h1.707V-2387Zm20.479-9.758a1.013,1.013,0,0,1,1.024-1.024,1.007,1.007,0,0,1,1,1.024,1,1,0,0,1-1,1.02A1.01,1.01,0,0,1,14950.361-2396.757Z" transform="translate(-14872.802 2397.781)"/></svg>