<svg width="32" height="26" viewBox="0 0 32 26" fill="none" xmlns="http://www.w3.org/2000/svg">
<path d="M31.3312 3.55225C30.9632 2.15475 29.8784 1.053 28.5024 0.67925C26.0064 3.39001e-07 16 0 16 0C16 0 5.9936 3.39001e-07 3.4976 0.67925C2.1216 1.053 1.0368 2.15475 0.6688 3.55225C-4.76837e-08 6.08725 0 13 0 13C0 13 -4.76837e-08 19.9127 0.6688 22.4477C1.0368 23.8452 2.1216 24.947 3.4976 25.3208C5.9936 26 16 26 16 26C16 26 26.0064 26 28.5024 25.3208C29.88 24.947 30.9632 23.8452 31.3312 22.4477C32 19.9127 32 13 32 13C32 13 32 6.08725 31.3312 3.55225ZM12.8 18.629V7.371L22.4 13L12.8 18.629Z" fill="black"/>
</svg>
