<svg xmlns="http://www.w3.org/2000/svg" width="83" height="83" viewBox="0 0 83 83"><defs><style>.a{fill:none;}.b{fill:#1f2639;}.c{fill:#bb3c4f;}</style></defs><g transform="translate(-470 -3604)"><g transform="translate(470 3604)"><rect class="a" width="83" height="83"/></g><g transform="translate(470.131 3605.5)"><g transform="translate(14.089 15.595)"><g transform="translate(0)"><path class="b" d="M67.654,47.609A11.654,11.654,0,1,1,79.309,35.954,11.67,11.67,0,0,1,67.654,47.609Zm0-22.279A10.625,10.625,0,1,0,78.279,35.954,10.651,10.651,0,0,0,67.654,25.33Z" transform="translate(-40.086 -24.3)"/><path class="b" d="M46,121.913a137.037,137.037,0,0,1-26.315-2.636,2.876,2.876,0,0,1-2.306-3.089C18.57,104.205,29.318,98.316,39,96.792a.5.5,0,0,1,.165.988c-9.307,1.441-19.644,7.083-20.756,18.491a1.851,1.851,0,0,0,1.483,1.977c17.873,3.5,34.716,3.5,50.118.041a1.874,1.874,0,0,0,1.441-1.977.518.518,0,1,1,1.03-.124,2.913,2.913,0,0,1-2.224,3.089A108.66,108.66,0,0,1,46,121.913Z" transform="translate(-17.358 -66.936)"/></g></g><path class="c" d="M106,107.838H83.348A4.429,4.429,0,0,1,78.9,103.39V91.448A4.429,4.429,0,0,1,83.348,87h22.609a4.429,4.429,0,0,1,4.448,4.448V103.39A4.394,4.394,0,0,1,106,107.838ZM83.348,88.03a3.41,3.41,0,0,0-3.418,3.418V103.39a3.41,3.41,0,0,0,3.418,3.418h22.609a3.41,3.41,0,0,0,3.418-3.418V91.448a3.41,3.41,0,0,0-3.418-3.418Z" transform="translate(-39.467 -45.584)"/><path class="b" d="M113.5,107.606a.507.507,0,0,1-.412-.206c-.247-.329-1.359-1.894-2.471-3.748-1.359,1.812-2.636,3.295-2.924,3.624a.525.525,0,1,1-.782-.7,49.225,49.225,0,0,0,3.13-3.912c-1.153-2.018-2.141-4.242-2.1-5.6A3.076,3.076,0,0,1,111.19,94.1a2.805,2.805,0,0,1,2.8,3.006c-.041,1.441-1.318,3.624-2.718,5.6.988,1.647,2.018,3.212,2.636,4.077a.48.48,0,0,1-.124.7C113.7,107.606,113.619,107.606,113.5,107.606Zm-2.389-12.437a2.018,2.018,0,0,0-2.1,1.977c-.041,1.03.741,2.8,1.73,4.612,1.235-1.771,2.224-3.583,2.265-4.654a1.784,1.784,0,0,0-1.812-1.936Z" transform="translate(-55.86 -49.758)"/><path class="c" d="M21.478,25.149H17.771a1,1,0,0,1-.988-.988V20.125l-3.995.041a1,1,0,0,1-.988-.988V15.471a1,1,0,0,1,.988-.988h4.036l-.041-3.995a1,1,0,0,1,.988-.988h3.706a1,1,0,0,1,.988.988v4.036l3.995-.041a1,1,0,0,1,.988.988v3.706a1,1,0,0,1-.988.988H22.425l.041,3.995A1,1,0,0,1,21.478,25.149ZM16.783,19.1a1,1,0,0,1,.988.988V24.12l3.706-.041-.041-3.995a1,1,0,0,1,.988-.988h4.036L26.42,15.43H22.425a1,1,0,0,1-.988-.988V10.406l-3.706.041.041,3.995a1,1,0,0,1-.988.988H12.747l.041,3.706Zm9.678-3.665Z" transform="translate(0 0)"/></g></g></svg>