<svg xmlns="http://www.w3.org/2000/svg" width="83" height="83" viewBox="0 0 83 83"><defs><style>.a{fill:#fff;}.b{fill:#bb3c4f;}.c{fill:#1f2639;}</style></defs><g transform="translate(-74 -3466)"><rect class="a" width="83" height="83" transform="translate(74 3466)"/><g transform="translate(80.028 3465.633)"><path class="b" d="M43.928,25.77a.613.613,0,0,1-.57-.407c-1.914-5.173.285-9.205,3.34-10.957,3.014-1.711,8.065-1.833,12.586,3.34,4.48-5.173,9.49-5.173,12.5-3.544s5.336,5.54,3.666,10.631a.618.618,0,1,1-1.181-.367c1.466-4.4-.489-7.78-3.055-9.165-2.688-1.466-7.332-1.344-11.446,3.788l-.489.611L58.8,19.09c-4.155-5.132-8.8-5.173-11.486-3.625-2.607,1.466-4.48,4.969-2.81,9.45a.575.575,0,0,1-.367.774A.263.263,0,0,1,43.928,25.77Z" transform="translate(-23.851)"/><path class="b" d="M63.675,64.515a2.109,2.109,0,0,1-1.426-.57L50.233,51.929a.6.6,0,0,1,.855-.855L63.1,63.09a.763.763,0,0,0,1.059,0l12.1-12.057a.6.6,0,0,1,.855.855L65.06,63.945A2.012,2.012,0,0,1,63.675,64.515Z" transform="translate(-28.241 -22.29)"/><g transform="translate(2.4 43.569)"><path class="c" d="M10.872,114.624H4.844A2.451,2.451,0,0,1,2.4,112.18V97.109a.626.626,0,0,1,.611-.611.626.626,0,0,1,.611.611V112.18A1.182,1.182,0,0,0,4.8,113.361h6.028a1.182,1.182,0,0,0,1.181-1.181V90.144a1.182,1.182,0,0,0-1.181-1.181H4.844a1.182,1.182,0,0,0-1.181,1.181V93.2a.626.626,0,0,1-.611.611.626.626,0,0,1-.611-.611V90.144A2.451,2.451,0,0,1,4.885,87.7h6.028a2.451,2.451,0,0,1,2.444,2.444V112.18A2.486,2.486,0,0,1,10.872,114.624Z" transform="translate(-2.4 -87.7)"/><path class="c" d="M56.87,108.385h-.122l-2.566-.57a.623.623,0,0,1,.244-1.222l2.566.57a.67.67,0,0,1,.489.733A.605.605,0,0,1,56.87,108.385Z" transform="translate(-32.797 -98.894)"/><path class="c" d="M55.668,116.771h-.244L28.3,113.716a2.249,2.249,0,0,1-2-2.24V96.934a2.341,2.341,0,0,1,1.833-2.24l16.211-3.259a1.991,1.991,0,0,1,.978.041L58.4,94.653a2.229,2.229,0,0,1,1.711,2.2v2.362a.611.611,0,1,1-1.222,0V96.853a1.051,1.051,0,0,0-.774-1.018L45.037,92.657a.837.837,0,0,0-.448,0L28.377,95.916a1.01,1.01,0,0,0-.815,1.018v14.5a1.021,1.021,0,0,0,.937,1.018l27.127,3.055a1.036,1.036,0,0,0,.692-.163l24.724-16.9a1.03,1.03,0,0,0,.367-1.263l-.448-1.018a1.063,1.063,0,0,0-1.3-.57l-20.814,7.372a2.5,2.5,0,0,1-1.222.081l-13.849-2.973a.623.623,0,1,1,.244-1.222l13.849,2.973a.917.917,0,0,0,.57-.041l20.814-7.372a2.215,2.215,0,0,1,2.81,1.222l.448,1.018a2.281,2.281,0,0,1-.774,2.81l-24.724,16.9A2.456,2.456,0,0,1,55.668,116.771Z" transform="translate(-16.565 -89.888)"/></g><path class="c" d="M51.847,39.578a1.012,1.012,0,0,1-.9-.53l-5.214-9.694-2.77,4.929a1.012,1.012,0,0,1-.9.53H30.911a.611.611,0,1,1,0-1.222h11l2.933-5.132a1.062,1.062,0,0,1,.9-.53,1.012,1.012,0,0,1,.9.53l5.214,9.613,5.54-12.26a1.029,1.029,0,0,1,.937-.611h0a1.029,1.029,0,0,1,.937.611l3.34,7.78H73.068a.611.611,0,1,1,0,1.222H62.478a1.029,1.029,0,0,1-.937-.611l-3.218-7.454-5.54,12.22a1.006,1.006,0,0,1-.937.611Z" transform="translate(-16.536 -7.088)"/></g></g></svg>