<svg xmlns="http://www.w3.org/2000/svg" width="83" height="83" viewBox="0 0 83 83"><defs><style>.a{fill:#fff;}.b{fill:#1f2639;}.c{fill:#bb3c4f;}.d{fill:none;stroke:#bb3c4f;stroke-linecap:round;stroke-miterlimit:10;stroke-width:1.5px;}</style></defs><g transform="translate(-846 -3465)"><rect class="a" width="83" height="83" transform="translate(846 3465)"/><g transform="translate(851.22 3461.899)"><g transform="translate(2.424 18.1)"><path class="b" d="M15.86,48.832a.474.474,0,0,1-.334-.125L4.711,40.647a4.059,4.059,0,0,1-1.587-2.714l-.668-5.512A3.941,3.941,0,0,1,3.75,29,3.885,3.885,0,0,1,7.634,28.2L17.948,30.75a.582.582,0,1,1-.292,1.127L7.3,29.247a2.758,2.758,0,0,0-2.8.585,2.925,2.925,0,0,0-.919,2.422l.668,5.554a2.8,2.8,0,0,0,1.127,1.921l10.815,8.059a.592.592,0,0,1,.125.793A.577.577,0,0,1,15.86,48.832Z" transform="translate(-2.424 -23.86)"/><path class="b" d="M53.326,56.183c-6.431,0-12.82-3.925-20.127-12.4a4,4,0,0,1-.96-2.422L31.7,29.082a3.941,3.941,0,0,1,3.633-4.134,13.117,13.117,0,0,0,6.347-2,2.317,2.317,0,0,1,.334-.251,16.134,16.134,0,0,1,22.549,0,.876.876,0,0,0,.334.251,12.971,12.971,0,0,0,6.347,2,3.912,3.912,0,0,1,3.633,4.134l-.459,12.277a4,4,0,0,1-.96,2.422c-.626.752-1.295,1.462-1.921,2.13a.545.545,0,0,1-.793.042.583.583,0,0,1-.042-.793c.626-.668,1.253-1.378,1.879-2.088a2.588,2.588,0,0,0,.668-1.712l.543-12.277A2.761,2.761,0,0,0,71.2,26.159a14.337,14.337,0,0,1-6.932-2.213,1.821,1.821,0,0,1-.459-.376,14.772,14.772,0,0,0-10.523-4.259,14.289,14.289,0,0,0-10.44,4.176c-.167.167-.334.251-.459.376a14.192,14.192,0,0,1-6.932,2.213A2.812,2.812,0,0,0,32.865,29l.543,12.277a2.817,2.817,0,0,0,.668,1.712c7.057,8.185,13.2,11.985,19.251,11.985a15.871,15.871,0,0,0,6.681-1.545.57.57,0,1,1,.459,1.044A16.587,16.587,0,0,1,53.326,56.183Z" transform="translate(-19.47 -18.1)"/><path class="b" d="M75.473,51.372h-.125a80.143,80.143,0,0,0-36.705,0,.557.557,0,1,1-.251-1.086,81.155,81.155,0,0,1,37.207,0,.562.562,0,0,1,.418.668A.541.541,0,0,1,75.473,51.372Z" transform="translate(-23.118 -35.587)"/><path class="b" d="M57.378,66.921a69.535,69.535,0,0,1-18.332-2.965.568.568,0,1,1,.334-1.086,67.609,67.609,0,0,0,18.04,2.923c6.681,0,13.154-1.587,18.04-2.923a.568.568,0,0,1,.334,1.086A70.2,70.2,0,0,1,57.378,66.921Z" transform="translate(-23.522 -44.162)"/><path class="b" d="M58.919,81.193c-5.763,0-11.567-1.629-17.747-4.969a.56.56,0,1,1,.5-1c6.013,3.257,11.651,4.8,17.2,4.8a21.913,21.913,0,0,0,5.637-.543.557.557,0,1,1,.251,1.086A20.273,20.273,0,0,1,58.919,81.193Z" transform="translate(-24.813 -51.336)"/><path class="b" d="M128.921,48.726a.671.671,0,0,1-.459-.209.548.548,0,0,1,.125-.793L139.4,39.665a2.8,2.8,0,0,0,1.127-1.921l.668-5.554a2.884,2.884,0,0,0-.919-2.464,2.852,2.852,0,0,0-2.8-.585h-.042l-10.356,2.547a.582.582,0,0,1-.292-1.127l10.314-2.547a3.982,3.982,0,0,1,3.884.793,3.941,3.941,0,0,1,1.294,3.424l-.626,5.6a3.994,3.994,0,0,1-1.587,2.714L129.255,48.6A.474.474,0,0,1,128.921,48.726Z" transform="translate(-74.604 -23.755)"/></g><g transform="translate(40.824 42.451)"><path class="c" d="M108.791,97.5a6.628,6.628,0,0,1-4.886-2.171,6.3,6.3,0,0,1-1.629-4.719,6.634,6.634,0,0,1,2.171-4.51,6.537,6.537,0,0,1,8.686,9.771h0A6.536,6.536,0,0,1,108.791,97.5Zm.042-11.943a5.3,5.3,0,0,0-3.591,1.378,5.4,5.4,0,1,0,7.182,8.059,5.457,5.457,0,0,0,.459-7.642A5.365,5.365,0,0,0,108.833,85.557Zm3.925,9.855Z" transform="translate(-98.97 -81.094)"/><g transform="translate(0 0)"><g transform="translate(2.106 13.942)"><line class="d" y1="1.67" x2="1.879" transform="translate(1.284)"/><circle class="d" cx="0.585" cy="0.585" r="0.585" transform="matrix(0.747, -0.664, 0.664, 0.747, 0, 2.007)"/></g><g transform="translate(0 8.688)"><line class="d" x2="2.505" y2="0.167" transform="translate(1.219 0.66)"/><circle class="d" cx="0.585" cy="0.585" r="0.585" transform="matrix(0.059, -0.998, 0.998, 0.059, 0, 1.167)"/></g><g transform="translate(2.897 2.123)"><line class="d" x2="1.67" y2="1.921" transform="translate(1.202 1.254)"/><circle class="d" cx="0.585" cy="0.585" r="0.585" transform="matrix(0.747, -0.664, 0.664, 0.747, 0, 0.777)"/></g><g transform="translate(9.749)"><line class="d" x1="0.167" y2="2.547" transform="translate(0.447 1.205)"/><circle class="d" cx="0.585" cy="0.585" r="0.585" transform="matrix(0.059, -0.998, 0.998, 0.059, 0, 1.167)"/></g><g transform="translate(14.414 2.883)"><line class="d" x1="1.879" y2="1.67" transform="translate(0 1.246)"/><circle class="d" cx="0.585" cy="0.585" r="0.585" transform="matrix(0.747, -0.664, 0.664, 0.747, 1.504, 0.777)"/></g><g transform="translate(15.959 9.791)"><line class="d" x1="2.505" y1="0.125" transform="translate(0 0.434)"/><circle class="d" cx="0.585" cy="0.585" r="0.585" transform="matrix(0.059, -0.998, 0.998, 0.059, 2.476, 1.167)"/></g><g transform="translate(13.913 14.443)"><line class="d" x1="1.67" y1="1.879"/><circle class="d" cx="0.585" cy="0.585" r="0.585" transform="matrix(0.747, -0.664, 0.664, 0.747, 1.214, 2.265)"/></g><g transform="translate(8.689 15.946)"><line class="d" y1="2.547" x2="0.167" transform="translate(0.631)"/><circle class="d" cx="0.585" cy="0.585" r="0.585" transform="matrix(0.059, -0.998, 0.998, 0.059, 0, 3.659)"/></g></g><path class="c" d="M123.474,93.2h-.084a1.187,1.187,0,0,1-.793-.376,1.153,1.153,0,1,1,1.629.084h0A1.006,1.006,0,0,1,123.474,93.2Zm.376-.71Zm-.376-.418Z" transform="translate(-110.647 -84.856)"/><path class="c" d="M114.769,91.3h-.084a1.187,1.187,0,0,1-.793-.376,1.2,1.2,0,0,1-.292-.835,1.187,1.187,0,0,1,.376-.793,1.174,1.174,0,0,1,1.629.084,1.2,1.2,0,0,1,.292.835,1.187,1.187,0,0,1-.376.793h0A1.2,1.2,0,0,1,114.769,91.3Zm0-1.169Z" transform="translate(-105.575 -83.749)"/><path class="c" d="M108.469,97.1h-.084a1.187,1.187,0,0,1-.793-.376,1.2,1.2,0,0,1-.292-.835,1.187,1.187,0,0,1,.376-.793,1.153,1.153,0,0,1,1.545,1.712h0A1.006,1.006,0,0,1,108.469,97.1Zm.376-.71Zm-.376-.418Z" transform="translate(-101.906 -87.127)"/><path class="c" d="M109.774,105.4a1.2,1.2,0,0,1-.877-.376,1.174,1.174,0,0,1,.084-1.629,1.2,1.2,0,0,1,.835-.292,1.187,1.187,0,0,1,.793.376,1.2,1.2,0,0,1,.292.835,1.187,1.187,0,0,1-.376.793A1.2,1.2,0,0,1,109.774,105.4Zm0-1.169Z" transform="translate(-102.668 -91.956)"/><path class="c" d="M117.369,108.5h-.084a1.187,1.187,0,0,1-.793-.376,1.2,1.2,0,0,1-.292-.835,1.187,1.187,0,0,1,.376-.793,1.153,1.153,0,0,1,1.545,1.712h0A1.072,1.072,0,0,1,117.369,108.5Zm.376-.71Zm-.376-.418Z" transform="translate(-107.089 -93.767)"/><path class="c" d="M118.074,99.4h-.084a1.187,1.187,0,0,1-.793-.376,1.174,1.174,0,0,1,.084-1.629,1.2,1.2,0,0,1,.835-.292,1.187,1.187,0,0,1,.793.376,1.174,1.174,0,0,1-.084,1.629h0A1.006,1.006,0,0,1,118.074,99.4Zm0-1.127Z" transform="translate(-107.502 -88.462)"/><path class="c" d="M123.569,105.1h-.084a1.187,1.187,0,0,1-.793-.376,1.2,1.2,0,0,1-.292-.835,1.187,1.187,0,0,1,.376-.793,1.153,1.153,0,0,1,1.545,1.712h0A1.3,1.3,0,0,1,123.569,105.1Zm.376-.752Zm-.376-.418Z" transform="translate(-110.7 -91.786)"/></g><g transform="translate(6.506 52.049)"><path class="c" d="M26.556,120.312a6.556,6.556,0,1,1,6.556-6.556A6.567,6.567,0,0,1,26.556,120.312Zm0-11.943a5.429,5.429,0,1,0,5.387,5.429A5.409,5.409,0,0,0,26.556,108.369Z" transform="translate(-16.743 -103.943)"/><g transform="translate(0)"><g transform="translate(9.229 15.952)"><line class="d" y1="2.547" transform="translate(0.585)"/><circle class="d" cx="0.585" cy="0.585" r="0.585" transform="translate(0 2.505)"/></g><g transform="translate(2.475 14.156)"><line class="d" y1="1.796" x2="1.796" transform="translate(1.2)"/><circle class="d" cx="0.585" cy="0.585" r="0.585" transform="translate(0 2.195) rotate(-45)"/></g><g transform="translate(0 9.229)"><line class="d" x2="2.505" transform="translate(1.169 0.585)"/><circle class="d" cx="0.585" cy="0.585" r="0.585"/></g><g transform="translate(2.466 2.458)"><line class="d" x2="1.796" y2="1.796" transform="translate(1.208 1.258)"/><circle class="d" cx="0.585" cy="0.585" r="0.585" transform="translate(0 0.827) rotate(-45)"/></g><g transform="translate(9.229)"><line class="d" y2="2.547" transform="translate(0.585 1.169)"/><circle class="d" cx="0.585" cy="0.585" r="0.585" transform="translate(0)"/></g><g transform="translate(14.114 2.479)"><line class="d" x1="1.796" y2="1.796" transform="translate(0 1.238)"/><circle class="d" cx="0.585" cy="0.585" r="0.585" transform="translate(1.389 0.827) rotate(-45)"/></g><g transform="translate(15.91 9.229)"><line class="d" x1="2.547" transform="translate(0 0.585)"/><circle class="d" cx="0.585" cy="0.585" r="0.585" transform="translate(2.547)"/></g><g transform="translate(14.114 14.156)"><line class="d" x1="1.796" y1="1.796"/><circle class="d" cx="0.585" cy="0.585" r="0.585" transform="translate(1.398 2.216) rotate(-45)"/></g></g><path class="c" d="M34.127,112.955a1.127,1.127,0,1,1,1.127-1.127A1.123,1.123,0,0,1,34.127,112.955Zm0-1.127Z" transform="translate(-24.314 -105.981)"/><path class="c" d="M26.927,118.155a1.127,1.127,0,1,1,1.127-1.127A1.123,1.123,0,0,1,26.927,118.155Zm0-1.127Z" transform="translate(-20.121 -109.01)"/><path class="c" d="M27.027,126.855a1.127,1.127,0,1,1,1.127-1.127A1.1,1.1,0,0,1,27.027,126.855Zm0-1.169Z" transform="translate(-20.179 -114.077)"/><path class="c" d="M34.127,131.255a1.127,1.127,0,1,1,1.127-1.127A1.123,1.123,0,0,1,34.127,131.255Zm0-1.127Z" transform="translate(-24.314 -116.64)"/><path class="c" d="M41.527,127.7a1.149,1.149,0,1,1,1.127-1.169A1.133,1.133,0,0,1,41.527,127.7Zm0-1.169Z" transform="translate(-28.624 -114.543)"/><path class="c" d="M35.127,121.155a1.127,1.127,0,1,1,1.127-1.127A1.123,1.123,0,0,1,35.127,121.155Zm0-1.169Z" transform="translate(-24.897 -110.757)"/><path class="c" d="M43.027,120.755a1.127,1.127,0,1,1,1.127-1.127A1.123,1.123,0,0,1,43.027,120.755Zm0-1.127Z" transform="translate(-29.498 -110.524)"/></g></g></g></svg>