<svg xmlns="http://www.w3.org/2000/svg" width="83" height="83" viewBox="0 0 83 83"><defs><style>.a,.c{fill:none;}.b{fill:#bb3c4f;}.c{stroke:#bb3c4f;stroke-linecap:round;stroke-miterlimit:10;stroke-width:1.5px;}.d{fill:#1f2639;}</style></defs><g transform="translate(-866 -3603)"><g transform="translate(866 3603)"><rect class="a" width="83" height="83"/></g><g transform="translate(871.394 3609.2)"><g transform="translate(54.989 52.054)"><path class="b" d="M139.457,138.514a3.757,3.757,0,1,1,3.757-3.757A3.758,3.758,0,0,1,139.457,138.514Zm0-6.418a2.661,2.661,0,1,0,2.661,2.661A2.69,2.69,0,0,0,139.457,132.1Z" transform="translate(-134.174 -129.474)"/><g transform="translate(4.97 8.571)"><line class="c" y1="1.37" transform="translate(0.313)"/><circle class="c" cx="0.313" cy="0.313" r="0.313" transform="translate(0 1.37)"/></g><g transform="translate(1.359 7.592)"><line class="c" y1="0.978" x2="0.978" transform="translate(0.637)"/><circle class="c" cx="0.313" cy="0.313" r="0.313" transform="translate(0 1.197) rotate(-45)"/></g><g transform="translate(0 4.97)"><line class="c" x2="1.37" transform="translate(0.626 0.313)"/><circle class="c" cx="0.313" cy="0.313" r="0.313"/></g><g transform="translate(1.339 1.31)"><line class="c" x2="0.978" y2="0.978" transform="translate(0.657 0.686)"/><circle class="c" cx="0.313" cy="0.313" r="0.313" transform="translate(0 0.443) rotate(-45)"/></g><g transform="translate(4.97)"><line class="c" y2="1.37" transform="translate(0.313 0.626)"/><circle class="c" cx="0.313" cy="0.313" r="0.313"/></g><g transform="translate(7.631 1.318)"><line class="c" x1="0.939" y2="0.978" transform="translate(0 0.678)"/><circle class="c" cx="0.313" cy="0.313" r="0.313" transform="translate(0.716 0.443) rotate(-45)"/></g><g transform="translate(8.571 4.97)"><line class="c" x1="1.37" transform="translate(0 0.313)"/><circle class="c" cx="0.313" cy="0.313" r="0.313" transform="translate(1.37)"/></g><g transform="translate(7.631 7.592)"><line class="c" x1="0.939" y1="0.978"/><circle class="c" cx="0.313" cy="0.313" r="0.313" transform="translate(0.736 1.205) rotate(-45)"/></g><path class="b" d="M143.961,134.622a.861.861,0,1,1,.861-.861A.869.869,0,0,1,143.961,134.622Zm0-1.1a.235.235,0,1,0,.235.235A.226.226,0,0,0,143.961,133.526Z" transform="translate(-138.678 -130.63)"/><path class="b" d="M139.861,137.622a.861.861,0,1,1,.861-.861A.869.869,0,0,1,139.861,137.622Zm0-1.1a.235.235,0,1,0,.235.235A.253.253,0,0,0,139.861,136.526Z" transform="translate(-136.182 -132.456)"/><path class="b" d="M139.961,142.622a.861.861,0,1,1,.861-.861A.869.869,0,0,1,139.961,142.622Zm0-1.135a.235.235,0,1,0,.235.235A.253.253,0,0,0,139.961,141.487Z" transform="translate(-136.243 -135.499)"/><path class="b" d="M143.961,145.122a.861.861,0,1,1,.861-.861A.869.869,0,0,1,143.961,145.122Zm0-1.1a.235.235,0,1,0,.235.235A.226.226,0,0,0,143.961,144.026Z" transform="translate(-138.678 -137.021)"/><path class="b" d="M148.161,143.122a.861.861,0,1,1,.861-.861A.844.844,0,0,1,148.161,143.122Zm0-1.1a.235.235,0,1,0,.235.235A.226.226,0,0,0,148.161,142.026Z" transform="translate(-141.234 -135.804)"/><path class="b" d="M144.561,139.322a.861.861,0,1,1,.861-.861A.869.869,0,0,1,144.561,139.322Zm0-1.1a.235.235,0,1,0,.235.235A.226.226,0,0,0,144.561,138.226Z" transform="translate(-139.043 -133.491)"/><path class="b" d="M149.061,139.122a.861.861,0,1,1,.861-.861A.869.869,0,0,1,149.061,139.122Zm0-1.1a.235.235,0,1,0,.235.235A.226.226,0,0,0,149.061,138.026Z" transform="translate(-141.782 -133.369)"/></g><path class="d" d="M69.229,95.6H12.874A1.978,1.978,0,0,1,10.8,93.718V52.548a.548.548,0,1,1,1.1,0V93.718c0,.43.43.744.978.744H69.229a.535.535,0,0,1,.548.548A.569.569,0,0,1,69.229,95.6Z" transform="translate(-3.165 -29.337)"/><path class="d" d="M70.693,94.081a.543.543,0,0,1-.47-.274l-5.009-8.845-7.827,8.571a1.093,1.093,0,0,1-.783.313.909.909,0,0,1-.744-.352L43.377,78.387l-6.888,5.792a.967.967,0,0,1-.861.2.9.9,0,0,1-.665-.509L29.366,72.2l-2.035,3.248a.537.537,0,1,1-.9-.587l2.152-3.444a.9.9,0,0,1,.9-.43,1.03,1.03,0,0,1,.822.548l5.6,11.741,6.888-5.792a1.2,1.2,0,0,1,.744-.235,1.013,1.013,0,0,1,.665.352L56.683,92.672,64.51,84.1a1,1,0,0,1,.861-.313.967.967,0,0,1,.744.47L71.2,93.22a.559.559,0,0,1-.2.744A.44.44,0,0,1,70.693,94.081Z" transform="translate(-12.612 -40.892)"/><path class="b" d="M16.01,20.628H12.018a1.052,1.052,0,0,1-1.057-1.057V15.228l-4.3.039A1.052,1.052,0,0,1,5.6,14.21V10.218A1.052,1.052,0,0,1,6.657,9.162h4.3v-4.3A1.052,1.052,0,0,1,12.018,3.8h3.953a1.052,1.052,0,0,1,1.057,1.057v4.3l4.266-.039a1.086,1.086,0,0,1,1.1,1.057v3.953a1.062,1.062,0,0,1-1.1,1.057h-4.3l.078,4.344A1.086,1.086,0,0,1,16.01,20.628Zm-5.048-6.5a1.052,1.052,0,0,1,1.057,1.057v4.3l3.953-.039V15.228a1.052,1.052,0,0,1,1.057-1.057h4.3l-.039-3.914H17.067A1.052,1.052,0,0,1,16.01,9.2V4.9l-3.992-.039.039,4.266A1.052,1.052,0,0,1,11,10.179H6.7l.039,3.953Zm10.41-3.914Z" transform="translate(0 0)"/></g></g></svg>