<svg xmlns="http://www.w3.org/2000/svg" width="59.083" height="64.993" viewBox="0 0 59.083 64.993"><defs><style>.a{fill:#1f2639;}.b{fill:#bb3c4f;}</style></defs><g transform="translate(-15.144 -8)"><path class="a" d="M67.08,62.7A12.486,12.486,0,0,1,54.6,50.218a.525.525,0,0,1,.518-.518.557.557,0,0,1,.518.518,11.4,11.4,0,1,0,22.8,0,.525.525,0,0,1,.518-.518.557.557,0,0,1,.518.518A12.331,12.331,0,0,1,67.08,62.7Z" transform="translate(-22.417 -23.692)"/><path class="a" d="M45.829,122.365A146.322,146.322,0,0,1,17.975,119.6a3.475,3.475,0,0,1-2.807-3.8A21.135,21.135,0,0,1,25.4,100.082,36.333,36.333,0,0,1,44.663,94.9h.086a36.012,36.012,0,0,1,19.3,5.225c5.873,3.8,9.414,9.242,10.148,15.719a3.488,3.488,0,0,1-2.677,3.757A116.557,116.557,0,0,1,45.829,122.365ZM44.706,95.98c-12.567,0-26.818,6.219-28.416,19.908h0a2.374,2.374,0,0,0,1.943,2.591c18.872,3.671,36.75,3.671,53.074.043a2.41,2.41,0,0,0,1.857-2.591C71.611,102.155,57.791,95.98,44.793,95.936A.134.134,0,0,1,44.706,95.98ZM15.73,115.845Z" transform="translate(0 -49.373)"/><g transform="translate(35.076 8)"><g transform="translate(3.498 4.923)"><path class="a" d="M75.446,31.492a6.046,6.046,0,1,1,6.046-6.046A6.064,6.064,0,0,1,75.446,31.492Zm0-10.537a4.534,4.534,0,1,0,4.534,4.534A4.534,4.534,0,0,0,75.446,20.955Z" transform="translate(-69.4 -19.4)"/></g><g transform="translate(8.13 17.749)"><path class="a" d="M81.41,56.087l-1.123-1.123a.55.55,0,0,1,.777-.777l.345.345.389-.345a.55.55,0,0,1,.777.777Z" transform="translate(-80.125 -51.898)"/><path class="a" d="M82.361,52.9h0a.572.572,0,0,1-.561-.561l.043-2.721a.54.54,0,0,1,1.08.043l-.043,2.721A.5.5,0,0,1,82.361,52.9Z" transform="translate(-81.077 -49.1)"/></g><g transform="translate(0 14.019)"><path class="b" d="M62.984,43.821h-.13L61.3,43.389l.432-1.511a.566.566,0,0,1,.648-.389.529.529,0,0,1,.389.648l-.13.475.475.13a.566.566,0,0,1,.389.648A.588.588,0,0,1,62.984,43.821Z" transform="translate(-61.3 -41.041)"/><path class="b" d="M62.4,42.854a.542.542,0,0,1-.475-.259.553.553,0,0,1,.216-.734l2.375-1.339a.541.541,0,0,1,.518.95L62.656,42.81C62.613,42.854,62.526,42.854,62.4,42.854Z" transform="translate(-61.619 -40.462)"/></g><g transform="translate(0.173 4.987)"><path class="a" d="M62.607,21.9a.518.518,0,0,1-.518-.389L61.7,19.959l1.555-.389a.534.534,0,1,1,.259,1.036l-.475.13.13.518a.511.511,0,0,1-.389.648C62.693,21.86,62.65,21.9,62.607,21.9Z" transform="translate(-61.7 -19.549)"/><path class="a" d="M65.146,22.757a.614.614,0,0,1-.259-.086l-2.332-1.382a.533.533,0,1,1,.561-.907l2.332,1.382a.513.513,0,0,1,.173.734A.6.6,0,0,1,65.146,22.757Z" transform="translate(-62.036 -19.971)"/></g><g transform="translate(8.389 0)"><path class="b" d="M82.787,10.073A.469.469,0,0,1,82.4,9.9l-.345-.345-.389.345a.55.55,0,0,1-.777-.777L82.01,8l1.123,1.123a.547.547,0,0,1,0,.777A.393.393,0,0,1,82.787,10.073Z" transform="translate(-80.725 -8)"/><path class="b" d="M82.961,12.794h0a.572.572,0,0,1-.561-.561l.043-2.721A.51.51,0,0,1,83,8.994a.536.536,0,0,1,.518.561l-.043,2.721A.525.525,0,0,1,82.961,12.794Z" transform="translate(-81.677 -8.562)"/></g><g transform="translate(15.401 5.246)"><path class="a" d="M101.742,22.46h-.13a.566.566,0,0,1-.389-.648l.13-.475-.475-.13a.566.566,0,0,1-.389-.648.529.529,0,0,1,.648-.389l1.555.432-.432,1.511A.561.561,0,0,1,101.742,22.46Z" transform="translate(-98.962 -20.149)"/><path class="a" d="M97.5,23.254a.542.542,0,0,1-.475-.259.553.553,0,0,1,.216-.734l2.375-1.339a.541.541,0,0,1,.518.95L97.756,23.21A.548.548,0,0,1,97.5,23.254Z" transform="translate(-96.962 -20.554)"/></g><g transform="translate(15.327 14.204)"><path class="b" d="M100.589,44.3a.518.518,0,0,1-.518-.389.511.511,0,0,1,.389-.648l.475-.13-.13-.518a.534.534,0,0,1,1.036-.259l.389,1.555-1.555.389Z" transform="translate(-98.642 -41.492)"/><path class="b" d="M99.646,43.357a.614.614,0,0,1-.259-.086l-2.332-1.382a.533.533,0,1,1,.561-.907l2.332,1.382a.513.513,0,0,1,.173.734A.6.6,0,0,1,99.646,43.357Z" transform="translate(-96.792 -40.892)"/></g></g></g></svg>