<svg xmlns="http://www.w3.org/2000/svg" width="83" height="83" viewBox="0 0 83 83"><defs><style>.a{fill:#fff;}.b{fill:#1f2639;}.c{fill:#bb3c4f;}</style></defs><g transform="translate(-450 -4422)"><rect class="a" width="83" height="83" transform="translate(450 4422)"/><g transform="translate(457.804 4427.8)"><g transform="translate(5.908 41.378)"><path class="b" d="M18.42,123.44H13.048a2.145,2.145,0,0,1-2.148-2.148V107.864a.537.537,0,1,1,1.074,0v13.428a1.072,1.072,0,0,0,1.074,1.074H18.42a1.072,1.072,0,0,0,1.074-1.074V101.648a1.072,1.072,0,0,0-1.074-1.074H13.048a1.1,1.1,0,0,0-1.074,1.074v2.724a.537.537,0,1,1-1.074,0v-2.724A2.145,2.145,0,0,1,13.048,99.5H18.42a2.145,2.145,0,0,1,2.148,2.148v19.643A2.121,2.121,0,0,1,18.42,123.44Z" transform="translate(-10.9 -99.5)"/><path class="b" d="M62.112,118.846H62l-2.3-.5a.549.549,0,0,1,.23-1.074l2.3.5a.534.534,0,0,1,.422.652A.506.506,0,0,1,62.112,118.846Z" transform="translate(-40.704 -110.444)"/><path class="b" d="M59.5,125.549h-.23L35.1,122.825a2,2,0,0,1-1.8-1.995V107.9a2.054,2.054,0,0,1,1.611-1.995l14.464-2.877a2.276,2.276,0,0,1,.882,0l11.625,2.839a2.007,2.007,0,0,1,1.535,1.957v2.11a.537.537,0,0,1-1.074,0v-2.11a.909.909,0,0,0-.691-.882L50.027,104.1a.654.654,0,0,0-.384,0L35.18,106.98a.914.914,0,0,0-.729.921V120.83a.916.916,0,0,0,.806.921l24.17,2.724a.827.827,0,0,0,.614-.153l22.021-15.039a.906.906,0,0,0,.307-1.151l-.384-.882a.945.945,0,0,0-1.151-.5l-18.53,6.56a2.173,2.173,0,0,1-1.113.077l-12.315-2.724a.549.549,0,1,1,.23-1.074l12.315,2.647a.748.748,0,0,0,.5-.038l18.53-6.56a2.052,2.052,0,0,1,2.532,1.074l.384.882a2.034,2.034,0,0,1-.691,2.494L60.654,125.127A1.651,1.651,0,0,1,59.5,125.549Z" transform="translate(-24.706 -101.648)"/></g><path class="c" d="M54.957,52.142a1.829,1.829,0,0,1-.767-.153,1.936,1.936,0,0,1-1.151-1.343,30.539,30.539,0,0,1-.652-6.522c-.077-5.179.307-10.934,3.606-14.348,3.414-3.53,9.054-3.875,16.842-1.074h0a1.74,1.74,0,0,1,1.151,1.726c-.115,2.455-.038,4.642.038,6.6.115,3.146.192,5.409-.652,6.829-.882,1.458-3.683,2.264-7.213,3.3-1.381.384-2.839.806-4.259,1.3-.691.23-1.266.537-5.947,3.414A1.772,1.772,0,0,1,54.957,52.142Zm8.862-24.17A9.378,9.378,0,0,0,56.8,30.581c-3.031,3.146-3.376,8.632-3.3,13.581a29.56,29.56,0,0,0,.614,6.292.833.833,0,0,0,.5.575.782.782,0,0,0,.767-.077c4.834-2.954,5.409-3.261,6.177-3.53,1.458-.5,2.877-.921,4.3-1.3,3.031-.882,5.908-1.688,6.6-2.8s.575-3.338.5-6.215c-.077-1.995-.153-4.22-.038-6.714a.622.622,0,0,0-.422-.614h0A25.364,25.364,0,0,0,63.819,27.972Z" transform="translate(-30.557 -13.335)"/><path class="c" d="M111.864,45.409a1.914,1.914,0,0,1-.806-.192,1.825,1.825,0,0,1-.882-1.113c-.767-3.338-.691-8.172-.537-12.047h0a1.734,1.734,0,0,1,1.573-1.65,29.048,29.048,0,0,1,4.45.077c.345.038.729.038,1.074.077a35.683,35.683,0,0,1,8.44,1.189,1.716,1.716,0,0,1,.5,3.069,17.2,17.2,0,0,1-2.3,1.266,8.469,8.469,0,0,0-3.376,3.3,6.25,6.25,0,0,0-.422.652,14.713,14.713,0,0,1-7.1,5.333C112.286,45.371,112.056,45.409,111.864,45.409Zm.806-13.965c-.46,0-.921,0-1.381.038a.625.625,0,0,0-.575.614h0c-.153,3.8-.23,8.555.5,11.74a.683.683,0,0,0,.307.422.574.574,0,0,0,.5.038,13.509,13.509,0,0,0,6.6-4.949c.153-.192.269-.384.422-.614a9.688,9.688,0,0,1,3.8-3.645,15.884,15.884,0,0,0,2.148-1.189.626.626,0,0,0-.153-1.113,35.746,35.746,0,0,0-8.172-1.151,10.838,10.838,0,0,1-1.113-.077Q114.109,31.444,112.67,31.444Zm-2.494.614Z" transform="translate(-65.789 -15.502)"/><path class="c" d="M13.159,21.965H9.207a1.1,1.1,0,0,1-1.074-1.074v-4.3l-4.259.038A1.1,1.1,0,0,1,2.8,15.559V11.607a1.1,1.1,0,0,1,1.074-1.074h4.3L8.133,6.274A1.1,1.1,0,0,1,9.207,5.2h3.952a1.1,1.1,0,0,1,1.074,1.074v4.3l4.259-.038a1.1,1.1,0,0,1,1.074,1.074v3.952a1.1,1.1,0,0,1-1.074,1.074h-4.3l.038,4.259A1.072,1.072,0,0,1,13.159,21.965ZM8.171,15.52a1.1,1.1,0,0,1,1.074,1.074v4.3l3.913-.038-.038-4.258a1.1,1.1,0,0,1,1.074-1.074h4.3l-.038-3.875H14.194a1.1,1.1,0,0,1-1.074-1.074v-4.3H9.207l.038,4.259a1.1,1.1,0,0,1-1.074,1.074h-4.3l.038,3.913Zm10.32-3.875Z"/></g></g></svg>