<svg xmlns="http://www.w3.org/2000/svg" width="83" height="83" viewBox="0 0 83 83"><defs><style>.a{fill:#fff;}.b{fill:#1f2639;}.c{fill:#bb3c4f;}</style></defs><g transform="translate(-450 -4263)"><rect class="a" width="83" height="83" transform="translate(450 4263)"/><g transform="translate(456.233 4270.018)"><path class="b" d="M67.888,33.115a8.129,8.129,0,0,1-.972-.039,12.4,12.4,0,0,1-11.2-11.121A12.055,12.055,0,0,1,57.272,14.8a5.47,5.47,0,0,1,.544-10.771,5.787,5.787,0,0,1,4.589,1.244,4.248,4.248,0,0,1,1.478,3.383v.739a18.417,18.417,0,0,1,5.211-.739h0c5.716.194,10.577,5.133,11.044,11.2a12.281,12.281,0,0,1-12.249,13.26ZM58.711,5.078a4.706,4.706,0,0,0-.739.039,4.35,4.35,0,0,0-.311,8.594,1.109,1.109,0,0,1,.739.583,1.027,1.027,0,0,1-.039.894,11.054,11.054,0,0,0-1.478,6.649,11.145,11.145,0,0,0,22.2-1.944C78.66,14.372,74.265,9.9,69.094,9.705a18.063,18.063,0,0,0-4.9.7c-.7.194-.894.233-1.128.039-.272-.233-.272-.506-.233-1.633V8.578a3.313,3.313,0,0,0-1.05-2.566A5.235,5.235,0,0,0,58.711,5.078Z" transform="translate(-29.103)"/><path class="b" d="M43.941,119.519a137.633,137.633,0,0,1-27.065-2.8,3.46,3.46,0,0,1-2.722-3.85A21.459,21.459,0,0,1,23.8,97.2c7.583-5.172,18.9-6.805,28.776-4.161a.566.566,0,0,1-.311,1.089c-9.6-2.566-20.532-1.011-27.881,4.005a20.545,20.545,0,0,0-9.138,14.854,2.338,2.338,0,0,0,1.867,2.605c18.315,3.694,35.658,3.694,51.485.078a2.433,2.433,0,0,0,1.789-2.605,20.27,20.27,0,0,0-3.733-9.8.556.556,0,1,1,.894-.661,21.066,21.066,0,0,1,3.966,10.344,3.538,3.538,0,0,1-2.644,3.811A111.3,111.3,0,0,1,43.941,119.519Z" transform="translate(-5.35 -53.662)"/><path class="c" d="M122.233,102.766a6.533,6.533,0,1,1,6.533-6.533A6.522,6.522,0,0,1,122.233,102.766Zm0-11.977a5.405,5.405,0,1,0,5.405,5.405A5.418,5.418,0,0,0,122.233,90.789Z" transform="translate(-67.426 -52.386)"/><path class="c" d="M66.524,126.026a.733.733,0,0,1-.311-.078.557.557,0,0,1-.156-.778c3.189-4.783,4.083-9.8,4.744-13.454.078-.389.117-.739.194-1.089.428-2.216,1.711-3.927,2.994-3.927h.039c.428,0,1.4.272,1.594,2.139.156,1.439.778,4.861,2.994,6.183a4.287,4.287,0,0,0,3.966.039c2.8-1.128,6.766-.972,8.983,1.478,2.761,3.072,2.294,5.211.661,9.022a.557.557,0,1,1-1.011-.467c1.517-3.5,1.905-5.211-.467-7.816-1.867-2.061-5.288-2.139-7.738-1.167a5.461,5.461,0,0,1-4.938-.117c-2.644-1.594-3.344-5.444-3.539-7.038-.078-.7-.311-1.167-.544-1.167h0c-.467,0-1.517,1.05-1.905,3.033-.078.35-.117.7-.194,1.089-.661,3.772-1.594,8.9-4.938,13.882A.527.527,0,0,1,66.524,126.026Z" transform="translate(-37.032 -62.775)"/><path class="c" d="M9.465,58.469a.532.532,0,0,1-.544-.544V35.954H6.355a.966.966,0,0,1-.855-.506,1.02,1.02,0,0,1,.039-1.05l7.855-12.132a1.057,1.057,0,0,1,.817-.467h0a.959.959,0,0,1,.817.467l7.855,12.171a1.016,1.016,0,0,1,.039,1.05.966.966,0,0,1-.855.506H19.5V49.914a.544.544,0,1,1-1.089,0V35.838a1,1,0,0,1,.972-1.011H21.87L14.21,23.044,6.588,34.866H9.077a1,1,0,0,1,.972,1.011V57.925A.593.593,0,0,1,9.465,58.469Z" transform="translate(0 -10.889)"/></g></g></svg>