<svg xmlns="http://www.w3.org/2000/svg" width="83" height="83" viewBox="0 0 83 83"><defs><style>.a{fill:#fff;}.b{fill:#1f2639;}.c{fill:#bb3c4f;}</style></defs><g transform="translate(-450 -3997)"><rect class="a" width="83" height="83" transform="translate(450 3997)"/><g transform="translate(451.107 4001.46)"><path class="b" d="M64.621,35.12a8.6,8.6,0,0,1-1.028-.041A12.948,12.948,0,0,1,51.831,23.44a12.62,12.62,0,0,1,1.645-7.526,5.741,5.741,0,0,1,.617-11.309,5.857,5.857,0,0,1,4.77,1.275,4.593,4.593,0,0,1,1.522,3.578v.781A19.235,19.235,0,0,1,65.9,9.458h0c6,.206,11.1,5.387,11.6,11.761A12.8,12.8,0,0,1,73.75,31.336,12.991,12.991,0,0,1,64.621,35.12Zm-9.705-29.4a5.243,5.243,0,0,0-.781.041,4.56,4.56,0,0,0-.329,9.006,1.173,1.173,0,0,1,.781.617,1.093,1.093,0,0,1-.041.946,11.677,11.677,0,0,0,9.129,17.56A11.652,11.652,0,0,0,76.259,21.3C75.807,15.5,71.2,10.816,65.772,10.61a18.5,18.5,0,0,0-5.14.74c-.7.206-.946.247-1.193.041-.288-.247-.288-.535-.247-1.727V9.417a3.415,3.415,0,0,0-1.11-2.673A4.589,4.589,0,0,0,54.916,5.716Z" transform="translate(-22.81)"/><path class="b" d="M41.564,120.907a143.227,143.227,0,0,1-28.416-2.961,3.712,3.712,0,0,1-2.879-4.03A22.611,22.611,0,0,1,20.385,97.467c7.978-5.428,19.863-7.156,30.267-4.359a.574.574,0,1,1-.288,1.11c-10.075-2.714-21.59-1.069-29.28,4.195a21.522,21.522,0,0,0-9.623,15.627,2.5,2.5,0,0,0,1.933,2.755c19.246,3.866,37.464,3.907,54.119.082a2.5,2.5,0,0,0,1.851-2.755,20.747,20.747,0,0,0-3.948-10.281.588.588,0,1,1,.946-.7A22.491,22.491,0,0,1,70.515,114a3.677,3.677,0,0,1-2.755,3.989A113.925,113.925,0,0,1,41.564,120.907Z" transform="translate(0 -51.367)"/><path class="c" d="M117.968,103.435a6.868,6.868,0,1,1,6.868-6.868A6.88,6.88,0,0,1,117.968,103.435Zm0-12.584a5.716,5.716,0,1,0,5.716,5.716A5.73,5.73,0,0,0,117.968,90.851Z" transform="translate(-59.379 -50.139)"/><path class="c" d="M62.356,126.756a.968.968,0,0,1-.329-.082.589.589,0,0,1-.164-.822c3.372-5.017,4.318-10.322,5.017-14.147.082-.411.123-.781.206-1.151.452-2.344,1.809-4.153,3.167-4.153h.041c.411,0,1.439.247,1.686,2.262.164,1.48.822,5.1,3.167,6.5a4.456,4.456,0,0,0,4.153.041c2.961-1.151,7.114-1.028,9.417,1.522,2.92,3.249,2.426,5.469.7,9.5a.589.589,0,0,1-1.069-.493c1.6-3.7,2.015-5.469-.493-8.225-1.933-2.138-5.552-2.262-8.142-1.234a5.783,5.783,0,0,1-5.223-.123c-2.755-1.645-3.537-5.716-3.7-7.361-.082-.74-.329-1.234-.576-1.234h0c-.493,0-1.6,1.11-2.015,3.167-.082.37-.123.74-.206,1.11-.7,3.948-1.686,9.376-5.182,14.6A.463.463,0,0,1,62.356,126.756Z" transform="translate(-30.332 -59.971)"/></g></g></svg>