<svg xmlns="http://www.w3.org/2000/svg" width="83" height="83" viewBox="0 0 83 83"><defs><style>.a,.c{fill:none;}.b{fill:#bb3c4f;}.c{stroke:#bb3c4f;stroke-linecap:round;stroke-miterlimit:10;stroke-width:1.5px;}.d{fill:#1f2639;}</style></defs><g transform="translate(-54 -4263)"><g transform="translate(54 4263)"><rect class="a" width="83" height="83"/></g><g transform="translate(56.5 4268)"><g transform="translate(54.07 5)"><path class="b" d="M133.409,18.519a4.309,4.309,0,1,1,4.309-4.309A4.325,4.325,0,0,1,133.409,18.519Zm0-7.571a3.222,3.222,0,1,0,3.222,3.222A3.214,3.214,0,0,0,133.409,10.948Z" transform="translate(-127.236 -7.998)"/><g transform="translate(5.824 10.055)"><line class="c" y1="1.592" transform="translate(0.349)"/><circle class="c" cx="0.349" cy="0.349" r="0.349" transform="translate(0 1.592)"/></g><g transform="translate(1.553 8.891)"><line class="c" y1="1.165" x2="1.126" transform="translate(0.737 0)"/><circle class="c" cx="0.349" cy="0.349" r="0.349" transform="translate(0 1.391) rotate(-45)"/></g><g transform="translate(0 5.824)"><line class="c" x2="1.592" transform="translate(0.699 0.349)"/><circle class="c" cx="0.349" cy="0.349" r="0.349"/></g><g transform="translate(1.557 1.555)"><line class="c" x2="1.126" y2="1.126" transform="translate(0.734 0.774)"/><circle class="c" cx="0.349" cy="0.349" r="0.349" transform="translate(0 0.494) rotate(-45)"/></g><g transform="translate(5.824)"><line class="c" y2="1.592" transform="translate(0.349 0.738)"/><circle class="c" cx="0.349" cy="0.349" r="0.349"/></g><g transform="translate(8.891 1.558)"><line class="c" x1="1.126" y2="1.126" transform="translate(0 0.771)"/><circle class="c" cx="0.349" cy="0.349" r="0.349" transform="translate(0.898 0.494) rotate(-45)"/></g><g transform="translate(10.017 5.824)"><line class="c" x1="1.592" transform="translate(0 0.349)"/><circle class="c" cx="0.349" cy="0.349" r="0.349" transform="translate(1.631)"/></g><g transform="translate(8.891 8.891)"><line class="c" x1="1.126" y1="1.165" transform="translate(0 0)"/><circle class="c" cx="0.349" cy="0.349" r="0.349" transform="translate(0.895 1.394) rotate(-45)"/></g><path class="b" d="M138.732,13.864a.932.932,0,1,1,.932-.932A.945.945,0,0,1,138.732,13.864Zm0-1.087a.194.194,0,1,0,.194.194A.208.208,0,0,0,138.732,12.776Z" transform="translate(-132.559 -9.282)"/><path class="b" d="M133.832,17.364a.932.932,0,1,1,.932-.932A.945.945,0,0,1,133.832,17.364Zm0-1.087a.194.194,0,1,0,.194.194A.208.208,0,0,0,133.832,16.276Z" transform="translate(-129.561 -11.423)"/><path class="b" d="M133.932,23.264a.932.932,0,1,1,.932-.932A.945.945,0,0,1,133.932,23.264Zm0-1.126a.194.194,0,1,0,.194.194A.183.183,0,0,0,133.932,22.138Z" transform="translate(-129.622 -15.033)"/><path class="b" d="M138.732,26.264a.932.932,0,1,1,.932-.932A.945.945,0,0,1,138.732,26.264Zm0-1.087a.194.194,0,1,0,.194.194A.208.208,0,0,0,138.732,25.176Z" transform="translate(-132.559 -16.868)"/><path class="b" d="M143.732,23.864a.932.932,0,1,1,.932-.932A.945.945,0,0,1,143.732,23.864Zm0-1.087a.194.194,0,1,0,.194.194A.208.208,0,0,0,143.732,22.776Z" transform="translate(-135.618 -15.4)"/><path class="b" d="M139.432,19.364a.932.932,0,1,1,.932-.932A.945.945,0,0,1,139.432,19.364Zm0-1.087a.194.194,0,1,0,.194.194A.208.208,0,0,0,139.432,18.276Z" transform="translate(-132.987 -12.647)"/><path class="b" d="M144.732,19.164a.932.932,0,1,1,.932-.932A.945.945,0,0,1,144.732,19.164Zm0-1.126a.194.194,0,1,0,.194.194A.183.183,0,0,0,144.732,18.038Z" transform="translate(-136.229 -12.525)"/></g><g transform="translate(9.5 24.024)"><path class="b" d="M18.609,67.519a4.309,4.309,0,1,1,4.309-4.309A4.325,4.325,0,0,1,18.609,67.519Zm0-7.571a3.222,3.222,0,1,0,3.222,3.222A3.291,3.291,0,0,0,18.609,59.948Z" transform="translate(-12.436 -56.998)"/><g transform="translate(5.824 10.055)"><line class="c" y1="1.592" transform="translate(0.349)"/><circle class="c" cx="0.349" cy="0.349" r="0.349" transform="translate(0 1.592)"/></g><g transform="translate(1.547 8.929)"><line class="c" y1="1.126" x2="1.126" transform="translate(0.743)"/><circle class="c" cx="0.349" cy="0.349" r="0.349" transform="translate(0 1.355) rotate(-45)"/></g><g transform="translate(0 5.824)"><line class="c" x2="1.592" transform="translate(0.699 0.349)"/><circle class="c" cx="0.349" cy="0.349" r="0.349"/></g><g transform="translate(1.55 1.558)"><line class="c" x2="1.126" y2="1.126" transform="translate(0.741 0.771)"/><circle class="c" cx="0.349" cy="0.349" r="0.349" transform="translate(0 0.494) rotate(-45)"/></g><g transform="translate(5.824)"><line class="c" y2="1.592" transform="translate(0.349 0.738)"/><circle class="c" cx="0.349" cy="0.349" r="0.349"/></g><g transform="translate(8.891 1.561)"><line class="c" x1="1.126" y2="1.126" transform="translate(0 0.768)"/><circle class="c" cx="0.349" cy="0.349" r="0.349" transform="translate(0.891 0.494) rotate(-45)"/></g><g transform="translate(10.017 5.824)"><line class="c" x1="1.592" transform="translate(0 0.349)"/><circle class="c" cx="0.349" cy="0.349" r="0.349" transform="translate(1.631)"/></g><g transform="translate(8.891 8.929)"><line class="c" x1="1.126" y1="1.126"/><circle class="c" cx="0.349" cy="0.349" r="0.349" transform="translate(0.888 1.358) rotate(-45)"/></g><path class="b" d="M23.932,62.864a.932.932,0,1,1,.932-.932A.945.945,0,0,1,23.932,62.864Zm0-1.087a.194.194,0,1,0,.194.194A.208.208,0,0,0,23.932,61.776Z" transform="translate(-17.759 -58.282)"/><path class="b" d="M19.032,66.364a.932.932,0,1,1,.932-.932A.945.945,0,0,1,19.032,66.364Zm0-1.087a.194.194,0,1,0,.194.194A.208.208,0,0,0,19.032,65.276Z" transform="translate(-14.761 -60.424)"/><path class="b" d="M19.132,72.264a.932.932,0,1,1,.932-.932A.945.945,0,0,1,19.132,72.264Zm0-1.126a.194.194,0,1,0,.194.194A.183.183,0,0,0,19.132,71.138Z" transform="translate(-14.822 -64.033)"/><path class="b" d="M23.932,75.264a.932.932,0,1,1,.932-.932A.945.945,0,0,1,23.932,75.264Zm0-1.087a.194.194,0,1,0,.194.194A.208.208,0,0,0,23.932,74.176Z" transform="translate(-17.759 -65.868)"/><path class="b" d="M28.932,72.864a.932.932,0,1,1,.932-.932A.945.945,0,0,1,28.932,72.864Zm0-1.087a.194.194,0,1,0,.194.194A.208.208,0,0,0,28.932,71.776Z" transform="translate(-20.818 -64.4)"/><path class="b" d="M24.632,68.464a.932.932,0,1,1,.932-.932A.972.972,0,0,1,24.632,68.464Zm0-1.126a.194.194,0,1,0,.194.194A.183.183,0,0,0,24.632,67.338Z" transform="translate(-18.187 -61.708)"/><path class="b" d="M29.932,68.164a.932.932,0,1,1,.932-.932A.92.92,0,0,1,29.932,68.164Zm0-1.087a.194.194,0,1,0,.194.194A.183.183,0,0,0,29.932,67.076Z" transform="translate(-21.429 -61.525)"/></g><path class="d" d="M64.754,35.309h-.039A12.3,12.3,0,0,1,53.573,24.283a11.852,11.852,0,0,1,1.553-7.1A5.42,5.42,0,0,1,55.708,6.5a5.617,5.617,0,0,1,4.542,1.2,4.336,4.336,0,0,1,1.436,3.378v.738a18.16,18.16,0,0,1,5.2-.738c5.668.194,10.521,5.086,10.987,11.142a11.408,11.408,0,0,1-.311,3.8.556.556,0,0,1-1.087-.233,11.462,11.462,0,0,0,.272-3.455c-.427-5.474-4.775-9.939-9.9-10.133a18.034,18.034,0,0,0-4.892.7c-.66.194-.893.233-1.126.039-.272-.233-.272-.5-.233-1.631v-.233A3.169,3.169,0,0,0,59.551,8.56a4.647,4.647,0,0,0-3.727-.932,4.348,4.348,0,0,0-.349,8.58,1.107,1.107,0,0,1,.738.582,1.032,1.032,0,0,1-.039.893,10.991,10.991,0,0,0,8.619,16.539.531.531,0,0,1,.5.582A.547.547,0,0,1,64.754,35.309Z" transform="translate(-25.321 -0.881)"/><path class="d" d="M41.751,121.358a135.893,135.893,0,0,1-26.866-2.8,3.5,3.5,0,0,1-2.718-3.8A21.42,21.42,0,0,1,21.718,99.19c7.571-5.164,18.791-6.794,28.613-4.154a.541.541,0,0,1-.272,1.048c-9.512-2.562-20.383-1.009-27.681,4a20.088,20.088,0,0,0-9.085,14.792,2.338,2.338,0,0,0,1.825,2.6c18.208,3.649,35.446,3.688,51.17.078a2.364,2.364,0,0,0,1.747-2.6,19.447,19.447,0,0,0-3.727-9.706.555.555,0,1,1,.893-.66,20.854,20.854,0,0,1,3.921,10.249,3.541,3.541,0,0,1-2.6,3.8A112.37,112.37,0,0,1,41.751,121.358Z" transform="translate(-1.619 -54.318)"/><path class="b" d="M119.684,104.767a6.484,6.484,0,1,1,6.484-6.484A6.5,6.5,0,0,1,119.684,104.767Zm0-11.88a5.4,5.4,0,1,0,5.4,5.4A5.385,5.385,0,0,0,119.684,92.887Z" transform="translate(-63.44 -53.101)"/><path class="b" d="M64.223,127.757a.914.914,0,0,1-.311-.078.556.556,0,0,1-.155-.776c3.184-4.737,4.077-9.745,4.737-13.394.078-.388.116-.738.194-1.087.427-2.213,1.708-3.921,2.989-3.921h.039c.388,0,1.359.233,1.592,2.135.155,1.4.776,4.853,2.989,6.134a4.281,4.281,0,0,0,3.96.039c2.8-1.087,6.755-.971,8.929,1.436,2.757,3.067,2.291,5.164.66,8.968a.556.556,0,0,1-1.009-.466c1.514-3.494,1.9-5.164-.466-7.765-1.825-2.019-5.241-2.135-7.687-1.165a5.459,5.459,0,0,1-4.931-.116c-2.64-1.553-3.339-5.4-3.494-6.988-.078-.7-.311-1.165-.544-1.165h0c-.466,0-1.514,1.048-1.9,3.028-.078.349-.116.7-.194,1.048-.66,3.727-1.592,8.852-4.892,13.821A.661.661,0,0,1,64.223,127.757Z" transform="translate(-33.137 -63.317)"/><path class="b" d="M94.594,66.751a1.4,1.4,0,0,1-.427-.078c-1.98-.7-3.028-1.825-3.067-3.378a1.2,1.2,0,0,1,.194-.7,8.487,8.487,0,0,0,1.2-5.358A1.3,1.3,0,0,1,93.624,55.8c2.058-.272,4.659.349,8,1.864a1.271,1.271,0,0,1,.776,1.165h0c0,4.387-2.524,7.027-7.532,7.881A1.024,1.024,0,0,1,94.594,66.751Zm-.039-9.9a6.011,6.011,0,0,0-.854.039c-.116,0-.194.116-.155.194a9.585,9.585,0,0,1-1.359,6.057.12.12,0,0,0-.039.078c.039.7.311,1.669,2.329,2.368h.116c4.426-.776,6.6-2.989,6.6-6.794h0c0-.078-.039-.155-.116-.155A17.235,17.235,0,0,0,94.555,56.85Z" transform="translate(-49.92 -31.041)"/><path class="b" d="M81.5,57.958a.536.536,0,0,1-.427-.233l-6.1-7.842a1.834,1.834,0,0,1-.388-1.32,1.748,1.748,0,0,1,1.359-1.708,2.014,2.014,0,0,1,1.32.233l5.824,3.494a.566.566,0,0,1-.582.971l-5.824-3.494a.808.808,0,0,0-.5-.116c-.116.039-.388.078-.466.738a.652.652,0,0,0,.155.5l6.1,7.842a.528.528,0,0,1-.116.776A.474.474,0,0,1,81.5,57.958Z" transform="translate(-39.814 -25.587)"/></g></g></svg>