<svg xmlns="http://www.w3.org/2000/svg" width="83" height="83" viewBox="0 0 83 83"><defs><style>.a{fill:none;}.b{fill:#bb3c4f;}.c{fill:#1f2639;}</style></defs><g transform="translate(-450 -3731)"><g transform="translate(450 3731)"><rect class="a" width="83" height="83"/></g><g transform="translate(453.285 3736.8)"><path class="b" d="M18.254,19.888H14.075a1.134,1.134,0,0,1-1.136-1.136v-4.5l-4.5.041A1.134,1.134,0,0,1,7.3,13.154V8.975A1.134,1.134,0,0,1,8.436,7.839h4.5v-4.5A1.134,1.134,0,0,1,14.075,2.2h4.179A1.134,1.134,0,0,1,19.39,3.336v4.5l4.5-.041a1.134,1.134,0,0,1,1.136,1.136v4.179a1.134,1.134,0,0,1-1.136,1.136H19.349l.041,4.5A1.161,1.161,0,0,1,18.254,19.888ZM12.98,13.113a1.134,1.134,0,0,1,1.136,1.136v4.5l4.138-.041-.041-4.5a1.134,1.134,0,0,1,1.136-1.136h4.5l-.041-4.1H19.349a1.134,1.134,0,0,1-1.136-1.136v-4.5l-4.138.041.041,4.5A1.134,1.134,0,0,1,12.98,9.016h-4.5l.041,4.138ZM23.893,8.975Z"/><g transform="translate(11.803 14.249)"><g transform="translate(0 0)"><g transform="translate(0 40.203)"><path class="c" d="M24.688,151.546h-.162L18.4,149.883l1.663-6.207a.566.566,0,0,1,1.1.284l-1.379,5.071,5.031,1.379a.556.556,0,0,1,.406.69A.5.5,0,0,1,24.688,151.546Z" transform="translate(-18.4 -138.278)"/><path class="c" d="M19.366,142.763a.563.563,0,0,1-.487-.284.536.536,0,0,1,.2-.771l18.459-10.629a.564.564,0,0,1,.568.974L19.65,142.641A.539.539,0,0,1,19.366,142.763Z" transform="translate(-18.635 -130.996)"/></g><g transform="translate(24.2)"><path class="c" d="M86.874,37.458a.521.521,0,0,1-.406-.162l-3.732-3.732-3.692,3.651a.574.574,0,0,1-.811-.811l4.5-4.5,4.544,4.544a.542.542,0,0,1,0,.811A.494.494,0,0,1,86.874,37.458Z" transform="translate(-78.05 -31.9)"/><path class="c" d="M88.668,55.035h0a.555.555,0,0,1-.568-.568l.041-21.3a.555.555,0,0,1,.568-.568h0a.555.555,0,0,1,.568.568l-.041,21.3A.58.58,0,0,1,88.668,55.035Z" transform="translate(-84.023 -32.316)"/></g><g transform="translate(37.769 40.203)"><path class="c" d="M130.484,142.844a.752.752,0,0,1-.284-.081l-18.419-10.71a.564.564,0,1,1,.568-.974l18.419,10.71a.553.553,0,0,1,.2.771A.563.563,0,0,1,130.484,142.844Z" transform="translate(-111.496 -130.996)"/><path class="c" d="M133.766,146.593a.752.752,0,0,1-.284-.081.553.553,0,0,1-.2-.771l6.572-11.36a.564.564,0,0,1,.974.568l-6.572,11.36A.619.619,0,0,1,133.766,146.593Z" transform="translate(-124.393 -132.838)"/></g><path class="c" d="M85.772,64.058h0l-13.1-.122a.568.568,0,1,1,0-1.136l13.1.122a.58.58,0,0,1,.568.568A.555.555,0,0,1,85.772,64.058Z" transform="translate(-50.314 -50.264)"/></g><path class="b" d="M71.53,109.261a12.13,12.13,0,1,1,12.13-12.13A12.137,12.137,0,0,1,71.53,109.261Zm0-23.084A10.954,10.954,0,1,0,82.484,97.13,10.96,10.96,0,0,0,71.53,86.177Z" transform="translate(-42.766 -63.457)"/></g></g></g></svg>