<svg xmlns="http://www.w3.org/2000/svg" width="83" height="83" viewBox="0 0 83 83"><defs><style>.a{fill:none;}.b{fill:#bb3c4f;}.c{fill:#1f2639;}</style></defs><g transform="translate(-54 -3731)"><g transform="translate(54 3731)"><rect class="a" width="83" height="83"/></g><g transform="translate(55.145 3736.3)"><path class="b" d="M19.808,20.194H15.686a1.131,1.131,0,0,1-1.135-1.135V14.6H10.135A1.122,1.122,0,0,1,9,13.508V9.386a1.131,1.131,0,0,1,1.135-1.135h4.458V3.835A1.131,1.131,0,0,1,15.729,2.7H19.85a1.131,1.131,0,0,1,1.135,1.135V8.293l4.458-.042a1.131,1.131,0,0,1,1.135,1.135v4.121a1.131,1.131,0,0,1-1.135,1.135H20.9l.042,4.458A1.122,1.122,0,0,1,19.808,20.194Zm-5.215-6.729A1.131,1.131,0,0,1,15.729,14.6v4.458l4.079-.042L19.766,14.6A1.131,1.131,0,0,1,20.9,13.466h4.458l-.042-4.079H20.9a1.131,1.131,0,0,1-1.135-1.135V3.835l-4.079.042.042,4.416a1.131,1.131,0,0,1-1.135,1.135H10.135l.042,4.079ZM25.359,9.386Z" transform="translate(0 0)"/><g transform="translate(26.746 14.601)"><path class="b" d="M66.1,115.226H59.123A2.531,2.531,0,0,1,56.6,112.7V95.923A2.531,2.531,0,0,1,59.123,93.4H66.1a2.531,2.531,0,0,1,2.523,2.523V112.7A2.558,2.558,0,0,1,66.1,115.226Zm-6.981-20.69a1.4,1.4,0,0,0-1.388,1.388V112.7a1.4,1.4,0,0,0,1.388,1.388H66.1a1.4,1.4,0,0,0,1.388-1.388V95.923A1.4,1.4,0,0,0,66.1,94.535Z" transform="translate(-54.329 -67.159)"/><path class="c" d="M62.723,87.1H56.246A5.061,5.061,0,0,1,51.2,82.053v-27.8a5.072,5.072,0,0,1,4.962-5.046V35.584a2.462,2.462,0,0,1-1.388-.715,2.38,2.38,0,0,1-.589-1.766A2.339,2.339,0,0,1,56.541,31h5.972a2.178,2.178,0,0,1,1.682.757,2.38,2.38,0,0,1,.589,1.766,2.321,2.321,0,0,1-1.977,2.061V49.209a5.072,5.072,0,0,1,4.962,5.046v27.8A5.061,5.061,0,0,1,62.723,87.1ZM56.246,50.345a3.931,3.931,0,0,0-3.911,3.911v27.8a3.931,3.931,0,0,0,3.911,3.911h6.476a3.931,3.931,0,0,0,3.911-3.911v-27.8a3.931,3.931,0,0,0-3.911-3.911H61.671V34.49h.757a1.2,1.2,0,0,0,1.22-1.051,1.136,1.136,0,0,0-.294-.883,1.059,1.059,0,0,0-.841-.378H56.541a1.2,1.2,0,0,0-1.22,1.051,1.136,1.136,0,0,0,.294.883,1.059,1.059,0,0,0,.841.378H57.3V50.345Z" transform="translate(-51.2 -31)"/></g><g transform="translate(47.058 24.294)"><path class="c" d="M103.631,75.743a1.228,1.228,0,0,1-1.22-1.093l-.126-1.009a1.252,1.252,0,0,1,.252-.925,1.309,1.309,0,0,1,.8-.463l14.172-1.766a1.233,1.233,0,0,1,1.388,1.051l.126,1.009a1.233,1.233,0,0,1-1.051,1.388L103.8,75.743Zm14.046-4.079h0L103.463,73.43a.09.09,0,0,0-.084.084l.126,1.009a.09.09,0,0,0,.084.084l14.172-1.766a.09.09,0,0,0,.084-.084l-.126-1.009C117.761,71.664,117.719,71.664,117.677,71.664Z" transform="translate(-101.108 -63.568)"/><path class="c" d="M109.032,74.289a1.228,1.228,0,0,1-1.22-1.093l-.126-1.009a1.233,1.233,0,0,1,1.051-1.388l18.63-2.313a1.252,1.252,0,0,1,.925.252,1.309,1.309,0,0,1,.463.8l.126,1.009a1.233,1.233,0,0,1-1.051,1.388L109.2,74.247A.318.318,0,0,1,109.032,74.289Zm18.461-4.626h0l-18.63,2.313a.09.09,0,0,0-.084.084l.126,1.009a.09.09,0,0,0,.084.084l18.63-2.313a.09.09,0,0,0,.084-.084l-.126-1.009A.09.09,0,0,0,127.494,69.663Zm.21,1.766Z" transform="translate(-104.238 -62.408)"/><path class="b" d="M105.74,61.976a.309.309,0,0,1-.252-.084.566.566,0,0,1-.252-.757,2.221,2.221,0,0,0-.336-2.481,4.859,4.859,0,0,1-.547-4.205.572.572,0,1,1,1.093.336,3.6,3.6,0,0,0,.421,3.238,3.281,3.281,0,0,1,.378,3.659A.583.583,0,0,1,105.74,61.976Z" transform="translate(-102.165 -54.049)"/><path class="b" d="M101.14,62.576a.309.309,0,0,1-.252-.084.566.566,0,0,1-.252-.757,2.221,2.221,0,0,0-.336-2.481,4.859,4.859,0,0,1-.547-4.205.572.572,0,0,1,1.093.336,3.6,3.6,0,0,0,.421,3.238,3.281,3.281,0,0,1,.378,3.659A.712.712,0,0,1,101.14,62.576Z" transform="translate(-99.5 -54.396)"/></g><g transform="translate(47.489 45.605)"><path class="c" d="M114.9,122.713a1.367,1.367,0,0,1-1.009-.421l-7.233-7.233a1.447,1.447,0,0,1,0-2.019L106.7,113a.236.236,0,0,0,0-.378l-3.322-3.322a.236.236,0,0,0-.378,0l-.042.042a1.427,1.427,0,0,1-2.019-2.019l2.187-2.187a1.427,1.427,0,0,1,2.019,2.019.236.236,0,0,0,0,.378l3.322,3.322a.236.236,0,0,0,.378,0,1.447,1.447,0,0,1,2.019,0l7.233,7.233a1.447,1.447,0,0,1,0,2.019l-2.187,2.187A1.552,1.552,0,0,1,114.9,122.713Zm-11.691-14.635a1.367,1.367,0,0,1,1.009.421l3.322,3.322a1.469,1.469,0,0,1,.421,1.009,1.552,1.552,0,0,1-.421,1.009l-.042.042a.236.236,0,0,0,0,.378l7.233,7.233a.236.236,0,0,0,.378,0l2.187-2.187a.236.236,0,0,0,0-.378l-7.233-7.233a.236.236,0,0,0-.378,0,1.447,1.447,0,0,1-2.019,0l-3.322-3.322a1.447,1.447,0,0,1,0-2.019.268.268,0,0,0-.378-.378l-2.187,2.187a.268.268,0,1,0,.378.378l.042-.042A1.552,1.552,0,0,1,103.206,108.079Z" transform="translate(-100.525 -104.725)"/><path class="b" d="M128.3,134.1a.6.6,0,0,1-.421-.168.585.585,0,0,1,0-.8l1.051-1.051a.565.565,0,1,1,.8.8l-1.051,1.051A.626.626,0,0,1,128.3,134.1Z" transform="translate(-116.287 -120.487)"/><path class="c" d="M143.749,148.6a.6.6,0,0,1-.421-.168l-5.845-5.845a.565.565,0,0,1,.8-.8l5.845,5.845a.585.585,0,0,1,0,.8A.626.626,0,0,1,143.749,148.6Z" transform="translate(-121.849 -126.107)"/></g></g></g></svg>