<svg xmlns="http://www.w3.org/2000/svg" width="83" height="83" viewBox="0 0 83 83"><defs><style>.a{fill:#fff;}.b,.c{fill:none;stroke-linecap:round;stroke-miterlimit:10;stroke-width:1.5px;}.b{stroke:#bb3c4f;}.c{stroke:#1f2639;}</style></defs><g transform="translate(-846 -3731)"><rect class="a" width="83" height="83" transform="translate(846 3731)"/><g transform="translate(838.575 3736.3)"><path class="b" d="M40.205,8.213H35.736a.553.553,0,0,1-.543-.543V3.243A.553.553,0,0,0,34.65,2.7H30.556a.553.553,0,0,0-.543.543V7.67a.553.553,0,0,1-.543.543H25.043a.553.553,0,0,0-.543.543V12.85a.553.553,0,0,0,.543.543H29.47a.553.553,0,0,1,.543.543v4.427a.553.553,0,0,0,.543.543H34.65a.553.553,0,0,0,.543-.543V13.936a.553.553,0,0,1,.543-.543h4.427a.553.553,0,0,0,.543-.543V8.756A.493.493,0,0,0,40.205,8.213Z" transform="translate(0)"/><g transform="translate(44.257 11.957)"><circle class="c" cx="3.383" cy="3.383" r="3.383" transform="translate(1.295 17.851)"/><path class="c" d="M77.772,89.9c-4.845,6.474-4.887,12.614-.752,18.5a1.55,1.55,0,0,0,2.8-.627l.5-2.8a1.528,1.528,0,0,1,.961-1.17l19.506-7.435" transform="translate(-73.094 -62.735)"/><path class="c" d="M83.471,45.033,80.8,37.681a2.573,2.573,0,0,1,1.5-3.258l6.056-2.256a2.55,2.55,0,0,1,3.3,1.5l6.683,18a2.549,2.549,0,0,1-1.378,3.216l-5.472,2.423a2.543,2.543,0,0,1-3.383-1.378l-1.5-3.592" transform="translate(-76.955 -29.02)"/><path class="c" d="M71.8,157.82a5.617,5.617,0,0,1,4.845-4.72H97.154c2.214,1,3.759,2.464,4.219,4.72" transform="translate(-71.8 -99.537)"/><path class="c" d="M90.426,136.929l1.128-3.885A1.429,1.429,0,0,1,92.932,132h4.511a1.482,1.482,0,0,1,1.378,1l1.211,3.885a1.457,1.457,0,0,1-1.378,1.88H91.8A1.442,1.442,0,0,1,90.426,136.929Z" transform="translate(-82.615 -87.25)"/><path class="c" d="M117.818,130.136l-.668-2.088a.893.893,0,0,1,.543-1.086l3.676-1.42a.834.834,0,0,0,.5-1.086h0a.848.848,0,0,1,.459-1.086l1.838-.794a.9.9,0,0,0,.5-1v-.084a.86.86,0,0,0-1.17-.585l-6.015,2.464" transform="translate(-98.187 -80.749)"/><path class="c" d="M107.2,92.591l1.086.752a1.625,1.625,0,0,0,1.629.167l3.091-1.337a1.643,1.643,0,0,0,1-1.545V89.5" transform="translate(-92.414 -62.502)"/><line class="c" y1="0.71" x2="1.671" transform="translate(18.963 31.76)"/><path class="c" d="M81.237,28.763,81.2,27.8a1.408,1.408,0,0,1,.919-1.42l3.717-1.42a1.424,1.424,0,0,1,1.545.334l.71.71" transform="translate(-77.269 -24.862)"/></g></g></g></svg>