<svg xmlns="http://www.w3.org/2000/svg" width="83" height="83" viewBox="0 0 83 83"><defs><style>.a{fill:none;}.b{fill:#1f2639;}.c{fill:#bb3c4f;}</style></defs><g transform="translate(-846 -3997)"><g transform="translate(846 3997)"><rect class="a" width="83" height="83"/></g><g transform="translate(854.096 4001.6)"><g transform="translate(2.897 7.4)"><g transform="translate(16.983)"><path class="b" d="M60.809,32.219A12.409,12.409,0,1,1,72.643,16.083a.547.547,0,1,1-1.037.346,11.28,11.28,0,1,0-4.879,13.024.56.56,0,0,1,.576.96A12.916,12.916,0,0,1,60.809,32.219Z" transform="translate(-48.4 -7.4)"/></g><path class="b" d="M34.7,77.842A145.931,145.931,0,0,1,5.349,74.73,1.442,1.442,0,0,1,4.2,73.27a20.7,20.7,0,0,1,8.068-15.982c7.146-5.648,18.557-7.991,29.122-5.917l.461.115c.807.346,3.266,1.114,4,.192.538-.692.96-3.381-6.647-13.754-4.188-5.686-5.494-9.029-4.149-10.45,1.652-1.767,6.3.576,7.953,1.614,6.685,4.226,22.591,19.824,23.013,30.851a8.908,8.908,0,0,1-3.688,7.876.375.375,0,0,0-.154.346,45.7,45.7,0,0,1,.807,5.148,1.452,1.452,0,0,1-1.114,1.5h0A118.2,118.2,0,0,1,34.7,77.842ZM33.626,51.755c-7.838,0-15.445,2.305-20.67,6.454A19.684,19.684,0,0,0,5.311,73.347a.369.369,0,0,0,.269.346C25.6,77.8,44.46,77.8,61.6,73.731h0a.369.369,0,0,0,.269-.346,42.311,42.311,0,0,0-.768-4.995,1.467,1.467,0,0,1,.576-1.46,7.821,7.821,0,0,0,3.266-6.915C64.553,49.527,48.8,34.082,42.462,30.048c-2.42-1.537-5.724-2.651-6.531-1.806-.307.346-.96,2,4.226,9.067,6.032,8.183,8.183,13.139,6.608,15.1-1.345,1.69-4.687.423-5.263.154l-.307-.077A38.858,38.858,0,0,0,33.626,51.755Z" transform="translate(-4.195 -19.368)"/></g><path class="b" d="M38.1,21.989a.617.617,0,0,1-.423-.192,13.563,13.563,0,0,0-1.959-1.806.549.549,0,0,1,.653-.884,13.83,13.83,0,0,1,2.151,1.921.513.513,0,0,1-.038.768A.611.611,0,0,1,38.1,21.989Z" transform="translate(-20.568 -7.136)"/><path class="b" d="M2.63,18.632a.445.445,0,0,1-.384-.154.544.544,0,0,1,0-.768c2.8-2.8,5.955-5.148,10.066-3.765a.547.547,0,0,1-.346,1.037c-3.342-1.153-5.993.576-8.952,3.458A.611.611,0,0,1,2.63,18.632Z" transform="translate(0 -3.778)"/><path class="b" d="M22.038,29.487a.538.538,0,0,1,0-1.076,2.533,2.533,0,0,0,2.536-2.536,2.068,2.068,0,0,0-.154-.845.547.547,0,0,1,1.037-.346,3.225,3.225,0,0,1,.192,1.191A3.607,3.607,0,0,1,22.038,29.487Z" transform="translate(-11.955 -10.407)"/><path class="b" d="M14.03,24.048a.578.578,0,0,1-.538-.384A3.569,3.569,0,0,1,13.3,22.55a3.648,3.648,0,0,1,3.65-3.65,4.707,4.707,0,0,1,.73.077.55.55,0,0,1-.231,1.076,2.191,2.191,0,0,0-.5-.038,2.533,2.533,0,0,0-2.536,2.536,2.477,2.477,0,0,0,.115.768.56.56,0,0,1-.346.692C14.145,24.048,14.107,24.048,14.03,24.048Z" transform="translate(-6.905 -7.082)"/><g transform="translate(4.68 8.836)"><path class="c" d="M9.4,23.686a.558.558,0,0,1-.423-.922l10.3-11.449a.544.544,0,0,1,.807.73L9.783,23.532A.445.445,0,0,1,9.4,23.686Z" transform="translate(-8.837 -11.137)"/></g></g></g></svg>