<svg xmlns="http://www.w3.org/2000/svg" width="83" height="83" viewBox="0 0 83 83"><defs><style>.a,.c{fill:none;}.b{fill:#bb3c4f;}.c{stroke:#bb3c4f;stroke-linecap:round;stroke-miterlimit:10;stroke-width:1.5px;}.d{fill:#1f2639;}</style></defs><g transform="translate(-54 -3864)"><g transform="translate(54 3864)"><rect class="a" width="83" height="83"/></g><g transform="translate(58.193 3870.2)"><g transform="translate(14.895 24.186)"><path class="b" d="M37.85,68.7a4.35,4.35,0,1,1,4.35-4.35A4.355,4.355,0,0,1,37.85,68.7Zm0-7.6a3.253,3.253,0,1,0,3.212,3.253A3.228,3.228,0,0,0,37.85,61.1Z" transform="translate(-31.63 -58.13)"/><g transform="translate(5.855 10.083)"><line class="c" y1="1.626" transform="translate(0.366)"/><circle class="c" cx="0.366" cy="0.366" r="0.366" transform="translate(0 1.626)"/></g><g transform="translate(1.544 8.945)"><line class="c" y1="1.138" x2="1.138" transform="translate(0.773)"/><circle class="c" cx="0.366" cy="0.366" r="0.366" transform="translate(0 1.388) rotate(-45)"/></g><g transform="translate(0 5.855)"><line class="c" x2="1.586" transform="translate(0.732 0.366)"/><circle class="c" cx="0.366" cy="0.366" r="0.366"/></g><g transform="translate(1.561 1.555)"><line class="c" x2="1.138" y2="1.138" transform="translate(0.757 0.763)"/><circle class="c" cx="0.366" cy="0.366" r="0.366" transform="translate(0 0.517) rotate(-45)"/></g><g transform="translate(5.855)"><line class="c" y2="1.586" transform="translate(0.366 0.732)"/><circle class="c" cx="0.366" cy="0.366" r="0.366"/></g><g transform="translate(8.945 1.543)"><line class="c" x1="1.138" y2="1.138" transform="translate(0 0.775)"/><circle class="c" cx="0.366" cy="0.366" r="0.366" transform="translate(0.905 0.517) rotate(-45)"/></g><g transform="translate(10.083 5.855)"><line class="c" x1="1.626" transform="translate(0 0.366)"/><circle class="c" cx="0.366" cy="0.366" r="0.366" transform="translate(1.626)"/></g><g transform="translate(8.945 8.945)"><line class="c" x1="1.138" y1="1.138"/><circle class="c" cx="0.366" cy="0.366" r="0.366" transform="translate(0.889 1.376) rotate(-45)"/></g><path class="b" d="M42.835,63.97a.946.946,0,0,1-.935-.935.935.935,0,1,1,1.87,0A.974.974,0,0,1,42.835,63.97Zm0-1.1a.2.2,0,1,0,.2.2A.218.218,0,0,0,42.835,62.872Z" transform="translate(-36.615 -59.376)"/><path class="b" d="M38.135,67.37a.946.946,0,0,1-.935-.935.935.935,0,1,1,1.87,0A.946.946,0,0,1,38.135,67.37Zm0-1.1a.2.2,0,1,0,.2.2A.218.218,0,0,0,38.135,66.272Z" transform="translate(-33.825 -61.394)"/><path class="b" d="M38.235,72.97a.935.935,0,0,1,0-1.87.935.935,0,1,1,0,1.87Zm0-1.1a.2.2,0,1,0,.2.2A.192.192,0,0,0,38.235,71.872Z" transform="translate(-33.885 -64.717)"/><path class="b" d="M42.835,75.87a.946.946,0,0,1-.935-.935.935.935,0,1,1,1.87,0A.946.946,0,0,1,42.835,75.87Zm0-1.1a.2.2,0,1,0,.2.2A.218.218,0,0,0,42.835,74.772Z" transform="translate(-36.615 -66.438)"/><path class="b" d="M47.635,73.57a.935.935,0,1,1,.935-.935A.946.946,0,0,1,47.635,73.57Zm0-1.1a.2.2,0,1,0,.2.2A.218.218,0,0,0,47.635,72.472Z" transform="translate(-39.463 -65.073)"/><path class="b" d="M43.535,69.27a.935.935,0,0,1,0-1.87.935.935,0,1,1,0,1.87Zm0-1.1a.2.2,0,1,0,.2.2A.218.218,0,0,0,43.535,68.172Z" transform="translate(-37.03 -62.521)"/><path class="b" d="M48.635,69.07a.935.935,0,1,1,.935-.935A.946.946,0,0,1,48.635,69.07Zm0-1.1a.192.192,0,0,0-.2.2c0,.122.081.163.2.163a.192.192,0,0,0,.2-.2C48.838,68.013,48.716,67.972,48.635,67.972Z" transform="translate(-40.056 -62.402)"/></g><path class="b" d="M15.83,19.795H11.805a1.093,1.093,0,0,1-1.1-1.1v-4.31H6.4a1.093,1.093,0,0,1-1.1-1.1V9.265a1.093,1.093,0,0,1,1.1-1.1h4.35V3.9a1.093,1.093,0,0,1,1.1-1.1h4.025a1.093,1.093,0,0,1,1.1,1.1v4.35l4.31-.041a1.093,1.093,0,0,1,1.1,1.1V13.33a1.093,1.093,0,0,1-1.1,1.1H16.887l.041,4.31A1.085,1.085,0,0,1,15.83,19.795ZM10.748,13.29a1.093,1.093,0,0,1,1.1,1.1v4.35L15.83,18.7l-.041-4.31a1.093,1.093,0,0,1,1.1-1.1h4.35L21.2,9.346h-4.31a1.093,1.093,0,0,1-1.1-1.1V3.9l-3.984.041.041,4.31a1.093,1.093,0,0,1-1.1,1.1H6.4l.041,3.984Zm10.49-3.984Z"/><path class="d" d="M76.1,48.137A.569.569,0,1,1,76.1,47a8.721,8.721,0,1,0-8.7-8.66,6.891,6.891,0,0,0,.041.935.552.552,0,0,1-.488.61.576.576,0,0,1-.61-.488,9.191,9.191,0,0,1-.041-1.057,9.839,9.839,0,1,1,9.8,9.8Z" transform="translate(-36.199 -15.251)"/><path class="d" d="M65.783,113.988a101.132,101.132,0,0,1-15.247-1.1,2.584,2.584,0,0,1-1.748-1.138,2.747,2.747,0,0,1-.366-2.114,23.9,23.9,0,0,0,.569-7.237,1.615,1.615,0,0,0-.569-1.057,1.488,1.488,0,0,0-1.22-.325,30.881,30.881,0,0,1-12.319-.935.567.567,0,1,1,.285-1.1,29.421,29.421,0,0,0,11.872.894,2.83,2.83,0,0,1,2.114.529,2.5,2.5,0,0,1,.976,1.83,23.542,23.542,0,0,1-.61,7.562,1.432,1.432,0,0,0,.2,1.22,1.544,1.544,0,0,0,1.016.651c6.79,1.138,20.329,1.748,28.013-.081a1.515,1.515,0,0,0,1.179-1.382,31.893,31.893,0,0,0-8.985-25.33c-.041-.041-5.692-4.879-11.872-4.391A12.268,12.268,0,0,0,51.024,85c-7.644,8.9-19.15,9.473-22.524,9.432h-.244c-.691,0-1.016,0-1.138.244a1.349,1.349,0,0,0,0,.894.566.566,0,0,1-1.057.407,2.263,2.263,0,0,1,.041-1.789,2.142,2.142,0,0,1,2.155-.854H28.5c3.212.041,14.352-.488,21.67-9.026a12.829,12.829,0,0,1,8.782-4.757c6.627-.488,12.4,4.472,12.644,4.676a32.751,32.751,0,0,1,9.392,26.265,2.683,2.683,0,0,1-2.033,2.358A64.636,64.636,0,0,1,65.783,113.988Z" transform="translate(-12.223 -45.526)"/><path class="d" d="M26.171,138.427a.556.556,0,0,1-.569-.569V125.132a1.441,1.441,0,0,1,1.423-1.423h1.586a1.441,1.441,0,0,1,1.423,1.423.278.278,0,0,0,.285.285h.447a.278.278,0,0,0,.285-.285v-.894c0-1.667-1.789-2.439-3.456-2.439s-3.456.772-3.456,2.439v13.62a.569.569,0,1,1-1.138,0v-13.62c0-2.439,2.358-3.537,4.594-3.537s4.594,1.1,4.594,3.537v.894a1.441,1.441,0,0,1-1.423,1.423h-.447a1.441,1.441,0,0,1-1.423-1.423.278.278,0,0,0-.285-.285H27.025a.278.278,0,0,0-.285.285v12.726A.611.611,0,0,1,26.171,138.427Z" transform="translate(-10.504 -69.965)"/><path class="b" d="M71.252,64.859h-.2c-4.472-.772-6.749-3.131-6.749-7.074a1.194,1.194,0,0,1,.732-1.1c2.968-1.342,5.285-1.911,7.156-1.667a1.223,1.223,0,0,1,1.057,1.342A7.189,7.189,0,0,0,74.3,61.078a.978.978,0,0,1,.163.651c-.041,1.423-.976,2.439-2.765,3.049A1.039,1.039,0,0,1,71.252,64.859Zm0-8.782A14.41,14.41,0,0,0,65.479,57.7a.087.087,0,0,0-.081.081h0c0,3.334,1.911,5.285,5.814,5.977h.081c1.789-.61,1.992-1.464,2.033-2.033l-.041-.041a8.527,8.527,0,0,1-1.22-5.407c0-.041-.041-.122-.081-.122A2.251,2.251,0,0,0,71.252,56.077Zm-6.424,1.708Z" transform="translate(-35.012 -30.956)"/><path class="b" d="M85.305,57.405a.462.462,0,0,1-.325-.122.532.532,0,0,1-.081-.772l5.407-6.993a.534.534,0,0,0,.122-.407c-.081-.529-.285-.569-.366-.61a.5.5,0,0,0-.407.081l-5.2,3.131a.565.565,0,1,1-.569-.976l5.2-3.09a1.618,1.618,0,0,1,1.22-.2,1.693,1.693,0,0,1,1.26,1.586,1.731,1.731,0,0,1-.366,1.22L85.753,57.2A.653.653,0,0,1,85.305,57.405Z" transform="translate(-46.463 -26.471)"/></g></g></svg>