<svg xmlns="http://www.w3.org/2000/svg" width="83" height="83" viewBox="0 0 83 83"><defs><style>.a{fill:#fff;}.b{fill:#bb3c4f;}.c{fill:#1f2639;}</style></defs><g transform="translate(-74 -4563)"><rect class="a" width="83" height="83" transform="translate(74 4563)"/><g transform="translate(80.097 4570.2)"><path class="b" d="M15.43,19.149H11.558A1.052,1.052,0,0,1,10.5,18.093V13.947H6.356A1.052,1.052,0,0,1,5.3,12.891V9.019A1.052,1.052,0,0,1,6.356,7.963h4.185V3.856A1.052,1.052,0,0,1,11.6,2.8h3.872a1.052,1.052,0,0,1,1.056,1.056V8.041L20.671,8a1.052,1.052,0,0,1,1.056,1.056V12.93a1.052,1.052,0,0,1-1.056,1.056H16.447l.039,4.146A1.044,1.044,0,0,1,15.43,19.149Zm-4.889-6.258A1.052,1.052,0,0,1,11.6,13.947v4.185l3.833-.039-.039-4.146a1.052,1.052,0,0,1,1.056-1.056h4.185L20.593,9.1H16.447a1.052,1.052,0,0,1-1.056-1.056V3.856L11.558,3.9,11.6,8.041A1.052,1.052,0,0,1,10.541,9.1H6.356L6.4,12.93ZM20.632,9.058Z"/><path class="c" d="M75.665,47.33a9.465,9.465,0,1,1,9.465-9.465A9.473,9.473,0,0,1,75.665,47.33Zm0-17.835A8.39,8.39,0,1,0,84.113,37.9,8.388,8.388,0,0,0,75.665,29.5Z" transform="translate(-37.182 -15.625)"/><path class="c" d="M64.137,112.677a96.64,96.64,0,0,1-14.618-1.056,2.477,2.477,0,0,1-1.676-1.1,2.65,2.65,0,0,1-.351-2.034,23.07,23.07,0,0,0,.546-6.962,1.555,1.555,0,0,0-.546-1.017,1.424,1.424,0,0,0-1.169-.313,29.51,29.51,0,0,1-11.811-.9.545.545,0,0,1,.273-1.056,28.116,28.116,0,0,0,11.382.86,2.706,2.706,0,0,1,2.027.508,2.407,2.407,0,0,1,.936,1.76,22.722,22.722,0,0,1-.585,7.275,1.381,1.381,0,0,0,.195,1.173,1.48,1.48,0,0,0,.975.626c6.51,1.1,19.49,1.682,26.857-.078a1.456,1.456,0,0,0,1.13-1.33,30.732,30.732,0,0,0-8.615-24.367c-.039-.039-5.457-4.693-11.382-4.224a11.752,11.752,0,0,0-7.718,4.341c-7.328,8.566-18.36,9.113-21.595,9.074h-.234c-.663,0-.974,0-1.091.235a1.3,1.3,0,0,0,0,.86.543.543,0,1,1-1.013.391,2.184,2.184,0,0,1,.039-1.721c.468-.86,1.4-.821,2.066-.821h.234c3.079.039,13.76-.469,20.776-8.683a12.288,12.288,0,0,1,8.42-4.576c6.354-.469,11.889,4.3,12.123,4.5a31.557,31.557,0,0,1,9,25.266,2.579,2.579,0,0,1-1.949,2.269A61.766,61.766,0,0,1,64.137,112.677Z" transform="translate(-12.541 -46.877)"/><path class="c" d="M26.051,137.753a.535.535,0,0,1-.548-.548V124.963a1.386,1.386,0,0,1,1.369-1.369H28.4a1.386,1.386,0,0,1,1.369,1.369.267.267,0,0,0,.274.274h.43a.267.267,0,0,0,.274-.274v-.86c0-1.6-1.721-2.347-3.325-2.347S24.1,122.5,24.1,124.1v13.1a.548.548,0,0,1-1.1,0V124.1c0-2.347,2.269-3.4,4.42-3.4s4.42,1.056,4.42,3.4v.86a1.386,1.386,0,0,1-1.369,1.369h-.43a1.386,1.386,0,0,1-1.369-1.369.267.267,0,0,0-.274-.274H26.872a.267.267,0,0,0-.274.274v12.242A.588.588,0,0,1,26.051,137.753Z" transform="translate(-10.777 -71.953)"/></g></g></svg>