<svg xmlns="http://www.w3.org/2000/svg" width="83" height="83" viewBox="0 0 83 83"><defs><style>.a{fill:none;}.b{fill:#bb3c4f;}.c{fill:#1f2639;}</style></defs><g transform="translate(-450 -3864)"><g transform="translate(450 3864)"><rect class="a" width="83" height="83"/></g><g transform="translate(443.285 3868.52)"><path class="b" d="M32.877,20.667H28.848a1.111,1.111,0,0,1-1.091-1.091V15.168l-4.365.042A1.111,1.111,0,0,1,22.3,14.119V10.09A1.111,1.111,0,0,1,23.391,9H27.8l-.042-4.407A1.111,1.111,0,0,1,28.848,3.5h4.029a1.111,1.111,0,0,1,1.091,1.091V9l4.365-.042a1.111,1.111,0,0,1,1.091,1.091v4.029a1.111,1.111,0,0,1-1.091,1.091H33.968l.042,4.365A1.156,1.156,0,0,1,32.877,20.667Zm-5.121-6.59a1.111,1.111,0,0,1,1.091,1.091v4.407l4.029-.042-.042-4.365a1.111,1.111,0,0,1,1.091-1.091h4.407l-.042-3.987H33.968A1.111,1.111,0,0,1,32.877,9V4.591l-4.029.042L28.89,9A1.111,1.111,0,0,1,27.8,10.09H23.391l.042,4.029ZM38.333,10.09Z" transform="translate(0 -0.012)"/><path class="c" d="M89.2,34.758a5.079,5.079,0,0,1-.8-.042,3.3,3.3,0,0,1-2.518-1.889c-2.854.923-4.407-.168-5.079-.965-1.637-1.847-1.637-5.2,0-8.143,5.456-8.562,11-14.942,17.335-20.1a.567.567,0,0,1,.714.881c-6.3,5.079-11.71,11.374-17.125,19.769-1.343,2.476-1.427,5.372-.126,6.841.923,1.049,2.476,1.217,4.365.462l.588-.252.168.63a2.1,2.1,0,0,0,1.847,1.637,4.475,4.475,0,0,0,3.778-1.217,3.561,3.561,0,0,0,.756-2.812,2.328,2.328,0,0,0-1.427-1.385c-.923-.42-1.8-.839-2.057-1.721-.252-.839.084-1.889,1.091-3.442,3.274-4.911,9.905-11.458,15.32-16.621a.564.564,0,0,1,.8.8c-5.372,5.121-11.92,11.626-15.152,16.411-.756,1.175-1.091,2.015-.965,2.476.126.378.588.672,1.427,1.007a3.28,3.28,0,0,1,2.057,2.1,4.5,4.5,0,0,1-.881,3.778A5.285,5.285,0,0,1,89.2,34.758Z" transform="translate(-33.235)"/><path class="c" d="M89.076,114.565a.578.578,0,0,1-.546-.378c-.21-.588-5.289-14.69-6.254-19.727-.63-3.19-.252-5.666,1.049-7.429,1.175-1.595,3.148-2.56,5.876-2.854a1.907,1.907,0,0,0,.672-2.183c-.378-.756-1.595-.923-3.19-.42-.546.21-1.091.42-1.553.63-1.469.63-2.644,1.091-3.316.294-1.259-1.553-2.35-2.35-3.232-2.35h-.042a2.317,2.317,0,0,0-1.721,1.175,10.37,10.37,0,0,0,.042,8.982l.042.084,6.925,23.463a.571.571,0,1,1-1.091.336L75.855,90.766a11.534,11.534,0,0,1,0-9.905l.042-.084A3.391,3.391,0,0,1,78.541,79.1c1.259-.042,2.6.839,4.155,2.728.168.21,1.3-.294,2.057-.588.5-.21,1.049-.42,1.637-.672,3.148-.965,4.2.336,4.533.965a3.14,3.14,0,0,1-1.049,3.694l-.126.084H89.58c-2.476.252-4.239,1.049-5.247,2.434-1.091,1.469-1.385,3.694-.839,6.548.965,4.953,6.17,19.391,6.212,19.559a.53.53,0,0,1-.336.714Z" transform="translate(-30.428 -43.879)"/><path class="b" d="M107.516,125a.542.542,0,0,1-.546-.378c-.042-.126-5.037-14.4-6.506-19.181-1.721-5.5.63-7.135,2.141-7.6,2.015-.5,3.568-.252,4.2.672a1.951,1.951,0,0,1-.294,2.392c-.881,1.259-1.469,2.267-.965,4.113,1.343,4.785,5.918,19.055,6,19.223a.571.571,0,0,1-1.091.336c-.042-.126-4.659-14.438-6-19.265a5.407,5.407,0,0,1,1.133-5.079c.21-.294.5-.8.252-1.091-.294-.42-1.3-.63-2.98-.252-1.973.63-2.476,2.728-1.385,6.212,1.469,4.785,6.464,18.971,6.506,19.139a.561.561,0,0,1-.336.714C107.642,125,107.6,125,107.516,125Z" transform="translate(-45.007 -54.611)"/><path class="b" d="M71.019,73.114a.532.532,0,0,1-.252-.042,1.161,1.161,0,0,1-.881-1.049,11.165,11.165,0,0,1,.336-3.484,1.109,1.109,0,0,1,2.141-.042,3.26,3.26,0,0,0,.672,1.259,1.058,1.058,0,0,1,.252.839,1.2,1.2,0,0,1-.462.8,2.726,2.726,0,0,0-.839,1.049A1,1,0,0,1,71.019,73.114Zm.336-4.281a10.437,10.437,0,0,0-.294,3.148,3.867,3.867,0,0,1,1.175-1.469,4.906,4.906,0,0,1-.881-1.679Z" transform="translate(-27.607 -37.265)"/></g></g></svg>