<svg xmlns="http://www.w3.org/2000/svg" width="83" height="83" viewBox="0 0 83 83"><defs><style>.a{fill:#fff;}.b{fill:#1f2639;}.c{fill:#bb3c4f;}.d{fill:none;stroke:#1f2639;stroke-linecap:round;stroke-miterlimit:10;stroke-width:1.5px;}</style></defs><g transform="translate(-846 -4422)"><rect class="a" width="83" height="83" transform="translate(846 4422)"/><g transform="translate(851.268 4428.263)"><g transform="translate(3.732 2.737)"><g transform="translate(0 8.92)"><path class="b" d="M9.357,77.2a1.115,1.115,0,0,1-.362-.04l-3.947-.846a1.715,1.715,0,0,1-1.289-1.973A1.626,1.626,0,0,1,4.484,73.3a1.687,1.687,0,0,1,1.248-.242.542.542,0,0,0,.644-.4l1.248-5.92a.542.542,0,0,0-.4-.644,1.626,1.626,0,0,1-1.047-.725,1.687,1.687,0,0,1-.242-1.248L8.673,51.148a1.715,1.715,0,0,1,1.973-1.289l3.947.846a1.715,1.715,0,0,1,1.289,1.973L13.1,65.646a1.715,1.715,0,0,1-1.973,1.289h-.081a.5.5,0,0,0-.4.081.626.626,0,0,0-.242.322L9.2,73.258a.542.542,0,0,0,.4.644h.081a1.715,1.715,0,0,1,1.289,1.973A1.674,1.674,0,0,1,9.357,77.2Zm-3.947-3.02a.582.582,0,0,0-.282.081.626.626,0,0,0-.242.322.542.542,0,0,0,.4.644l3.947.846a.537.537,0,1,0,.242-1.047H9.4a1.715,1.715,0,0,1-1.289-1.973l1.248-5.92a1.626,1.626,0,0,1,.725-1.047,1.687,1.687,0,0,1,1.248-.242h.081a.578.578,0,0,0,.644-.4l2.739-13.008a.5.5,0,0,0-.081-.4.626.626,0,0,0-.322-.242l-3.947-.846a.542.542,0,0,0-.644.4L7.062,64.358a.542.542,0,0,0,.4.644,1.715,1.715,0,0,1,1.289,1.973L7.464,72.9a1.626,1.626,0,0,1-.725,1.047,1.687,1.687,0,0,1-1.248.242Zm7.169-8.659Z" transform="translate(-3.732 -39.785)"/><path class="c" d="M20.907,67.721h-.121l-1.853-.4a.577.577,0,1,1,.242-1.128l1.853.4a.569.569,0,0,1-.121,1.128Z" transform="translate(-12.543 -49.552)"/><path class="b" d="M24.655,36.49h-.121a.591.591,0,0,1-.443-.685l2.215-10.471a.577.577,0,0,1,1.128.242L25.219,36.047A.56.56,0,0,1,24.655,36.49Z" transform="translate(-15.888 -24.885)"/></g><g transform="translate(13.546)"><path class="b" d="M66.335,42.909A13.955,13.955,0,1,1,80.269,28.935,13.939,13.939,0,0,1,66.335,42.909Zm0-26.782A12.827,12.827,0,1,0,79.182,28.935,12.856,12.856,0,0,0,66.335,16.128Z" transform="translate(-46.346 -10.061)"/><path class="b" d="M79.586,100.384a.551.551,0,0,1-.564-.564c0-2.3-5.155-4.793-12.847-4.793s-12.847,2.5-12.847,4.793a.564.564,0,1,1-1.128,0c0-3.3,6.122-5.92,13.935-5.92s13.935,2.618,13.935,5.92A.453.453,0,0,1,79.586,100.384Z" transform="translate(-46.227 -57.186)"/><path class="b" d="M41.449,129.077a.573.573,0,0,1-.524-.362c-.242-.725-.524-1.45-.765-2.175-2.094-5.96-3.866-11.115-2.014-17.8a4.206,4.206,0,0,1,1.812-3.383.817.817,0,0,1,1.087.282c4.188,6.484,16.834,11.2,32.259,11.961a2,2,0,0,1,1.329.644,1.874,1.874,0,0,1,.4,1.45l-1.208,8.941a.57.57,0,0,1-1.128-.161l1.208-8.941a.722.722,0,0,0-.161-.564.649.649,0,0,0-.524-.242c-15.827-.805-28.393-5.477-32.984-12.243a3.607,3.607,0,0,0-1.007,2.134l.04.161-.04.161c-1.812,6.444-.081,11.438,1.973,17.277.242.725.524,1.45.765,2.175a.587.587,0,0,1-.362.725A.242.242,0,0,0,41.449,129.077Z" transform="translate(-37.368 -63.97)"/><path class="b" d="M83.465,118.952a.242.242,0,0,1-.161-.04.56.56,0,0,1-.362-.685,16.454,16.454,0,0,0,.564-6l-.04-.443.4-.121c.2-.081.4-.564.322-1.128a1.1,1.1,0,0,0-.6-.967c-5.8,4.148-16.431,4.954-30.769,2.336a.553.553,0,1,1,.2-1.087c14.176,2.577,24.607,1.812,30.124-2.3l.161-.121h.2a2.01,2.01,0,0,1,1.812,1.973,2.291,2.291,0,0,1-.685,2.134,16.713,16.713,0,0,1-.6,6.041A.7.7,0,0,1,83.465,118.952Z" transform="translate(-46.32 -65.846)"/><path class="b" d="M73.41,128.648h0c-11.639-.685-21.546-4.309-29.52-10.753a.572.572,0,1,1,.725-.886c7.773,6.323,17.479,9.827,28.836,10.511a.53.53,0,0,1,.524.6A.6.6,0,0,1,73.41,128.648Z" transform="translate(-41.138 -70.911)"/><path class="d" d="M47.4,135.7" transform="translate(-43.36 -82.152)"/><path class="b" d="M69.716,146.052h0c-9.786-.362-17.68-2.779-23.439-7.169a.576.576,0,1,1,.685-.926c5.558,4.229,13.25,6.565,22.795,6.927a.517.517,0,0,1,.524.564A.613.613,0,0,1,69.716,146.052Z" transform="translate(-42.56 -83.442)"/><path class="c" d="M76.559,63.187a2.125,2.125,0,0,1-2.014-1.732,7.565,7.565,0,0,1-.081-3.423,2.315,2.315,0,0,1,1.087-1.611,1.952,1.952,0,0,1,1.571-.161,7.413,7.413,0,0,0,4.672.04,1.994,1.994,0,0,1,1.651.2,2.3,2.3,0,0,1,1.047,1.691,9.236,9.236,0,0,1-.04,2.98,2.323,2.323,0,0,1-.926,1.53,2.05,2.05,0,0,1-1.45.322,15.852,15.852,0,0,0-5.155.04A.537.537,0,0,1,76.559,63.187Zm-.081-5.88a.6.6,0,0,0-.4.121,1.284,1.284,0,0,0-.564.846,6.594,6.594,0,0,0,.081,2.94,1.06,1.06,0,0,0,1.087.886,16.126,16.126,0,0,1,5.558-.04.727.727,0,0,0,.6-.161,1.2,1.2,0,0,0,.483-.805,8.37,8.37,0,0,0,.04-2.658,1.276,1.276,0,0,0-.524-.926.773.773,0,0,0-.685-.081,8.408,8.408,0,0,1-5.356-.04h0A.609.609,0,0,0,76.478,57.307Z" transform="translate(-59.43 -34.648)"/><path class="c" d="M83.775,63.85a2.175,2.175,0,1,1,2.175-2.175A2.192,2.192,0,0,1,83.775,63.85Zm0-3.222a1.047,1.047,0,1,0,1.047,1.047A1.066,1.066,0,0,0,83.775,60.628Z" transform="translate(-63.786 -36.64)"/><path class="b" d="M96.764,122.226a.57.57,0,0,1-.564-.524.61.61,0,0,1,.524-.6c4.913-.242,8.538-1.208,11.478-3.02a.559.559,0,1,1,.564.967c-3.061,1.933-6.846,2.94-12,3.182Z" transform="translate(-72.507 -71.578)"/><path class="b" d="M85.041,9.971A.505.505,0,0,1,84.6,9.73c-.685-.967-1.168-1.772-.967-2.618a2.017,2.017,0,0,1,1.087-1.248c1.651-.926,2.014-1.369,2.014-1.571a.562.562,0,0,0-.121-.362,1.88,1.88,0,0,0-1.329.161.634.634,0,0,1-.765-.322.565.565,0,0,1,.322-.725A2.492,2.492,0,0,1,87.176,3a1.426,1.426,0,0,1,.644,1.248c.04,1.087-1.248,1.893-2.577,2.618a.92.92,0,0,0-.524.524c-.081.4.443,1.168.805,1.732a.564.564,0,0,1-.121.765A1.5,1.5,0,0,1,85.041,9.971Z" transform="translate(-64.972 -2.737)"/><path class="d" d="M99.1,4.5" transform="translate(-74.239 -3.79)"/></g><path class="b" d="M129.886,75.244A4.091,4.091,0,0,1,128.517,75a4.269,4.269,0,0,1-.524-7.853,4.171,4.171,0,0,1,3.262-.2,4.261,4.261,0,0,1,2.658,5.4h0a4.284,4.284,0,0,1-2.134,2.457A3.961,3.961,0,0,1,129.886,75.244Zm-.04-7.37a3.115,3.115,0,0,0-1.369.322,2.924,2.924,0,0,0-1.571,1.812A3.136,3.136,0,0,0,128.879,74a3.037,3.037,0,0,0,2.376-.161,2.924,2.924,0,0,0,1.571-1.812h0a3.136,3.136,0,0,0-1.973-3.987A2.781,2.781,0,0,0,129.846,67.874Zm3.5,4.309Z" transform="translate(-76.537 -40.946)"/><path class="b" d="M134.554,76.739a.242.242,0,0,1-.161-.04l-3.061-1.047a.587.587,0,0,1-.362-.725.555.555,0,0,1,.725-.362l3.061,1.047a.587.587,0,0,1,.362.725A.555.555,0,0,1,134.554,76.739Z" transform="translate(-79.714 -45.623)"/><path class="b" d="M146.488,93.617a4.23,4.23,0,1,1,3.1-1.329h0A4.272,4.272,0,0,1,146.488,93.617Zm0-7.37a3.028,3.028,0,0,0-2.3,1.007,3.135,3.135,0,0,0,4.591,4.269h0a3.142,3.142,0,0,0-2.3-5.276Z" transform="translate(-86.454 -51.949)"/><path class="b" d="M151.362,94.865a.577.577,0,0,1-.4-.161l-2.336-2.175a.57.57,0,0,1,.765-.846l2.336,2.175a.571.571,0,0,1,.04.805A.559.559,0,0,1,151.362,94.865Z" transform="translate(-90.159 -55.774)"/></g></g></g></svg>