<svg xmlns="http://www.w3.org/2000/svg" width="83" height="83" viewBox="0 0 83 83"><defs><style>.a,.c,.e{fill:none;}.b{fill:#bb3c4f;}.c{stroke:#bb3c4f;}.c,.e{stroke-linecap:round;stroke-miterlimit:10;stroke-width:1.5px;}.d{fill:#1f2639;}.e{stroke:#1f2639;}</style></defs><g transform="translate(-54 -4130)"><g transform="translate(54 4130)"><rect class="a" width="83" height="83"/></g><g transform="translate(53.9 4135.077)"><g transform="translate(11.1 1.923)"><g transform="translate(47.408 1.37)"><path class="b" d="M133.9,19.2a4.6,4.6,0,1,1,4.6-4.6A4.585,4.585,0,0,1,133.9,19.2Zm0-8.027a3.428,3.428,0,1,0,3.428,3.428A3.444,3.444,0,0,0,133.9,11.171Z" transform="translate(-127.293 -7.993)"/><g transform="translate(6.229 10.702)"><line class="c" y1="1.672" transform="translate(0.376)"/><circle class="c" cx="0.376" cy="0.376" r="0.376" transform="translate(0 1.714)"/></g><g transform="translate(1.673 9.49)"><line class="c" y1="1.212" x2="1.212" transform="translate(0.793)"/><circle class="c" cx="0.376" cy="0.376" r="0.376" transform="translate(0 1.46) rotate(-45)"/></g><g transform="translate(0 6.187)"><line class="c" x2="1.672" transform="translate(0.794 0.376)"/><circle class="c" cx="0.376" cy="0.376" r="0.376"/></g><g transform="translate(1.689 1.674)"><line class="c" x2="1.212" y2="1.212" transform="translate(0.777 0.793)"/><circle class="c" cx="0.376" cy="0.376" r="0.376" transform="translate(0 0.532) rotate(-45)"/></g><g transform="translate(6.229)"><line class="c" y2="1.672" transform="translate(0.376 0.794)"/><circle class="c" cx="0.376" cy="0.376" r="0.376"/></g><g transform="translate(9.49 1.69)"><line class="c" x1="1.212" y2="1.212" transform="translate(0 0.777)"/><circle class="c" cx="0.376" cy="0.376" r="0.376" transform="translate(0.944 0.532) rotate(-45)"/></g><g transform="translate(10.702 6.187)"><line class="c" x1="1.672" transform="translate(0 0.376)"/><circle class="c" cx="0.376" cy="0.376" r="0.376" transform="translate(1.714)"/></g><g transform="translate(9.49 9.49)"><line class="c" x1="1.212" y1="1.212"/><circle class="c" cx="0.376" cy="0.376" r="0.376" transform="translate(0.928 1.476) rotate(-45)"/></g><path class="b" d="M138.962,14.223a.962.962,0,1,1,.962-.962A.972.972,0,0,1,138.962,14.223Zm0-1.171a.209.209,0,1,0,.209.209A.224.224,0,0,0,138.962,13.053Z" transform="translate(-132.356 -9.332)"/><path class="b" d="M134.062,17.723a.962.962,0,1,1,.962-.962A.972.972,0,0,1,134.062,17.723Zm0-1.212a.209.209,0,1,0,.209.209A.224.224,0,0,0,134.062,16.511Z" transform="translate(-129.505 -11.369)"/><path class="b" d="M134.162,23.423a.962.962,0,1,1,.962-.962A.946.946,0,0,1,134.162,23.423Zm0-1.171a.209.209,0,1,0,.209.209A.2.2,0,0,0,134.162,22.253Z" transform="translate(-129.563 -14.686)"/><path class="b" d="M138.962,26.423a.962.962,0,1,1,.962-.962A.972.972,0,0,1,138.962,26.423Zm0-1.171a.209.209,0,1,0,.209.209C139.129,25.336,139.045,25.253,138.962,25.253Z" transform="translate(-132.356 -16.431)"/><path class="b" d="M143.862,24.123a.962.962,0,1,1,.962-.962A.946.946,0,0,1,143.862,24.123Zm0-1.171a.209.209,0,1,0,.209.209A.2.2,0,0,0,143.862,22.953Z" transform="translate(-135.208 -15.093)"/><path class="b" d="M139.662,19.723a.962.962,0,1,1,.962-.962A.972.972,0,0,1,139.662,19.723Zm0-1.212a.209.209,0,1,0,.209.209A.224.224,0,0,0,139.662,18.511Z" transform="translate(-132.764 -12.532)"/><path class="b" d="M144.862,19.423a.962.962,0,1,1,.962-.962A.946.946,0,0,1,144.862,19.423Zm0-1.171a.209.209,0,1,0,.209.209A.2.2,0,0,0,144.862,18.253Z" transform="translate(-135.79 -12.358)"/></g><g transform="translate(0 21.646)"><path class="b" d="M20.4,67.6A4.6,4.6,0,1,1,25,63,4.585,4.585,0,0,1,20.4,67.6Zm0-8.027A3.428,3.428,0,1,0,23.827,63,3.444,3.444,0,0,0,20.4,59.571Z" transform="translate(-13.835 -56.435)"/><g transform="translate(6.187 10.661)"><line class="c" y1="1.714" transform="translate(0.376)"/><circle class="c" cx="0.376" cy="0.376" r="0.376" transform="translate(0 1.714)"/></g><g transform="translate(1.692 9.448)"><line class="c" y1="1.212" x2="1.212" transform="translate(0.775)"/><circle class="c" cx="0.376" cy="0.376" r="0.376" transform="translate(0 1.49) rotate(-45)"/></g><g transform="translate(0 6.187)"><line class="c" x2="1.672" transform="translate(0.794 0.376)"/><circle class="c" cx="0.376" cy="0.376" r="0.376"/></g><g transform="translate(1.679 1.632)"><line class="c" x2="1.212" y2="1.171" transform="translate(0.788 0.834)"/><circle class="c" cx="0.376" cy="0.376" r="0.376" transform="translate(0 0.532) rotate(-45)"/></g><g transform="translate(6.187)"><line class="c" y2="1.714" transform="translate(0.376 0.753)"/><circle class="c" cx="0.376" cy="0.376" r="0.376"/></g><g transform="translate(9.49 1.648)"><line class="c" x1="1.212" y2="1.171" transform="translate(0 0.818)"/><circle class="c" cx="0.376" cy="0.376" r="0.376" transform="translate(0.933 0.532) rotate(-45)"/></g><g transform="translate(10.702 6.187)"><line class="c" x1="1.672" transform="translate(0 0.376)"/><circle class="c" cx="0.376" cy="0.376" r="0.376" transform="translate(1.714)"/></g><g transform="translate(9.49 9.448)"><line class="c" x1="1.212" y1="1.212" transform="translate(0)"/><circle class="c" cx="0.376" cy="0.376" r="0.376" transform="translate(0.946 1.506) rotate(-45)"/></g><path class="b" d="M25.462,62.623a.962.962,0,1,1,.962-.962A.922.922,0,0,1,25.462,62.623Zm0-1.171a.209.209,0,1,0,.209.209A.2.2,0,0,0,25.462,61.453Z" transform="translate(-18.898 -57.774)"/><path class="b" d="M20.662,66.123a.962.962,0,1,1,.962-.962A.972.972,0,0,1,20.662,66.123Zm0-1.171a.209.209,0,1,0,.209.209A.2.2,0,0,0,20.662,64.952Z" transform="translate(-16.105 -59.81)"/><path class="b" d="M20.762,71.923a.962.962,0,1,1,.962-.962A.946.946,0,0,1,20.762,71.923Zm0-1.171a.209.209,0,1,0,.209.209A.2.2,0,0,0,20.762,70.753Z" transform="translate(-16.163 -63.186)"/><path class="b" d="M25.462,74.923a.962.962,0,1,1,.962-.962A.946.946,0,0,1,25.462,74.923Zm0-1.171a.209.209,0,1,0,.209.209A.2.2,0,0,0,25.462,73.753Z" transform="translate(-18.898 -64.931)"/><path class="b" d="M30.462,72.523a.962.962,0,1,1,.962-.962A.946.946,0,0,1,30.462,72.523Zm0-1.171a.209.209,0,1,0,.209.209A.2.2,0,0,0,30.462,71.353Z" transform="translate(-21.808 -63.535)"/><path class="b" d="M26.162,68.123a.962.962,0,1,1,.962-.962A.946.946,0,0,1,26.162,68.123Zm0-1.171a.209.209,0,1,0,.209.209A.2.2,0,0,0,26.162,66.952Z" transform="translate(-19.305 -60.974)"/><path class="b" d="M31.462,67.823a.962.962,0,1,1,.962-.962A.946.946,0,0,1,31.462,67.823Zm0-1.171a.209.209,0,1,0,.209.209A.2.2,0,0,0,31.462,66.653Z" transform="translate(-22.39 -60.8)"/></g><g transform="translate(11.047)"><path class="d" d="M67.232,43.564A14.632,14.632,0,1,1,81.864,28.932,14.648,14.648,0,0,1,67.232,43.564Zm0-28.052A13.462,13.462,0,1,0,80.694,28.974,13.48,13.48,0,0,0,67.232,15.512Z" transform="translate(-46.297 -9.126)"/><path class="d" d="M81.179,100.773a.572.572,0,0,1-.585-.585c0-2.425-5.393-5.017-13.461-5.017-8.027,0-13.462,2.592-13.462,5.017a.585.585,0,0,1-1.171,0C52.5,96.717,58.938,94,67.132,94s14.632,2.717,14.632,6.187A.548.548,0,0,1,81.179,100.773Z" transform="translate(-46.239 -55.506)"/><path class="d" d="M41.778,130.376a.577.577,0,0,1-.543-.418c-.251-.794-.543-1.547-.794-2.3-2.174-6.229-4.055-11.622-2.09-18.645a4.447,4.447,0,0,1,1.881-3.553.9.9,0,0,1,1.171.293c4.39,6.814,17.642,11.706,33.779,12.542a1.944,1.944,0,0,1,1.8,2.216l-1.254,9.365a.591.591,0,1,1-1.171-.167l1.254-9.365a.749.749,0,0,0-.167-.585.874.874,0,0,0-.543-.293c-16.555-.836-29.766-5.727-34.573-12.834a3.744,3.744,0,0,0-1.045,2.216l.042.167-.042.167c-1.923,6.731-.084,12,2.048,18.1.251.752.543,1.505.794,2.3a.61.61,0,0,1-.376.753C41.9,130.334,41.862,130.376,41.778,130.376Z" transform="translate(-37.524 -62.117)"/><path class="d" d="M85.241,119.795a.251.251,0,0,1-.167-.042A.576.576,0,0,1,84.7,119a17.215,17.215,0,0,0,.585-6.271l-.042-.46.46-.125c.209-.084.418-.585.334-1.171a1.144,1.144,0,0,0-.627-1c-6.062,4.348-17.224,5.226-32.274,2.467a.542.542,0,0,1-.46-.669.592.592,0,0,1,.669-.46c14.883,2.717,25.794,1.881,31.563-2.383l.167-.125h.209a2.122,2.122,0,0,1,1.923,2.048,2.378,2.378,0,0,1-.711,2.216,16.336,16.336,0,0,1-.669,6.313A.673.673,0,0,1,85.241,119.795Z" transform="translate(-46.33 -64.119)"/><path class="d" d="M75.092,129.521h0c-12.166-.711-22.575-4.515-30.895-11.288a.594.594,0,0,1,.753-.92c8.152,6.605,18.311,10.326,30.226,10.995a.55.55,0,0,1,.543.627A.667.667,0,0,1,75.092,129.521Z" transform="translate(-41.281 -68.996)"/><path class="e" d="M47.6,136.2" transform="translate(-43.388 -80.064)"/><path class="d" d="M71.068,147.005h0c-10.284-.376-18.562-2.885-24.582-7.483a.6.6,0,0,1,.711-.962c5.853,4.431,13.88,6.856,23.871,7.274a.607.607,0,0,1,.585.627A.624.624,0,0,1,71.068,147.005Z" transform="translate(-42.608 -81.379)"/><path class="b" d="M77.086,63.271a2.286,2.286,0,0,1-2.132-1.8,8.022,8.022,0,0,1-.084-3.6A2.4,2.4,0,0,1,76,56.206a1.95,1.95,0,0,1,1.672-.167h0a7.827,7.827,0,0,0,4.891.042,2.07,2.07,0,0,1,1.714.209,2.473,2.473,0,0,1,1.087,1.8,9.847,9.847,0,0,1-.042,3.135,2.493,2.493,0,0,1-1,1.63,1.815,1.815,0,0,1-1.505.334,15.607,15.607,0,0,0-5.393.042A.92.92,0,0,1,77.086,63.271Zm-.042-6.145a.624.624,0,0,0-.418.125,1.333,1.333,0,0,0-.585.878,7.047,7.047,0,0,0,.084,3.094c.167.627.627,1,1.129.92a16.981,16.981,0,0,1,5.811-.042.755.755,0,0,0,.627-.167,1.245,1.245,0,0,0,.5-.878,8.709,8.709,0,0,0,.042-2.759,1.324,1.324,0,0,0-.543-.962.8.8,0,0,0-.711-.084,8.854,8.854,0,0,1-5.6-.042A.718.718,0,0,0,77.045,57.125Z" transform="translate(-59.162 -33.347)"/><path class="b" d="M84.458,63.915a2.258,2.258,0,1,1,2.258-2.258A2.275,2.275,0,0,1,84.458,63.915Zm0-3.386a1.087,1.087,0,1,0,1.087,1.087A1.107,1.107,0,0,0,84.458,60.529Z" transform="translate(-63.523 -35.371)"/><path class="d" d="M97.585,122.829a.592.592,0,0,1-.585-.543.633.633,0,0,1,.543-.627c5.142-.251,8.946-1.254,12.04-3.177a.581.581,0,1,1,.585,1c-3.219,2.007-7.232,3.052-12.584,3.344Z" transform="translate(-72.136 -69.703)"/><path class="d" d="M85.584,9.522a.653.653,0,0,1-.5-.251c-.711-1-1.254-1.881-1.045-2.759a2,2,0,0,1,1.129-1.3c1.756-.962,2.09-1.421,2.09-1.672a.584.584,0,0,0-.125-.376,1.952,1.952,0,0,0-1.38.167.582.582,0,0,1-.418-1.087A2.836,2.836,0,0,1,87.8,2.164a1.543,1.543,0,0,1,.669,1.3c.042,1.129-1.3,1.965-2.717,2.759a.955.955,0,0,0-.543.543c-.084.418.46,1.212.836,1.8a.646.646,0,0,1-.125.836A.475.475,0,0,1,85.584,9.522Z" transform="translate(-64.566 -1.923)"/><path class="e" d="M99.8,3.7" transform="translate(-73.765 -2.957)"/></g></g></g></g></svg>