<svg xmlns="http://www.w3.org/2000/svg" width="83" height="83" viewBox="0 0 83 83"><defs><style>.a{fill:none;}.b{fill:#bb3c4f;}.c{fill:#1f2639;}</style></defs><g transform="translate(-450 -4130)"><g transform="translate(450 4130)"><rect class="a" width="83" height="83"/></g><g transform="translate(454.788 4129.316)"><path class="b" d="M120.183,39.13H115.9a1.139,1.139,0,0,1-1.144-1.144v-4.66l-4.617.042A1.139,1.139,0,0,1,109,32.226V27.9a1.139,1.139,0,0,1,1.144-1.144h4.66l-.042-4.617A1.139,1.139,0,0,1,115.9,21h4.278a1.139,1.139,0,0,1,1.144,1.144V26.8l4.617-.042a1.139,1.139,0,0,1,1.144,1.144v4.278a1.139,1.139,0,0,1-1.144,1.144h-4.66l.042,4.617A1.124,1.124,0,0,1,120.183,39.13Zm-5.422-6.947a1.139,1.139,0,0,1,1.144,1.144v4.66l4.278-.042-.042-4.617a1.139,1.139,0,0,1,1.144-1.144h4.66l-.042-4.236h-4.617a1.139,1.139,0,0,1-1.144-1.144v-4.66l-4.278.042L115.9,26.8a1.139,1.139,0,0,1-1.144,1.144H110.1l.042,4.278Zm11.226-4.236Z" transform="translate(-61.487 -5.31)"/><g transform="translate(41.931 52.205)"><path class="c" d="M120.637,124.217a.311.311,0,0,1-.254-.085.582.582,0,0,1-.254-.8l3.643-7.117a.973.973,0,0,0-.042-1.017,1.033,1.033,0,0,0-.89-.508,142.356,142.356,0,0,1-24.781,0,1,1,0,0,0-.89.508.977.977,0,0,0-.042,1.017l3.643,7.117a.6.6,0,1,1-1.059.551l-3.643-7.117a2.264,2.264,0,0,1,.085-2.2,2.235,2.235,0,0,1,1.906-1.059H98.1a140.421,140.421,0,0,0,24.612,0h.042a2.184,2.184,0,0,1,1.906,1.059,2.265,2.265,0,0,1,.085,2.2l-3.643,7.117A.459.459,0,0,1,120.637,124.217Z" transform="translate(-95.823 -110.831)"/><path class="c" d="M127.091,111.055a.579.579,0,0,1-.593-.593c0-.974-1.652-2.076-4.067-2.076h-4.278c-2.372,0-4.067,1.1-4.067,2.076a.593.593,0,0,1-1.186,0c0-1.822,2.287-3.262,5.253-3.262h4.278c2.923,0,5.253,1.44,5.253,3.262A.606.606,0,0,1,127.091,111.055Z" transform="translate(-105.666 -107.2)"/><path class="b" d="M126.278,126.374H124.8a.8.8,0,0,1-.8-.8v-1.186H122.8a.8.8,0,0,1-.8-.8V122.1a.8.8,0,0,1,.8-.8h1.186V120.1a.8.8,0,0,1,.8-.8h1.483a.8.8,0,0,1,.8.8v1.186h1.186a.8.8,0,0,1,.8.8v1.483a.8.8,0,0,1-.8.8h-1.186v1.186A.833.833,0,0,1,126.278,126.374Zm-1.059-1.186h.678V124a.8.8,0,0,1,.8-.8h1.186v-.678H126.66a.8.8,0,0,1-.8-.8v-1.186h-.678v1.186a.8.8,0,0,1-.8.8h-1.186v.678h1.186a.8.8,0,0,1,.8.8v1.186Zm3.05-2.669Z" transform="translate(-110.911 -114.174)"/></g><g transform="translate(2.66 11.787)"><path class="c" d="M8.319,57.783A4.991,4.991,0,0,1,4.8,56.215C3.448,54.9,2.9,53.547,3.194,52.149c.635-3.3,5.761-5.422,6.015-5.507a.59.59,0,1,1,.424,1.1c-.042,0-4.744,1.949-5.3,4.617a3.188,3.188,0,0,0,1.271,2.965c3.008,2.881,6.354.127,10.8-4.067.635-.593,1.271-1.186,1.864-1.737,2.415-2.16,4.787-3.092,6.312-2.5a2.378,2.378,0,0,1,1.44,2.2.579.579,0,0,1-.551.635.558.558,0,0,1-.635-.551,1.226,1.226,0,0,0-.72-1.186c-.8-.339-2.626.085-5.083,2.287-.593.551-1.186,1.1-1.864,1.737C14.419,54.86,11.327,57.783,8.319,57.783Z" transform="translate(-3.116 -31.853)"/><path class="b" d="M53.036,62.8a3.932,3.932,0,0,1-1.017-.127,1.914,1.914,0,0,1-1.4-1.313,1.944,1.944,0,0,1,.551-1.822,3.552,3.552,0,0,1,1.864-1.059c1.652-.466,3.219.127,3.558,1.271h0c.3,1.186-.762,2.457-2.415,2.881A5.333,5.333,0,0,1,53.036,62.8Zm1.144-3.3a2.66,2.66,0,0,0-.8.127,3.025,3.025,0,0,0-1.313.72.95.95,0,0,0-.3.72c.042.212.254.381.593.466a2.925,2.925,0,0,0,1.483,0c1.059-.3,1.694-.974,1.567-1.44h0C55.366,59.711,54.858,59.5,54.18,59.5Z" transform="translate(-30.465 -38.61)"/><path class="b" d="M53.138,57.538a.623.623,0,0,1-.593-.466c-.212-.72.424-1.525,1.4-1.779a1.669,1.669,0,0,1,2.118.847.581.581,0,0,1-.424.72.589.589,0,0,1-.72-.381.894.894,0,0,0-.635-.042c-.339.085-.551.3-.551.381a.581.581,0,0,1-.424.72Z" transform="translate(-31.583 -36.818)"/><path class="c" d="M16.825,28.356a6.432,6.432,0,0,1-2.923-.678A4.082,4.082,0,0,1,11.445,24.8c-.932-4.194,4.109-10.633,5.634-12.5a1.389,1.389,0,0,1,1.567-.424l1.059.381a.59.59,0,0,1-.424,1.1l-1.059-.381a.186.186,0,0,0-.212.042c-3.05,3.685-6.058,8.6-5.38,11.522a2.986,2.986,0,0,0,1.779,2.076,5.938,5.938,0,0,0,5.21-.127c4.067-1.864,7.371-7.074,8.557-11.268.042-.085,0-.127-.042-.169a.22.22,0,0,0-.169-.085h-.89a.593.593,0,1,1,0-1.186h.89a1.489,1.489,0,0,1,1.144.551,1.568,1.568,0,0,1,.254,1.228c-1.271,4.448-4.829,10.04-9.192,12.03A8.467,8.467,0,0,1,16.825,28.356Z" transform="translate(-7.851 -11.787)"/></g><g transform="translate(2.325 45.152)"><path class="c" d="M18.267,110.777a1.538,1.538,0,0,1-1.1-.466l-2.5-2.5a1.535,1.535,0,0,1,0-2.2l8.176-8.176a1.586,1.586,0,0,1,2.2,0l.042.042a.387.387,0,0,0,.508,0l3.728-3.728a.311.311,0,0,0,.085-.254.6.6,0,0,0-.085-.254L29.28,93.2a1.535,1.535,0,0,1,0-2.2,1.586,1.586,0,0,1,2.2,0l2.5,2.5a1.535,1.535,0,0,1,0,2.2,1.586,1.586,0,0,1-2.2,0,.387.387,0,0,0-.508,0l-3.728,3.728a.311.311,0,0,0-.085.254.6.6,0,0,0,.085.254,1.535,1.535,0,0,1,0,2.2l-8.176,8.176A1.7,1.7,0,0,1,18.267,110.777ZM23.943,98.2a.6.6,0,0,0-.254.085h0l-8.176,8.176a.311.311,0,0,0-.085.254.6.6,0,0,0,.085.254l2.5,2.5a.387.387,0,0,0,.508,0l8.176-8.176a.311.311,0,0,0,.085-.254.6.6,0,0,0-.085-.254,1.535,1.535,0,0,1,0-2.2l3.728-3.728a1.586,1.586,0,0,1,2.2,0,.387.387,0,0,0,.508,0,.311.311,0,0,0,.085-.254.6.6,0,0,0-.085-.254l-2.5-2.457a.387.387,0,0,0-.508,0,.311.311,0,0,0-.085.254.6.6,0,0,0,.085.254l.042.042a1.535,1.535,0,0,1,0,2.2l-3.728,3.728a1.586,1.586,0,0,1-2.2,0l-.042-.042A.366.366,0,0,0,23.943,98.2Zm-.678-.3Z" transform="translate(-9.17 -90.55)"/><path class="b" d="M27.694,123.387a.544.544,0,0,1-.424-.169l-1.186-1.186a.6.6,0,0,1,.847-.847l1.186,1.186a.644.644,0,0,1,0,.847A.607.607,0,0,1,27.694,123.387Z" transform="translate(-15.928 -108.116)"/><path class="c" d="M2.907,139.709a.544.544,0,0,1-.424-.169.644.644,0,0,1,0-.847l6.608-6.608a.6.6,0,0,1,.847.847L3.331,139.5A.674.674,0,0,1,2.907,139.709Z" transform="translate(-2.325 -114.398)"/><g transform="translate(14.144 18.627)"><path class="c" d="M38.886,140.824a3.127,3.127,0,0,1-1.906-.635,3.22,3.22,0,0,1-1.228-2.076,3.053,3.053,0,0,1,.593-2.33,3.22,3.22,0,0,1,2.076-1.228,3.153,3.153,0,0,1,3.558,2.711,3.053,3.053,0,0,1-.593,2.33,3.22,3.22,0,0,1-2.076,1.228Zm0-5.126h-.254a2.1,2.1,0,0,0-1.313.762,1.969,1.969,0,0,0-.381,1.44,2.1,2.1,0,0,0,.762,1.313,1.969,1.969,0,0,0,1.44.381,2.1,2.1,0,0,0,1.313-.763,1.953,1.953,0,0,0-1.567-3.135Z" transform="translate(-35.715 -134.521)"/><path class="c" d="M39.786,141.675a.594.594,0,0,1-.593-.508.586.586,0,0,1,.508-.678l2.2-.3a.6.6,0,1,1,.169,1.186l-2.2.3Z" transform="translate(-37.716 -137.787)"/><path class="c" d="M54.124,146.7a3.225,3.225,0,0,1-.89-.127,3.163,3.163,0,1,1,3.94-2.118,3.046,3.046,0,0,1-1.525,1.864A3.384,3.384,0,0,1,54.124,146.7Zm0-5.126a1.97,1.97,0,0,0-.593,3.855,1.824,1.824,0,0,0,1.483-.169,1.87,1.87,0,0,0,.932-1.186,2.008,2.008,0,0,0-1.313-2.457C54.505,141.618,54.293,141.575,54.124,141.575Z" transform="translate(-44.514 -137.899)"/><path class="c" d="M57.218,147.528a.255.255,0,0,1-.169-.042l-2.118-.635a.576.576,0,0,1,.339-1.1l2.118.635a.556.556,0,0,1,.381.72A.549.549,0,0,1,57.218,147.528Z" transform="translate(-46.549 -140.971)"/></g></g></g></g></svg>