<svg xmlns="http://www.w3.org/2000/svg" width="83" height="83" viewBox="0 0 83 83"><defs><style>.a{fill:none;}.b{fill:#bb3c4f;}.c{fill:#1f2639;}</style></defs><g transform="translate(-866 -4289)"><g transform="translate(866 4289)"><rect class="a" width="83" height="83"/></g><g transform="translate(873.487 4297.8)"><path class="b" d="M13.638,18.091H9.892A1.017,1.017,0,0,1,8.87,17.07V13.021H4.822A1.017,1.017,0,0,1,3.8,12V8.254A1.017,1.017,0,0,1,4.822,7.232H8.87V3.222A1.017,1.017,0,0,1,9.892,2.2h3.746a1.017,1.017,0,0,1,1.022,1.022V7.27l4.049-.038a1.017,1.017,0,0,1,1.022,1.022V12a1.017,1.017,0,0,1-1.022,1.022H14.621l.038,4.049A1.042,1.042,0,0,1,13.638,18.091ZM8.908,12A1.017,1.017,0,0,1,9.93,13.021V17.07l3.708-.038L13.6,12.983a1.017,1.017,0,0,1,1.022-1.022H18.67l-.038-3.708H14.621A1.017,1.017,0,0,1,13.6,7.232V3.222l-3.708.038L9.93,7.308A1.017,1.017,0,0,1,8.908,8.33H4.822l.038,3.708ZM18.67,8.292Z"/><path class="c" d="M22.091,82.156a5.32,5.32,0,0,1-3.065-.87c-1.286-.908-2.043-2.5-2.308-4.767l-.076-.757C15.508,66,14.183,54.951,28.826,41.217l.341.378-.341-.378c2.043-1.93,4.124-2.686,5.865-2.119,1.551.53,2.649,2.119,3.065,4.54.795,4.578.984,13.773.908,18.464-.151,11.2-4.881,17.67-14.491,19.789A8.259,8.259,0,0,1,22.091,82.156ZM33.518,39.968a6.4,6.4,0,0,0-3.973,2.005C15.281,55.368,16.567,66.151,17.664,75.648l.076.757c.227,1.968.87,3.33,1.892,4.049s2.459.87,4.351.454c9.043-2.005,13.508-8.173,13.659-18.8.076-5.032-.189-14.037-.908-18.275-.341-2.005-1.173-3.33-2.384-3.708A2.036,2.036,0,0,0,33.518,39.968Z" transform="translate(-7.584 -22.823)"/><g transform="translate(13.032 8.931)"><path class="b" d="M40.167,61.651a.608.608,0,0,1-.416-.189c-1.551-1.854-2.573-4.919-2.951-8.7-.53-5.675-.416-11.5,7.567-15.362a15.658,15.658,0,0,0,9.081-11.843,43.294,43.294,0,0,0,0-5.032.487.487,0,0,1,.492-.53.468.468,0,0,1,.53.492,40.108,40.108,0,0,1,0,5.3,16.718,16.718,0,0,1-9.648,12.6c-7.378,3.557-7.529,8.816-7,14.34.341,3.557,1.286,6.432,2.686,8.135a.5.5,0,0,1-.076.719A.441.441,0,0,1,40.167,61.651Z" transform="translate(-33.432 -19.989)"/><path class="b" d="M28.73,114.543h0a.541.541,0,0,1-.53-.53c.265-5.221,1.476-8.173,3.632-9.119,2.119-.908,4.919.189,8.589,3.367a.509.509,0,0,1-.681.757c-3.33-2.838-5.827-3.935-7.529-3.216-1.74.757-2.762,3.519-2.989,8.211A.51.51,0,0,1,28.73,114.543Z" transform="translate(-28.2 -72.578)"/><path class="b" d="M51.079,106.668a.43.43,0,0,1-.3-.114.5.5,0,0,1-.076-.719c1.513-1.967,2.913-1.93,3.821-1.513a.517.517,0,1,1-.416.946c-.3-.114-1.249-.53-2.573,1.211A.627.627,0,0,1,51.079,106.668Z" transform="translate(-42.112 -72.27)"/><path class="b" d="M42.209,115.118a.523.523,0,0,1-.416-.227,2.22,2.22,0,0,0-2.686-1.022.515.515,0,0,1-.3-.984,3.219,3.219,0,0,1,3.859,1.4.5.5,0,0,1-.114.719A.61.61,0,0,1,42.209,115.118Z" transform="translate(-34.566 -77.618)"/><path class="b" d="M37.164,123.884h-.114a.531.531,0,0,1-.378-.643c.378-1.476.984-2.308,1.854-2.573a.515.515,0,1,1,.3.984c-.492.151-.908.757-1.173,1.854A.462.462,0,0,1,37.164,123.884Z" transform="translate(-33.456 -82.562)"/><path class="b" d="M46.438,93.309a.475.475,0,0,1-.416-.227C43.3,89,37.849,90.4,37.812,90.4a.528.528,0,1,1-.265-1.022c.076,0,6.205-1.589,9.346,3.1a.539.539,0,0,1-.151.719A.345.345,0,0,1,46.438,93.309Z" transform="translate(-33.763 -62.96)"/><path class="b" d="M49.5,93.665a.539.539,0,0,1-.492-.341,7.391,7.391,0,0,1-.378-3.178.514.514,0,0,1,1.022.114,5.938,5.938,0,0,0,.341,2.724.526.526,0,0,1-.341.643C49.615,93.665,49.577,93.665,49.5,93.665Z" transform="translate(-40.875 -63.316)"/><path class="b" d="M54.267,91.03a.523.523,0,0,1-.416-.227.53.53,0,0,1,.114-.719,4.675,4.675,0,0,1,2.8-.984.53.53,0,1,1,0,1.059h-.038a3.624,3.624,0,0,0-2.157.795A.455.455,0,0,1,54.267,91.03Z" transform="translate(-44.089 -62.951)"/><path class="b" d="M53.194,77.019a.492.492,0,0,1-.454-.3,5.612,5.612,0,0,0-5.411-3.557.53.53,0,1,1,0-1.059h0a6.609,6.609,0,0,1,6.357,4.162.513.513,0,0,1-.265.681A.374.374,0,0,1,53.194,77.019Z" transform="translate(-39.762 -52.383)"/><path class="b" d="M54.16,77.851a.533.533,0,0,1-.53-.492,6.428,6.428,0,0,1,.341-3.216.508.508,0,1,1,.908.454,5.3,5.3,0,0,0-.227,2.686.517.517,0,0,1-.492.568Z" transform="translate(-43.982 -53.48)"/><path class="b" d="M57.52,75.645a.59.59,0,0,1-.492-.3.513.513,0,0,1,.265-.681,5.534,5.534,0,0,1,3.1-.454.535.535,0,0,1-.151,1.059,4.639,4.639,0,0,0-2.535.378Z" transform="translate(-46.093 -53.657)"/></g><path class="c" d="M99,80.113a.278.278,0,0,1-.227-.076c-6.054-3.14-9.081-9.005-9.194-17.935-.076-4.73.151-13.924.908-18.464C90.9,41.254,92,39.628,93.55,39.1c1.7-.568,3.784.189,5.865,2.119,8.665,8.135,12.6,15.891,12.827,25.2a.51.51,0,0,1-.492.53.535.535,0,0,1-.53-.492c-.151-6.054-1.7-14.34-12.524-24.48-1.74-1.627-3.481-2.308-4.805-1.892-1.173.416-2.043,1.7-2.384,3.708-.719,4.276-.984,13.281-.908,18.275.114,8.513,2.951,14.075,8.627,17.026a.509.509,0,0,1,.227.681A.476.476,0,0,1,99,80.113Z" transform="translate(-53.314 -22.823)"/><g transform="translate(33.212 8.935)"><path class="b" d="M98.282,56.361h-.114a.509.509,0,0,1-.378-.605,24.079,24.079,0,0,0,.492-3.027c.53-5.524.378-10.783-7-14.34a16.718,16.718,0,0,1-9.648-12.6,40.18,40.18,0,0,1,0-5.3.511.511,0,0,1,1.022.038,36.164,36.164,0,0,0,0,5.032A15.658,15.658,0,0,0,91.737,37.4c7.984,3.859,8.1,9.686,7.567,15.362a27.88,27.88,0,0,1-.492,3.178A.653.653,0,0,1,98.282,56.361Z" transform="translate(-81.533 -20)"/><path class="b" d="M105.074,109.189A.466.466,0,0,1,104.7,109a.526.526,0,0,1,.038-.719c3.254-2.8,5.827-3.973,7.87-3.594a4.273,4.273,0,0,1,2.913,2.384.533.533,0,0,1-.946.492,3.074,3.074,0,0,0-2.195-1.854c-1.665-.3-4.011.832-7,3.367C105.339,109.151,105.188,109.189,105.074,109.189Z" transform="translate(-95.854 -72.601)"/><path class="b" d="M107.5,106.709a.608.608,0,0,1-.416-.189c-1.362-1.74-2.27-1.362-2.573-1.211a.517.517,0,0,1-.416-.946c.908-.378,2.27-.416,3.822,1.513a.492.492,0,0,1-.076.719A.61.61,0,0,1,107.5,106.709Z" transform="translate(-95.365 -72.315)"/><path class="b" d="M116.267,115.118a.43.43,0,0,1-.3-.114.536.536,0,0,1-.114-.719,3.219,3.219,0,0,1,3.859-1.4.515.515,0,0,1-.3.984,2.205,2.205,0,0,0-2.686,1.022A.591.591,0,0,1,116.267,115.118Z" transform="translate(-102.81 -77.622)"/><path class="b" d="M103.025,93.345a.891.891,0,0,1-.3-.076.539.539,0,0,1-.151-.719c3.14-4.692,9.27-3.14,9.346-3.1a.528.528,0,1,1-.265,1.022c-.227-.076-5.486-1.4-8.211,2.686A.608.608,0,0,1,103.025,93.345Z" transform="translate(-94.562 -63)"/><path class="b" d="M113.66,93.665a.228.228,0,0,1-.151-.038.526.526,0,0,1-.341-.643,5.938,5.938,0,0,0,.341-2.724.489.489,0,0,1,.454-.568.508.508,0,0,1,.568.454,7.391,7.391,0,0,1-.378,3.178A.488.488,0,0,1,113.66,93.665Z" transform="translate(-101.186 -63.32)"/><path class="b" d="M105.527,90.967a.43.43,0,0,1-.3-.114,3.567,3.567,0,0,0-2.195-.795h0a.541.541,0,0,1-.53-.53.517.517,0,0,1,.53-.53,4.847,4.847,0,0,1,2.8.984.53.53,0,0,1,.114.719A.48.48,0,0,1,105.527,90.967Z" transform="translate(-94.567 -62.893)"/><path class="b" d="M101.02,77.081a.48.48,0,0,1-.227-.038.513.513,0,0,1-.265-.681,6.609,6.609,0,0,1,6.357-4.162h0a.53.53,0,0,1,0,1.059,5.545,5.545,0,0,0-5.411,3.557A.525.525,0,0,1,101.02,77.081Z" transform="translate(-93.314 -52.449)"/><path class="b" d="M109.173,77.851h-.038a.543.543,0,0,1-.492-.568,5.787,5.787,0,0,0-.227-2.686.508.508,0,1,1,.908-.454,5.667,5.667,0,0,1,.341,3.216A.5.5,0,0,1,109.173,77.851Z" transform="translate(-98.213 -53.484)"/><path class="b" d="M101.722,75.582a.284.284,0,0,1-.189-.038A4.591,4.591,0,0,0,99,75.166a.535.535,0,1,1-.151-1.059,5.582,5.582,0,0,1,3.1.454.513.513,0,0,1,.265.681A.559.559,0,0,1,101.722,75.582Z" transform="translate(-92.01 -53.599)"/></g><path class="c" d="M122.907,136.947a23.185,23.185,0,0,1-3.67-.341,1.567,1.567,0,0,1-1.286-1.778,14.032,14.032,0,0,0-.151-6.281,12.676,12.676,0,0,1-.265-6.848,1.6,1.6,0,0,1,1.778-1.211,16.1,16.1,0,0,0,6.546-.151l.076-.038a20.44,20.44,0,0,1,6.848-.151,1.571,1.571,0,0,1,1.362,1.74,19.012,19.012,0,0,0,.114,6.357,15.762,15.762,0,0,1,.378,2.951.511.511,0,0,1-1.022.038,16.213,16.213,0,0,0-.341-2.762,20.047,20.047,0,0,1-.113-6.7.551.551,0,0,0-.454-.605,19.134,19.134,0,0,0-6.47.151,17.036,17.036,0,0,1-7,.151.571.571,0,0,0-.605.416,11.733,11.733,0,0,0,.227,6.281,15.045,15.045,0,0,1,.189,6.773.523.523,0,0,0,.454.605c2.989.492,4.957.454,6.394-.151a13.622,13.622,0,0,1,6.962-.265.525.525,0,0,0,.416-.076.681.681,0,0,0,.227-.341c.076-.53.114-1.022.151-1.551a.531.531,0,1,1,1.059.076c-.038.53-.076,1.1-.151,1.627a1.736,1.736,0,0,1-.643,1.059,1.533,1.533,0,0,1-1.211.265,12.858,12.858,0,0,0-6.432.189A9.1,9.1,0,0,1,122.907,136.947Z" transform="translate(-70.487 -73.187)"/><path class="b" d="M134.359,129.419a1.059,1.059,0,1,1,1.059-1.059A1.058,1.058,0,0,1,134.359,129.419Zm0-1.059Z" transform="translate(-80.502 -77.766)"/><path class="b" d="M127.059,134.619a1.059,1.059,0,1,1,0-2.119,1.059,1.059,0,1,1,0,2.119Zm0-1.059h0C127.1,133.6,127.1,133.559,127.059,133.559Z" transform="translate(-75.964 -80.999)"/><path class="b" d="M148.159,151.319a1.059,1.059,0,1,1,0-2.119,1.035,1.035,0,0,1,1.059,1.059A1.11,1.11,0,0,1,148.159,151.319Zm0-1.059Z" transform="translate(-89.08 -91.38)"/><path class="b" d="M133.828,131.367c-.492.681-2.27,1.173-2.951,1.665a7.627,7.627,0,0,0-2.195,3.027c-.492,1.892,1.665,3.594,2.8,3.594a2.1,2.1,0,0,0,1.892-.946,3.65,3.65,0,0,0,1.135-2.838,2.663,2.663,0,0,1,1.854-2.27,1.3,1.3,0,0,0,.757-2.005,2.41,2.41,0,0,0-2.346-.832A1.312,1.312,0,0,0,133.828,131.367Z" transform="translate(-77.586 -79.904)"/></g></g></svg>