<svg xmlns="http://www.w3.org/2000/svg" width="83" height="83" viewBox="0 0 83 83"><defs><style>.a,.c{fill:none;}.b{fill:#bb3c4f;}.c{stroke:#bb3c4f;stroke-linecap:round;stroke-miterlimit:10;stroke-width:1.5px;}.d{fill:#1f2639;}</style></defs><g transform="translate(-846 -3864)"><g transform="translate(846 3864)"><rect class="a" width="83" height="83"/></g><g transform="translate(852.014 3869.8)"><g transform="translate(48.802 48.843)"><path class="b" d="M129.824,136.247a6.324,6.324,0,1,1,6.324-6.324A6.332,6.332,0,0,1,129.824,136.247Zm0-11.553a5.229,5.229,0,1,0,5.229,5.229A5.242,5.242,0,0,0,129.824,124.694Z" transform="translate(-120.338 -120.438)"/><g transform="translate(8.918 15.363)"><line class="c" y1="2.473" transform="translate(0.567)"/><circle class="c" cx="0.567" cy="0.567" r="0.567" transform="translate(0 2.473)"/></g><g transform="translate(2.359 13.66)"><line class="c" y1="1.702" x2="1.743" transform="translate(1.208)"/><circle class="c" cx="0.567" cy="0.567" r="0.567" transform="translate(0 2.117) rotate(-45)"/></g><g transform="translate(0 8.918)"><line class="c" x2="2.432" transform="translate(1.135 0.567)"/><circle class="c" cx="0.567" cy="0.567" r="0.567"/></g><g transform="translate(2.36 2.368)"><line class="c" x2="1.743" y2="1.743" transform="translate(1.208 1.199)"/><circle class="c" cx="0.567" cy="0.567" r="0.567" transform="translate(0 0.803) rotate(-45)"/></g><g transform="translate(8.918)"><line class="c" y2="2.473" transform="translate(0.567 1.094)"/><circle class="c" cx="0.567" cy="0.567" r="0.567"/></g><g transform="translate(13.66 2.369)"><line class="c" x1="1.743" y2="1.743" transform="translate(0 1.198)"/><circle class="c" cx="0.567" cy="0.567" r="0.567" transform="translate(1.306 0.803) rotate(-45)"/></g><g transform="translate(15.403 8.918)"><line class="c" x1="2.432" transform="translate(0 0.567)"/><circle class="c" cx="0.567" cy="0.567" r="0.567" transform="translate(2.432)"/></g><g transform="translate(13.66 13.66)"><line class="c" x1="1.743" y1="1.702"/><circle class="c" cx="0.567" cy="0.567" r="0.567" transform="translate(1.305 2.118) rotate(-45)"/></g><path class="b" d="M137.494,129.189a1.094,1.094,0,1,1,1.094-1.094A1.09,1.09,0,0,1,137.494,129.189Zm0-1.135Z" transform="translate(-128.009 -122.46)"/><path class="b" d="M130.294,134.389a1.094,1.094,0,1,1,1.094-1.094A1.116,1.116,0,0,1,130.294,134.389Zm0-1.135Z" transform="translate(-123.728 -125.552)"/><path class="b" d="M130.494,142.889a1.094,1.094,0,1,1,1.094-1.094A1.09,1.09,0,0,1,130.494,142.889Zm0-1.094Z" transform="translate(-123.847 -130.607)"/><path class="b" d="M137.494,147.389a1.094,1.094,0,1,1,1.094-1.094A1.09,1.09,0,0,1,137.494,147.389Zm0-1.135Z" transform="translate(-128.009 -133.283)"/><path class="b" d="M144.794,143.889a1.094,1.094,0,1,1,1.094-1.094A1.116,1.116,0,0,1,144.794,143.889Zm0-1.135Z" transform="translate(-132.35 -131.201)"/><path class="b" d="M138.494,137.289a1.094,1.094,0,1,1,1.094-1.094A1.065,1.065,0,0,1,138.494,137.289Zm0-1.094Z" transform="translate(-128.604 -127.277)"/><path class="b" d="M146.294,136.989a1.094,1.094,0,1,1,1.094-1.094A1.09,1.09,0,0,1,146.294,136.989Zm0-1.135Z" transform="translate(-133.242 -127.098)"/></g><path class="b" d="M13.618,20.022H9.645a1.09,1.09,0,0,1-1.094-1.094v-4.3l-4.256.041A1.09,1.09,0,0,1,3.2,13.577V9.6A1.09,1.09,0,0,1,4.294,8.51h4.3V4.294A1.09,1.09,0,0,1,9.686,3.2h3.972a1.09,1.09,0,0,1,1.094,1.094v4.3l4.3-.041a1.09,1.09,0,0,1,1.094,1.094v3.972a1.09,1.09,0,0,1-1.094,1.094H14.672l.041,4.3A1.076,1.076,0,0,1,13.618,20.022ZM8.632,13.577a1.09,1.09,0,0,1,1.094,1.094v4.3l3.932-.041-.041-4.3a1.09,1.09,0,0,1,1.094-1.094h4.3L18.968,9.6h-4.3A1.09,1.09,0,0,1,13.577,8.51V4.294l-3.932.041.041,4.3A1.09,1.09,0,0,1,8.591,9.726h-4.3l.041,3.891ZM18.968,9.645Z" transform="translate(0 0)"/><path class="d" d="M21.691,85.306a5.568,5.568,0,0,1-3.243-.932c-1.338-.973-2.189-2.675-2.473-5.067l-.081-.77C14.679,68.2,13.3,56.526,28.826,41.933l.365.405-.365-.405c2.189-2.067,4.378-2.837,6.2-2.229,1.662.567,2.837,2.27,3.243,4.783.851,4.864,1.054,14.593.973,19.579C39.081,75.9,34.055,82.752,23.921,85.022A8.848,8.848,0,0,1,21.691,85.306ZM33.812,40.6A6.485,6.485,0,0,0,29.6,42.744C14.476,56.931,15.814,68.362,17.03,78.415l.081.77c.243,2.067.932,3.527,1.986,4.3s2.635.932,4.581.486c9.607-2.148,14.309-8.675,14.471-19.9.081-5.31-.2-14.836-.973-19.376-.365-2.108-1.257-3.527-2.513-3.932A1.88,1.88,0,0,0,33.812,40.6Z" transform="translate(-7.142 -21.587)"/><g transform="translate(12.969 10.33)"><path class="b" d="M39.544,64.937a.5.5,0,0,1-.405-.2c-1.621-1.946-2.716-5.229-3.121-9.2-.567-6-.405-12.2,8.026-16.255A16.615,16.615,0,0,0,53.65,26.712a45.758,45.758,0,0,0,0-5.351.545.545,0,0,1,.527-.567.52.52,0,0,1,.567.527,41.794,41.794,0,0,1,0,5.594A17.8,17.8,0,0,1,44.53,40.291c-7.823,3.77-7.945,9.323-7.418,15.16.365,3.77,1.378,6.81,2.878,8.594a.53.53,0,0,1-.081.77A.654.654,0,0,1,39.544,64.937Z" transform="translate(-32.369 -20.789)"/><path class="b" d="M27.867,114.955h0a.58.58,0,0,1-.567-.567c.284-5.513,1.54-8.675,3.851-9.647,2.229-.932,5.189.2,9.12,3.567a.545.545,0,1,1-.73.811c-3.527-3-6.2-4.175-7.985-3.4-1.865.77-2.919,3.729-3.2,8.715A.46.46,0,0,1,27.867,114.955Z" transform="translate(-27.3 -70.524)"/><path class="b" d="M50.115,106.69a.46.46,0,0,1-.324-.122.53.53,0,0,1-.081-.77c1.621-2.067,3.081-2.027,4.054-1.621a.554.554,0,0,1-.446,1.013c-.324-.122-1.3-.568-2.756,1.3A.651.651,0,0,1,50.115,106.69Z" transform="translate(-40.549 -70.245)"/><path class="b" d="M41.537,115.05a.651.651,0,0,1-.446-.2,2.374,2.374,0,0,0-2.837-1.094.551.551,0,0,1-.324-1.054,3.44,3.44,0,0,1,4.094,1.459.568.568,0,0,1-.122.77A.769.769,0,0,1,41.537,115.05Z" transform="translate(-33.389 -75.32)"/><path class="b" d="M36.3,123.715h-.122a.569.569,0,0,1-.405-.689c.405-1.54,1.054-2.473,1.986-2.756a.551.551,0,0,1,.324,1.054q-.79.243-1.216,1.946A.6.6,0,0,1,36.3,123.715Z" transform="translate(-32.328 -79.932)"/><path class="b" d="M46.02,93.564a.509.509,0,0,1-.446-.243C42.7,88.983,37.1,90.4,36.859,90.483a.565.565,0,1,1-.284-1.094c.081,0,6.567-1.7,9.891,3.283a.577.577,0,0,1-.162.77C46.222,93.564,46.141,93.564,46.02,93.564Z" transform="translate(-32.562 -61.415)"/><path class="b" d="M48.566,93.909a.577.577,0,0,1-.527-.365,7.74,7.74,0,0,1-.405-3.364.551.551,0,1,1,1.094.122,6.2,6.2,0,0,0,.365,2.878.564.564,0,0,1-.365.689A.306.306,0,0,1,48.566,93.909Z" transform="translate(-39.365 -61.76)"/><path class="b" d="M53.2,91.167a.56.56,0,0,1-.446-.243.568.568,0,0,1,.122-.77,4.922,4.922,0,0,1,3-1.054.546.546,0,0,1,.527.567.522.522,0,0,1-.567.527,3.636,3.636,0,0,0-2.311.851A.647.647,0,0,1,53.2,91.167Z" transform="translate(-42.38 -61.41)"/><path class="b" d="M52.41,77.529a.527.527,0,0,1-.486-.324,5.889,5.889,0,0,0-5.756-3.77.567.567,0,0,1,0-1.135h0A6.959,6.959,0,0,1,52.9,76.718a.55.55,0,0,1-.284.73A.31.31,0,0,1,52.41,77.529Z" transform="translate(-38.182 -51.42)"/><path class="b" d="M53.1,78.254a.568.568,0,0,1-.567-.486,6.645,6.645,0,0,1,.365-3.4.544.544,0,1,1,.973.486,6.029,6.029,0,0,0-.243,2.837.575.575,0,0,1-.486.608Z" transform="translate(-42.278 -52.469)"/><path class="b" d="M56.418,75.951a.527.527,0,0,1-.486-.324.55.55,0,0,1,.284-.73,5.842,5.842,0,0,1,3.283-.486.533.533,0,0,1-.162,1.054,4.78,4.78,0,0,0-2.675.405A.3.3,0,0,1,56.418,75.951Z" transform="translate(-44.297 -52.639)"/></g><path class="d" d="M98.05,83.064a.3.3,0,0,1-.243-.081c-6.445-3.324-9.607-9.526-9.729-19.011-.081-4.986.162-14.714.973-19.579.446-2.513,1.581-4.216,3.243-4.783,1.824-.608,4.013.2,6.2,2.229,9.161,8.594,13.336,16.863,13.579,26.713a.574.574,0,0,1-.527.567.546.546,0,0,1-.567-.527c-.162-6.445-1.784-15.2-13.255-25.943-1.865-1.743-3.689-2.473-5.107-1.986-1.257.405-2.148,1.824-2.513,3.932-.77,4.5-1.054,14.066-.973,19.376.122,9,3.121,14.917,9.12,18.038a.545.545,0,0,1,.243.73A.439.439,0,0,1,98.05,83.064Z" transform="translate(-50.464 -21.534)"/><g transform="translate(34.304 10.334)"><path class="b" d="M97.715,59.309h-.122a.546.546,0,0,1-.405-.649,19.609,19.609,0,0,0,.486-3.2c.567-5.837.405-11.39-7.418-15.16A17.661,17.661,0,0,1,80.041,26.921a41.792,41.792,0,0,1,0-5.594.548.548,0,1,1,1.094.041,38.069,38.069,0,0,0,0,5.351,16.75,16.75,0,0,0,9.607,12.566c8.431,4.094,8.594,10.255,8.026,16.255a27.83,27.83,0,0,1-.527,3.364A.5.5,0,0,1,97.715,59.309Z" transform="translate(-79.933 -20.8)"/><path class="b" d="M103.41,109.275a.5.5,0,0,1-.405-.2.563.563,0,0,1,.041-.77c3.446-2.959,6.2-4.216,8.31-3.81a4.34,4.34,0,0,1,3.081,2.554.544.544,0,0,1-.973.486,3.518,3.518,0,0,0-2.311-1.986c-1.743-.324-4.256.851-7.418,3.567A.369.369,0,0,1,103.41,109.275Z" transform="translate(-93.573 -70.523)"/><path class="b" d="M105.963,106.69a.651.651,0,0,1-.446-.2c-1.419-1.865-2.432-1.419-2.756-1.3a.554.554,0,0,1-.446-1.013c.932-.405,2.432-.446,4.054,1.621a.53.53,0,0,1-.081.77A.46.46,0,0,1,105.963,106.69Z" transform="translate(-93.046 -70.249)"/><path class="b" d="M114.5,115.05a.46.46,0,0,1-.324-.122.568.568,0,0,1-.122-.77,3.44,3.44,0,0,1,4.094-1.459.551.551,0,1,1-.324,1.054,2.313,2.313,0,0,0-2.837,1.094A.842.842,0,0,1,114.5,115.05Z" transform="translate(-100.167 -75.325)"/><path class="b" d="M101.363,93.6a.954.954,0,0,1-.324-.081.577.577,0,0,1-.162-.77c3.324-4.986,9.85-3.324,9.891-3.283a.565.565,0,1,1-.284,1.094c-.243-.081-5.837-1.5-8.715,2.837C101.727,93.517,101.525,93.6,101.363,93.6Z" transform="translate(-92.337 -61.453)"/><path class="b" d="M111.9,93.908a.244.244,0,0,1-.162-.041.564.564,0,0,1-.365-.689,6.2,6.2,0,0,0,.365-2.878.551.551,0,0,1,1.094-.122,7.74,7.74,0,0,1-.405,3.364A.523.523,0,0,1,111.9,93.908Z" transform="translate(-98.614 -61.764)"/><path class="b" d="M104,91.167a.46.46,0,0,1-.324-.122,3.866,3.866,0,0,0-2.27-.851h-.041a.605.605,0,0,1-.568-.527.574.574,0,0,1,.527-.567,5.009,5.009,0,0,1,3,1.054.568.568,0,0,1,.122.77A.509.509,0,0,1,104,91.167Z" transform="translate(-92.342 -61.414)"/><path class="b" d="M99.358,77.589a.514.514,0,0,1-.243-.041.55.55,0,0,1-.284-.73A7.033,7.033,0,0,1,105.56,72.4h0a.567.567,0,1,1,0,1.135A5.981,5.981,0,0,0,99.8,77.3.421.421,0,0,1,99.358,77.589Z" transform="translate(-91.143 -51.484)"/><path class="b" d="M107.49,78.195h-.041a.55.55,0,0,1-.486-.608,5.573,5.573,0,0,0-.243-2.837.544.544,0,1,1,.973-.486,6.353,6.353,0,0,1,.365,3.4A.571.571,0,0,1,107.49,78.195Z" transform="translate(-95.829 -52.414)"/><path class="b" d="M100.378,76.011a.3.3,0,0,1-.2-.041,4.78,4.78,0,0,0-2.675-.405.533.533,0,1,1-.162-1.054,5.842,5.842,0,0,1,3.283.486.55.55,0,0,1,.284.73A.693.693,0,0,1,100.378,76.011Z" transform="translate(-90.015 -52.703)"/></g></g></g></svg>