<svg xmlns="http://www.w3.org/2000/svg" width="83" height="83" viewBox="0 0 83 83"><defs><style>.a{fill:none;}.b{fill:#bb3c4f;}.c{fill:#1f2639;}</style></defs><g transform="translate(-846 -4130)"><g transform="translate(846 4130)"><rect class="a" width="83" height="83"/></g><g transform="translate(852.199 4137.4)"><path class="b" d="M14.941,18.973H11.071a1.041,1.041,0,0,1-1.045-1.045v-4.18H5.845A1.041,1.041,0,0,1,4.8,12.7V8.832A1.066,1.066,0,0,1,5.845,7.787h4.18V3.645A1.041,1.041,0,0,1,11.071,2.6h3.871a1.041,1.041,0,0,1,1.045,1.045v4.18l4.18-.039a1.041,1.041,0,0,1,1.045,1.045V12.7a1.041,1.041,0,0,1-1.045,1.045h-4.18l.039,4.18A1.1,1.1,0,0,1,14.941,18.973ZM10.064,12.7a1.041,1.041,0,0,1,1.045,1.045v4.18l3.832-.039-.039-4.18a1.041,1.041,0,0,1,1.045-1.045h4.18l-.039-3.832h-4.1a1.041,1.041,0,0,1-1.045-1.045V3.645H11.071l.039,4.18a1.041,1.041,0,0,1-1.045,1.045H5.845L5.884,12.7Zm10.1-3.832Z" transform="translate(0)"/><g transform="translate(6.435 3.723)"><path class="c" d="M45.374,47.691a2.586,2.586,0,0,1-1.819-.774l-5.38-5.342a2.586,2.586,0,0,1-.774-1.819,2.456,2.456,0,0,1,.774-1.819L55.863,20.247a2.617,2.617,0,0,1,3.677,0l.116.116a1.566,1.566,0,0,0,2.168,0l8.09-8.09a1.566,1.566,0,0,0,0-2.168l-.155-.155a2.617,2.617,0,0,1,0-3.677A2.585,2.585,0,0,1,71.579,5.5a2.519,2.519,0,0,1,1.819.774l5.38,5.38a2.586,2.586,0,0,1,.774,1.819,2.519,2.519,0,0,1-.774,1.819,2.586,2.586,0,0,1-1.819.774,2.456,2.456,0,0,1-1.819-.774,1.566,1.566,0,0,0-2.168,0l-8.09,8.09a1.566,1.566,0,0,0,0,2.168,2.617,2.617,0,0,1,0,3.677L47.193,46.917A2.585,2.585,0,0,1,45.374,47.691ZM57.683,20.518a1.528,1.528,0,0,0-1.084.464L38.91,38.633a1.566,1.566,0,0,0,0,2.168l5.38,5.38a1.566,1.566,0,0,0,2.168,0L64.147,28.492a1.566,1.566,0,0,0,0-2.168,2.617,2.617,0,0,1,0-3.677l8.09-8.09a2.617,2.617,0,0,1,3.677,0,1.533,1.533,0,0,0,2.168-2.168L72.662,7.048a1.533,1.533,0,0,0-2.168,2.168l.116.116a2.617,2.617,0,0,1,0,3.677l-8.09,8.09a2.617,2.617,0,0,1-3.677,0l-.116-.116A1.382,1.382,0,0,0,57.683,20.518Z" transform="translate(-26.417 -5.5)"/><path class="b" d="M68.073,81.215a.5.5,0,0,1-.387-.155L65.17,78.544a.547.547,0,0,1,.774-.774l2.516,2.516a.588.588,0,0,1,0,.774A.688.688,0,0,1,68.073,81.215Z" transform="translate(-43.349 -49.707)"/><path class="c" d="M9.557,118.582a.5.5,0,0,1-.387-.155.588.588,0,0,1,0-.774L23.453,103.37a.547.547,0,1,1,.774.774L9.944,118.427A.688.688,0,0,1,9.557,118.582Z" transform="translate(-9.025 -65.398)"/></g><path class="c" d="M128.38,119.2H111.542a1.787,1.787,0,0,1-1.742-1.858V96.019a1.812,1.812,0,0,1,1.742-1.858.735.735,0,0,0,.658-.774v-.929a1.812,1.812,0,0,1,1.742-1.858h12.077a1.787,1.787,0,0,1,1.742,1.858v.929a.735.735,0,0,0,.658.774,1.787,1.787,0,0,1,1.742,1.858v18.038a.542.542,0,0,1-1.084,0V96.019a.735.735,0,0,0-.658-.774,1.787,1.787,0,0,1-1.742-1.858v-.929a.735.735,0,0,0-.658-.774H113.942a.735.735,0,0,0-.658.774v.929a1.812,1.812,0,0,1-1.742,1.858.735.735,0,0,0-.658.774v21.328a.735.735,0,0,0,.658.774H128.38a.735.735,0,0,0,.658-.774.542.542,0,1,1,1.084,0A1.787,1.787,0,0,1,128.38,119.2Z" transform="translate(-64.357 -53.938)"/><path class="c" d="M130.68,79.587H112.1V76.839a2.428,2.428,0,0,1,2.439-2.439h1.316a.542.542,0,0,1,0,1.084h-1.316a1.371,1.371,0,0,0-1.355,1.355V78.5h16.451V76.839a1.371,1.371,0,0,0-1.355-1.355h-10.3a.542.542,0,1,1,0-1.084h10.3a2.428,2.428,0,0,1,2.439,2.439v2.748Z" transform="translate(-65.767 -44.008)"/><path class="b" d="M130.073,118.044H119.042A1.735,1.735,0,0,1,117.3,116.3v-9.561A1.735,1.735,0,0,1,119.042,105h11.032a1.735,1.735,0,0,1,1.742,1.742V116.3A1.735,1.735,0,0,1,130.073,118.044Zm-11.032-11.961a.652.652,0,0,0-.658.658V116.3a.652.652,0,0,0,.658.658h11.032a.652.652,0,0,0,.658-.658v-9.561a.652.652,0,0,0-.658-.658Z" transform="translate(-68.954 -62.764)"/><path class="b" d="M130.073,149.009H119.042a1.735,1.735,0,0,1-1.742-1.742v-1.626a1.735,1.735,0,0,1,1.742-1.742h11.032a1.735,1.735,0,0,1,1.742,1.742v1.626A1.735,1.735,0,0,1,130.073,149.009Zm-11.032-4.026a.652.652,0,0,0-.658.658v1.626a.652.652,0,0,0,.658.658h11.032a.652.652,0,0,0,.658-.658v-1.626a.652.652,0,0,0-.658-.658Z" transform="translate(-68.954 -86.607)"/><path class="c" d="M52.758,142.261a4.092,4.092,0,0,1-3.251-6.542,4.188,4.188,0,0,1,2.671-1.587,4.033,4.033,0,0,1,3.019.774,4.188,4.188,0,0,1,1.587,2.671,4.054,4.054,0,0,1-3.484,4.567A1.519,1.519,0,0,1,52.758,142.261Zm0-7.083a1.588,1.588,0,0,0-.426.039,2.919,2.919,0,0,0-1.974,1.161,2.987,2.987,0,1,0,5.342,1.393h0a3.028,3.028,0,0,0-2.942-2.593Z" transform="translate(-26.902 -80.594)"/><path class="c" d="M54.334,144.2a.543.543,0,0,1-.542-.465.535.535,0,0,1,.464-.619l3.019-.426a.547.547,0,1,1,.155,1.084l-3.019.426Z" transform="translate(-30.026 -85.863)"/><path class="c" d="M75.7,151.265a4,4,0,0,1-1.161-.155,3.936,3.936,0,0,1-2.4-1.974,4.107,4.107,0,0,1-.31-3.1,3.936,3.936,0,0,1,1.974-2.4,4.087,4.087,0,0,1,5.845,4.761,3.936,3.936,0,0,1-1.974,2.4A4.6,4.6,0,0,1,75.7,151.265Zm0-7.045a3.02,3.02,0,0,0-2.864,2.129,2.984,2.984,0,0,0,2.013,3.716,2.932,2.932,0,0,0,2.284-.232,2.992,2.992,0,0,0,1.432-1.781h0a2.984,2.984,0,0,0-2.013-3.716A3.452,3.452,0,0,0,75.7,144.22Z" transform="translate(-40.979 -86.152)"/><path class="c" d="M80.291,152.981a.233.233,0,0,1-.155-.039l-2.942-.89a.526.526,0,1,1,.31-1.006l2.942.89a.508.508,0,0,1,.348.658A.5.5,0,0,1,80.291,152.981Z" transform="translate(-44.138 -90.965)"/></g></g></svg>