<svg xmlns="http://www.w3.org/2000/svg" width="83" height="83" viewBox="0 0 83 83"><defs><style>.a{fill:none;}.b{fill:#bb3c4f;}.c{fill:#1f2639;}</style></defs><g transform="translate(-54 -3997)"><g transform="translate(54 3997)"><rect class="a" width="83" height="83"/></g><g transform="translate(60 4004.45)"><path class="b" d="M15.119,19.1H11.242A1.042,1.042,0,0,1,10.2,18.053V13.866H6.047A1.042,1.042,0,0,1,5,12.819V8.942A1.042,1.042,0,0,1,6.047,7.9h4.187L10.2,3.747A1.042,1.042,0,0,1,11.242,2.7h3.877a1.042,1.042,0,0,1,1.047,1.047V7.934L20.353,7.9A1.042,1.042,0,0,1,21.4,8.942v3.877a1.042,1.042,0,0,1-1.047,1.047H16.127l.039,4.187A1.042,1.042,0,0,1,15.119,19.1Zm-4.885-6.281a1.042,1.042,0,0,1,1.047,1.047v4.187l3.838-.039-.039-4.148a1.042,1.042,0,0,1,1.047-1.047h4.187l-.039-3.8H16.127A1.042,1.042,0,0,1,15.08,7.973V3.747l-3.838.039.039,4.187A1.042,1.042,0,0,1,10.234,9.02H6.047l.039,3.838ZM20.353,8.981Z"/><g transform="translate(6.638 3.824)"><path class="c" d="M45.448,47.782a2.59,2.59,0,0,1-1.822-.775L38.275,41.7a2.523,2.523,0,0,1-.775-1.822,2.46,2.46,0,0,1,.775-1.822L55.955,20.372a2.621,2.621,0,0,1,3.683,0l.116.116a1.569,1.569,0,0,0,2.171,0l8.026-8.142a1.569,1.569,0,0,0,0-2.171l-.116-.116a2.621,2.621,0,0,1,0-3.683A2.523,2.523,0,0,1,71.657,5.6a2.46,2.46,0,0,1,1.822.775l5.35,5.35a2.523,2.523,0,0,1,.775,1.822,2.46,2.46,0,0,1-.775,1.822,2.523,2.523,0,0,1-1.822.775,2.46,2.46,0,0,1-1.822-.775,1.569,1.569,0,0,0-2.171,0L64.95,23.434a1.569,1.569,0,0,0,0,2.171,2.621,2.621,0,0,1,0,3.683L47.27,46.968A2.29,2.29,0,0,1,45.448,47.782ZM57.777,20.643a1.531,1.531,0,0,0-1.086.465L39.012,38.749a1.569,1.569,0,0,0,0,2.171l5.35,5.35a1.569,1.569,0,0,0,2.171,0L64.213,28.591a1.569,1.569,0,0,0,0-2.171,2.621,2.621,0,0,1,0-3.683l8.1-8.064a2.621,2.621,0,0,1,3.683,0A1.535,1.535,0,1,0,78.17,12.5l-5.389-5.35A1.535,1.535,0,0,0,70.61,9.322l.116.116a2.621,2.621,0,0,1,0,3.683l-8.064,8.064a2.621,2.621,0,0,1-3.683,0l-.116-.116A1.489,1.489,0,0,0,57.777,20.643Z" transform="translate(-26.538 -5.6)"/><path class="b" d="M68.178,81.2a.5.5,0,0,1-.388-.155l-2.52-2.52a.589.589,0,0,1,0-.775.549.549,0,0,1,.775,0l2.52,2.52a.589.589,0,0,1,0,.775A.819.819,0,0,1,68.178,81.2Z" transform="translate(-43.452 -49.677)"/><path class="c" d="M9.758,118.568a.5.5,0,0,1-.388-.155.589.589,0,0,1,0-.775L23.638,103.37a.589.589,0,0,1,.775,0,.549.549,0,0,1,0,.775L10.146,118.413A.819.819,0,0,1,9.758,118.568Z" transform="translate(-9.225 -65.375)"/></g><path class="c" d="M128.31,119.213H111.445a1.79,1.79,0,0,1-1.745-1.861V96.028a1.815,1.815,0,0,1,1.745-1.861.736.736,0,0,0,.659-.775v-.93a1.815,1.815,0,0,1,1.745-1.861h12.058a1.79,1.79,0,0,1,1.745,1.861v.93a.736.736,0,0,0,.659.775,1.79,1.79,0,0,1,1.745,1.861v18.028a.543.543,0,0,1-1.086,0V96.028a.736.736,0,0,0-.659-.775,1.79,1.79,0,0,1-1.745-1.861v-.93a.736.736,0,0,0-.659-.775H113.848a.736.736,0,0,0-.659.775v.93a1.815,1.815,0,0,1-1.745,1.861.736.736,0,0,0-.659.775v21.324a.736.736,0,0,0,.659.775H128.31a.736.736,0,0,0,.659-.775.543.543,0,0,1,1.086,0A1.841,1.841,0,0,1,128.31,119.213Z" transform="translate(-64.107 -53.821)"/><path class="c" d="M130.51,79.6H111.9V76.843a2.432,2.432,0,0,1,2.443-2.443h1.318a.543.543,0,1,1,0,1.086h-1.318a1.374,1.374,0,0,0-1.357,1.357V78.51h16.439V76.843a1.374,1.374,0,0,0-1.357-1.357H117.793a.543.543,0,1,1,0-1.086h10.274a2.432,2.432,0,0,1,2.443,2.443Z" transform="translate(-65.454 -43.901)"/><path class="b" d="M129.994,118.027h-11.05a1.737,1.737,0,0,1-1.745-1.745v-9.538A1.737,1.737,0,0,1,118.945,105h11.05a1.737,1.737,0,0,1,1.745,1.745v9.538A1.762,1.762,0,0,1,129.994,118.027Zm-11.05-11.941a.653.653,0,0,0-.659.659v9.538a.653.653,0,0,0,.659.659h11.05a.679.679,0,0,0,.659-.659v-9.538a.653.653,0,0,0-.659-.659Z" transform="translate(-68.699 -62.638)"/><path class="b" d="M129.994,148.918h-11.05a1.737,1.737,0,0,1-1.745-1.745v-1.628a1.737,1.737,0,0,1,1.745-1.745h11.05a1.737,1.737,0,0,1,1.745,1.745v1.628A1.762,1.762,0,0,1,129.994,148.918Zm-11.05-4.032a.653.653,0,0,0-.659.659v1.628a.653.653,0,0,0,.659.659h11.05a.679.679,0,0,0,.659-.659v-1.628a.653.653,0,0,0-.659-.659Z" transform="translate(-68.699 -86.395)"/><path class="c" d="M52.765,142.2a4.084,4.084,0,0,1-4.032-3.489,4.039,4.039,0,0,1,.775-3.024,3.9,3.9,0,0,1,2.675-1.551,4.039,4.039,0,0,1,3.024.775,3.9,3.9,0,0,1,1.551,2.675,4.06,4.06,0,0,1-3.489,4.575A1.9,1.9,0,0,1,52.765,142.2Zm0-7.017a1.59,1.59,0,0,0-.426.039,2.994,2.994,0,1,0,3.373,2.559h0a3.01,3.01,0,0,0-1.163-1.977A2.7,2.7,0,0,0,52.765,135.18Z" transform="translate(-26.751 -80.449)"/><path class="c" d="M54.435,144.1a.544.544,0,0,1-.543-.465.536.536,0,0,1,.465-.62l3.024-.426a.548.548,0,0,1,.155,1.086l-3.024.426Z" transform="translate(-29.933 -85.652)"/><path class="c" d="M75.707,151.078a4,4,0,0,1-1.163-.155,3.942,3.942,0,0,1-2.4-1.977,4.113,4.113,0,0,1-.31-3.1,3.942,3.942,0,0,1,1.977-2.4,4.113,4.113,0,0,1,3.1-.31,4.052,4.052,0,0,1,2.714,5.04,4.15,4.15,0,0,1-3.916,2.908Zm0-7.056a3.025,3.025,0,0,0-2.869,2.132,2.989,2.989,0,0,0,2.016,3.722,2.937,2.937,0,0,0,2.287-.233,3,3,0,0,0,1.435-1.783h0a2.989,2.989,0,0,0-2.016-3.722A7.444,7.444,0,0,0,75.707,144.022Z" transform="translate(-40.815 -85.88)"/><path class="c" d="M80.319,152.907a.233.233,0,0,1-.155-.039l-2.947-.892a.527.527,0,1,1,.31-1.008l2.947.892a.539.539,0,0,1,.349.659A.5.5,0,0,1,80.319,152.907Z" transform="translate(-43.992 -90.772)"/></g></g></svg>