<svg xmlns="http://www.w3.org/2000/svg" width="83" height="83" viewBox="0 0 83 83"><defs><style>.a{fill:#fff;}.b,.c{fill:none;stroke-linecap:round;stroke-miterlimit:10;stroke-width:1.5px;}.b{stroke:#bb3c4f;}.c{stroke:#1f2639;}</style></defs><g transform="translate(-450 -4555)"><rect class="a" width="83" height="83" transform="translate(450 4555)"/><g transform="translate(430.848 4557.25)"><g transform="translate(43.1 26.924)"><ellipse class="b" cx="17.626" cy="4.047" rx="17.626" ry="4.047"/><path class="b" d="M60.6,107.694H55.764a5.638,5.638,0,0,1-5.527-4.57L43.1,65" transform="translate(-43.1 -60.953)"/><path class="b" d="M83.6,107.694h4.831a5.638,5.638,0,0,0,5.527-4.57L101.1,65" transform="translate(-65.974 -60.953)"/></g><g transform="translate(47.409 43.07)"><path class="c" d="M53,92.8" transform="translate(-53 -92.8)"/><path class="c" d="M53,92.8a7.873,7.873,0,0,0,8.878,0" transform="translate(-53 -92.8)"/><path class="c" d="M73.4,92.8a7.873,7.873,0,0,0,8.878,0" transform="translate(-64.522 -92.8)"/><path class="c" d="M93.7,92.8a7.873,7.873,0,0,0,8.878,0" transform="translate(-75.987 -92.8)"/><path class="c" d="M114.1,92.8" transform="translate(-87.509 -92.8)"/></g><path class="c" d="M78.155,4.946a.447.447,0,0,0-.74,0c-.957,1.349-3.569,5.135-3.96,7.094-1.349,6.92,10.01,6.92,8.661,0C81.724,10.081,79.113,6.295,78.155,4.946Z" transform="translate(-17.081)"/><path class="c" d="M85.1,13.2a4.244,4.244,0,0,1,1.349,2.742" transform="translate(-23.721 -4.773)"/><path class="c" d="M88.1,23.2a1.694,1.694,0,0,1-.7,1.871" transform="translate(-25.02 -10.42)"/></g></g></svg>