<svg width="60" height="56" viewBox="0 0 60 56" fill="none" xmlns="http://www.w3.org/2000/svg">
<path d="M34.3336 31.8964C34.9517 32.4667 35.6042 32.9787 36.1453 33.5861C37.5511 35.1617 38.2647 37.0317 38.27 39.1458C38.2806 43.9415 38.2726 48.7399 38.2726 53.5384C38.2726 54.549 37.7978 55.0317 36.7925 55.0317C32.071 55.0317 27.3495 55.0317 22.6307 55.0317C21.636 55.0317 21.1639 54.5622 21.1639 53.5728C21.1639 48.7877 21.1506 44.0052 21.1665 39.2201C21.1771 36.228 22.4689 33.8858 24.8801 32.1431C24.9623 32.0848 25.0392 32.0238 25.1506 31.9389C22.3628 29.9972 20.9623 27.3686 21.1824 23.984C21.331 21.7055 22.3177 19.7877 24.0233 18.2651C27.5724 15.098 33.0445 15.4667 36.1612 19.0264C39.4344 22.7585 38.9543 28.8991 34.3336 31.8964ZM35.6625 52.4137C35.6705 52.2758 35.6864 52.1644 35.6864 52.0503C35.6864 47.74 35.6997 43.4323 35.6838 39.1219C35.6732 36.1166 33.3045 33.5569 30.3018 33.2545C26.8456 32.9071 23.7713 35.6471 23.758 39.106C23.7448 43.4163 23.7554 47.724 23.7554 52.0344C23.7554 52.159 23.7686 52.2811 23.7766 52.411C27.7554 52.4137 31.697 52.4137 35.6625 52.4137ZM23.7527 24.6789C23.758 27.9628 26.4371 30.6471 29.7103 30.6445C32.9915 30.6445 35.6944 27.9309 35.6864 24.6445C35.6785 21.3792 32.9862 18.6551 29.7156 18.6842C26.1002 18.7214 23.6917 21.6763 23.7527 24.6789Z" fill="#3A3A3A"/>
<path d="M46.3045 31.9363C43.6387 30.0743 42.2302 27.5862 42.323 24.3422C42.3894 21.9788 43.3443 19.9947 45.0551 18.374C48.5193 15.0955 54.1135 15.3979 57.3071 19.0212C60.5936 22.7507 60.1161 28.8621 55.4265 31.9337C55.5326 32.0186 55.6254 32.0981 55.7236 32.1698C58.14 33.9178 59.4079 36.2759 59.4212 39.2626C59.4424 44.0079 59.4106 48.756 59.4398 53.5013C59.4451 54.3501 58.9331 55.0504 57.904 55.0451C53.209 55.0133 48.5114 55.0159 43.8164 55.0451C42.8429 55.0504 42.2992 54.4191 42.3045 53.5278C42.3337 48.7427 42.3018 43.9575 42.323 39.1724C42.3363 36.2255 43.6175 33.9125 45.9835 32.183C46.0817 32.1087 46.1798 32.0318 46.3045 31.9363ZM44.9066 52.4085C48.9172 52.4085 52.8615 52.4085 56.8403 52.4085C56.8403 52.252 56.8403 52.1247 56.8403 52C56.8403 47.7427 56.8429 43.4854 56.8376 39.2255C56.8376 38.931 56.8058 38.6366 56.766 38.3448C56.392 35.6552 54.1374 33.504 51.4398 33.2546C47.9278 32.931 44.9119 35.6764 44.9093 39.2016C44.9066 43.4456 44.9093 47.6923 44.9093 51.9363C44.9066 52.0875 44.9066 52.2361 44.9066 52.4085ZM56.8403 24.6737C56.8456 21.557 54.3894 18.7162 50.8562 18.6896C47.5618 18.6658 44.9093 21.366 44.9066 24.6525C44.904 27.9602 47.5883 30.6578 50.8748 30.6446C54.1427 30.6339 56.8376 27.9363 56.8403 24.6737Z" fill="#3A3A3A"/>
<path d="M4.01541 31.9363C1.59631 30.2785 0.203738 28.061 0.0260196 25.1565C-0.122522 22.7241 0.633447 20.5756 2.3178 18.8196C5.73955 15.2493 11.2382 15.1803 14.6308 18.618C15.5486 19.5464 16.2329 20.626 16.6573 21.8594C17.0764 23.0795 17.2143 24.3289 17.0685 25.618C16.9226 26.9204 16.4982 28.1167 15.8032 29.2201C15.1189 30.313 14.217 31.1963 13.095 31.9204C13.2382 32.0265 13.339 32.1008 13.4398 32.175C15.8191 33.9124 17.0976 36.2414 17.1136 39.1989C17.1374 43.9708 17.1215 48.7427 17.1189 53.5119C17.1189 54.5544 16.652 55.0265 15.6202 55.0265C10.912 55.0265 6.20374 55.0265 1.49552 55.0265C0.474296 55.0265 0.007452 54.565 0.007452 53.549C0.007452 48.74 -0.0137685 43.9284 0.0154092 39.1193C0.0339769 36.2228 1.30453 33.9363 3.61753 32.2175C3.73955 32.1326 3.86422 32.0451 4.01541 31.9363ZM2.60162 52.4085C6.61223 52.4085 10.5565 52.4085 14.5353 52.4085C14.5353 52.2122 14.5353 52.0477 14.5353 51.8833C14.5353 47.7162 14.538 43.549 14.5327 39.3793C14.5327 39.0212 14.5035 38.6604 14.4584 38.305C14.0207 34.9549 10.5353 32.5729 7.25944 33.3819C4.41594 34.0849 2.60427 36.3952 2.60162 39.3156C2.60162 43.5225 2.60162 47.7294 2.60162 51.9337C2.60162 52.0849 2.60162 52.236 2.60162 52.4085ZM2.60162 24.6498C2.59631 27.9549 5.28862 30.6578 8.56979 30.6445C11.843 30.6339 14.5247 27.9416 14.538 24.6764C14.5486 21.6074 12.1348 18.7268 8.55918 18.687C5.27801 18.6525 2.60427 21.366 2.60162 24.6498Z" fill="#3A3A3A"/>
<path d="M48.5273 9.22007C48.6228 9.06888 48.6864 8.91769 48.7952 8.81159C51.5379 6.06092 54.2885 3.31557 57.0339 0.567555C57.4371 0.164372 57.8747 -0.108838 58.4769 0.0635756C59.3628 0.32087 59.7156 1.32352 59.1771 2.06888C59.0869 2.19355 58.9755 2.3023 58.8668 2.41106C55.766 5.5145 52.6625 8.6153 49.5617 11.7161C48.7766 12.5012 48.1214 12.5039 47.3416 11.7267C45.8296 10.2174 44.3257 8.70283 42.8084 7.19885C42.4212 6.81689 42.2275 6.37923 42.3495 5.84342C42.5485 4.96013 43.5909 4.57021 44.3363 5.09275C44.4822 5.1962 44.6121 5.32352 44.7395 5.45084C45.8694 6.57816 46.9968 7.70548 48.1241 8.83281C48.2222 8.9336 48.3257 9.02644 48.5273 9.22007Z" fill="#A71E22"/>
<path d="M27.3656 9.27588C27.4955 9.07429 27.5592 8.92309 27.6653 8.81434C30.4027 6.06102 33.1481 3.31036 35.8881 0.559697C36.3019 0.143251 36.7581 -0.122001 37.3682 0.076938C38.1931 0.34219 38.5353 1.2971 38.0526 2.01328C37.9385 2.18304 37.7926 2.33158 37.6467 2.47482C34.5645 5.5597 31.4823 8.64193 28.3974 11.7242C27.6175 12.5013 26.9624 12.5013 26.1799 11.7162C24.6706 10.2069 23.1587 8.70028 21.652 7.18569C21.1321 6.66315 21.0234 6.04776 21.3364 5.50665C21.7714 4.75333 22.7528 4.63397 23.4133 5.28118C24.4425 6.28914 25.4557 7.31301 26.4717 8.33423C26.7316 8.59949 26.9809 8.87269 27.3656 9.27588Z" fill="#A71E22"/>
<path d="M6.1215 9.18031C6.28065 9.03177 6.3841 8.93628 6.48224 8.83814C8.72097 6.60207 10.957 4.36334 13.1958 2.12727C13.7952 1.5278 14.3708 0.899149 15.0021 0.334162C15.7342 -0.32101 16.8509 0.0344281 17.0605 0.989335C17.1268 1.29703 17.0101 1.66042 16.912 1.97873C16.8616 2.14849 16.6838 2.28376 16.5486 2.41904C13.4398 5.53045 10.3284 8.6392 7.21699 11.7506C6.48755 12.4801 5.80054 12.488 5.07906 11.7692C3.56712 10.2625 2.06314 8.74796 0.545903 7.24398C0.155983 6.85671 -0.0800914 6.42169 0.044577 5.86467C0.155983 5.3766 0.466328 5.04504 0.954391 4.91241C1.45837 4.77448 1.89338 4.91772 2.25678 5.28111C3.24086 6.26254 4.22495 7.24398 5.20373 8.22806C5.50611 8.5278 5.79524 8.83814 6.1215 9.18031Z" fill="#A71E22"/>
</svg>
