<?xml version="1.0" encoding="utf-8"?>
<!-- Generator: Adobe Illustrator 25.3.0, SVG Export Plug-In . SVG Version: 6.00 Build 0)  -->
<svg version="1.1" id="Layer_1" xmlns="http://www.w3.org/2000/svg" xmlns:xlink="http://www.w3.org/1999/xlink" x="0px" y="0px"
	 viewBox="0 0 167.1 167.1" style="enable-background:new 0 0 167.1 167.1;" xml:space="preserve">
<style type="text/css">
	.st0{fill:none;stroke:#1F2539;stroke-width:2.5;stroke-linecap:round;stroke-miterlimit:10;}
	.st1{fill:none;stroke:#BB3C4E;stroke-width:2.5;stroke-linecap:round;stroke-miterlimit:10;}
</style>
<g>
	<g>
		<path class="st0" d="M3.3,110.2v-7.6c0-2.5,2-4.5,4.5-4.5h14.9c2.5,0,4.5,2,4.5,4.5v54.6c0,2.5-2,4.5-4.5,4.5H7.7
			c-2.5,0-4.5-2-4.5-4.5v-37.4"/>
		<line class="st0" x1="61.3" y1="118.5" x2="54.9" y2="117.1"/>
		<path class="st0" d="M107.9,119.7v-5.8c0-1.9-1.3-3.5-3.1-4L72.4,102c-0.6-0.1-1.2-0.2-1.8,0l-40.2,8c-1.9,0.4-3.3,2.1-3.3,4v35.9
			c0,2.1,1.6,3.8,3.6,4.1l67.2,7.6c1,0.1,2-0.1,2.8-0.7L162,119c1.6-1.1,2.2-3.2,1.4-5.1l-1.1-2.5c-0.9-1.9-3.1-2.9-5.1-2.2
			l-51.5,18.2c-0.7,0.3-1.5,0.3-2.2,0.1l-34.3-7.4"/>
	</g>
	<g>
		<g>
			<path class="st1" d="M117.8,69l-5,5c-0.2,0.2-0.5,0.2-0.7,0L63.7,25.4c-0.2-0.2-0.2-0.5,0-0.7l5-5c0.2-0.2,0.5-0.2,0.7,0
				l48.5,48.5C118,68.5,118,68.8,117.8,69z"/>
			<path class="st1" d="M121.8,79.1l-9.4-4.9c-0.3-0.1-0.3-0.5-0.1-0.7l5-5c0.2-0.2,0.6-0.2,0.7,0.1l4.9,9.4
				C123.3,78.6,122.6,79.4,121.8,79.1z"/>
			
				<rect x="62.9" y="19.5" transform="matrix(0.7071 -0.7071 0.7071 0.7071 4.0685 52.1084)" class="st1" width="4.1" height="3.3"/>
			<path class="st1" d="M61.5,14l-3.6,3.6c-0.6,0.6-0.6,1.5,0,2.1l1.8,1.8c0.6,0.6,1.5,0.6,2.1,0l3.6-3.6c0.6-0.6,0.6-1.5,0-2.1
				L63.6,14C63,13.5,62.1,13.5,61.5,14z"/>
			<path class="st1" d="M84.8,31.9l1.3,2.1l-0.5-3L67.3,12.6c-0.2-0.2-0.6-0.2-0.9,0l-2.1,2.1"/>
		</g>
		<g>
			<polyline class="st1" points="91.4,53.1 62.3,82.2 55,74.9 84.1,45.8 			"/>
			<polyline class="st1" points="89.7,40.2 119.5,10.4 126.8,17.7 97,47.5 			"/>
			<path class="st1" d="M123,21.5"/>
			<line class="st1" x1="116" y1="22.7" x2="118.9" y2="25.6"/>
			<path class="st1" d="M114.9,29.6"/>
			<line class="st1" x1="107.9" y1="30.7" x2="110.9" y2="33.6"/>
			<path class="st1" d="M106.8,37.7"/>
			<line class="st1" x1="99.9" y1="38.8" x2="102.8" y2="41.7"/>
			<path class="st1" d="M98.8,45.7"/>
			<path class="st1" d="M91.8,46.8"/>
			<path class="st1" d="M90.7,53.8"/>
			<line class="st1" x1="83.8" y1="54.9" x2="86.7" y2="57.8"/>
			<path class="st1" d="M82.6,61.8"/>
			<line class="st1" x1="75.7" y1="63" x2="78.6" y2="65.9"/>
			<path class="st1" d="M74.6,69.9"/>
			<line class="st1" x1="67.6" y1="71" x2="70.6" y2="73.9"/>
			<path class="st1" d="M66.5,78"/>
		</g>
	</g>
</g>
</svg>
