<?xml version="1.0" encoding="utf-8"?>
<!-- Generator: Adobe Illustrator 25.3.0, SVG Export Plug-In . SVG Version: 6.00 Build 0)  -->
<svg version="1.1" id="Layer_1" xmlns="http://www.w3.org/2000/svg" xmlns:xlink="http://www.w3.org/1999/xlink" x="0px" y="0px"
	 viewBox="0 0 167.1 167.1" style="enable-background:new 0 0 167.1 167.1;" xml:space="preserve">
<style type="text/css">
	.st0{fill:none;stroke:#1F2539;stroke-width:2.5;stroke-linecap:round;stroke-miterlimit:10;}
	.st1{fill:none;stroke:#BB3C4E;stroke-width:2.5;stroke-linecap:round;stroke-miterlimit:10;}
</style>
<g>
	<g>
		<path class="st0" d="M3.3,110.2v-7.6c0-2.5,2-4.5,4.5-4.5h14.9c2.5,0,4.5,2,4.5,4.5v54.6c0,2.5-2,4.5-4.5,4.5H7.7
			c-2.5,0-4.5-2-4.5-4.5v-37.4"/>
		<line class="st0" x1="61.3" y1="118.5" x2="54.9" y2="117.1"/>
		<path class="st0" d="M107.9,119.7v-5.8c0-1.9-1.3-3.5-3.1-4L72.4,102c-0.6-0.1-1.2-0.2-1.8,0l-40.2,8c-1.9,0.4-3.3,2.1-3.3,4v35.9
			c0,2.1,1.6,3.8,3.6,4.1l67.2,7.6c1,0.1,2-0.1,2.8-0.7L162,119c1.6-1.1,2.2-3.2,1.4-5.1l-1.1-2.5c-0.9-1.9-3.1-2.9-5.1-2.2
			l-51.5,18.2c-0.7,0.3-1.5,0.3-2.2,0.1l-34.3-7.4"/>
	</g>
	<path class="st1" d="M127.6,33.2h-22.4c-1.5,0-2.7-1.2-2.7-2.7V8.1c0-1.5-1.2-2.7-2.7-2.7H79.1c-1.5,0-2.7,1.2-2.7,2.7v22.4
		c0,1.5-1.2,2.7-2.7,2.7H51.2c-1.5,0-2.7,1.2-2.7,2.7v20.6c0,1.5,1.2,2.7,2.7,2.7h22.4c1.5,0,2.7,1.2,2.7,2.7v22.4
		c0,1.5,1.2,2.7,2.7,2.7h20.6c1.5,0,2.7-1.2,2.7-2.7V62c0-1.5,1.2-2.7,2.7-2.7h22.4c1.5,0,2.7-1.2,2.7-2.7V36
		C130.3,34.5,129.1,33.2,127.6,33.2z"/>
</g>
</svg>
