<svg width="69" height="56" viewBox="0 0 69 56" fill="none" xmlns="http://www.w3.org/2000/svg">
<path d="M68.6843 11.4881C68.5968 11.9735 68.5305 12.4642 68.4138 12.9417C67.8594 15.2335 66.5225 17.0107 64.7188 18.4695C63.1777 19.7162 61.4297 20.5756 59.5384 21.1433C59.2546 21.2282 59.1644 21.3502 59.1644 21.6473C59.1724 29.8595 59.1724 38.0717 59.1644 46.2812C59.1644 46.6313 59.2864 46.6897 59.6021 46.7056C60.1299 46.7321 60.6843 46.7428 61.1724 46.9205C62.3687 47.3528 62.9018 48.4828 62.7427 49.8382C62.2918 53.6579 58.7506 55.9629 55.5994 55.9603C42.6604 55.9496 29.7215 55.955 16.7798 55.955C13.6207 55.955 10.4615 55.9603 7.30236 55.9523C4.15648 55.947 1.24666 53.817 0.442948 50.8807C0.265229 50.2282 0.185654 49.5093 0.244009 48.8382C0.347458 47.6632 1.42173 46.7587 2.60475 46.7083C2.90714 46.695 3.21218 46.6897 3.51456 46.6977C3.73738 46.703 3.82491 46.6101 3.80634 46.3926C3.79839 46.2839 3.80634 46.1751 3.80634 46.0637C3.80634 36.504 3.80634 26.9443 3.80634 17.3847C3.80634 15.939 4.74533 14.7772 6.11403 14.5199C6.27849 14.4881 6.4509 14.4908 6.62066 14.4908C17.6658 14.4908 28.7082 14.4908 39.7533 14.4908C39.9204 14.4908 40.0902 14.4908 40.2997 14.4908C40.2652 14.3608 40.2467 14.2706 40.2148 14.1857C38.9045 10.6764 39.6711 7.56769 42.122 4.84885C44.4085 2.31304 47.374 0.981478 50.6764 0.374051C53.9124 -0.220113 57.1114 -0.0185206 60.2254 1.07962C63.0291 2.06901 65.4297 3.62604 67.122 6.13798C67.9628 7.38732 68.4801 8.75867 68.6047 10.2706C68.6127 10.3634 68.6525 10.4536 68.679 10.5465C68.6843 10.8568 68.6843 11.1725 68.6843 11.4881ZM56.7612 21.8038C56.6445 21.8038 56.5835 21.7985 56.5252 21.8038C54.3475 22.0743 52.1883 21.9762 50.0398 21.5279C49.9071 21.5014 49.7241 21.5518 49.6048 21.6287C47.4642 23.069 45.0822 23.8462 42.5464 24.2016C41.8037 24.3051 41.2414 24.0531 40.9231 23.4934C40.6048 22.9337 40.687 22.3369 41.1644 21.7454C41.9071 20.825 42.4085 19.7852 42.74 18.6552C42.8753 18.1937 42.8727 17.8064 42.4323 17.512C42.3342 17.4457 42.2467 17.3502 42.183 17.2494C41.9761 16.9311 41.6949 16.8542 41.3183 16.8542C29.8753 16.8648 18.4297 16.8621 6.98671 16.8621C6.88857 16.8621 6.79308 16.8674 6.69494 16.8621C6.42969 16.8489 6.28114 16.9921 6.23075 17.2308C6.19892 17.382 6.19626 17.5438 6.19361 17.7003C6.19096 27.199 6.19096 36.6977 6.19361 46.1963C6.19361 46.695 6.19361 46.695 6.68698 46.695C11.618 46.695 16.5517 46.7003 21.4827 46.6897C22.1856 46.6871 22.8169 46.8409 23.4138 47.2149C23.992 47.5783 24.618 47.8595 25.3209 47.8595C29.4403 47.8621 33.557 47.8648 37.6764 47.8568C38.3475 47.8542 39.0398 47.8064 39.5809 47.3634C40.1963 46.8595 40.8859 46.7109 41.6472 46.7109C46.5066 46.7136 51.366 46.7083 56.2254 46.7056C56.7586 46.7056 56.7586 46.7056 56.7586 46.1804C56.7586 38.2122 56.7586 30.2441 56.7586 22.2759C56.7612 22.1327 56.7612 21.9894 56.7612 21.8038ZM44.2679 21.4191C44.4403 21.3767 44.5782 21.3475 44.7135 21.3077C46.0636 20.9072 47.3183 20.3077 48.4668 19.4961C48.992 19.1247 49.5199 18.9258 50.1989 19.0955C53.0504 19.8091 55.8992 19.7401 58.7215 18.9284C60.9416 18.2892 62.9204 17.2202 64.4721 15.4589C66.7002 12.9311 66.8355 9.64991 64.8223 6.98678C63.8594 5.71092 62.6233 4.75602 61.1963 4.06636C57.2201 2.14594 53.1167 1.9523 48.9363 3.28121C46.8886 3.93373 45.0742 5.00005 43.679 6.67114C42.3103 8.31305 41.6817 10.1804 42.1406 12.321C42.4854 13.939 43.4005 15.2202 44.6101 16.3051C44.9655 16.6234 45.1485 17.008 45.2069 17.4722C45.3077 18.2361 45.1591 18.9709 44.9231 19.6897C44.7347 20.252 44.5013 20.8064 44.2679 21.4191ZM31.3183 53.5969C39.2758 53.5969 47.236 53.5995 55.1936 53.5889C55.7347 53.5889 56.2891 53.5226 56.8143 53.3953C58.7268 52.9311 60.0928 51.4271 60.3368 49.573C60.3979 49.1194 60.366 49.0823 59.8806 49.0823C56.1512 49.0876 52.4217 49.0929 48.6896 49.1008C46.3209 49.1061 43.9522 49.1141 41.5835 49.1274C41.4217 49.1274 41.2201 49.1406 41.1034 49.2308C40.1087 49.9947 38.9602 50.2335 37.7453 50.2335C33.7002 50.2388 29.6525 50.2229 25.6074 50.2441C24.5172 50.2494 23.4986 50.0292 22.5756 49.4802C22.0371 49.1618 21.5013 49.069 20.8886 49.0717C15.3713 49.0902 9.85674 49.0823 4.3395 49.0823C3.89122 49.0823 3.4403 49.0902 2.99202 49.0796C2.7029 49.0717 2.57823 49.1565 2.6021 49.4802C2.68698 50.5385 3.13791 51.4165 3.88592 52.138C4.95488 53.1672 6.26258 53.5969 7.73207 53.5969C15.5968 53.5942 23.4589 53.5969 31.3183 53.5969Z" fill="#3A3A3A"/>
<path d="M31.5517 45.114C28.1273 45.114 24.7029 45.114 21.2785 45.1114C21.061 45.1114 20.8408 45.1061 20.626 45.0716C20.1061 44.9894 19.6711 44.5835 19.6631 44.0318C19.6419 42.5915 19.496 41.1432 19.8461 39.7188C20.5437 36.878 23.0981 34.7851 26.0185 34.7506C29.5756 34.7055 33.1352 34.7321 36.6923 34.7162C40.1724 34.7002 42.3024 36.9071 43.0185 38.8965C43.2679 39.5941 43.4111 40.3474 43.4827 41.0875C43.565 41.9549 43.5199 42.8329 43.5146 43.7082C43.5092 44.626 43.0451 45.0981 42.1193 45.1087C41.1724 45.122 40.2254 45.1114 39.2785 45.1114C36.7002 45.114 34.1246 45.114 31.5517 45.114ZM31.557 42.7055C32.6737 42.7055 33.7904 42.7055 34.9098 42.7055C36.8408 42.7055 38.7718 42.7029 40.7029 42.7082C40.9602 42.7082 41.114 42.6764 41.0928 42.3581C41.0663 41.9602 41.0981 41.557 41.0795 41.1565C40.9708 38.9045 39.252 37.1538 36.9973 37.1246C33.4642 37.0769 29.931 37.0902 26.3952 37.1034C24.5464 37.1087 23.1963 37.9628 22.3978 39.6419C22.0053 40.4668 22.0371 41.3607 22.0159 42.2467C22.0079 42.618 22.114 42.7161 22.4854 42.7135C25.5092 42.6976 28.5331 42.7055 31.557 42.7055Z" fill="#A71E22"/>
<path d="M31.5464 33.1379C27.6711 33.1193 24.5941 29.9973 24.6074 26.0955C24.6207 22.3581 27.7533 19.2281 31.5517 19.2467C35.496 19.2652 38.5358 22.3634 38.5252 26.2148C38.5172 30.0822 35.374 33.1538 31.5464 33.1379ZM27.0212 26.1804C27.0132 28.6976 29.0477 30.7374 31.5729 30.748C34.0477 30.7586 36.1034 28.7162 36.1114 26.244C36.1193 23.6949 34.1246 21.6578 31.6021 21.6419C29.0769 21.626 27.0292 23.6552 27.0212 26.1804Z" fill="#A71E22"/>
<path d="M53.9231 12.0107C56.1326 12.0107 58.3422 12.0107 60.5517 12.0107C61.3422 12.0107 61.8806 12.4908 61.8859 13.1911C61.8912 13.8808 61.3448 14.3847 60.5597 14.3847C56.1273 14.3874 51.6976 14.3874 47.2652 14.3847C46.5411 14.3847 46.0451 13.9683 45.9576 13.3237C45.8833 12.7534 46.2759 12.1885 46.8621 12.0452C47 12.0107 47.1512 12.0107 47.2944 12.0107C49.504 12.0107 51.7135 12.0107 53.9231 12.0107Z" fill="#3A3A3A"/>
<path d="M50.1989 9.77994C49.2175 9.77994 48.2334 9.78259 47.2519 9.77994C46.4933 9.77729 45.9602 9.28922 45.9549 8.59957C45.9469 7.91256 46.4721 7.41124 47.236 7.40859C49.2387 7.40328 51.2387 7.40063 53.2413 7.40859C53.9787 7.41124 54.4986 7.90726 54.5066 8.581C54.5119 9.2627 53.9708 9.77463 53.2228 9.77729C52.2122 9.78524 51.2042 9.77994 50.1989 9.77994Z" fill="#3A3A3A"/>
</svg>
