<svg width="158" height="158" viewBox="0 0 158 158" fill="none" xmlns="http://www.w3.org/2000/svg">
<path d="M157.79 0H0V157.79H157.79V0Z" fill="#F7F6F7"/>
<path d="M44.3308 59.6135C46.0574 56.6822 48.1444 53.9975 50.5445 51.6164L30.1579 29.2565C25.0257 34.1611 20.6524 39.8435 17.2087 46.1047L44.3308 59.6135Z" fill="#64AD35"/>
<path d="M94.3154 43.8185C97.408 45.232 100.273 47.044 102.863 49.1784L123.306 26.8566C117.918 22.2176 111.818 18.3851 105.187 15.5486L94.3154 43.8185Z" fill="#E7B717"/>
<path d="M141.132 50.5443L114.038 64.0532C115.328 67.0699 116.248 70.2859 116.751 73.6252L146.89 70.7792C145.998 63.6453 144.025 56.8434 141.132 50.5443Z" fill="#C31A23"/>
<path d="M112.093 60.1353L139.187 46.6264C135.829 40.3938 131.55 34.7208 126.522 29.8163L106.079 52.1381C108.413 54.5287 110.433 57.2135 112.093 60.1353Z" fill="#489835"/>
<path d="M38.9519 79.393C38.9519 78.7859 38.9708 78.1693 38.9993 77.5716L8.85101 74.8774C8.75614 76.3668 8.69922 77.8847 8.69922 79.4025C8.69922 85.1798 9.4202 90.8054 10.7483 96.1748L39.8721 87.8171C39.2744 85.0945 38.9519 82.2864 38.9519 79.393Z" fill="#417F3D"/>
<path d="M108.299 104.172C106.155 106.781 103.679 109.105 100.947 111.088L116.865 136.863C122.775 132.859 128.031 127.964 132.451 122.386L108.299 104.172Z" fill="#F8C300"/>
<path d="M117.178 79.3931C117.178 82.2485 116.865 85.0281 116.277 87.7128L145.391 96.08C146.719 90.739 147.431 85.142 147.431 79.3931C147.431 77.9701 147.383 76.5471 147.298 75.1336L117.15 77.9796C117.169 78.4539 117.178 78.9188 117.178 79.3931Z" fill="#E23623"/>
<path d="M48.3151 104.741L24.2192 123.06C28.6969 128.581 34.0094 133.391 39.9575 137.318L55.8759 111.571C53.0584 109.636 50.5255 107.34 48.3151 104.741Z" fill="#F39D19"/>
<path d="M39.4358 73.2173C39.9765 69.8117 40.9631 66.5578 42.3292 63.5031L15.2356 50.0132C12.2473 56.3787 10.1982 63.2754 9.25903 70.5137L39.4358 73.2173Z" fill="#2693D1"/>
<path d="M113.165 139.196L97.2659 113.459C94.3725 115.091 91.2704 116.372 87.988 117.225L93.6041 147.004C100.577 145.391 107.16 142.735 113.165 139.196Z" fill="#A4183D"/>
<path d="M115.119 91.9247C114.066 95.0268 112.634 97.9487 110.888 100.643L135.07 118.876C138.997 113.232 142.099 106.98 144.215 100.292L115.119 91.9247Z" fill="#3CB9E1"/>
<path d="M83.6999 118.089C81.8595 118.354 79.9717 118.497 78.0649 118.497C76.5281 118.497 75.0007 118.402 73.5113 118.231L67.9048 148.009C71.2251 148.503 74.6118 148.759 78.0649 148.759C81.888 148.759 85.6447 148.446 89.3065 147.848L83.6999 118.089Z" fill="#E86120"/>
<path d="M80.56 40.356C83.9182 40.5742 87.1627 41.2098 90.2363 42.2248L101.108 13.9644C94.6381 11.6781 87.7319 10.331 80.5505 10.0749V40.356H80.56Z" fill="#DE1931"/>
<path d="M69.2046 117.491C65.8179 116.704 62.5925 115.47 59.6042 113.858L43.6763 139.614C49.8046 143.124 56.5021 145.723 63.6075 147.231L69.2046 117.491Z" fill="#D80460"/>
<path d="M66.311 42.0824C69.4511 41.0863 72.7619 40.4887 76.196 40.3274V10.0463C68.9103 10.236 61.9282 11.5641 55.3635 13.8409L66.311 42.0824Z" fill="#1B4469"/>
<path d="M45.6589 101.269C43.7426 98.4325 42.1773 95.3209 41.0484 92.0196L11.9531 100.368C14.154 107.312 17.4174 113.772 21.563 119.578L45.6589 101.269Z" fill="#CA9A12"/>
<path d="M53.8267 48.7135C56.3881 46.6928 59.1961 44.9852 62.2129 43.6381L51.2654 15.4156C44.7481 18.1477 38.7431 21.857 33.4211 26.3442L53.8267 48.7135Z" fill="#05659B"/>
</svg>
