<svg width="153" height="152" viewBox="0 0 153 152" fill="none" xmlns="http://www.w3.org/2000/svg">
<g opacity="0.3">
<path d="M152.054 0H0.37207V151.682H152.054V0Z" fill="#CD8B2A"/>
<path d="M13.3705 18.9114C12.6315 19.2502 11.8727 19.5439 11.0982 19.791C10.0964 20.1331 9.46115 20.353 9.19238 20.4752V16.3704C10.2071 15.9616 11.1946 15.4883 12.1488 14.9532C13.0433 14.4869 13.8662 13.8944 14.5921 13.194H18.9168V42.1231H13.3705V18.9114Z" fill="white"/>
<path d="M21.9711 38.2137L28.9835 27.4142L29.3988 26.7545C30.1519 25.6749 30.8217 24.5396 31.4024 23.3583C31.8725 22.4167 32.1231 21.3809 32.1354 20.3285C32.1758 19.5819 31.9883 18.8406 31.5978 18.2028C31.4213 17.9635 31.1885 17.7714 30.92 17.6435C30.6515 17.5157 30.3556 17.456 30.0585 17.4698C29.6374 17.4331 29.2149 17.5227 28.845 17.7272C28.475 17.9318 28.1745 18.242 27.9817 18.6182C27.4941 19.597 27.2431 20.6766 27.2487 21.7701V23.0895H21.9711V21.6479C21.8531 19.3397 22.5348 17.0615 23.9014 15.1975C24.6433 14.3631 25.5662 13.7092 26.5994 13.2857C27.6326 12.8623 28.7489 12.6805 29.8631 12.7542C30.9003 12.6808 31.9417 12.8182 32.9244 13.1584C33.9071 13.4986 34.8106 14.0343 35.5805 14.7333C36.2604 15.4991 36.7813 16.3924 37.1127 17.3614C37.444 18.3304 37.5794 19.3556 37.5107 20.3774C37.519 21.4555 37.354 22.528 37.022 23.5537C36.7165 24.4573 36.3152 25.3256 35.8248 26.1437C35.385 26.9255 34.6764 28.0006 33.7235 29.3933L28.1527 37.7495H36.7533V42.1231H21.9711V38.2137Z" fill="white"/>
<path d="M48.6279 24.2378V13.1695H51.2912C51.9286 13.1587 52.5636 13.2495 53.1725 13.4383C53.6562 13.595 54.0707 13.9144 54.3453 14.3423C54.6461 14.8781 54.7901 15.4877 54.7607 16.1015C54.7601 16.5037 54.7192 16.9047 54.6385 17.2987C54.5604 17.6243 54.4193 17.9314 54.2232 18.2028C54.0028 18.4681 53.7162 18.6704 53.3924 18.7892L54.9562 24.2378H52.9282L51.6821 19.1557H50.7536V24.2378H48.6279ZM50.6559 17.8851H51.2912C51.6099 17.9038 51.9285 17.8452 52.2196 17.7141C52.3347 17.6645 52.4378 17.5908 52.522 17.4981C52.6063 17.4054 52.6698 17.2958 52.7083 17.1766C52.837 16.8761 52.8955 16.5502 52.8793 16.2237C52.9019 15.778 52.7913 15.3357 52.5617 14.9531C52.4008 14.8193 52.2118 14.7234 52.0088 14.6726C51.8057 14.6219 51.5938 14.6175 51.3889 14.6599H50.6559V17.8851Z" fill="white"/>
<path d="M55.8601 24.238V13.1697H60.5024V14.6601H57.8881V17.8364H59.9405V19.2536H57.8881V22.9186H60.5269V24.3113L55.8601 24.238Z" fill="white"/>
<path d="M64.0698 24.4333C63.4917 24.4465 62.9198 24.312 62.4083 24.0424C61.9707 23.7556 61.6367 23.3359 61.4554 22.8451C61.1957 22.2692 61.0624 21.6444 61.0645 21.0126L62.7992 20.6706C62.8123 21.0506 62.8697 21.4278 62.9703 21.7945C63.0132 22.0833 63.1507 22.3497 63.3612 22.5519C63.4555 22.6416 63.5667 22.7116 63.6884 22.7578C63.8101 22.8039 63.9397 22.8253 64.0698 22.8207C64.1992 22.8325 64.3295 22.8119 64.449 22.7607C64.5684 22.7095 64.6732 22.6294 64.7539 22.5275C64.8985 22.3116 64.9672 22.0537 64.9494 21.7945C64.9709 21.3721 64.8599 20.9534 64.6317 20.5973C64.3784 20.2523 64.0829 19.9404 63.7521 19.6688L62.3594 18.4471C61.9926 18.1303 61.6863 17.7494 61.4554 17.3232C61.2053 16.8501 61.0871 16.3184 61.1133 15.7839C61.0858 15.4112 61.1393 15.037 61.27 14.687C61.4008 14.3369 61.6057 14.0193 61.8708 13.7559C62.4352 13.2759 63.1582 13.0233 63.8987 13.0474C64.3513 13.0292 64.8021 13.1127 65.2181 13.2917C65.5466 13.4265 65.8273 13.6562 66.0244 13.9514C66.2415 14.2347 66.3993 14.5588 66.4887 14.9043C66.5913 15.2798 66.6568 15.6644 66.6841 16.0527L64.9494 16.3459C64.9773 16.037 64.9773 15.7263 64.9494 15.4174C64.8991 15.1821 64.7898 14.9635 64.6317 14.7821C64.5252 14.711 64.4047 14.6633 64.2784 14.6423C64.152 14.6212 64.0226 14.6272 63.8987 14.66C63.7698 14.6523 63.6408 14.6748 63.522 14.7257C63.4032 14.7766 63.298 14.8545 63.2146 14.9532C63.0451 15.1588 62.9581 15.42 62.9703 15.6862C62.9554 16.0101 63.0315 16.3318 63.1902 16.6146C63.3898 16.8914 63.6193 17.1454 63.8743 17.3721L65.2426 18.5693C65.6672 18.9202 66.0377 19.3318 66.3421 19.791C66.6772 20.3603 66.8464 21.0119 66.8307 21.6723C66.8375 22.1613 66.7108 22.6428 66.4642 23.065C66.2515 23.4726 65.9189 23.8052 65.5113 24.0179C65.0768 24.2833 64.5789 24.4268 64.0698 24.4333Z" fill="white"/>
<path d="M67.5149 24.238V13.1697H70.7645C71.3251 13.1462 71.8818 13.2727 72.3771 13.5362C72.7958 13.7834 73.122 14.161 73.3056 14.6113C73.5166 15.1561 73.6163 15.7376 73.5988 16.3216C73.6235 16.9214 73.4975 17.5178 73.2323 18.0564C73.0031 18.4862 72.6317 18.823 72.1817 19.0093C71.6868 19.2159 71.154 19.3158 70.6179 19.3025H69.5429V24.1891L67.5149 24.238ZM69.5429 17.8853H70.3003C70.617 17.9108 70.9353 17.8605 71.2288 17.7387C71.3303 17.6874 71.4198 17.6151 71.4914 17.5266C71.5629 17.4382 71.615 17.3356 71.6441 17.2256C71.7323 16.9243 71.7735 16.6111 71.7663 16.2972C71.8102 15.9729 71.8102 15.6441 71.7663 15.3198C71.7445 15.1716 71.683 15.0321 71.5884 14.9159C71.4938 14.7998 71.3695 14.7114 71.2288 14.6601C70.923 14.5925 70.6061 14.5925 70.3003 14.6601H69.5429V17.8853Z" fill="white"/>
<path d="M77.3125 24.4333C76.6567 24.4652 76.005 24.3128 75.4312 23.9935C74.9627 23.6961 74.6094 23.248 74.4294 22.723C74.2198 22.1016 74.1206 21.4483 74.1362 20.7928V16.6147C74.1177 15.9509 74.217 15.2891 74.4294 14.66C74.628 14.1584 74.9782 13.7313 75.4312 13.4383C76.0207 13.1649 76.6627 13.0233 77.3125 13.0233C77.9624 13.0233 78.6044 13.1649 79.1939 13.4383C79.6469 13.7313 79.9971 14.1584 80.1957 14.66C80.4053 15.2814 80.5045 15.9346 80.4889 16.5902V20.7683C80.5027 21.4158 80.4034 22.0607 80.1957 22.6741C79.9988 23.1897 79.6493 23.6329 79.1939 23.9447C78.6251 24.281 77.9731 24.4503 77.3125 24.4333ZM77.3125 22.9429C77.5758 22.9643 77.8375 22.8858 78.0455 22.723C78.1471 22.6301 78.2279 22.5167 78.2827 22.3904C78.3374 22.2641 78.3648 22.1276 78.3632 21.99C78.4033 21.7145 78.4033 21.4347 78.3632 21.1593V16.1504C78.4033 15.875 78.4033 15.5951 78.3632 15.3197C78.3443 15.0676 78.2309 14.8319 78.0455 14.66C77.8375 14.4971 77.5758 14.4186 77.3125 14.4401C77.0498 14.4233 76.7897 14.5013 76.5795 14.66C76.4098 14.8134 76.2977 15.0204 76.2619 15.2464C76.2218 15.5218 76.2218 15.8017 76.2619 16.0771V21.2326C76.2345 21.5088 76.2345 21.7871 76.2619 22.0633C76.2984 22.3141 76.4309 22.541 76.6315 22.696C76.8321 22.851 77.085 22.922 77.337 22.894L77.3125 22.9429Z" fill="white"/>
<path d="M81.5884 24.238V13.1697H82.9811L85.6687 19.5468V13.1697H87.3302V24.238H86.0108L83.2987 17.6165V24.238H81.5884Z" fill="white"/>
<path d="M91.3861 24.4333C90.8081 24.4465 90.2362 24.312 89.7247 24.0423C89.2769 23.7761 88.9259 23.3738 88.7229 22.894C88.4563 22.3031 88.3228 21.6608 88.332 21.0126L90.0667 20.6705C90.0798 21.0506 90.1372 21.4278 90.2378 21.7945C90.2807 22.0832 90.4182 22.3496 90.6287 22.5519C90.723 22.6416 90.8342 22.7116 90.9559 22.7578C91.0776 22.8039 91.2072 22.8253 91.3373 22.8207C91.4667 22.8325 91.597 22.8119 91.7165 22.7607C91.8359 22.7095 91.9407 22.6293 92.0214 22.5275C92.166 22.3115 92.2347 22.0537 92.2169 21.7945C92.2385 21.372 92.1274 20.9534 91.8992 20.5972C91.6459 20.2523 91.3504 19.9404 91.0196 19.6688L89.6269 18.4471C89.2513 18.1324 88.9366 17.7514 88.6985 17.3232C88.4399 16.8525 88.3132 16.3206 88.332 15.7839C88.3045 15.4112 88.3579 15.037 88.4887 14.687C88.6194 14.3369 88.8243 14.0193 89.0894 13.7559C89.6664 13.2642 90.4091 13.0109 91.1662 13.0473C91.6188 13.0291 92.0696 13.1126 92.4856 13.2917C92.8141 13.4264 93.0948 13.6561 93.2919 13.9514C93.509 14.2347 93.6668 14.5587 93.7562 14.9043C93.8588 15.2797 93.9243 15.6644 93.9516 16.0526L92.2169 16.3458C92.2448 16.037 92.2448 15.7262 92.2169 15.4174C92.1666 15.1821 92.0573 14.9635 91.8992 14.7821C91.8112 14.6994 91.7074 14.6351 91.5941 14.5931C91.4808 14.5512 91.3603 14.5323 91.2395 14.5378C91.1106 14.5301 90.9816 14.5526 90.8628 14.6035C90.744 14.6544 90.6388 14.7323 90.5554 14.831C90.386 15.0366 90.2989 15.2978 90.3111 15.564C90.2962 15.8879 90.3723 16.2096 90.531 16.4924C90.7307 16.7692 90.9601 17.0232 91.2151 17.2499L92.5834 18.4471C93.0437 18.8295 93.4396 19.2832 93.7562 19.7909C94.0913 20.3602 94.2605 21.0119 94.2448 21.6723C94.2516 22.1612 94.1249 22.6427 93.8783 23.065C93.6656 23.4726 93.3331 23.8052 92.9254 24.0179C92.4627 24.3008 91.9284 24.445 91.3861 24.4333Z" fill="white"/>
<path d="M94.8801 24.238V13.1697H96.8837V24.238H94.8801Z" fill="white"/>
<path d="M98.1052 24.2379V13.1696H100.817C101.269 13.1661 101.72 13.2153 102.161 13.3162C102.529 13.3921 102.878 13.5417 103.187 13.756C103.471 13.9953 103.697 14.2961 103.847 14.6356C104.005 15.074 104.08 15.5381 104.067 16.0039C104.097 16.3733 104.064 16.7451 103.969 17.1034C103.86 17.3989 103.675 17.6602 103.432 17.8608C103.167 18.0634 102.857 18.1977 102.528 18.2517C102.925 18.306 103.302 18.457 103.627 18.6915C103.905 18.9404 104.122 19.2497 104.262 19.5956C104.418 20.0345 104.493 20.4982 104.482 20.9638C104.489 21.4372 104.415 21.9082 104.262 22.3565C104.157 22.7356 103.955 23.0808 103.676 23.3583C103.419 23.6434 103.09 23.8543 102.723 23.9691C102.284 24.1233 101.82 24.1978 101.355 24.189L98.1052 24.2379ZM100.133 17.6898H100.817C101.136 17.7085 101.455 17.6498 101.746 17.5187C101.853 17.4587 101.946 17.3781 102.022 17.2817C102.097 17.1853 102.153 17.0748 102.186 16.9568C102.294 16.6597 102.344 16.3444 102.332 16.0283C102.345 15.7152 102.278 15.404 102.137 15.1243C102.019 14.9105 101.828 14.7459 101.599 14.66C101.251 14.6122 100.897 14.6122 100.549 14.66H100.158L100.133 17.6898ZM100.133 22.7963H100.891C101.118 22.8257 101.35 22.8012 101.566 22.7248C101.782 22.6484 101.978 22.5223 102.137 22.3565C102.384 21.9454 102.496 21.4665 102.454 20.9883C102.466 20.6242 102.417 20.2608 102.308 19.9132C102.207 19.6534 102.027 19.4313 101.795 19.2779C101.488 19.138 101.154 19.0711 100.817 19.0825H100.133V22.7963Z" fill="white"/>
<path d="M105.435 24.238V13.1697H107.463V22.943H110.151V24.3357L105.435 24.238Z" fill="white"/>
<path d="M110.664 24.238V13.1697H115.209V14.6601H112.765V17.8364H114.842V19.2536H112.765V22.9186H115.429V24.3113L110.664 24.238Z" fill="white"/>
<path d="M51.6821 42.4406C51.0121 42.4739 50.3477 42.3035 49.7763 41.952C49.3217 41.6402 48.9859 41.1838 48.8234 40.657C48.6249 40.0419 48.534 39.3972 48.5546 38.7512V34.8175C48.5341 34.1474 48.625 33.4786 48.8234 32.8384C48.9717 32.3109 49.3115 31.8578 49.7763 31.5678C50.3504 31.2248 51.0146 31.063 51.6821 31.1036C52.308 31.0804 52.9297 31.2148 53.4902 31.4945C53.9106 31.7554 54.2295 32.1519 54.3942 32.6185C54.6007 33.1475 54.7003 33.7122 54.6874 34.2799V35.2084H52.7327V34.2066C52.7585 33.9303 52.7585 33.6522 52.7327 33.3759C52.7171 33.1517 52.6317 32.9381 52.4884 32.7651C52.2828 32.5976 52.0192 32.5186 51.7554 32.5452C51.4842 32.5199 51.2135 32.5984 50.998 32.7651C50.8258 32.9464 50.7147 33.1771 50.6803 33.4248C50.6531 33.7255 50.6531 34.0281 50.6803 34.3288V39.2154C50.6489 39.5486 50.6489 39.884 50.6803 40.2172C50.731 40.4492 50.8605 40.6564 51.0468 40.8036C51.2461 40.9445 51.4873 41.0135 51.731 40.9991C51.8599 41.0148 51.9907 41.001 52.1134 40.9587C52.2362 40.9163 52.3477 40.8466 52.4395 40.7547C52.5908 40.5747 52.6844 40.3534 52.7083 40.1195C52.7083 39.8751 52.7083 39.5575 52.7083 39.2399V38.2381H54.663V39.0933C54.6669 39.6822 54.5761 40.2679 54.3942 40.828C54.2306 41.3081 53.9127 41.7204 53.4902 42.0008C52.9427 42.3192 52.3146 42.472 51.6821 42.4406Z" fill="white"/>
<path d="M58.5966 42.4408C57.9485 42.4733 57.3044 42.3207 56.7397 42.001C56.2755 41.7097 55.9227 41.2708 55.7379 40.7549C55.5308 40.1245 55.4317 39.4636 55.4447 38.8002V34.671C55.4289 34.0234 55.5282 33.3781 55.7379 32.7652C55.915 32.2512 56.2704 31.8178 56.7397 31.5435C57.3044 31.2237 57.9485 31.0712 58.5966 31.1037C59.2606 31.0686 59.921 31.221 60.5024 31.5435C60.9533 31.8326 61.2967 32.2618 61.4798 32.7652C61.7114 33.373 61.8194 34.0209 61.7974 34.671V38.8246C61.8156 39.4745 61.7077 40.1216 61.4798 40.7304C61.3061 41.2518 60.9618 41.6994 60.5024 42.001C59.921 42.3235 59.2606 42.4759 58.5966 42.4408ZM58.5966 40.9503C58.8674 40.9709 59.1364 40.8928 59.3541 40.7304C59.5156 40.5707 59.6262 40.3666 59.6717 40.144C59.698 39.8596 59.698 39.5733 59.6717 39.2889V34.2067C59.6991 33.9305 59.6991 33.6522 59.6717 33.376C59.6262 33.1534 59.5156 32.9493 59.3541 32.7896C59.1331 32.6359 58.8644 32.5665 58.5966 32.5941C58.344 32.5646 58.0898 32.6347 57.8881 32.7896C57.7108 32.9406 57.5902 33.1474 57.546 33.376C57.5186 33.6522 57.5186 33.9305 57.546 34.2067V39.2889C57.5197 39.5733 57.5197 39.8596 57.546 40.144C57.5818 40.37 57.6939 40.577 57.8636 40.7304C58.0738 40.8891 58.3339 40.9672 58.5966 40.9503Z" fill="white"/>
<path d="M62.8726 42.294V31.2257H64.2897L66.9774 37.5295V31.2257H68.6388V42.294H67.295L64.6073 35.6726V42.294H62.8726Z" fill="white"/>
<path d="M72.6946 42.4408C72.1154 42.4657 71.5405 42.3305 71.0331 42.0498C70.5762 41.7877 70.2163 41.3849 70.0069 40.9015C69.768 40.3199 69.6436 39.6977 69.6404 39.069L71.3752 38.7269C71.3803 39.106 71.4295 39.4831 71.5218 39.8508C71.5851 40.1326 71.7197 40.3934 71.9127 40.6083C72.0053 40.7004 72.1163 40.7719 72.2384 40.8182C72.3604 40.8645 72.4909 40.8846 72.6213 40.877C72.7543 40.8887 72.8881 40.8681 73.0114 40.8171C73.1348 40.766 73.244 40.686 73.3299 40.5838C73.4628 40.3628 73.5306 40.1087 73.5253 39.8508C73.535 39.4297 73.4248 39.0145 73.2077 38.6536C72.9481 38.3139 72.6532 38.0027 72.3281 37.7251L70.9354 36.5035C70.5598 36.1887 70.2451 35.8078 70.0069 35.3795C69.7483 34.9088 69.6217 34.377 69.6404 33.8402C69.6193 33.4661 69.6781 33.0917 69.8129 32.742C69.9477 32.3923 70.1554 32.0754 70.4223 31.8123C70.896 31.4495 71.4558 31.2161 72.0469 31.1347C72.6379 31.0533 73.24 31.1268 73.7941 31.348C74.1192 31.4993 74.4038 31.7254 74.6248 32.0077C74.8278 32.2995 74.9844 32.6209 75.0891 32.9606C75.1836 33.3369 75.2409 33.7215 75.2601 34.109L73.5498 34.4022C73.5364 34.0897 73.4955 33.779 73.4276 33.4737C73.3932 33.2332 73.2817 33.0103 73.11 32.8385C73.02 32.7601 72.9153 32.7003 72.8021 32.6625C72.6889 32.6248 72.5693 32.6099 72.4503 32.6186C72.3215 32.6127 72.1931 32.6361 72.0746 32.6868C71.9562 32.7376 71.8507 32.8145 71.7661 32.9118C71.6059 33.1224 71.52 33.3801 71.5218 33.6448C71.5176 33.963 71.6022 34.276 71.7661 34.5488C71.9489 34.8313 72.1711 35.0864 72.4258 35.3062L73.8185 36.5035C74.2709 36.8963 74.6585 37.358 74.9669 37.8717C75.3131 38.4273 75.4834 39.0746 75.4556 39.7287C75.4736 40.2157 75.3551 40.6981 75.1135 41.1214C74.8886 41.5344 74.5492 41.8738 74.1362 42.0987C73.6921 42.3322 73.1963 42.4499 72.6946 42.4408Z" fill="white"/>
<path d="M79.2673 42.4406C78.6034 42.4757 77.9429 42.3233 77.3615 42.0008C76.9069 41.689 76.5711 41.2326 76.4086 40.7058C76.2296 40.0535 76.1473 39.3785 76.1643 38.7023V31.2257H78.119V38.9466C78.0939 39.2719 78.0939 39.5987 78.119 39.924C78.1537 40.1933 78.2638 40.4474 78.4366 40.657C78.5334 40.7586 78.6516 40.8376 78.7825 40.8883C78.9134 40.939 79.054 40.9601 79.194 40.9502C79.338 40.9639 79.4833 40.9446 79.6188 40.8938C79.7543 40.843 79.8764 40.762 79.9759 40.657C80.139 40.4416 80.2479 40.1902 80.2935 39.924C80.3186 39.5987 80.3186 39.2719 80.2935 38.9466V31.2257H82.2482V38.7023C82.2579 39.3797 82.1674 40.0549 81.9794 40.7058C81.8233 41.2291 81.4965 41.685 81.051 42.0008C80.5046 42.2995 79.8899 42.4511 79.2673 42.4406Z" fill="white"/>
<path d="M83.4453 42.294L83.6408 31.2257H85.8886L87.4524 38.8978L89.0894 31.2257H91.1174L91.3128 42.294H89.8224L89.6514 34.5975L88.0876 42.294H86.866L85.2778 34.5731L85.1068 42.294H83.4453Z" fill="white"/>
<path d="M92.3879 42.2941V31.2258H95.662C96.2226 31.2023 96.7793 31.3288 97.2746 31.5923C97.6933 31.8395 98.0195 32.2171 98.2031 32.6674C98.4116 33.2129 98.5112 33.7939 98.4963 34.3777C98.521 34.9775 98.395 35.5739 98.1298 36.1125C97.9006 36.5423 97.5292 36.8791 97.0791 37.0654C96.5899 37.2922 96.0543 37.401 95.5154 37.383H94.4403V42.2697L92.3879 42.2941ZM94.4159 35.9659H95.1733C95.4676 35.974 95.76 35.9155 96.0285 35.7948C96.13 35.7435 96.2195 35.6712 96.2911 35.5827C96.3627 35.4943 96.4148 35.3917 96.4439 35.2817C96.4912 34.974 96.4912 34.6609 96.4439 34.3533C96.4864 34.0289 96.4864 33.7003 96.4439 33.3759C96.4283 33.2642 96.3871 33.1575 96.3235 33.0643C96.26 32.971 96.1757 32.8937 96.0774 32.8384C95.7908 32.6917 95.4703 32.6243 95.1489 32.6429H94.3915L94.4159 35.9659Z" fill="white"/>
<path d="M100.28 42.294V32.7161H98.5208V31.2257H104.043V32.7161H102.308V42.294H100.28Z" fill="white"/>
<path d="M104.678 42.294V31.2257H106.681V42.294H104.678Z" fill="white"/>
<path d="M110.982 42.4408C110.334 42.4733 109.69 42.3208 109.125 42.001C108.661 41.7097 108.308 41.2708 108.123 40.7549C107.907 40.1262 107.799 39.4651 107.805 38.8002V34.671C107.797 34.0219 107.904 33.3765 108.123 32.7652C108.3 32.2513 108.655 31.8178 109.125 31.5435C109.706 31.2551 110.345 31.105 110.994 31.105C111.642 31.105 112.282 31.2551 112.863 31.5435C113.332 31.8178 113.688 32.2513 113.865 32.7652C114.097 33.373 114.205 34.0209 114.182 34.671V38.8247C114.201 39.4745 114.093 40.1217 113.865 40.7305C113.685 41.2554 113.332 41.7035 112.863 42.001C112.292 42.3266 111.638 42.4794 110.982 42.4408ZM110.982 40.9504C111.252 40.971 111.522 40.8928 111.739 40.7305C111.893 40.5648 112.002 40.3631 112.057 40.1441C112.083 39.8596 112.083 39.5733 112.057 39.2889V34.2068C112.084 33.9305 112.084 33.6523 112.057 33.376C112.002 33.157 111.893 32.9553 111.739 32.7896C111.518 32.6359 111.249 32.5665 110.982 32.5942C110.722 32.5703 110.462 32.6396 110.249 32.7896C110.087 32.9494 109.977 33.1534 109.931 33.376C109.904 33.6523 109.904 33.9305 109.931 34.2068V39.2889C109.905 39.5733 109.905 39.8596 109.931 40.1441C109.967 40.3701 110.079 40.577 110.249 40.7305C110.459 40.8892 110.719 40.9672 110.982 40.9504Z" fill="white"/>
<path d="M115.209 42.294V31.2257H116.601L119.314 37.5295V31.2257H120.975V42.294H119.631L116.968 35.6726V42.294H115.209Z" fill="white"/>
<path d="M48.0659 60.3503L50.2893 49.282H52.4395L54.6629 60.3503H52.7815L52.3417 57.907H50.4359L49.9717 60.3503H48.0659ZM50.6314 56.5143H52.1218L51.3888 51.872L50.6314 56.5143Z" fill="white"/>
<path d="M55.2981 60.3503V49.282H56.7152L59.4029 55.6103V49.282H61.0644V60.3503H59.7205L57.0084 53.7533V60.3503H55.2981Z" fill="white"/>
<path d="M62.335 60.3504V49.2821H64.9493C65.67 49.2557 66.3876 49.3892 67.0506 49.673C67.5395 49.8964 67.9242 50.2986 68.1257 50.7969C68.3605 51.4124 68.4686 52.0689 68.4433 52.7272V56.7831C68.4655 57.465 68.3577 58.145 68.1257 58.7866C67.9262 59.298 67.5428 59.7164 67.0506 59.9594C66.4167 60.2535 65.7204 60.3877 65.0226 60.3504H62.335ZM64.3385 58.9577H64.9738C65.3211 58.9871 65.6676 58.8918 65.9511 58.6889C66.0637 58.608 66.1556 58.5017 66.2193 58.3785C66.283 58.2554 66.3167 58.119 66.3176 57.9803C66.3467 57.5981 66.3467 57.2142 66.3176 56.832V52.605C66.3633 52.2481 66.3633 51.8868 66.3176 51.5299C66.3012 51.4057 66.2576 51.2866 66.1901 51.181C66.1225 51.0755 66.0326 50.9861 65.9267 50.9191C65.632 50.7704 65.3031 50.703 64.9738 50.7236H64.3629L64.3385 58.9577Z" fill="white"/>
<path d="M72.4258 60.3504V49.2821H75.6754C76.2382 49.266 76.795 49.401 77.288 49.673C77.705 49.9111 78.0315 50.2806 78.2165 50.7237C78.4232 51.2697 78.5227 51.8503 78.5097 52.434C78.5344 53.0338 78.4084 53.6302 78.1432 54.1688C77.9052 54.5888 77.5481 54.9289 77.117 55.1461C76.6215 55.3507 76.0891 55.4505 75.5532 55.4393H74.4537V60.326L72.4258 60.3504ZM74.4537 54.0222H75.2112C75.5322 54.0218 75.8462 53.9284 76.1152 53.7534C76.216 53.7073 76.3054 53.6396 76.3772 53.5552C76.4489 53.4708 76.5013 53.3716 76.5306 53.2647C76.6287 52.9571 76.6701 52.6342 76.6527 52.3118C76.6818 51.9867 76.6818 51.6596 76.6527 51.3345C76.5954 51.1122 76.4557 50.92 76.2618 50.797C75.9726 50.6598 75.6525 50.6009 75.3333 50.6259H74.5759L74.4537 54.0222Z" fill="white"/>
<path d="M79.1694 60.3503V49.282H81.8082C82.4458 49.2692 83.0812 49.3599 83.6896 49.5508C84.1861 49.7087 84.6103 50.0377 84.8868 50.4793C85.1667 51.0133 85.3015 51.6115 85.2778 52.214C85.319 52.612 85.319 53.0132 85.2778 53.4113C85.2155 53.7421 85.0729 54.0526 84.8624 54.3153C84.66 54.5887 84.3786 54.7934 84.0561 54.9017L85.5954 60.3503H83.4453L82.1014 55.2926H81.173V60.3503H79.1694ZM81.173 54.0221H81.8082C82.1259 54.026 82.4413 53.9679 82.7367 53.8511C82.8555 53.7965 82.9621 53.7186 83.0502 53.6221C83.1383 53.5255 83.2062 53.4123 83.2498 53.2891C83.3573 52.9833 83.407 52.6602 83.3964 52.3362C83.4341 51.8969 83.3221 51.4577 83.0788 51.0901C82.9326 50.9367 82.7528 50.8193 82.5535 50.7472C82.3542 50.6751 82.1409 50.6503 81.9304 50.6747H81.173V54.0221Z" fill="white"/>
<path d="M89.3582 60.497C88.7098 60.5322 88.065 60.3795 87.5013 60.0572C87.0371 59.7659 86.6843 59.327 86.4995 58.8111C86.2831 58.1908 86.1756 57.5378 86.1819 56.8808V52.7272C86.1755 52.0782 86.283 51.4332 86.4995 50.8214C86.6766 50.3074 87.032 49.874 87.5013 49.5997C88.065 49.2774 88.7098 49.1246 89.3582 49.1599C90.0147 49.1213 90.6683 49.2741 91.2396 49.5997C91.7089 49.874 92.0643 50.3074 92.2414 50.8214C92.4693 51.4302 92.5772 52.0774 92.559 52.7272V56.8808C92.5749 57.5385 92.4672 58.1932 92.2414 58.8111C92.0566 59.327 91.7038 59.7659 91.2396 60.0572C90.6683 60.3828 90.0147 60.5356 89.3582 60.497ZM89.3582 59.0065C89.629 59.0271 89.8981 58.949 90.1157 58.7866C90.2691 58.621 90.3784 58.4193 90.4333 58.2002C90.4585 57.9239 90.4585 57.6458 90.4333 57.3695V52.2629C90.4597 51.9867 90.4597 51.7085 90.4333 51.4322C90.3784 51.2132 90.2691 51.0115 90.1157 50.8458C89.89 50.7026 89.625 50.6342 89.3582 50.6503C89.0995 50.6377 88.8433 50.7061 88.6252 50.8458C88.4637 51.0056 88.3532 51.2096 88.3076 51.4322C88.2813 51.7085 88.2813 51.9867 88.3076 52.2629V57.3695C88.2824 57.6458 88.2824 57.9239 88.3076 58.2002C88.3434 58.4263 88.4555 58.6332 88.6252 58.7866C88.8354 58.9454 89.0955 59.0234 89.3582 59.0065Z" fill="white"/>
<path d="M93.634 60.3504V49.2821H96.2484C96.9691 49.2557 97.6867 49.3892 98.3497 49.673C98.8386 49.8964 99.2233 50.2986 99.4247 50.7969C99.6596 51.4124 99.7677 52.0689 99.7424 52.7272V56.7831C99.7646 57.465 99.6568 58.145 99.4247 58.7866C99.2274 59.2914 98.8543 59.7079 98.3741 59.9594C97.7307 60.2509 97.0272 60.3849 96.3217 60.3504H93.634ZM95.662 58.9577H96.2728C96.6274 58.9827 96.9802 58.8881 97.2746 58.6889C97.4852 58.5101 97.6168 58.2555 97.6411 57.9803C97.6411 57.6627 97.6411 57.2962 97.6411 56.832V52.605C97.6726 52.2473 97.6726 51.8876 97.6411 51.5299C97.616 51.4056 97.5663 51.2875 97.495 51.1826C97.4237 51.0777 97.3321 50.9881 97.2257 50.9191C96.9311 50.7704 96.6022 50.703 96.2728 50.7236H95.662V58.9577Z" fill="white"/>
<path d="M103.847 60.4969C103.183 60.5321 102.523 60.3797 101.941 60.0571C101.496 59.7414 101.169 59.2854 101.013 58.7622C100.825 58.1197 100.734 57.4525 100.744 56.7831V49.282H102.699V57.003C102.673 57.3282 102.673 57.655 102.699 57.9803C102.731 58.2239 102.833 58.4531 102.992 58.64C103.09 58.7403 103.208 58.8184 103.339 58.869C103.47 58.9196 103.61 58.9415 103.749 58.9332C103.894 58.9469 104.039 58.9276 104.174 58.8768C104.31 58.826 104.432 58.745 104.531 58.64C104.703 58.4298 104.813 58.176 104.849 57.907C104.875 57.5817 104.875 57.2549 104.849 56.9297V49.282H106.804V56.7831C106.814 57.4525 106.723 58.1197 106.535 58.7622C106.379 59.2854 106.052 59.7414 105.606 60.0571C105.067 60.3518 104.462 60.5032 103.847 60.4969Z" fill="white"/>
<path d="M111.128 60.4968C110.461 60.5405 109.795 60.3785 109.223 60.0326C108.754 59.7187 108.409 59.2526 108.245 58.7132C108.058 58.0955 107.968 57.4527 107.976 56.8074V52.8736C107.968 52.2043 108.059 51.5374 108.245 50.8945C108.419 50.3732 108.763 49.9255 109.223 49.624C109.8 49.2892 110.462 49.128 111.128 49.1598C111.746 49.1364 112.36 49.271 112.912 49.5507C113.339 49.8103 113.666 50.2063 113.84 50.6746C114.024 51.2174 114.115 51.7874 114.109 52.3605V53.289H112.179V52.3361C112.193 52.0512 112.193 51.7658 112.179 51.4809C112.155 51.2544 112.061 51.0409 111.91 50.8701C111.691 50.7199 111.431 50.6395 111.165 50.6395C110.899 50.6395 110.639 50.7199 110.42 50.8701C110.251 51.041 110.147 51.2658 110.127 51.5054C110.099 51.8061 110.099 52.1087 110.127 52.4094V57.2961C110.083 57.6204 110.083 57.9491 110.127 58.2734C110.142 58.3889 110.18 58.5002 110.239 58.6009C110.297 58.7016 110.376 58.7896 110.469 58.8598C110.665 59.0065 110.908 59.076 111.153 59.0553C111.417 59.0818 111.68 59.0028 111.886 58.8354C112.02 58.6481 112.105 58.4293 112.13 58.2001C112.157 57.8994 112.157 57.5968 112.13 57.2961V56.1966H114.06V57.1006C114.066 57.6897 113.976 58.2757 113.792 58.8354C113.638 59.3271 113.318 59.7503 112.888 60.0326C112.355 60.3468 111.746 60.5075 111.128 60.4968Z" fill="white"/>
<path d="M116.21 60.3503V50.7725H114.451V49.282H120.095V50.7725H118.361V60.3503H116.21Z" fill="white"/>
<path d="M120.633 60.3503V49.282H122.539V60.3503H120.633Z" fill="white"/>
<path d="M126.912 60.4968C126.264 60.5293 125.62 60.3768 125.055 60.057C124.591 59.7657 124.238 59.3269 124.053 58.8109C123.837 58.1907 123.73 57.5376 123.736 56.8807V52.727C123.729 52.0781 123.837 51.433 124.053 50.8212C124.231 50.3073 124.586 49.8739 125.055 49.5996C125.636 49.3111 126.276 49.161 126.924 49.161C127.573 49.161 128.213 49.3111 128.794 49.5996C129.263 49.8739 129.618 50.3073 129.795 50.8212C130.023 51.43 130.131 52.0772 130.113 52.727V56.8807C130.129 57.5383 130.021 58.1931 129.795 58.8109C129.611 59.3269 129.258 59.7657 128.794 60.057C128.222 60.3827 127.569 60.5355 126.912 60.4968ZM126.912 59.0064C127.183 59.027 127.452 58.9489 127.67 58.7865C127.823 58.6208 127.932 58.4191 127.987 58.2001C128.012 57.9237 128.012 57.6457 127.987 57.3694V52.2628C128.014 51.9865 128.014 51.7083 127.987 51.4321C127.932 51.213 127.823 51.0113 127.67 50.8457C127.444 50.7025 127.179 50.6341 126.912 50.6502C126.653 50.6376 126.397 50.7059 126.179 50.8457C126.018 51.0054 125.907 51.2095 125.862 51.4321C125.835 51.7083 125.835 51.9865 125.862 52.2628V57.3694C125.836 57.6457 125.836 57.9237 125.862 58.2001C125.897 58.4261 126.009 58.633 126.179 58.7865C126.389 58.9452 126.649 59.0232 126.912 59.0064Z" fill="white"/>
<path d="M131.188 60.3503V49.282H132.581L135.293 55.6103V49.282H136.954V60.3503H135.61L132.898 53.7533V60.3503H131.188Z" fill="white"/>
<path d="M114.867 78.6998C112.185 76.7013 109.129 75.2607 105.881 74.4634C102.633 73.666 99.2577 73.528 95.9552 74.0575H95.5887C91.826 74.9371 85.8154 76.5008 78.8031 85.1258V85.2724C78.7271 85.3706 78.6844 85.4904 78.6809 85.6145C78.6589 85.711 78.6589 85.8112 78.6809 85.9077L78.8519 86.1764C79.7315 87.6424 80.8555 89.5482 81.7839 91.283C81.8334 91.384 81.9097 91.4693 82.0046 91.5297C82.0994 91.59 82.2091 91.623 82.3215 91.6251C82.4752 91.6164 82.6216 91.5562 82.7368 91.454V91.2586C88.9673 82.658 93.854 81.4852 97.1525 80.7034H97.5678C102.15 80.1184 106.783 81.3071 110.517 84.0263C114.207 86.9339 116.064 91.5762 116.064 97.7823C116.064 108.191 111.006 112.271 106.755 113.859C102.49 115.26 97.8484 114.954 93.8051 113.004L93.5119 112.858C89.8958 111.294 84.496 107.971 79.4139 97.8067C69.1519 77.2094 60.5758 75.2548 54.9806 73.9842H54.6874C51.433 73.4581 48.1058 73.596 44.9062 74.3897C41.7065 75.1833 38.7005 76.6162 36.0692 78.6021C32.3798 81.5585 27.9818 87.2759 27.9818 97.8067C27.6729 103.252 29.3482 108.626 32.6974 112.931C35.3975 116.287 38.9889 118.815 43.0598 120.224C47.1308 121.633 51.5163 121.866 55.7136 120.896C59.006 120.197 62.097 118.76 64.7539 116.694L67.9302 119.723C68.0297 119.816 68.1607 119.868 68.2967 119.868C68.4328 119.868 68.5637 119.816 68.6632 119.723C68.7501 119.622 68.794 119.49 68.7854 119.357L71.2287 104.99V104.843C71.2228 104.696 71.1618 104.557 71.0577 104.453C71.0118 104.41 70.9579 104.378 70.8991 104.357C70.8403 104.336 70.7779 104.327 70.7156 104.33H70.4469L56.5687 108.093H56.3244C56.2234 108.117 56.1307 108.168 56.0556 108.24C55.9557 108.34 55.8996 108.477 55.8996 108.618C55.8996 108.76 55.9557 108.896 56.0556 108.997L56.2022 109.144L59.2808 111.929C57.7551 112.954 56.0462 113.676 54.2476 114.055C51.3488 114.765 48.3096 114.654 45.4701 113.735C42.6307 112.816 40.1031 111.125 38.1705 108.851C35.7455 105.75 34.5688 101.854 34.872 97.9289C34.872 91.6984 36.7045 87.0805 40.3206 84.1729C43.9847 81.4848 48.5439 80.3122 53.0503 80.8988H53.3435C58.0103 81.9495 64.3874 83.3422 73.159 101.032C77.728 110.194 83.4454 116.181 90.6288 119.332C94.0491 120.954 97.7895 121.789 101.575 121.776C104.175 121.782 106.756 121.327 109.198 120.432C113.352 118.868 123.052 113.542 123.052 97.8067C123.052 87.2759 118.58 81.5341 114.842 78.5777" fill="white"/>
</g>
<g style="mix-blend-mode:color">
<rect x="1" width="152" height="152" fill="#272727"/>
</g>
</svg>
