<svg width="66" height="60" viewBox="0 0 66 60" fill="none" xmlns="http://www.w3.org/2000/svg">
<path d="M14.2918 59.3905C14 59.2081 13.9177 58.9412 13.9257 58.6057C13.9443 57.7284 13.9151 56.8484 13.939 55.9711C13.9496 55.617 13.8488 55.5113 13.4854 55.514C9.90979 55.5272 6.33419 55.5219 2.75595 55.5219C2.14321 55.5219 2.01589 55.3951 2.01589 54.7873C2.01589 44.4737 2.01324 34.1575 2.0212 23.8439C2.0212 23.4951 1.93897 23.2758 1.63128 23.0591C0.135254 21.9995 0.27849 19.7428 1.88592 18.884C2.13525 18.7492 2.44825 18.6673 2.73207 18.6673C6.30767 18.6541 9.88326 18.6515 13.4615 18.6673C13.8355 18.67 13.9443 18.5775 13.9416 18.197C13.9231 16.2072 13.9257 14.2148 13.939 12.2223C13.9416 11.9502 13.8541 11.8154 13.6127 11.6859C12.4642 11.0781 11.8992 9.92867 12.0716 8.61272C12.2148 7.52138 13.1034 6.53573 14.2201 6.25035C14.3846 6.20807 14.5623 6.1975 14.7347 6.1975C18.1618 6.19485 21.5888 6.18957 25.0159 6.20278C25.3448 6.20542 25.488 6.09444 25.6154 5.80377C26.931 2.76493 29.9894 0.788356 33.2626 0.954832C36.5994 1.12395 38.9735 2.79135 40.4032 5.79056C40.5464 6.08915 40.687 6.20542 41.0292 6.20278C44.3819 6.18693 47.7347 6.20542 51.0875 6.18693C52.3262 6.18164 53.175 6.77091 53.6923 7.8279C54.2254 8.91396 54.0849 9.98416 53.3209 10.9196C53.0557 11.2446 52.6525 11.4587 52.3262 11.7361C52.2281 11.8207 52.1087 11.9528 52.1061 12.0638C52.0928 14.1778 52.0981 16.2944 52.1008 18.4084C52.1008 18.4797 52.13 18.5511 52.1512 18.6515C52.3156 18.6515 52.4774 18.6515 52.6366 18.6515C56.1379 18.6515 59.6392 18.6858 63.1406 18.6303C64.1883 18.6145 65.3024 19.6424 65.3952 20.6967C65.4907 21.7669 65.122 22.6046 64.2042 23.1992C64.1008 23.2652 64.0398 23.4211 64.0026 23.548C63.9682 23.6616 63.9947 23.7937 63.9947 23.9179C63.9947 34.1205 63.9947 44.3231 63.9947 54.5283C63.9947 54.6525 63.9973 54.7767 63.9947 54.8983C63.9867 55.366 63.8382 55.514 63.366 55.5166C61.5411 55.5192 59.7162 55.5166 57.8912 55.5166C56.1273 55.5166 54.366 55.5166 52.6021 55.5166C52.4536 55.5166 52.3077 55.5166 52.1273 55.5166C52.1167 55.6936 52.1008 55.839 52.0981 55.9817C52.0955 56.8484 52.0875 57.7125 52.1008 58.5792C52.1061 58.928 52.0292 59.2108 51.7029 59.3852C39.2308 59.3905 26.7612 59.3905 14.2918 59.3905ZM51.114 58.3441C51.114 58.1855 51.114 58.0639 51.114 57.9424C51.114 42.7667 51.114 27.5883 51.122 12.4126C51.122 12.0664 51.0451 11.9475 50.6764 11.9475C47.4483 11.9607 44.2201 11.9607 40.9894 11.9502C40.6949 11.9502 40.5544 12.0374 40.4376 12.3095C39.0106 15.6496 35.6339 17.6183 32.0106 17.1505C28.9841 16.7621 26.87 15.0815 25.5994 12.3439C25.4615 12.0479 25.3156 11.9475 24.9947 11.9502C21.7772 11.9607 18.5623 11.9581 15.3448 11.9581C15.2148 11.9581 15.0822 11.9713 14.9416 11.9792C14.9416 27.4588 14.9416 42.8988 14.9416 58.3705C15.1087 58.3705 15.244 58.3705 15.3793 58.3705C18.5597 58.3705 21.7374 58.3705 24.9177 58.3705C25.3952 58.3705 25.3952 58.3705 25.3952 57.8816C25.3952 53.5163 25.3952 49.1482 25.3952 44.7829C25.3952 44.1117 25.4774 44.0271 26.1406 44.0271C30.7241 44.0271 35.305 44.0271 39.8886 44.0271C40.5278 44.0271 40.6392 44.1408 40.6392 44.7882C40.6392 49.143 40.6392 53.4951 40.6392 57.8499C40.6392 58.0085 40.6392 58.1644 40.6392 58.3467C44.1379 58.344 47.5968 58.3441 51.114 58.3441ZM52.1193 23.4608C52.1087 23.6352 52.0928 23.7673 52.0928 23.9021C52.0928 33.9805 52.0928 44.0562 52.0849 54.1346C52.0849 54.4702 52.1777 54.5732 52.5252 54.5732C55.878 54.56 59.2281 54.56 62.5809 54.5732C62.9363 54.5732 63.0424 54.4808 63.0424 54.1187C63.0318 44.0403 63.0345 33.9646 63.0424 23.8862C63.0424 23.54 62.939 23.4528 62.6021 23.4555C59.2387 23.4661 55.8727 23.4634 52.5093 23.4634C52.3899 23.4608 52.2679 23.4608 52.1193 23.4608ZM3.01854 23.4608C3.00793 23.6246 2.98937 23.7567 2.98937 23.8889C2.98937 33.9672 2.98937 44.043 2.98141 54.1214C2.98141 54.486 3.09812 54.5732 3.44825 54.5706C6.78777 54.5574 10.1273 54.5574 13.4668 54.5706C13.8514 54.5732 13.9416 54.4596 13.9416 54.0897C13.931 44.0377 13.931 33.9831 13.9416 23.9311C13.9416 23.5718 13.87 23.4449 13.4748 23.4476C10.1353 23.4661 6.79573 23.4581 3.45621 23.4581C3.31828 23.4608 3.18565 23.4608 3.01854 23.4608ZM25.8647 9.08836C25.8727 13.0415 29.0981 16.2785 33.0185 16.2706C36.9363 16.26 40.1936 12.9887 40.1565 9.07251C40.1167 4.85248 36.6127 1.85327 32.87 1.91933C29.0583 1.98275 25.8567 5.20393 25.8647 9.08836ZM39.6498 58.352C39.6605 58.1961 39.6737 58.0877 39.6737 57.9767C39.6737 53.7858 39.6711 49.5922 39.6817 45.4012C39.6817 45.0656 39.565 44.9864 39.2493 44.989C37.4748 45.0022 35.6976 45.0022 33.9231 44.989C33.6101 44.9864 33.4907 45.0603 33.4907 45.3986C33.5013 49.5895 33.5013 53.7831 33.4907 57.9741C33.4907 58.278 33.5703 58.3758 33.8833 58.3731C35.6843 58.3599 37.4827 58.3652 39.2838 58.3652C39.3952 58.3678 39.5066 58.3599 39.6498 58.352ZM32.496 58.352C32.5066 58.2225 32.5225 58.1379 32.5225 58.0534C32.5225 53.8254 32.5225 49.5948 32.5278 45.3669C32.5278 45.0683 32.4164 44.9916 32.1353 44.9916C30.3342 45.0022 28.5358 45.0022 26.7347 44.989C26.4164 44.9864 26.3395 45.1 26.3395 45.3986C26.3475 49.5895 26.3475 53.7831 26.3395 57.9741C26.3395 58.2753 26.4138 58.3758 26.7321 58.3731C28.5331 58.3599 30.3315 58.3652 32.1326 58.3652C32.2414 58.3678 32.3528 58.3599 32.496 58.352ZM25.1246 7.20956C24.9522 7.19635 24.8435 7.18314 24.7347 7.18314C21.4085 7.18314 18.0822 7.1805 14.7559 7.18314C13.817 7.18314 13.0053 8.07101 13.0026 9.08308C13 10.1084 13.8223 10.9962 14.7825 10.9989C18.0849 11.0015 21.3846 10.9989 24.687 10.9989C24.817 10.9989 24.9469 10.9804 25.1246 10.9672C24.8329 9.70142 24.8302 8.47795 25.1246 7.20956ZM40.8992 10.9724C41.0822 10.983 41.191 10.9962 41.2997 10.9962C44.6127 10.9962 47.9257 10.9989 51.2387 10.9962C52.1936 10.9962 53.0292 10.0899 53.0212 9.07779C53.0132 8.04723 52.1963 7.1805 51.2254 7.1805C47.9257 7.17785 44.626 7.1805 41.3262 7.1805C41.1963 7.1805 41.0663 7.19371 40.9018 7.20428C41.183 8.47795 41.1777 9.70406 40.8992 10.9724ZM52.0928 22.4408C52.252 22.4513 52.3475 22.4646 52.4456 22.4646C56.0345 22.4646 59.6207 22.4672 63.2095 22.4646C63.3315 22.4646 63.4615 22.4566 63.5756 22.4144C64.1591 22.1977 64.5544 21.4525 64.443 20.8024C64.3262 20.1207 63.7506 19.616 63.0822 19.616C61.679 19.6133 60.2758 19.616 58.8727 19.616C56.7613 19.616 54.6525 19.6239 52.5411 19.608C52.175 19.6054 52.0636 19.719 52.0875 20.0705C52.114 20.4642 52.0928 20.8606 52.0928 21.257C52.0928 21.6454 52.0928 22.0365 52.0928 22.4408ZM8.16974 22.4672C9.94427 22.4672 11.7188 22.4566 13.4907 22.4751C13.8567 22.4778 13.9549 22.3641 13.939 22.0153C13.9124 21.3626 13.9151 20.7047 13.939 20.052C13.9522 19.7137 13.8514 19.608 13.504 19.6107C9.96815 19.6239 6.43234 19.616 2.89653 19.6186C2.16443 19.6186 1.5517 20.2898 1.55966 21.0667C1.57027 21.8515 2.14852 22.4672 2.88327 22.4672C4.64454 22.4672 6.40581 22.4672 8.16974 22.4672Z" fill="#3A3A3A"/>
<path d="M16.3156 27.2923C16.3156 24.6578 16.3156 22.0232 16.3156 19.3887C16.3156 18.7862 16.4482 18.6567 17.061 18.6567C21.6551 18.6567 26.252 18.6567 30.8461 18.6567C31.4588 18.6567 31.5782 18.7757 31.5782 19.3966C31.5782 24.6525 31.5782 29.911 31.5782 35.1669C31.5782 35.7826 31.4588 35.9015 30.8382 35.9015C26.244 35.9015 21.6472 35.9015 17.053 35.9015C16.4376 35.9015 16.3183 35.78 16.3156 35.1563C16.3156 32.5376 16.3156 29.9137 16.3156 27.2923ZM23.4695 23.2388C23.4695 22.1527 23.4615 21.064 23.4748 19.978C23.4774 19.7084 23.4005 19.608 23.1167 19.6107C21.2944 19.6212 19.4695 19.6212 17.6472 19.6107C17.3607 19.608 17.2891 19.7164 17.2891 19.978C17.297 22.1289 17.297 24.2773 17.2891 26.4283C17.2891 26.7031 17.3554 26.8193 17.6631 26.8167C19.4748 26.8035 21.2838 26.8035 23.0955 26.8167C23.3952 26.8193 23.4774 26.7163 23.4721 26.4309C23.4615 25.3633 23.4695 24.3011 23.4695 23.2388ZM30.6233 23.2414C30.6233 22.1792 30.6127 21.1169 30.6313 20.0546C30.6366 19.7243 30.5543 19.6054 30.1989 19.608C28.4138 19.6265 26.626 19.6239 24.8408 19.608C24.5119 19.6054 24.4191 19.7084 24.4191 20.0308C24.4323 22.1554 24.4297 24.2799 24.4191 26.4045C24.4164 26.7031 24.4986 26.8141 24.8169 26.8114C26.6286 26.7982 28.4376 26.8008 30.2493 26.8114C30.5464 26.8141 30.6313 26.7136 30.6286 26.4256C30.6153 25.366 30.6233 24.3037 30.6233 23.2414ZM30.5941 34.8921C30.6074 34.8049 30.6207 34.7573 30.6207 34.7098C30.6233 32.4954 30.618 30.281 30.6286 28.0666C30.6313 27.7706 30.4748 27.7601 30.2546 27.7627C28.4403 27.768 26.6286 27.7706 24.8143 27.7601C24.5331 27.7574 24.4191 27.8235 24.4217 28.1274C24.4323 30.2783 24.4297 32.4319 24.4244 34.5829C24.4244 34.8392 24.5039 34.9212 24.7665 34.9212C26.618 34.9106 28.4668 34.9159 30.3183 34.9159C30.3978 34.9159 30.4827 34.9027 30.5941 34.8921ZM17.3236 27.7653C17.3236 30.1753 17.3236 32.5324 17.3236 34.8842C19.3819 34.8842 21.4111 34.8842 23.4403 34.8842C23.4509 34.8049 23.4642 34.7573 23.4642 34.7071C23.4668 32.4927 23.4642 30.2783 23.4721 28.0666C23.4721 27.8103 23.3607 27.7601 23.1352 27.7627C21.8196 27.7706 20.5039 27.7653 19.1856 27.7653C18.5809 27.7653 17.9734 27.7653 17.3236 27.7653Z" fill="#3A3A3A"/>
<path d="M34.4297 27.2553C34.4297 24.634 34.4297 22.01 34.4297 19.3887C34.4297 18.7862 34.5597 18.6567 35.175 18.6567C39.7692 18.6567 44.366 18.6567 48.9602 18.6567C49.5703 18.6567 49.7055 18.7862 49.7055 19.3966C49.7082 24.6525 49.7082 29.911 49.7055 35.1669C49.7055 35.7747 49.5676 35.9015 48.9522 35.9015C44.3687 35.9015 39.7878 35.9015 35.2042 35.9015C34.5437 35.9015 34.4297 35.7879 34.4297 35.1193C34.4297 32.5007 34.4297 29.8767 34.4297 27.2553ZM48.7294 23.2097C48.7294 22.1474 48.7215 21.0852 48.7347 20.0229C48.7374 19.7322 48.6737 19.6054 48.3475 19.608C46.5358 19.6212 44.7268 19.6212 42.9151 19.608C42.6366 19.6054 42.549 19.6979 42.5517 19.9674C42.5597 22.1289 42.5597 24.2905 42.5517 26.4547C42.5517 26.7295 42.6445 26.8141 42.9178 26.8114C44.7294 26.8008 46.5384 26.8008 48.3501 26.8114C48.6392 26.8141 48.74 26.7295 48.7347 26.4335C48.7188 25.3581 48.7294 24.2852 48.7294 23.2097ZM41.5835 23.2494C41.5835 22.1739 41.5756 21.0984 41.5888 20.0229C41.5915 19.7322 41.5278 19.6054 41.2016 19.608C39.3899 19.6212 37.5782 19.6186 35.7666 19.6107C35.4933 19.608 35.3979 19.6899 35.3979 19.9674C35.4058 22.1316 35.4058 24.2931 35.3979 26.4573C35.3979 26.7321 35.4907 26.8167 35.7666 26.8141C37.5782 26.8035 39.3899 26.8008 41.2016 26.8141C41.5278 26.8167 41.5941 26.6925 41.5888 26.4018C41.5756 25.3501 41.5835 24.2984 41.5835 23.2494ZM41.557 34.8974C41.5676 34.7943 41.5809 34.7335 41.5809 34.6754C41.5809 32.4769 41.5782 30.2757 41.5888 28.0772C41.5888 27.7918 41.4562 27.7627 41.2254 27.7627C39.4005 27.768 37.5782 27.7653 35.7533 27.768C35.6552 27.768 35.5597 27.7812 35.4376 27.7891C35.4376 30.1674 35.4376 32.5297 35.4376 34.9027C37.488 34.8974 39.5066 34.8974 41.557 34.8974ZM42.5835 34.8842C44.6419 34.8842 46.6684 34.8842 48.7002 34.8842C48.7109 34.8049 48.7241 34.7573 48.7241 34.7098C48.7268 32.4954 48.7215 30.281 48.7321 28.0692C48.7347 27.7733 48.5809 27.7627 48.3581 27.7627C46.5331 27.768 44.7082 27.7653 42.8833 27.7653C42.7878 27.7653 42.6949 27.7838 42.5835 27.7971C42.5835 30.1753 42.5835 32.5297 42.5835 34.8842Z" fill="#3A3A3A"/>
<path d="M53.9841 37.3285C53.9841 33.6079 53.9841 29.8873 53.9841 26.1641C53.9841 25.4401 54.0822 25.3423 54.7931 25.3423C56.6684 25.3423 58.5411 25.3423 60.4165 25.3423C60.9841 25.3423 61.1432 25.4982 61.1432 26.069C61.1432 33.5736 61.1432 41.0782 61.1432 48.5802C61.1432 49.1642 61.0106 49.2963 60.4165 49.2963C58.504 49.2989 56.5942 49.2989 54.6817 49.2963C54.0955 49.2963 53.9841 49.1853 53.9841 48.5987C53.9814 44.8437 53.9841 41.0861 53.9841 37.3285ZM60.1406 26.3676C60.0504 26.3517 59.9894 26.3332 59.9284 26.3332C58.3661 26.3306 56.8037 26.3359 55.2414 26.3253C54.9761 26.3226 54.939 26.4442 54.9417 26.6635C54.947 28.0112 54.9549 29.3562 54.9364 30.7039C54.931 31.0342 55.0398 31.124 55.3607 31.1187C56.8249 31.1029 58.2891 31.1029 59.7507 31.1187C60.0822 31.1214 60.1751 31.0183 60.1724 30.6959C60.1565 29.3747 60.1671 28.0535 60.1645 26.7296C60.1671 26.6107 60.1512 26.4918 60.1406 26.3676ZM54.9682 43.5833C54.9602 43.7233 54.947 43.8317 54.947 43.94C54.9443 45.2745 54.9576 46.6115 54.939 47.946C54.9337 48.2922 55.0584 48.3529 55.3714 48.3503C56.8223 48.3371 58.2759 48.3292 59.7268 48.3529C60.1035 48.3582 60.1804 48.2287 60.1777 47.8879C60.1618 46.5904 60.1724 45.293 60.1698 43.9929C60.1698 43.8607 60.1539 43.7286 60.1459 43.5833C58.4085 43.5833 56.7109 43.5833 54.9682 43.5833ZM57.5623 36.8397C58.3077 36.8397 59.0531 36.8291 59.7984 36.845C60.0663 36.8503 60.1751 36.7789 60.1724 36.4962C60.1618 35.1353 60.1618 33.7744 60.1724 32.4162C60.1751 32.1334 60.0663 32.0647 59.7984 32.0674C58.2971 32.0779 56.7931 32.0779 55.2918 32.0674C55.0425 32.0647 54.939 32.1282 54.9417 32.3977C54.9523 33.7691 54.9523 35.1432 54.9417 36.5173C54.939 36.7868 55.0425 36.8503 55.2918 36.8476C56.0478 36.8318 56.8064 36.8397 57.5623 36.8397ZM60.1379 37.857C60.0106 37.8491 59.9019 37.8359 59.7931 37.8333C58.3024 37.8306 56.8143 37.8412 55.3236 37.8253C54.9974 37.8227 54.9363 37.9416 54.939 38.2349C54.9523 39.5456 54.9549 40.8562 54.9364 42.1669C54.931 42.4866 55.0133 42.5897 55.3475 42.5871C56.8117 42.5686 58.2759 42.5791 59.7427 42.5791C59.8647 42.5791 59.9841 42.5791 60.1353 42.5791C60.1379 40.9831 60.1379 39.4346 60.1379 37.857Z" fill="#3A3A3A"/>
<path d="M12.0371 37.3523C12.0371 41.0729 12.0371 44.7961 12.0371 48.5167C12.0371 49.2011 11.9416 49.2989 11.2732 49.2989C9.38727 49.2989 7.49868 49.2989 5.61274 49.2989C4.99205 49.2989 4.87799 49.1879 4.87799 48.5564C4.87799 41.0755 4.87799 33.5973 4.87799 26.1165C4.87799 25.4664 5.01062 25.3396 5.66579 25.3396C7.54112 25.3396 9.4138 25.3396 11.2891 25.3396C11.8966 25.3396 12.0371 25.477 12.0371 26.0742C12.0371 29.8371 12.0371 33.5947 12.0371 37.3523ZM8.45889 36.8396C9.21486 36.8396 9.97348 36.8291 10.7294 36.8449C11.008 36.8502 11.0955 36.7604 11.0928 36.4855C11.0822 35.1273 11.0849 33.7691 11.0928 32.4082C11.0955 32.1545 11.0159 32.062 10.7507 32.0647C9.22547 32.0753 7.70027 32.0726 6.17507 32.0647C5.93104 32.0647 5.85147 32.1466 5.85147 32.3871C5.85942 33.7585 5.86207 35.13 5.84881 36.5014C5.84616 36.7947 5.96552 36.8502 6.22547 36.8449C6.96817 36.8317 7.71353 36.8396 8.45889 36.8396ZM11.0875 43.5991C10.9655 43.5832 10.9072 43.5674 10.8462 43.5674C9.28383 43.5647 7.72149 43.5727 6.15916 43.5594C5.86207 43.5568 5.84881 43.7021 5.84881 43.9241C5.85412 45.2691 5.85677 46.6168 5.84616 47.9618C5.84351 48.2419 5.91247 48.3529 6.22017 48.3476C7.71884 48.3318 9.22016 48.3318 10.7188 48.3476C11.0318 48.3503 11.0928 48.2287 11.0902 47.9565C11.0796 47.0052 11.0849 46.0539 11.0849 45.1053C11.0875 44.6138 11.0875 44.1223 11.0875 43.5991ZM8.47481 26.3305C7.71884 26.3305 6.96022 26.3385 6.20425 26.3252C5.96022 26.3226 5.84881 26.3807 5.85147 26.6529C5.86208 28.0244 5.86208 29.3958 5.85147 30.7699C5.84881 31.0262 5.93369 31.116 6.19364 31.116C7.70823 31.1081 9.22282 31.1081 10.7348 31.116C10.9814 31.116 11.0928 31.0473 11.0928 30.7804C11.0849 29.409 11.0849 28.0376 11.0928 26.6635C11.0955 26.4045 11.0027 26.32 10.7454 26.3252C9.98674 26.3385 9.23078 26.3305 8.47481 26.3305ZM8.45889 37.8332C7.70292 37.8332 6.94696 37.8385 6.19099 37.8306C5.96818 37.8279 5.84881 37.8728 5.85147 38.1345C5.86208 39.5165 5.85942 40.9011 5.85147 42.2831C5.85147 42.5077 5.93104 42.5844 6.15651 42.5817C7.69497 42.5764 9.23078 42.5738 10.7692 42.5817C11.0133 42.5817 11.0955 42.4972 11.0928 42.2594C11.0849 40.8879 11.0849 39.5191 11.0928 38.1477C11.0928 37.9046 11.0053 37.8253 10.7666 37.8279C9.9947 37.8411 9.22547 37.8332 8.45889 37.8332Z" fill="#3A3A3A"/>
<path d="M30.9575 7.00346C30.9575 6.62558 30.9575 6.28206 30.9575 5.94118C30.9575 5.43383 30.9522 4.92647 30.9602 4.42176C30.9681 3.96197 31.1114 3.81664 31.5597 3.81399C32.5278 3.81135 33.496 3.81135 34.4642 3.81399C34.9231 3.81664 35.0769 3.97518 35.0796 4.44819C35.0849 5.17751 35.0928 5.90683 35.0743 6.63615C35.0663 6.93211 35.1724 7.01667 35.4615 7.00874C36.1936 6.99024 36.9257 7.00082 37.6578 7.00346C38.0796 7.0061 38.2546 7.16201 38.2599 7.57687C38.2705 8.56516 38.2705 9.55609 38.2599 10.5444C38.2573 10.983 38.0849 11.1442 37.6445 11.1495C36.9496 11.1574 36.2546 11.1521 35.5597 11.1521C35.0796 11.1521 35.0796 11.1548 35.0769 11.6489C35.0769 12.3413 35.0796 13.0336 35.0743 13.7259C35.0716 14.1778 34.9178 14.3258 34.4721 14.3284C33.5172 14.331 32.5597 14.331 31.6048 14.3284C31.0796 14.3284 30.9575 14.2068 30.9549 13.6651C30.9522 12.9596 30.9416 12.2567 30.9602 11.5512C30.9681 11.2499 30.8753 11.1363 30.5597 11.1469C29.8647 11.168 29.1697 11.1548 28.4748 11.1521C27.9124 11.1495 27.7904 11.0279 27.7878 10.4836C27.7878 9.54287 27.7878 8.6048 27.7878 7.66408C27.7878 7.13294 27.9178 7.00346 28.4376 7.00346C29.2599 7.00346 30.0769 7.00346 30.9575 7.00346ZM34.1247 11.9132C34.1247 11.567 34.1247 11.2208 34.1247 10.8747C34.1247 10.3145 34.252 10.185 34.8302 10.1824C35.5252 10.1797 36.2201 10.1691 36.9151 10.1876C37.2148 10.1956 37.305 10.0846 37.2971 9.80184C37.2811 9.30769 37.2811 8.81355 37.2971 8.31941C37.305 8.04459 37.2069 7.95211 36.9284 7.95739C36.2095 7.97325 35.488 7.96532 34.7692 7.96267C34.2626 7.96003 34.1273 7.82791 34.1247 7.32848C34.122 6.59916 34.114 5.86984 34.1273 5.14051C34.1326 4.87891 34.0663 4.75471 33.7772 4.76793C33.2679 4.78642 32.7586 4.78378 32.252 4.76793C31.9867 4.76 31.9124 4.8657 31.9151 5.11673C31.9284 5.85927 31.9231 6.59916 31.9178 7.34169C31.9151 7.80677 31.7586 7.96003 31.2891 7.96267C30.557 7.96796 29.8249 7.9706 29.0928 7.96003C28.8382 7.95475 28.7347 8.03931 28.7427 8.30091C28.7559 8.79505 28.7613 9.2892 28.74 9.78334C28.7294 10.0846 28.8249 10.1982 29.1379 10.1903C29.8435 10.1718 30.5517 10.1797 31.2599 10.185C31.7666 10.1903 31.9151 10.3435 31.9178 10.8588C31.9204 11.5881 31.9257 12.3175 31.9151 13.0468C31.9124 13.2793 31.9788 13.385 32.2308 13.3797C32.7506 13.3665 33.2732 13.3692 33.7931 13.3797C34.0239 13.385 34.1353 13.3163 34.1273 13.0653C34.114 12.6795 34.1247 12.2963 34.1247 11.9132Z" fill="#A71E22"/>
<path d="M36.5331 53.1383C36.2361 53.1383 35.939 53.1463 35.6392 53.1357C35.3156 53.1251 35.0928 52.9216 35.1061 52.6415C35.122 52.3324 35.3103 52.1633 35.6101 52.158C36.2175 52.1448 36.8249 52.1448 37.4324 52.1553C37.7427 52.1606 37.9549 52.3139 37.9629 52.6495C37.9682 52.9375 37.7613 53.1251 37.4244 53.133C37.1273 53.1463 36.8302 53.1383 36.5331 53.1383Z" fill="#3A3A3A"/>
<path d="M29.4801 53.1384C29.1698 53.1384 28.8621 53.1463 28.5517 53.1357C28.244 53.1251 28.069 52.956 28.0637 52.6469C28.0583 52.3509 28.2361 52.1712 28.5172 52.1633C29.1591 52.1448 29.8037 52.1448 30.4483 52.1633C30.7294 52.1712 30.9072 52.3509 30.9018 52.6469C30.8965 52.9587 30.7109 53.1199 30.4085 53.1331C30.0981 53.1489 29.7904 53.1384 29.4801 53.1384Z" fill="#3A3A3A"/>
</svg>
